<svg xmlns="http://www.w3.org/2000/svg" xmlns:xlink="http://www.w3.org/1999/xlink" width="500" zoomAndPan="magnify" viewBox="0 0 375 374.999991" height="500" preserveAspectRatio="xMidYMid meet" version="1.0"><defs><clipPath id="53b5d2ed38"><path d="M 70.429688 17 L 304.429688 17 L 304.429688 207 L 70.429688 207 Z M 70.429688 17 " clip-rule="nonzero"/></clipPath></defs><path fill="#ffffff" d="M 72.003906 141.15625 C 75.015625 126.078125 74.308594 104.011719 80.027344 92.5625 C 81.132812 90.351562 91.113281 70.375 95.546875 65.941406 C 97.980469 63.507812 104.367188 54.15625 104.410156 54.113281 C 127.042969 31.460938 135.796875 33.597656 144.3125 29.335938 C 162.316406 20.332031 180.914062 21.042969 190.515625 19.082031 C 200.40625 21.703125 218.832031 23.917969 225.964844 27.488281 C 250.21875 39.625 250.898438 38.398438 252.5625 40.0625 C 268.449219 55.960938 270.539062 53.488281 271.402344 55.222656 C 273.621094 59.660156 277.082031 63.128906 277.683594 63.726562 C 278.902344 64.945312 280.148438 65.933594 281.40625 66.722656 C 282.695312 73.972656 289.425781 78.207031 291.71875 87.386719 C 294.492188 98.476562 295.773438 98.039062 297.625 109.203125 C 298.628906 115.203125 303.367188 115.507812 296.960938 163.886719 C 289.46875 175.914062 286.539062 189.445312 279.15625 196.828125 C 270.542969 205.449219 272.125 206.449219 271.398438 207.179688 C 261.210938 217.375 260.816406 216.660156 259.945312 217.53125 C 245.785156 231.703125 240.414062 245.214844 239.992188 245.628906 C 236.546875 249.078125 236.632812 264.863281 237.863281 273.449219 L 137.246094 273.449219 C 140.746094 257.957031 127.550781 233.660156 127.308594 233.425781 C 120.007812 226.121094 122.371094 224.414062 115.121094 217.15625 C 76.835938 178.84375 82.335938 174.832031 78.546875 167.246094 C 75.1875 160.527344 73.75 149.335938 71.996094 141.15625 Z M 72.003906 141.15625 " fill-opacity="1" fill-rule="evenodd"/><path fill="#034173" d="M 245.09375 273.730469 L 245.09375 289.703125 C 245.09375 294.113281 241.515625 297.691406 237.113281 297.691406 L 137.6875 297.691406 C 133.285156 297.691406 129.707031 294.113281 129.707031 289.703125 L 129.707031 273.730469 C 129.707031 269.324219 133.285156 265.742188 137.6875 265.742188 L 237.113281 265.742188 C 241.515625 265.742188 245.09375 269.324219 245.09375 273.730469 Z M 245.09375 273.730469 " fill-opacity="1" fill-rule="evenodd"/><path fill="#034173" d="M 247.472656 273.730469 L 247.472656 289.703125 C 247.472656 295.425781 242.832031 300.070312 237.117188 300.070312 L 137.691406 300.070312 C 131.976562 300.070312 127.335938 295.425781 127.335938 289.703125 L 127.335938 273.730469 C 127.335938 268.011719 131.976562 263.367188 137.691406 263.367188 L 237.117188 263.367188 C 242.832031 263.367188 247.472656 268.011719 247.472656 273.730469 Z M 242.726562 273.730469 C 242.726562 270.632812 240.210938 268.117188 237.117188 268.117188 L 137.691406 268.117188 C 134.597656 268.117188 132.082031 270.632812 132.082031 273.730469 L 132.082031 289.703125 C 132.082031 292.804688 134.597656 295.320312 137.691406 295.320312 L 237.117188 295.320312 C 240.210938 295.320312 242.726562 292.804688 242.726562 289.703125 Z M 242.726562 273.730469 " fill-opacity="1" fill-rule="evenodd"/><path fill="#034173" d="M 245.09375 305.691406 L 245.09375 321.667969 C 245.09375 326.074219 241.515625 329.652344 237.113281 329.652344 L 137.6875 329.652344 C 133.285156 329.652344 129.707031 326.074219 129.707031 321.667969 L 129.707031 305.691406 C 129.707031 301.285156 133.285156 297.707031 137.6875 297.707031 L 237.113281 297.707031 C 241.515625 297.707031 245.09375 301.285156 245.09375 305.691406 Z M 245.09375 305.691406 " fill-opacity="1" fill-rule="evenodd"/><path fill="#034173" d="M 247.472656 305.691406 L 247.472656 321.667969 C 247.472656 327.386719 242.832031 332.03125 237.117188 332.03125 L 137.691406 332.03125 C 131.976562 332.03125 127.335938 327.386719 127.335938 321.667969 L 127.335938 305.691406 C 127.335938 299.972656 131.976562 295.328125 137.691406 295.328125 L 237.117188 295.328125 C 242.832031 295.328125 247.472656 299.972656 247.472656 305.691406 Z M 242.726562 305.691406 C 242.726562 302.59375 240.210938 300.082031 237.117188 300.082031 L 137.691406 300.082031 C 134.597656 300.082031 132.082031 302.597656 132.082031 305.691406 L 132.082031 321.667969 C 132.082031 324.765625 134.597656 327.28125 137.691406 327.28125 L 237.117188 327.28125 C 240.210938 327.28125 242.726562 324.765625 242.726562 321.667969 Z M 242.726562 305.691406 " fill-opacity="1" fill-rule="evenodd"/><g clip-path="url(#53b5d2ed38)"><path fill="#034173" d="M 100.496094 206.273438 C 81.964844 186.203125 70.695312 159.699219 70.695312 130.65625 C 70.695312 68.132812 122.96875 17.328125 187.40625 17.328125 C 251.84375 17.328125 304.117188 68.132812 304.117188 130.664062 C 304.117188 159.820312 292.75 186.425781 274.089844 206.523438 L 274.03125 206.425781 C 273.011719 204.636719 272.152344 203.117188 271.4375 201.851562 C 288.601562 182.824219 299.011719 157.910156 299.011719 130.664062 C 299.011719 70.910156 248.980469 22.441406 187.40625 22.441406 C 125.832031 22.441406 75.796875 70.90625 75.796875 130.65625 C 75.796875 158.210938 86.445312 183.375 103.949219 202.484375 C 102.871094 203.601562 101.703125 204.875 100.496094 206.269531 Z M 100.496094 206.273438 " fill-opacity="1" fill-rule="evenodd"/><path fill="#034173" d="M 274.09375 206.8125 C 273.992188 206.8125 273.894531 206.753906 273.84375 206.664062 L 273.789062 206.574219 C 272.773438 204.785156 271.914062 203.265625 271.195312 202.003906 C 271.132812 201.894531 271.152344 201.761719 271.234375 201.671875 C 288.351562 182.695312 298.734375 157.851562 298.734375 130.675781 C 298.734375 71.078125 248.828125 22.738281 187.414062 22.738281 C 126 22.738281 76.089844 71.070312 76.089844 130.667969 C 76.089844 158.148438 86.710938 183.242188 104.167969 202.300781 C 104.269531 202.414062 104.269531 202.585938 104.167969 202.691406 C 103.09375 203.804688 101.925781 205.074219 100.71875 206.46875 C 100.667969 206.53125 100.589844 206.566406 100.511719 206.566406 C 100.429688 206.566406 100.351562 206.535156 100.296875 206.472656 C 81.714844 186.355469 70.414062 159.777344 70.414062 130.667969 C 70.414062 67.984375 122.816406 17.050781 187.410156 17.050781 C 252.003906 17.050781 304.40625 67.980469 304.40625 130.667969 C 304.40625 159.898438 293.011719 186.570312 274.296875 206.722656 C 274.246094 206.78125 274.167969 206.8125 274.089844 206.8125 Z M 274.152344 206.046875 C 292.613281 186.035156 303.839844 159.613281 303.839844 130.667969 C 303.835938 68.292969 251.683594 17.617188 187.410156 17.617188 C 123.136719 17.617188 70.984375 68.292969 70.984375 130.667969 C 70.984375 159.519531 82.136719 185.863281 100.492188 205.847656 C 101.558594 204.621094 102.597656 203.496094 103.5625 202.484375 C 86.113281 183.347656 75.511719 158.199219 75.511719 130.664062 C 75.519531 70.757812 125.675781 22.160156 187.410156 22.160156 C 249.144531 22.160156 299.300781 70.757812 299.300781 130.667969 C 299.300781 157.917969 288.917969 182.832031 271.789062 201.894531 C 272.453125 203.0625 273.230469 204.445312 274.140625 206.050781 Z M 274.152344 206.046875 " fill-opacity="1" fill-rule="evenodd"/></g><path fill="#034173" d="M 294.914062 161.359375 C 295.367188 160.125 296.726562 159.496094 297.960938 159.949219 C 299.191406 160.402344 299.820312 161.769531 299.371094 162.996094 C 288.132812 193.605469 274.21875 206.808594 262.492188 218.789062 C 251.28125 230.238281 242.148438 240.511719 239.828125 265.136719 C 239.703125 266.441406 238.546875 267.40625 237.246094 267.28125 C 235.941406 267.15625 234.980469 265.996094 235.105469 264.691406 C 237.566406 238.554688 247.207031 227.617188 259.101562 215.460938 C 270.480469 203.835938 284.011719 191.050781 294.917969 161.359375 Z M 294.914062 161.359375 " fill-opacity="1" fill-rule="evenodd"/><path fill="#034173" d="M 75.722656 162.996094 C 75.269531 161.769531 75.90625 160.402344 77.132812 159.949219 C 78.359375 159.496094 79.726562 160.132812 80.179688 161.359375 C 91.078125 191.050781 104.617188 203.835938 115.992188 215.460938 C 127.890625 227.617188 137.53125 238.554688 139.988281 264.691406 C 140.113281 265.996094 139.152344 267.160156 137.847656 267.28125 C 136.542969 267.398438 135.382812 266.441406 135.261719 265.136719 C 132.945312 240.515625 123.8125 230.238281 112.601562 218.789062 C 100.871094 206.808594 86.957031 193.605469 75.722656 163 Z M 75.722656 162.996094 " fill-opacity="1" fill-rule="evenodd"/><path fill="#034173" d="M 229.976562 329.789062 C 229.859375 344.046875 210.832031 355.605469 187.40625 355.605469 C 163.980469 355.605469 144.949219 344.046875 144.835938 329.789062 Z M 229.976562 329.789062 " fill-opacity="1" fill-rule="evenodd"/><path fill="#034173" d="M 232.339844 329.804688 C 232.289062 336.167969 228.957031 342.101562 223.191406 346.867188 C 215.089844 353.5625 202.082031 357.976562 187.398438 357.976562 C 172.710938 357.976562 159.703125 353.5625 151.601562 346.867188 C 145.839844 342.101562 142.507812 336.167969 142.457031 329.804688 C 142.453125 329.171875 142.703125 328.5625 143.148438 328.113281 C 143.589844 327.664062 144.199219 327.410156 144.832031 327.410156 L 229.972656 327.410156 C 230.601562 327.410156 231.210938 327.664062 231.65625 328.113281 C 232.101562 328.5625 232.351562 329.171875 232.347656 329.804688 Z M 227.359375 332.160156 L 147.425781 332.160156 C 148.1875 336.269531 150.785156 340.027344 154.625 343.203125 C 162.03125 349.324219 173.96875 353.226562 187.394531 353.226562 C 200.820312 353.226562 212.753906 349.324219 220.160156 343.203125 C 224 340.03125 226.597656 336.269531 227.359375 332.160156 Z M 227.359375 332.160156 " fill-opacity="1" fill-rule="evenodd"/><path fill="#8fdef8" d="M 195.273438 63.613281 L 196.621094 74.632812 C 201.03125 75.308594 205.359375 76.472656 209.523438 78.09375 L 216.199219 69.222656 C 221.011719 71.339844 225.574219 73.972656 229.8125 77.085938 L 225.472656 87.304688 C 228.960938 90.097656 232.128906 93.269531 234.921875 96.757812 L 245.132812 92.417969 C 248.246094 96.65625 250.878906 101.226562 252.992188 106.042969 L 244.132812 112.71875 C 245.753906 116.886719 246.917969 121.214844 247.589844 125.636719 L 258.597656 126.984375 C 259.175781 132.210938 259.175781 137.488281 258.597656 142.71875 L 247.589844 144.066406 C 246.910156 148.488281 245.753906 152.820312 244.132812 156.984375 L 252.992188 163.660156 C 250.878906 168.472656 248.246094 173.046875 245.132812 177.285156 L 234.921875 172.945312 C 232.128906 176.433594 228.960938 179.605469 225.472656 182.398438 L 229.8125 192.617188 C 225.574219 195.730469 221.011719 198.371094 216.199219 200.480469 L 209.523438 191.613281 C 205.359375 193.238281 201.035156 194.394531 196.621094 195.070312 L 195.273438 206.089844 C 190.050781 206.667969 184.777344 206.667969 179.554688 206.089844 L 178.207031 195.070312 C 173.792969 194.394531 169.464844 193.238281 165.300781 191.613281 L 158.628906 200.480469 C 153.816406 198.367188 149.25 195.730469 145.015625 192.617188 L 149.351562 182.398438 C 145.863281 179.605469 142.695312 176.433594 139.902344 172.945312 L 129.695312 177.285156 C 126.578125 173.046875 123.945312 168.480469 121.832031 163.660156 L 130.695312 156.984375 C 129.070312 152.816406 127.910156 148.488281 127.238281 144.066406 L 116.226562 142.71875 C 115.648438 137.492188 115.648438 132.214844 116.226562 126.984375 L 127.238281 125.636719 C 127.914062 121.214844 129.070312 116.882812 130.695312 112.71875 L 121.832031 106.042969 C 123.945312 101.230469 126.578125 96.65625 129.695312 92.417969 L 139.902344 96.757812 C 142.695312 93.269531 145.863281 90.097656 149.351562 87.304688 L 145.015625 77.085938 C 149.25 73.972656 153.816406 71.332031 158.628906 69.222656 L 165.300781 78.09375 C 169.464844 76.472656 173.789062 75.308594 178.207031 74.632812 L 179.554688 63.613281 C 184.777344 63.035156 190.050781 63.035156 195.273438 63.613281 Z M 187.414062 88.101562 C 213.199219 88.101562 234.136719 109.050781 234.136719 134.859375 C 234.136719 160.667969 213.199219 181.621094 187.414062 181.621094 C 161.628906 181.621094 140.691406 160.667969 140.691406 134.859375 C 140.691406 109.050781 161.625 88.101562 187.414062 88.101562 Z M 187.414062 88.101562 " fill-opacity="1" fill-rule="evenodd"/><path fill="#034173" d="M 197.613281 63.316406 L 198.742188 72.574219 C 202.121094 73.191406 205.441406 74.085938 208.679688 75.238281 L 214.285156 67.785156 C 214.949219 66.902344 216.128906 66.597656 217.136719 67.039062 C 222.109375 69.222656 226.824219 71.949219 231.203125 75.164062 C 232.089844 75.816406 232.414062 76.992188 231.980469 78.007812 L 228.339844 86.59375 C 230.953125 88.816406 233.386719 91.253906 235.613281 93.875 L 244.195312 90.226562 C 245.207031 89.796875 246.382812 90.121094 247.035156 91.007812 C 250.253906 95.386719 252.976562 100.109375 255.15625 105.082031 C 255.59375 106.085938 255.289062 107.269531 254.40625 107.933594 L 246.960938 113.546875 C 248.117188 116.785156 249.007812 120.109375 249.621094 123.488281 L 258.875 124.625 C 259.96875 124.757812 260.824219 125.628906 260.949219 126.722656 C 261.542969 132.121094 261.542969 137.570312 260.949219 142.976562 C 260.828125 144.070312 259.96875 144.941406 258.875 145.074219 L 249.621094 146.210938 C 249.003906 149.589844 248.113281 152.914062 246.960938 156.152344 L 254.40625 161.765625 C 255.289062 162.429688 255.59375 163.609375 255.15625 164.617188 C 252.972656 169.589844 250.25 174.316406 247.035156 178.691406 C 246.386719 179.582031 245.207031 179.902344 244.195312 179.476562 L 235.613281 175.828125 C 233.386719 178.445312 230.957031 180.882812 228.339844 183.109375 L 231.980469 191.695312 C 232.414062 192.710938 232.089844 193.886719 231.203125 194.542969 C 226.824219 197.761719 222.109375 200.484375 217.136719 202.667969 C 216.132812 203.105469 214.949219 202.800781 214.285156 201.917969 L 208.679688 194.464844 C 205.445312 195.625 202.121094 196.511719 198.742188 197.128906 L 197.613281 206.386719 C 197.476562 207.484375 196.609375 208.339844 195.515625 208.464844 C 190.121094 209.058594 184.675781 209.058594 179.277344 208.464844 C 178.183594 208.34375 177.316406 207.484375 177.183594 206.386719 L 176.054688 197.128906 C 172.671875 196.511719 169.355469 195.617188 166.113281 194.464844 L 160.507812 201.917969 C 159.847656 202.800781 158.667969 203.105469 157.65625 202.667969 C 152.683594 200.480469 147.96875 197.753906 143.589844 194.542969 C 142.707031 193.886719 142.382812 192.710938 142.8125 191.695312 L 146.457031 183.113281 C 143.839844 180.886719 141.40625 178.453125 139.183594 175.832031 L 130.601562 179.480469 C 129.585938 179.910156 128.414062 179.585938 127.757812 178.695312 C 124.542969 174.316406 121.820312 169.597656 119.640625 164.625 C 119.199219 163.617188 119.507812 162.433594 120.386719 161.769531 L 127.835938 156.15625 C 126.683594 152.917969 125.789062 149.59375 125.175781 146.214844 L 115.921875 145.078125 C 114.832031 144.945312 113.972656 144.078125 113.847656 142.980469 C 113.25 137.582031 113.25 132.132812 113.847656 126.726562 C 113.96875 125.632812 114.828125 124.761719 115.921875 124.628906 L 125.175781 123.496094 C 125.792969 120.117188 126.683594 116.789062 127.835938 113.554688 L 120.386719 107.9375 C 119.507812 107.277344 119.199219 106.09375 119.640625 105.085938 C 121.824219 100.113281 124.546875 95.386719 127.757812 91.011719 C 128.40625 90.125 129.585938 89.800781 130.601562 90.234375 L 139.183594 93.878906 C 141.40625 91.261719 143.835938 88.824219 146.457031 86.601562 L 142.8125 78.011719 C 142.382812 76.996094 142.707031 75.820312 143.589844 75.167969 C 147.96875 71.949219 152.683594 69.222656 157.65625 67.042969 C 158.664062 66.601562 159.847656 66.910156 160.507812 67.789062 L 166.113281 75.242188 C 169.347656 74.085938 172.671875 73.195312 176.054688 72.582031 L 177.183594 63.320312 C 177.316406 62.222656 178.183594 61.371094 179.277344 61.246094 C 184.675781 60.648438 190.121094 60.648438 195.515625 61.246094 C 196.609375 61.367188 197.476562 62.222656 197.613281 63.320312 Z M 193.128906 65.785156 C 189.308594 65.46875 185.476562 65.46875 181.660156 65.785156 L 180.542969 74.917969 C 180.414062 75.972656 179.59375 76.8125 178.542969 76.980469 C 174.300781 77.628906 170.140625 78.742188 166.140625 80.304688 C 165.148438 80.691406 164.023438 80.371094 163.382812 79.519531 L 157.855469 72.175781 C 154.386719 73.808594 151.070312 75.730469 147.921875 77.914062 L 151.515625 86.378906 C 151.929688 87.355469 151.644531 88.496094 150.8125 89.160156 C 147.460938 91.84375 144.414062 94.894531 141.730469 98.246094 C 141.066406 99.078125 139.929688 99.363281 138.953125 98.949219 L 130.496094 95.355469 C 128.308594 98.503906 126.394531 101.832031 124.761719 105.296875 L 132.101562 110.828125 C 132.949219 111.46875 133.269531 112.597656 132.882812 113.589844 C 131.320312 117.589844 130.210938 121.753906 129.558594 126 C 129.398438 127.050781 128.558594 127.871094 127.5 128 L 118.378906 129.117188 C 118.066406 132.9375 118.066406 136.773438 118.378906 140.59375 L 127.5 141.710938 C 128.554688 141.839844 129.394531 142.660156 129.558594 143.710938 C 130.210938 147.957031 131.328125 152.121094 132.882812 156.125 C 133.269531 157.117188 132.949219 158.242188 132.101562 158.882812 L 124.761719 164.414062 C 126.394531 167.882812 128.308594 171.207031 130.496094 174.355469 L 138.953125 170.761719 C 139.929688 170.34375 141.070312 170.632812 141.730469 171.464844 C 144.414062 174.820312 147.460938 177.863281 150.8125 180.550781 C 151.640625 181.21875 151.929688 182.355469 151.515625 183.335938 L 147.921875 191.796875 C 151.066406 193.984375 154.386719 195.902344 157.855469 197.539062 L 163.382812 190.191406 C 164.023438 189.339844 165.148438 189.019531 166.140625 189.40625 C 170.140625 190.96875 174.300781 192.082031 178.542969 192.734375 C 179.597656 192.894531 180.414062 193.734375 180.542969 194.796875 L 181.660156 203.921875 C 185.476562 204.238281 189.308594 204.238281 193.128906 203.921875 L 194.242188 194.796875 C 194.371094 193.738281 195.191406 192.894531 196.242188 192.734375 C 200.484375 192.082031 204.644531 190.964844 208.644531 189.40625 C 209.636719 189.019531 210.761719 189.339844 211.402344 190.191406 L 216.933594 197.539062 C 220.398438 195.902344 223.714844 193.980469 226.867188 191.796875 L 223.273438 183.335938 C 222.859375 182.355469 223.140625 181.214844 223.972656 180.550781 C 227.324219 177.867188 230.367188 174.820312 233.054688 171.464844 C 233.722656 170.632812 234.855469 170.347656 235.835938 170.761719 L 244.292969 174.355469 C 246.476562 171.207031 248.394531 167.882812 250.027344 164.414062 L 242.683594 158.882812 C 241.835938 158.242188 241.515625 157.117188 241.902344 156.125 C 243.464844 152.121094 244.578125 147.957031 245.226562 143.710938 C 245.386719 142.660156 246.226562 141.839844 247.285156 141.710938 L 256.40625 140.59375 C 256.722656 136.773438 256.722656 132.9375 256.40625 129.117188 L 247.285156 128 C 246.230469 127.871094 245.390625 127.050781 245.226562 126 C 244.578125 121.753906 243.460938 117.589844 241.902344 113.589844 C 241.515625 112.597656 241.835938 111.46875 242.683594 110.828125 L 250.027344 105.296875 C 248.394531 101.832031 246.476562 98.503906 244.292969 95.355469 L 235.835938 98.949219 C 234.855469 99.367188 233.71875 99.078125 233.054688 98.246094 C 230.371094 94.894531 227.324219 91.847656 223.972656 89.160156 C 223.148438 88.496094 222.859375 87.355469 223.273438 86.378906 L 226.867188 77.914062 C 223.722656 75.726562 220.398438 73.808594 216.933594 72.175781 L 211.402344 79.519531 C 210.761719 80.371094 209.636719 80.691406 208.644531 80.304688 C 204.644531 78.742188 200.484375 77.628906 196.242188 76.980469 C 195.1875 76.820312 194.371094 75.976562 194.242188 74.917969 Z M 187.394531 85.71875 C 214.488281 85.71875 236.488281 107.734375 236.488281 134.851562 C 236.488281 161.96875 214.488281 183.984375 187.394531 183.984375 C 160.296875 183.984375 138.296875 161.96875 138.296875 134.851562 C 138.296875 107.734375 160.296875 85.71875 187.394531 85.71875 Z M 187.394531 90.46875 C 162.917969 90.46875 143.042969 110.355469 143.042969 134.851562 C 143.042969 159.347656 162.917969 179.234375 187.394531 179.234375 C 211.871094 179.234375 231.742188 159.347656 231.742188 134.851562 C 231.742188 110.355469 211.871094 90.46875 187.394531 90.46875 Z M 187.394531 90.46875 " fill-opacity="1" fill-rule="evenodd"/></svg>