<svg xmlns="http://www.w3.org/2000/svg" xmlns:xlink="http://www.w3.org/1999/xlink" width="500" zoomAndPan="magnify" viewBox="0 0 375 374.999991" height="500" preserveAspectRatio="xMidYMid meet" version="1.0"><defs><clipPath id="d3e9cc0275"><path d="M 47 37 L 341.625 37 L 341.625 336 L 47 336 Z M 47 37 " clip-rule="nonzero"/></clipPath></defs><path fill="#bdf3ec" d="M 144.675781 325.835938 C 184.390625 337.347656 215.789062 328.867188 241.886719 307.667969 C 241.390625 305.855469 236.910156 297.929688 234.289062 287.703125 C 232.863281 282.070312 232.035156 276.351562 231.808594 270.542969 C 231.585938 264.738281 231.964844 258.96875 232.953125 253.242188 C 154.066406 257.722656 98.21875 230.148438 70.097656 175.199219 C 68.089844 177.816406 65.765625 180.570312 63.574219 183.285156 C 46.625 204.15625 49.953125 203.414062 56.6875 206.082031 C 62.242188 208.292969 70.773438 207.238281 65.632812 223.773438 C 64.398438 227.761719 79.027344 228.878906 79.324219 231.023438 C 79.554688 232.75 65.882812 236.410156 70.460938 240.707031 C 71.796875 241.804688 72.835938 243.132812 73.574219 244.695312 C 78.699219 255.828125 59.488281 278.113281 86.457031 281.691406 C 104.066406 284.015625 127.078125 273.636719 134 281.789062 C 136.453125 284.671875 140.324219 297.15625 141.628906 301.835938 C 143.898438 310.054688 145.398438 316.675781 144.675781 325.835938 Z M 144.675781 325.835938 " fill-opacity="1" fill-rule="evenodd"/><path fill="#bdf3ec" d="M 173.519531 134.085938 L 199.695312 118.996094 C 199.433594 118.542969 199.195312 118.078125 198.980469 117.597656 C 198.761719 117.121094 198.570312 116.632812 198.402344 116.136719 C 198.234375 115.640625 198.089844 115.136719 197.972656 114.625 C 197.851562 114.113281 197.757812 113.601562 197.691406 113.078125 C 197.621094 112.558594 197.582031 112.039062 197.5625 111.515625 C 197.546875 110.988281 197.554688 110.464844 197.589844 109.941406 C 197.625 109.421875 197.683594 108.898438 197.769531 108.382812 C 197.855469 107.863281 197.96875 107.351562 198.101562 106.847656 C 198.238281 106.339844 198.398438 105.84375 198.585938 105.351562 C 198.769531 104.859375 198.976562 104.378906 199.210938 103.910156 C 199.441406 103.441406 199.699219 102.984375 199.972656 102.539062 C 200.25 102.09375 200.550781 101.660156 200.871094 101.246094 C 201.1875 100.832031 201.527344 100.429688 201.886719 100.046875 C 202.246094 99.664062 202.621094 99.300781 203.015625 98.957031 C 203.410156 98.609375 203.820312 98.285156 204.246094 97.980469 C 204.675781 97.675781 205.113281 97.390625 205.570312 97.128906 C 206.023438 96.867188 206.488281 96.628906 206.96875 96.414062 C 207.445312 96.195312 207.933594 96.003906 208.429688 95.835938 C 208.925781 95.667969 209.429688 95.523438 209.941406 95.40625 C 210.449219 95.285156 210.964844 95.195312 211.484375 95.125 C 212.003906 95.058594 212.527344 95.015625 213.050781 94.996094 C 213.574219 94.980469 214.101562 94.988281 214.625 95.023438 C 215.144531 95.058594 215.667969 95.121094 216.183594 95.203125 C 216.703125 95.289062 217.214844 95.402344 217.71875 95.539062 C 218.226562 95.671875 218.726562 95.832031 219.214844 96.019531 C 219.707031 96.203125 220.1875 96.414062 220.65625 96.644531 C 221.125 96.875 221.585938 97.132812 222.03125 97.410156 C 222.476562 97.6875 222.90625 97.984375 223.320312 98.304688 C 223.738281 98.621094 224.136719 98.960938 224.519531 99.320312 C 224.902344 99.679688 225.265625 100.054688 225.609375 100.449219 C 225.957031 100.84375 226.28125 101.253906 226.585938 101.679688 C 226.890625 102.109375 227.175781 102.546875 227.4375 103.003906 L 253.628906 87.914062 C 252.621094 86.164062 251.558594 84.453125 250.4375 82.773438 C 249.320312 81.09375 248.144531 79.453125 246.917969 77.851562 C 245.691406 76.25 244.410156 74.691406 243.082031 73.171875 C 241.753906 71.65625 240.375 70.183594 238.949219 68.753906 C 237.523438 67.328125 236.050781 65.945312 234.535156 64.613281 C 233.019531 63.285156 231.460938 62.003906 229.859375 60.773438 C 228.261719 59.542969 226.621094 58.367188 224.945312 57.246094 C 223.265625 56.121094 221.554688 55.054688 219.808594 54.046875 C 218.0625 53.035156 216.285156 52.082031 214.472656 51.191406 C 212.664062 50.296875 210.828125 49.460938 208.964844 48.6875 C 207.101562 47.914062 205.214844 47.203125 203.300781 46.550781 C 201.390625 45.902344 199.460938 45.316406 197.511719 44.792969 C 195.5625 44.269531 193.601562 43.808594 191.621094 43.414062 C 189.640625 43.019531 187.652344 42.6875 185.652344 42.421875 C 183.652344 42.15625 181.644531 41.957031 179.628906 41.824219 C 177.617188 41.691406 175.601562 41.625 173.582031 41.621094 C 171.5625 41.621094 169.546875 41.683594 167.535156 41.816406 C 165.519531 41.945312 163.511719 42.140625 161.511719 42.402344 C 159.511719 42.664062 157.519531 42.992188 155.539062 43.382812 C 153.5625 43.773438 151.597656 44.230469 149.644531 44.753906 C 147.695312 45.273438 145.765625 45.855469 143.855469 46.503906 C 141.941406 47.152344 140.054688 47.859375 138.1875 48.628906 C 136.324219 49.402344 134.484375 50.230469 132.675781 51.121094 C 130.863281 52.011719 129.085938 52.960938 127.335938 53.96875 C 125.585938 54.976562 123.875 56.039062 122.195312 57.160156 C 120.515625 58.28125 118.875 59.453125 117.273438 60.679688 C 115.671875 61.90625 114.109375 63.183594 112.589844 64.515625 C 111.074219 65.84375 109.601562 67.222656 108.171875 68.648438 C 106.742188 70.070312 105.363281 71.542969 104.03125 73.058594 C 102.699219 74.574219 101.417969 76.132812 100.1875 77.730469 C 98.957031 79.332031 97.78125 80.96875 96.660156 82.648438 C 95.535156 84.324219 94.46875 86.035156 93.457031 87.78125 L 119.617188 102.902344 C 119.179688 103.660156 118.808594 104.449219 118.5 105.269531 C 118.191406 106.085938 117.953125 106.925781 117.78125 107.785156 C 117.609375 108.640625 117.511719 109.507812 117.484375 110.382812 C 117.453125 111.257812 117.496094 112.128906 117.609375 112.996094 C 117.722656 113.863281 117.910156 114.714844 118.164062 115.554688 C 118.414062 116.390625 118.734375 117.199219 119.121094 117.984375 C 119.507812 118.769531 119.957031 119.519531 120.464844 120.230469 C 120.976562 120.941406 121.539062 121.605469 122.15625 122.226562 C 122.777344 122.84375 123.441406 123.410156 124.152344 123.921875 C 124.863281 124.429688 125.609375 124.878906 126.394531 125.265625 C 127.179688 125.65625 127.988281 125.976562 128.824219 126.230469 C 129.664062 126.484375 130.515625 126.671875 131.382812 126.785156 C 132.25 126.902344 133.121094 126.945312 133.996094 126.917969 C 134.871094 126.890625 135.738281 126.792969 136.59375 126.625 C 137.453125 126.453125 138.292969 126.214844 139.113281 125.910156 C 139.929688 125.601562 140.71875 125.230469 141.476562 124.792969 C 143.964844 123.378906 145.921875 121.429688 147.34375 118.945312 Z M 173.519531 134.085938 " fill-opacity="1" fill-rule="evenodd"/><path fill="#79cecb" d="M 270.003906 134.167969 L 244.503906 148.859375 C 243.992188 147.976562 243.398438 147.152344 242.722656 146.382812 C 242.046875 145.617188 241.300781 144.921875 240.492188 144.300781 C 239.679688 143.683594 238.8125 143.144531 237.898438 142.695312 C 236.980469 142.246094 236.027344 141.886719 235.039062 141.625 C 234.050781 141.359375 233.046875 141.195312 232.027344 141.128906 C 231.007812 141.0625 229.992188 141.097656 228.976562 141.230469 C 227.964844 141.363281 226.972656 141.597656 226.007812 141.925781 C 225.039062 142.253906 224.113281 142.671875 223.226562 143.183594 C 222.339844 143.695312 221.515625 144.285156 220.746094 144.957031 C 219.976562 145.632812 219.28125 146.375 218.65625 147.183594 C 218.035156 147.992188 217.496094 148.855469 217.042969 149.773438 C 216.589844 150.6875 216.230469 151.640625 215.964844 152.625 C 215.695312 153.613281 215.527344 154.617188 215.460938 155.636719 C 215.390625 156.65625 215.421875 157.671875 215.550781 158.6875 C 215.683594 159.699219 215.910156 160.691406 216.238281 161.660156 C 216.5625 162.628906 216.980469 163.554688 217.488281 164.441406 L 191.984375 179.136719 L 191.953125 208.570312 C 192.804688 208.570312 193.652344 208.640625 194.496094 208.78125 C 195.335938 208.917969 196.160156 209.125 196.96875 209.398438 C 197.777344 209.675781 198.554688 210.011719 199.308594 210.414062 C 200.058594 210.816406 200.773438 211.277344 201.449219 211.796875 C 202.125 212.316406 202.753906 212.886719 203.335938 213.511719 C 203.921875 214.132812 204.449219 214.800781 204.921875 215.507812 C 205.394531 216.21875 205.808594 216.960938 206.160156 217.738281 C 206.511719 218.515625 206.796875 219.316406 207.015625 220.140625 C 207.234375 220.964844 207.386719 221.800781 207.46875 222.648438 C 207.554688 223.496094 207.566406 224.347656 207.507812 225.199219 C 207.453125 226.046875 207.328125 226.890625 207.132812 227.71875 C 206.9375 228.550781 206.679688 229.359375 206.351562 230.144531 C 206.023438 230.933594 205.632812 231.6875 205.183594 232.414062 C 204.730469 233.136719 204.226562 233.816406 203.660156 234.457031 C 203.097656 235.097656 202.488281 235.6875 201.828125 236.230469 C 201.167969 236.769531 200.46875 237.25 199.730469 237.675781 C 197.320312 239.074219 194.722656 239.765625 191.9375 239.753906 L 191.90625 269.1875 C 193.871094 269.1875 195.832031 269.125 197.792969 268.996094 C 199.753906 268.871094 201.710938 268.679688 203.660156 268.421875 C 205.609375 268.167969 207.546875 267.847656 209.472656 267.464844 C 211.402344 267.082031 213.316406 266.640625 215.214844 266.132812 C 217.113281 265.625 218.992188 265.054688 220.851562 264.425781 C 222.714844 263.792969 224.554688 263.101562 226.371094 262.351562 C 228.1875 261.601562 229.976562 260.792969 231.738281 259.921875 C 233.503906 259.054688 235.234375 258.128906 236.9375 257.148438 C 238.640625 256.167969 240.308594 255.132812 241.945312 254.039062 C 243.578125 252.949219 245.175781 251.804688 246.734375 250.613281 C 248.296875 249.417969 249.816406 248.171875 251.292969 246.875 C 252.773438 245.582031 254.207031 244.238281 255.597656 242.851562 C 256.988281 241.460938 258.332031 240.03125 259.628906 238.554688 C 260.925781 237.078125 262.171875 235.558594 263.371094 234 C 264.570312 232.445312 265.714844 230.847656 266.808594 229.214844 C 267.898438 227.582031 268.9375 225.914062 269.921875 224.214844 C 270.90625 222.511719 271.832031 220.78125 272.703125 219.019531 C 273.574219 217.257812 274.386719 215.46875 275.140625 213.652344 C 275.894531 211.839844 276.585938 210 277.222656 208.140625 C 277.855469 206.28125 278.425781 204.402344 278.9375 202.503906 C 279.445312 200.605469 279.894531 198.695312 280.28125 196.765625 C 280.664062 194.839844 280.984375 192.902344 281.246094 190.953125 C 281.503906 189.003906 281.695312 187.050781 281.828125 185.089844 C 281.957031 183.128906 282.023438 181.167969 282.027344 179.203125 C 282.027344 177.234375 281.964844 175.273438 281.839844 173.3125 C 281.710938 171.351562 281.519531 169.394531 281.265625 167.449219 C 281.011719 165.5 280.695312 163.5625 280.3125 161.632812 C 279.929688 159.707031 279.484375 157.792969 278.980469 155.894531 C 278.472656 153.996094 277.90625 152.113281 277.273438 150.253906 C 276.644531 148.390625 275.953125 146.550781 275.203125 144.734375 C 274.453125 142.917969 273.644531 141.128906 272.777344 139.367188 C 271.910156 137.601562 270.988281 135.871094 270.003906 134.167969 Z M 270.003906 134.167969 " fill-opacity="1" fill-rule="evenodd"/><path fill="#42a6a3" d="M 173.519531 134.085938 L 147.34375 118.945312 C 145.921875 121.429688 143.964844 123.378906 141.476562 124.792969 C 140.71875 125.230469 139.929688 125.601562 139.113281 125.910156 C 138.292969 126.214844 137.453125 126.453125 136.59375 126.625 C 135.738281 126.792969 134.871094 126.890625 133.996094 126.917969 C 133.121094 126.945312 132.25 126.902344 131.382812 126.785156 C 130.515625 126.671875 129.664062 126.484375 128.824219 126.230469 C 127.988281 125.976562 127.179688 125.65625 126.394531 125.265625 C 125.609375 124.878906 124.863281 124.429688 124.152344 123.921875 C 123.441406 123.410156 122.777344 122.84375 122.15625 122.226562 C 121.539062 121.605469 120.976562 120.941406 120.464844 120.230469 C 119.957031 119.519531 119.507812 118.769531 119.121094 117.984375 C 118.734375 117.199219 118.414062 116.390625 118.164062 115.554688 C 117.910156 114.714844 117.726562 113.863281 117.609375 112.996094 C 117.496094 112.128906 117.453125 111.257812 117.484375 110.382812 C 117.511719 109.507812 117.609375 108.640625 117.78125 107.785156 C 117.953125 106.925781 118.191406 106.085938 118.5 105.269531 C 118.808594 104.449219 119.179688 103.660156 119.617188 102.902344 L 93.457031 87.78125 C 92.449219 89.53125 91.496094 91.308594 90.601562 93.117188 C 89.710938 94.925781 88.875 96.761719 88.101562 98.628906 C 87.328125 100.492188 86.617188 102.378906 85.96875 104.289062 C 85.316406 106.199219 84.730469 108.128906 84.207031 110.078125 C 83.683594 112.027344 83.226562 113.992188 82.832031 115.96875 C 82.433594 117.949219 82.105469 119.9375 81.839844 121.9375 C 81.578125 123.9375 81.378906 125.945312 81.246094 127.960938 C 81.109375 129.972656 81.042969 131.988281 81.042969 134.007812 C 81.039062 136.023438 81.105469 138.039062 81.234375 140.054688 C 81.367188 142.066406 81.5625 144.074219 81.824219 146.078125 C 82.085938 148.078125 82.414062 150.066406 82.808594 152.046875 C 83.199219 154.027344 83.65625 155.992188 84.175781 157.941406 C 84.699219 159.890625 85.28125 161.820312 85.929688 163.730469 C 86.574219 165.644531 87.285156 167.53125 88.054688 169.394531 C 88.828125 171.261719 89.65625 173.097656 90.550781 174.910156 C 91.441406 176.71875 92.390625 178.5 93.398438 180.246094 C 94.40625 181.996094 95.46875 183.710938 96.589844 185.386719 C 97.707031 187.066406 98.882812 188.707031 100.109375 190.308594 C 101.335938 191.910156 102.613281 193.472656 103.945312 194.988281 C 105.273438 196.507812 106.652344 197.980469 108.078125 199.410156 C 109.503906 200.839844 110.972656 202.21875 112.488281 203.550781 C 114.003906 204.882812 115.5625 206.164062 117.164062 207.394531 C 118.761719 208.621094 120.402344 209.800781 122.078125 210.921875 C 123.753906 212.042969 125.46875 213.109375 127.214844 214.121094 C 128.960938 215.132812 130.738281 216.085938 132.546875 216.980469 C 134.355469 217.875 136.195312 218.707031 138.058594 219.480469 C 139.921875 220.257812 141.808594 220.96875 143.71875 221.621094 C 145.628906 222.269531 147.558594 222.855469 149.507812 223.382812 C 151.457031 223.90625 153.417969 224.367188 155.398438 224.761719 C 157.378906 225.15625 159.367188 225.488281 161.367188 225.753906 C 163.367188 226.019531 165.375 226.21875 167.390625 226.355469 C 169.402344 226.488281 171.417969 226.554688 173.4375 226.558594 L 173.453125 196.332031 C 173.980469 196.332031 174.503906 196.308594 175.023438 196.257812 C 175.546875 196.207031 176.066406 196.132812 176.578125 196.03125 C 177.09375 195.929688 177.601562 195.800781 178.105469 195.648438 C 178.609375 195.5 179.101562 195.324219 179.585938 195.125 C 180.070312 194.921875 180.546875 194.699219 181.007812 194.453125 C 181.472656 194.207031 181.921875 193.9375 182.359375 193.648438 C 182.792969 193.355469 183.214844 193.042969 183.621094 192.710938 C 184.027344 192.378906 184.417969 192.027344 184.789062 191.660156 C 185.160156 191.289062 185.511719 190.898438 185.84375 190.496094 C 186.179688 190.089844 186.492188 189.667969 186.785156 189.234375 C 187.074219 188.796875 187.347656 188.347656 187.59375 187.886719 C 187.839844 187.425781 188.066406 186.949219 188.265625 186.464844 C 188.46875 185.980469 188.644531 185.488281 188.800781 184.988281 C 188.953125 184.484375 189.078125 183.976562 189.183594 183.460938 C 189.285156 182.949219 189.363281 182.429688 189.414062 181.90625 C 189.46875 181.386719 189.492188 180.863281 189.492188 180.335938 C 189.496094 179.8125 189.46875 179.289062 189.417969 178.769531 C 189.367188 178.246094 189.289062 177.726562 189.1875 177.210938 C 189.085938 176.699219 188.960938 176.191406 188.808594 175.6875 C 188.65625 175.183594 188.480469 174.691406 188.28125 174.207031 C 188.078125 173.722656 187.855469 173.25 187.609375 172.785156 C 187.363281 172.324219 187.09375 171.871094 186.800781 171.4375 C 186.511719 171 186.199219 170.578125 185.867188 170.171875 C 185.535156 169.765625 185.183594 169.378906 184.8125 169.007812 C 184.441406 168.636719 184.050781 168.285156 183.648438 167.953125 C 183.242188 167.617188 182.820312 167.304688 182.386719 167.015625 C 181.949219 166.722656 181.5 166.453125 181.035156 166.207031 C 180.574219 165.957031 180.101562 165.734375 179.617188 165.53125 C 179.132812 165.332031 178.636719 165.15625 178.136719 165.003906 C 177.632812 164.851562 177.125 164.722656 176.613281 164.621094 C 176.097656 164.515625 175.578125 164.441406 175.054688 164.386719 C 174.535156 164.335938 174.011719 164.3125 173.488281 164.3125 Z M 173.519531 134.085938 " fill-opacity="1" fill-rule="evenodd"/><path fill="#bdf3ec" d="M 279.230469 156.75 C 298.703125 174.6875 312.410156 194.914062 313.742188 222.09375 C 314.191406 231.390625 313.824219 240.652344 312.636719 249.882812 L 281.390625 267.886719 L 230.914062 191.984375 C 236.839844 184.820312 244.074219 180.570312 252.066406 189.53125 C 260.484375 201.636719 262.445312 209.015625 275.542969 212.738281 C 277.320312 208.316406 278.738281 203.785156 279.796875 199.136719 C 280.855469 194.492188 281.539062 189.792969 281.851562 185.039062 C 282.167969 180.285156 282.105469 175.535156 281.664062 170.789062 C 281.222656 166.046875 280.414062 161.367188 279.230469 156.75 Z M 279.230469 156.75 " fill-opacity="1" fill-rule="evenodd"/><path fill="#42a6a3" d="M 325.734375 242.339844 L 337.367188 262.53125 L 286.28125 291.953125 L 274.652344 271.773438 Z M 325.734375 242.339844 " fill-opacity="1" fill-rule="evenodd"/><g clip-path="url(#d3e9cc0275)"><path fill="#0d5f5a" d="M 340.898438 260.492188 L 329.265625 240.300781 C 329.132812 240.066406 328.980469 239.851562 328.804688 239.648438 C 328.628906 239.449219 328.433594 239.265625 328.222656 239.105469 C 328.011719 238.941406 327.785156 238.800781 327.542969 238.683594 C 327.304688 238.5625 327.054688 238.46875 326.796875 238.398438 C 326.539062 238.332031 326.277344 238.285156 326.011719 238.269531 C 325.746094 238.25 325.480469 238.261719 325.214844 238.292969 C 324.949219 238.328125 324.691406 238.390625 324.4375 238.476562 C 324.183594 238.5625 323.941406 238.671875 323.710938 238.804688 L 317.496094 242.382812 C 318.03125 235.558594 318.136719 228.726562 317.8125 221.886719 C 316.59375 197.09375 305.476562 175.671875 282.855469 154.554688 C 280.722656 146.675781 277.617188 139.199219 273.539062 132.125 C 273.402344 131.894531 273.25 131.679688 273.074219 131.476562 C 272.898438 131.277344 272.703125 131.09375 272.492188 130.929688 C 272.28125 130.769531 272.054688 130.628906 271.816406 130.507812 C 271.574219 130.390625 271.328125 130.296875 271.070312 130.226562 C 270.808594 130.15625 270.546875 130.113281 270.28125 130.097656 C 270.015625 130.078125 269.75 130.085938 269.484375 130.121094 C 269.21875 130.15625 268.960938 130.21875 268.707031 130.304688 C 268.453125 130.386719 268.210938 130.5 267.980469 130.632812 L 245.640625 143.503906 C 244.894531 142.671875 244.078125 141.90625 243.203125 141.214844 C 242.324219 140.523438 241.394531 139.910156 240.410156 139.375 C 239.429688 138.839844 238.40625 138.390625 237.347656 138.03125 C 236.289062 137.671875 235.207031 137.402344 234.101562 137.230469 C 232.996094 137.054688 231.886719 136.972656 230.765625 136.984375 C 229.648438 137 228.539062 137.109375 227.4375 137.3125 C 226.339844 137.515625 225.265625 137.808594 224.214844 138.195312 C 223.164062 138.582031 222.15625 139.054688 221.1875 139.617188 C 220.21875 140.175781 219.300781 140.8125 218.441406 141.527344 C 217.582031 142.242188 216.789062 143.023438 216.0625 143.875 C 215.335938 144.722656 214.683594 145.628906 214.113281 146.589844 C 213.539062 147.550781 213.054688 148.554688 212.652344 149.597656 C 212.25 150.640625 211.941406 151.710938 211.722656 152.808594 C 211.503906 153.90625 211.378906 155.015625 211.347656 156.132812 C 211.320312 157.25 211.386719 158.363281 211.546875 159.46875 C 211.707031 160.578125 211.957031 161.664062 212.304688 162.726562 L 192.574219 174.097656 C 192.027344 172.417969 191.269531 170.835938 190.304688 169.351562 C 189.335938 167.871094 188.195312 166.539062 186.878906 165.359375 C 185.558594 164.179688 184.113281 163.191406 182.53125 162.390625 C 180.953125 161.59375 179.296875 161.015625 177.566406 160.65625 L 177.59375 136.429688 L 201.734375 122.515625 C 201.964844 122.382812 202.183594 122.226562 202.382812 122.050781 C 202.585938 121.875 202.765625 121.679688 202.929688 121.46875 C 203.09375 121.257812 203.234375 121.03125 203.351562 120.792969 C 203.46875 120.554688 203.5625 120.304688 203.632812 120.046875 C 203.703125 119.789062 203.746094 119.527344 203.761719 119.257812 C 203.78125 118.992188 203.773438 118.726562 203.738281 118.460938 C 203.703125 118.195312 203.640625 117.9375 203.558594 117.683594 C 203.472656 117.433594 203.363281 117.191406 203.226562 116.957031 C 202.835938 116.277344 202.515625 115.566406 202.261719 114.824219 C 202.007812 114.082031 201.832031 113.324219 201.730469 112.542969 C 201.628906 111.765625 201.601562 110.988281 201.652344 110.203125 C 201.707031 109.421875 201.832031 108.652344 202.035156 107.894531 C 202.238281 107.136719 202.515625 106.40625 202.863281 105.703125 C 203.210938 105 203.621094 104.335938 204.097656 103.714844 C 204.578125 103.09375 205.109375 102.523438 205.699219 102.007812 C 206.289062 101.488281 206.925781 101.035156 207.605469 100.644531 C 208.285156 100.25 208.996094 99.929688 209.738281 99.675781 C 210.480469 99.425781 211.242188 99.25 212.019531 99.148438 C 212.796875 99.046875 213.578125 99.019531 214.359375 99.070312 C 215.144531 99.125 215.914062 99.25 216.671875 99.453125 C 217.429688 99.65625 218.160156 99.933594 218.863281 100.28125 C 219.566406 100.628906 220.226562 101.039062 220.851562 101.519531 C 221.472656 101.996094 222.042969 102.53125 222.558594 103.121094 C 223.074219 103.710938 223.527344 104.34375 223.921875 105.023438 C 224.054688 105.257812 224.207031 105.472656 224.382812 105.675781 C 224.558594 105.875 224.753906 106.058594 224.964844 106.21875 C 225.179688 106.382812 225.402344 106.523438 225.644531 106.640625 C 225.882812 106.761719 226.132812 106.855469 226.390625 106.921875 C 226.648438 106.992188 226.910156 107.035156 227.175781 107.054688 C 227.441406 107.070312 227.707031 107.0625 227.972656 107.027344 C 228.238281 106.992188 228.496094 106.933594 228.75 106.847656 C 229.003906 106.761719 229.246094 106.652344 229.476562 106.519531 L 255.671875 91.429688 C 255.902344 91.296875 256.117188 91.140625 256.320312 90.964844 C 256.519531 90.789062 256.703125 90.597656 256.863281 90.386719 C 257.027344 90.171875 257.167969 89.949219 257.285156 89.707031 C 257.40625 89.46875 257.5 89.21875 257.570312 88.960938 C 257.636719 88.703125 257.679688 88.441406 257.699219 88.175781 C 257.714844 87.90625 257.707031 87.640625 257.671875 87.378906 C 257.640625 87.113281 257.578125 86.851562 257.492188 86.601562 C 257.40625 86.347656 257.296875 86.105469 257.164062 85.875 C 230.589844 39.765625 171.441406 23.867188 125.316406 50.433594 C 117.972656 54.660156 111.300781 59.769531 105.304688 65.753906 C 99.304688 71.742188 94.183594 78.402344 89.941406 85.738281 C 88.886719 87.5625 87.890625 89.417969 86.957031 91.304688 C 86.023438 93.195312 85.152344 95.113281 84.347656 97.058594 C 83.539062 99.003906 82.792969 100.972656 82.117188 102.96875 C 81.4375 104.960938 80.824219 106.976562 80.277344 109.011719 C 79.730469 111.046875 79.25 113.097656 78.835938 115.164062 C 78.421875 117.230469 78.078125 119.304688 77.800781 121.394531 C 77.527344 123.484375 77.316406 125.578125 77.179688 127.679688 C 77.039062 129.78125 76.96875 131.886719 76.964844 133.996094 C 76.964844 136.101562 77.03125 138.207031 77.167969 140.308594 C 77.304688 142.410156 77.507812 144.507812 77.78125 146.597656 C 78.054688 148.683594 78.394531 150.761719 78.804688 152.828125 C 79.214844 154.894531 79.691406 156.945312 80.234375 158.984375 C 80.777344 161.019531 81.386719 163.035156 82.0625 165.027344 C 82.738281 167.023438 83.480469 168.996094 84.285156 170.941406 C 85.089844 172.890625 85.957031 174.808594 86.886719 176.699219 C 87.820312 178.589844 88.808594 180.449219 89.863281 182.273438 C 90.914062 184.097656 92.023438 185.886719 93.195312 187.640625 C 94.363281 189.394531 95.589844 191.105469 96.871094 192.777344 C 98.152344 194.449219 99.484375 196.078125 100.875 197.664062 C 102.261719 199.25 103.699219 200.785156 105.191406 202.277344 C 106.679688 203.769531 108.214844 205.210938 109.796875 206.601562 C 111.378906 207.988281 113.007812 209.328125 114.679688 210.609375 C 116.347656 211.894531 118.058594 213.121094 119.8125 214.292969 C 121.5625 215.464844 123.347656 216.578125 125.171875 217.632812 C 126.996094 218.6875 128.855469 219.683594 130.742188 220.617188 C 132.632812 221.550781 134.550781 222.417969 136.496094 223.226562 C 138.441406 224.035156 140.414062 224.777344 142.40625 225.457031 C 144.402344 226.136719 146.417969 226.746094 148.453125 227.292969 C 150.488281 227.839844 152.535156 228.320312 154.601562 228.734375 C 156.667969 229.144531 158.746094 229.492188 160.835938 229.765625 C 162.925781 230.042969 165.019531 230.25 167.121094 230.390625 C 169.226562 230.53125 171.328125 230.601562 173.4375 230.601562 L 173.445312 230.601562 C 173.710938 230.601562 173.976562 230.574219 174.238281 230.523438 C 174.5 230.472656 174.753906 230.394531 175 230.292969 C 175.246094 230.1875 175.480469 230.0625 175.703125 229.914062 C 175.925781 229.765625 176.132812 229.597656 176.320312 229.410156 C 176.507812 229.222656 176.675781 229.015625 176.824219 228.792969 C 176.972656 228.570312 177.101562 228.335938 177.203125 228.089844 C 177.304688 227.84375 177.382812 227.589844 177.433594 227.328125 C 177.484375 227.066406 177.511719 226.800781 177.511719 226.535156 L 177.527344 199.972656 C 179.503906 199.566406 181.375 198.875 183.144531 197.902344 C 184.914062 196.933594 186.5 195.722656 187.90625 194.269531 L 187.890625 208.558594 C 187.890625 208.824219 187.914062 209.089844 187.964844 209.351562 C 188.019531 209.613281 188.09375 209.867188 188.199219 210.117188 C 188.300781 210.363281 188.425781 210.597656 188.574219 210.820312 C 188.722656 211.042969 188.890625 211.246094 189.078125 211.4375 C 189.269531 211.625 189.472656 211.796875 189.695312 211.945312 C 189.917969 212.09375 190.152344 212.21875 190.398438 212.320312 C 190.644531 212.421875 190.902344 212.5 191.164062 212.550781 C 191.425781 212.605469 191.691406 212.628906 191.957031 212.628906 C 192.585938 212.628906 193.214844 212.683594 193.835938 212.785156 C 194.457031 212.886719 195.066406 213.039062 195.664062 213.242188 C 196.261719 213.445312 196.835938 213.695312 197.390625 213.992188 C 197.949219 214.292969 198.476562 214.632812 198.976562 215.015625 C 199.476562 215.398438 199.941406 215.824219 200.371094 216.28125 C 200.800781 216.742188 201.191406 217.234375 201.542969 217.761719 C 201.890625 218.285156 202.195312 218.832031 202.457031 219.40625 C 202.714844 219.980469 202.925781 220.574219 203.089844 221.183594 C 203.25 221.792969 203.363281 222.410156 203.425781 223.039062 C 203.484375 223.664062 203.496094 224.292969 203.453125 224.921875 C 203.410156 225.550781 203.316406 226.171875 203.175781 226.785156 C 203.03125 227.398438 202.835938 227.996094 202.59375 228.578125 C 202.351562 229.160156 202.066406 229.71875 201.730469 230.253906 C 201.398438 230.789062 201.023438 231.292969 200.605469 231.765625 C 200.191406 232.238281 199.738281 232.675781 199.25 233.074219 C 198.761719 233.472656 198.246094 233.828125 197.699219 234.144531 C 195.945312 235.160156 194.058594 235.671875 192.035156 235.675781 C 192.003906 235.675781 191.976562 235.675781 191.941406 235.675781 C 191.675781 235.675781 191.410156 235.703125 191.148438 235.753906 C 190.886719 235.804688 190.632812 235.882812 190.386719 235.984375 C 190.136719 236.085938 189.902344 236.210938 189.683594 236.359375 C 189.460938 236.507812 189.253906 236.675781 189.066406 236.867188 C 188.875 237.054688 188.707031 237.257812 188.558594 237.480469 C 188.410156 237.703125 188.285156 237.9375 188.183594 238.183594 C 188.082031 238.429688 188.003906 238.683594 187.953125 238.945312 C 187.898438 239.207031 187.875 239.472656 187.871094 239.738281 L 187.863281 247.9375 C 134.097656 241.382812 95.710938 216.308594 73.726562 173.335938 C 73.570312 173.03125 73.378906 172.75 73.148438 172.492188 C 72.921875 172.234375 72.667969 172.011719 72.382812 171.820312 C 72.097656 171.625 71.792969 171.472656 71.46875 171.355469 C 71.148438 171.242188 70.8125 171.167969 70.472656 171.136719 C 70.128906 171.105469 69.789062 171.117188 69.449219 171.171875 C 69.113281 171.226562 68.785156 171.324219 68.472656 171.460938 C 68.15625 171.601562 67.863281 171.773438 67.59375 171.988281 C 67.324219 172.199219 67.082031 172.441406 66.875 172.714844 C 65.582031 174.398438 64.171875 176.117188 62.679688 177.941406 C 61.921875 178.871094 61.15625 179.800781 60.421875 180.714844 C 48.90625 194.894531 46.21875 199.652344 47.363281 203.859375 C 48.285156 207.265625 51.421875 208.441406 53.945312 209.382812 C 54.34375 209.53125 54.761719 209.6875 55.191406 209.859375 C 56.253906 210.261719 57.335938 210.605469 58.433594 210.894531 C 60.757812 211.542969 62.207031 212.003906 62.726562 212.960938 C 63.109375 213.667969 63.785156 216.019531 61.753906 222.5625 C 61.523438 223.289062 61.449219 224.027344 61.523438 224.785156 C 61.597656 225.539062 61.820312 226.25 62.183594 226.914062 C 63.601562 229.519531 66.777344 230.796875 70.398438 231.882812 C 67.984375 233.429688 65.882812 235.371094 65.511719 238.09375 C 65.386719 239.148438 65.515625 240.171875 65.902344 241.164062 C 66.289062 242.15625 66.890625 242.996094 67.699219 243.6875 C 68.90625 244.804688 69.375 245.292969 69.882812 246.386719 C 71.070312 248.972656 70.085938 253.554688 69.136719 257.992188 C 67.714844 264.613281 66.105469 272.128906 70.300781 278.078125 C 73.214844 282.210938 78.324219 284.710938 85.929688 285.71875 C 93.992188 286.78125 102.933594 285.398438 110.820312 284.179688 C 119.460938 282.84375 128.398438 281.464844 130.90625 284.421875 C 132.195312 285.933594 135.4375 294.753906 137.710938 302.914062 C 139.847656 310.652344 141.3125 316.800781 140.621094 325.507812 C 140.585938 325.972656 140.628906 326.433594 140.75 326.886719 C 140.871094 327.339844 141.066406 327.757812 141.332031 328.144531 C 141.597656 328.527344 141.921875 328.855469 142.300781 329.132812 C 142.679688 329.40625 143.097656 329.605469 143.546875 329.738281 C 155.738281 333.269531 167.535156 335.042969 178.828125 335.042969 C 185.695312 335.054688 192.492188 334.375 199.222656 332.992188 C 215.199219 329.679688 230.417969 322.21875 244.457031 310.8125 C 244.765625 310.566406 245.027344 310.277344 245.25 309.953125 C 245.472656 309.628906 245.644531 309.277344 245.765625 308.902344 C 245.886719 308.527344 245.953125 308.140625 245.960938 307.746094 C 245.96875 307.355469 245.921875 306.964844 245.816406 306.585938 C 245.402344 305.347656 244.902344 304.140625 244.316406 302.972656 C 241.789062 297.730469 239.765625 292.300781 238.238281 286.683594 C 236.261719 278.832031 235.5 270.867188 235.957031 262.785156 C 235.964844 262.628906 235.976562 262.46875 235.988281 262.3125 C 236.992188 261.78125 237.992188 261.234375 238.976562 260.664062 C 246.96875 256.078125 254.128906 250.433594 260.453125 243.734375 L 275.609375 266.523438 L 272.625 268.238281 C 272.394531 268.375 272.179688 268.527344 271.976562 268.703125 C 271.777344 268.878906 271.59375 269.074219 271.429688 269.285156 C 271.269531 269.496094 271.128906 269.722656 271.007812 269.960938 C 270.890625 270.203125 270.796875 270.449219 270.726562 270.707031 C 270.660156 270.964844 270.613281 271.230469 270.597656 271.496094 C 270.578125 271.761719 270.589844 272.027344 270.621094 272.292969 C 270.65625 272.558594 270.71875 272.816406 270.804688 273.070312 C 270.890625 273.324219 271 273.566406 271.132812 273.796875 L 282.761719 293.972656 C 282.894531 294.207031 283.050781 294.421875 283.226562 294.621094 C 283.402344 294.824219 283.597656 295.007812 283.808594 295.167969 C 284.019531 295.332031 284.246094 295.472656 284.484375 295.589844 C 284.722656 295.710938 284.972656 295.804688 285.230469 295.871094 C 285.488281 295.941406 285.75 295.984375 286.019531 296.003906 C 286.285156 296.019531 286.550781 296.011719 286.816406 295.976562 C 287.082031 295.941406 287.339844 295.882812 287.59375 295.796875 C 287.84375 295.710938 288.085938 295.601562 288.320312 295.46875 L 339.402344 266.050781 C 339.632812 265.917969 339.851562 265.761719 340.050781 265.585938 C 340.253906 265.410156 340.433594 265.214844 340.597656 265.003906 C 340.761719 264.792969 340.902344 264.566406 341.019531 264.328125 C 341.136719 264.089844 341.230469 263.839844 341.300781 263.582031 C 341.371094 263.324219 341.414062 263.0625 341.429688 262.792969 C 341.449219 262.527344 341.441406 262.261719 341.40625 261.996094 C 341.371094 261.734375 341.3125 261.472656 341.226562 261.21875 C 341.140625 260.96875 341.03125 260.726562 340.898438 260.492188 Z M 129.378906 57.480469 C 170.433594 33.839844 222.753906 46.933594 248 86.457031 L 228.578125 97.644531 C 227.816406 96.789062 226.988281 96.003906 226.089844 95.289062 C 225.195312 94.574219 224.242188 93.945312 223.238281 93.394531 C 222.234375 92.839844 221.1875 92.378906 220.105469 92.007812 C 219.019531 91.636719 217.914062 91.359375 216.78125 91.175781 C 215.648438 90.992188 214.511719 90.90625 213.363281 90.921875 C 212.21875 90.933594 211.082031 91.042969 209.953125 91.25 C 208.828125 91.457031 207.726562 91.757812 206.648438 92.152344 C 205.574219 92.546875 204.539062 93.03125 203.546875 93.605469 C 202.554688 94.175781 201.617188 94.828125 200.734375 95.5625 C 199.855469 96.296875 199.042969 97.097656 198.296875 97.96875 C 197.554688 98.839844 196.890625 99.769531 196.304688 100.753906 C 195.71875 101.742188 195.222656 102.769531 194.8125 103.839844 C 194.40625 104.910156 194.089844 106.007812 193.871094 107.132812 C 193.648438 108.257812 193.523438 109.390625 193.496094 110.539062 C 193.472656 111.683594 193.542969 112.824219 193.710938 113.957031 C 193.878906 115.089844 194.140625 116.203125 194.5 117.289062 L 173.527344 129.375 L 149.386719 115.414062 C 149.152344 115.28125 148.910156 115.171875 148.65625 115.085938 C 148.402344 114.996094 148.144531 114.9375 147.878906 114.902344 C 147.613281 114.867188 147.347656 114.859375 147.078125 114.875 C 146.8125 114.894531 146.550781 114.9375 146.289062 115.007812 C 146.03125 115.078125 145.78125 115.171875 145.542969 115.289062 C 145.304688 115.410156 145.078125 115.550781 144.863281 115.714844 C 144.652344 115.878906 144.457031 116.058594 144.28125 116.261719 C 144.105469 116.464844 143.953125 116.679688 143.820312 116.914062 C 142.753906 118.753906 141.300781 120.203125 139.453125 121.257812 C 138.886719 121.585938 138.296875 121.859375 137.6875 122.089844 C 137.074219 122.320312 136.449219 122.496094 135.808594 122.621094 C 135.167969 122.75 134.519531 122.820312 133.867188 122.839844 C 133.214844 122.863281 132.566406 122.828125 131.917969 122.742188 C 131.273438 122.65625 130.636719 122.519531 130.011719 122.328125 C 129.386719 122.136719 128.78125 121.898438 128.199219 121.605469 C 127.613281 121.316406 127.054688 120.980469 126.523438 120.601562 C 125.996094 120.21875 125.5 119.796875 125.039062 119.335938 C 124.578125 118.875 124.15625 118.378906 123.777344 117.847656 C 123.398438 117.316406 123.0625 116.757812 122.777344 116.171875 C 122.488281 115.585938 122.25 114.980469 122.058594 114.355469 C 121.871094 113.730469 121.734375 113.09375 121.648438 112.445312 C 121.566406 111.800781 121.535156 111.148438 121.554688 110.496094 C 121.578125 109.84375 121.652344 109.199219 121.78125 108.558594 C 121.910156 107.917969 122.085938 107.292969 122.316406 106.683594 C 122.546875 106.070312 122.828125 105.484375 123.152344 104.917969 C 123.285156 104.6875 123.394531 104.445312 123.480469 104.191406 C 123.566406 103.941406 123.625 103.679688 123.660156 103.417969 C 123.695312 103.152344 123.703125 102.886719 123.683594 102.621094 C 123.667969 102.355469 123.621094 102.09375 123.554688 101.835938 C 123.484375 101.578125 123.390625 101.332031 123.273438 101.089844 C 123.152344 100.851562 123.015625 100.628906 122.851562 100.414062 C 122.6875 100.203125 122.507812 100.011719 122.308594 99.835938 C 122.105469 99.660156 121.890625 99.503906 121.660156 99.371094 L 99.101562 86.332031 C 102.921875 80.382812 107.394531 74.96875 112.511719 70.09375 C 117.632812 65.214844 123.253906 61.011719 129.378906 57.480469 Z M 185.003906 183.40625 C 184.597656 184.9375 183.914062 186.332031 182.945312 187.585938 C 181.980469 188.84375 180.8125 189.867188 179.4375 190.65625 C 177.585938 191.71875 175.59375 192.253906 173.460938 192.253906 C 173.191406 192.253906 172.929688 192.28125 172.667969 192.332031 C 172.402344 192.382812 172.148438 192.460938 171.902344 192.5625 C 171.65625 192.667969 171.421875 192.792969 171.199219 192.941406 C 170.976562 193.089844 170.773438 193.257812 170.582031 193.445312 C 170.394531 193.632812 170.226562 193.839844 170.078125 194.0625 C 169.929688 194.285156 169.804688 194.519531 169.703125 194.765625 C 169.597656 195.011719 169.523438 195.265625 169.46875 195.527344 C 169.417969 195.789062 169.390625 196.054688 169.390625 196.320312 L 169.378906 222.363281 C 167.535156 222.277344 165.699219 222.132812 163.863281 221.933594 C 162.03125 221.730469 160.207031 221.472656 158.386719 221.15625 C 156.570312 220.84375 154.765625 220.46875 152.972656 220.042969 C 151.179688 219.613281 149.398438 219.128906 147.636719 218.589844 C 145.871094 218.050781 144.125 217.453125 142.402344 216.804688 C 140.675781 216.15625 138.96875 215.453125 137.289062 214.699219 C 135.605469 213.941406 133.949219 213.136719 132.316406 212.277344 C 130.683594 211.414062 129.082031 210.507812 127.507812 209.546875 C 125.929688 208.585938 124.386719 207.578125 122.875 206.523438 C 121.363281 205.464844 119.886719 204.363281 118.445312 203.214844 C 117 202.066406 115.597656 200.871094 114.226562 199.636719 C 112.859375 198.398438 111.53125 197.121094 110.242188 195.800781 C 108.957031 194.480469 107.710938 193.121094 106.507812 191.722656 C 105.304688 190.324219 104.144531 188.890625 103.03125 187.421875 C 101.921875 185.949219 100.855469 184.445312 99.835938 182.910156 C 98.816406 181.371094 97.847656 179.804688 96.925781 178.207031 C 96.003906 176.609375 95.132812 174.984375 94.316406 173.332031 C 93.496094 171.679688 92.730469 170.003906 92.015625 168.300781 C 91.300781 166.601562 90.640625 164.882812 90.035156 163.140625 C 89.425781 161.398438 88.875 159.636719 88.378906 157.863281 C 87.882812 156.085938 87.441406 154.296875 87.058594 152.492188 C 86.675781 150.6875 86.347656 148.875 86.074219 147.050781 C 85.804688 145.226562 85.59375 143.394531 85.4375 141.558594 C 85.28125 139.71875 85.179688 137.878906 85.140625 136.035156 C 85.097656 134.191406 85.117188 132.347656 85.191406 130.507812 C 85.265625 128.664062 85.398438 126.824219 85.585938 124.992188 C 85.777344 123.15625 86.023438 121.328125 86.328125 119.511719 C 86.632812 117.691406 86.992188 115.882812 87.410156 114.085938 C 87.824219 112.289062 88.296875 110.507812 88.828125 108.742188 C 89.355469 106.976562 89.941406 105.226562 90.578125 103.496094 C 91.214844 101.765625 91.90625 100.058594 92.652344 98.371094 C 93.398438 96.683594 94.195312 95.023438 95.042969 93.382812 L 114.433594 104.59375 C 114.074219 105.679688 113.808594 106.789062 113.640625 107.921875 C 113.46875 109.058594 113.398438 110.195312 113.421875 111.339844 C 113.449219 112.488281 113.570312 113.621094 113.789062 114.746094 C 114.011719 115.871094 114.324219 116.96875 114.730469 118.039062 C 115.136719 119.109375 115.632812 120.136719 116.214844 121.125 C 116.800781 122.109375 117.460938 123.039062 118.203125 123.910156 C 118.945312 124.785156 119.757812 125.585938 120.636719 126.320312 C 121.515625 127.054688 122.453125 127.707031 123.445312 128.28125 C 124.4375 128.855469 125.46875 129.339844 126.542969 129.738281 C 127.617188 130.136719 128.71875 130.4375 129.847656 130.648438 C 130.972656 130.855469 132.109375 130.96875 133.253906 130.980469 C 134.398438 130.996094 135.539062 130.914062 136.667969 130.730469 C 137.800781 130.550781 138.910156 130.277344 139.992188 129.90625 C 141.078125 129.535156 142.121094 129.078125 143.128906 128.527344 C 144.132812 127.980469 145.085938 127.347656 145.984375 126.636719 C 146.882812 125.925781 147.710938 125.140625 148.476562 124.289062 L 169.453125 136.417969 L 169.425781 164.296875 C 169.425781 164.5625 169.449219 164.828125 169.503906 165.089844 C 169.554688 165.351562 169.632812 165.605469 169.734375 165.855469 C 169.835938 166.101562 169.960938 166.335938 170.109375 166.558594 C 170.257812 166.78125 170.425781 166.988281 170.613281 167.175781 C 170.804688 167.363281 171.007812 167.535156 171.230469 167.683594 C 171.453125 167.832031 171.6875 167.957031 171.933594 168.058594 C 172.183594 168.160156 172.4375 168.238281 172.699219 168.289062 C 172.960938 168.34375 173.226562 168.367188 173.492188 168.367188 C 173.949219 168.371094 174.402344 168.394531 174.855469 168.449219 C 175.308594 168.5 175.757812 168.578125 176.203125 168.683594 C 176.648438 168.785156 177.085938 168.914062 177.515625 169.070312 C 177.945312 169.222656 178.363281 169.402344 178.773438 169.601562 C 179.179688 169.804688 179.578125 170.03125 179.960938 170.277344 C 180.34375 170.523438 180.710938 170.792969 181.0625 171.082031 C 181.417969 171.375 181.75 171.683594 182.066406 172.011719 C 182.386719 172.339844 182.683594 172.683594 182.960938 173.046875 C 183.238281 173.40625 183.492188 173.785156 183.726562 174.175781 C 183.960938 174.566406 184.171875 174.972656 184.359375 175.386719 C 184.546875 175.804688 184.710938 176.226562 184.851562 176.664062 C 184.988281 177.097656 185.101562 177.539062 185.191406 177.984375 C 185.277344 178.433594 185.339844 178.886719 185.378906 179.339844 C 185.414062 179.792969 185.425781 180.25 185.410156 180.707031 C 185.394531 181.160156 185.351562 181.613281 185.285156 182.066406 C 185.21875 182.515625 185.125 182.964844 185.003906 183.402344 Z M 230.355469 288.703125 C 231.996094 294.792969 234.183594 300.683594 236.917969 306.371094 L 236.929688 306.394531 C 211.144531 326.289062 182.292969 331.660156 148.914062 322.78125 C 149.128906 314.472656 147.578125 308.054688 145.550781 300.738281 C 145.058594 298.964844 140.628906 283.285156 137.109375 279.148438 C 131.65625 272.726562 121.425781 274.308594 109.578125 276.136719 C 101.871094 277.328125 93.902344 278.558594 86.996094 277.648438 C 81.84375 276.964844 78.464844 275.53125 76.957031 273.390625 C 74.8125 270.347656 75.972656 264.933594 77.097656 259.695312 C 78.324219 253.957031 79.59375 248.027344 77.269531 242.972656 C 76.582031 241.457031 75.652344 240.109375 74.480469 238.925781 C 75.519531 238.246094 76.96875 237.484375 77.8125 237.039062 C 80.769531 235.484375 83.828125 233.875 83.339844 230.457031 C 82.855469 226.945312 79.363281 225.964844 74.945312 224.722656 C 73.289062 224.285156 71.65625 223.765625 70.054688 223.160156 C 71.761719 216.925781 71.695312 212.417969 69.871094 209.066406 C 67.667969 205.023438 63.59375 203.886719 60.621094 203.054688 C 59.796875 202.839844 58.988281 202.585938 58.191406 202.292969 C 57.707031 202.101562 57.238281 201.925781 56.792969 201.761719 C 56.40625 201.613281 55.941406 201.441406 55.542969 201.277344 C 56.558594 198.925781 60.3125 193.746094 66.746094 185.832031 C 67.476562 184.921875 68.226562 184.007812 68.972656 183.097656 L 69.429688 182.539062 C 80.984375 203.039062 96.597656 219.636719 115.914062 231.925781 C 136.058594 244.742188 160.25 252.867188 187.851562 256.125 L 187.835938 269.175781 C 187.835938 269.441406 187.863281 269.707031 187.914062 269.96875 C 187.964844 270.230469 188.042969 270.484375 188.144531 270.730469 C 188.246094 270.980469 188.371094 271.214844 188.519531 271.4375 C 188.667969 271.65625 188.835938 271.863281 189.023438 272.054688 C 189.210938 272.242188 189.417969 272.410156 189.636719 272.558594 C 189.859375 272.707031 190.09375 272.832031 190.339844 272.9375 C 190.585938 273.039062 190.839844 273.117188 191.101562 273.167969 C 191.367188 273.222656 191.628906 273.25 191.898438 273.25 L 192.097656 273.25 C 198.203125 273.242188 204.253906 272.648438 210.242188 271.460938 C 216.234375 270.273438 222.054688 268.519531 227.703125 266.195312 C 227.605469 273.8125 228.488281 281.316406 230.355469 288.703125 Z M 234.914062 253.613281 C 228.976562 257.042969 222.714844 259.722656 216.132812 261.648438 C 209.550781 263.578125 202.835938 264.703125 195.984375 265.023438 L 196.007812 243.398438 C 197.101562 243.167969 198.171875 242.847656 199.210938 242.433594 C 200.25 242.019531 201.25 241.523438 202.203125 240.9375 C 203.160156 240.355469 204.058594 239.695312 204.902344 238.960938 C 205.742188 238.222656 206.515625 237.421875 207.222656 236.550781 C 207.929688 235.683594 208.554688 234.761719 209.101562 233.785156 C 209.652344 232.808594 210.113281 231.792969 210.488281 230.738281 C 210.863281 229.683594 211.144531 228.605469 211.335938 227.503906 C 211.523438 226.402344 211.621094 225.289062 211.621094 224.171875 C 211.621094 223.050781 211.527344 221.941406 211.339844 220.835938 C 211.148438 219.734375 210.867188 218.65625 210.496094 217.601562 C 210.121094 216.546875 209.664062 215.53125 209.117188 214.554688 C 208.570312 213.578125 207.945312 212.652344 207.238281 211.785156 C 206.535156 210.914062 205.761719 210.109375 204.921875 209.371094 C 204.078125 208.636719 203.179688 207.972656 202.226562 207.390625 C 201.273438 206.804688 200.273438 206.304688 199.234375 205.890625 C 198.195312 205.476562 197.128906 205.15625 196.03125 204.921875 L 196.058594 181.480469 L 219.523438 167.957031 C 219.757812 167.824219 219.972656 167.671875 220.175781 167.496094 C 220.375 167.320312 220.558594 167.125 220.71875 166.914062 C 220.882812 166.703125 221.023438 166.476562 221.140625 166.234375 C 221.261719 165.996094 221.355469 165.746094 221.421875 165.488281 C 221.492188 165.230469 221.535156 164.96875 221.554688 164.703125 C 221.570312 164.4375 221.5625 164.171875 221.527344 163.90625 C 221.492188 163.640625 221.433594 163.382812 221.347656 163.128906 C 221.261719 162.875 221.152344 162.632812 221.019531 162.402344 C 220.640625 161.746094 220.332031 161.058594 220.089844 160.34375 C 219.847656 159.625 219.679688 158.890625 219.582031 158.140625 C 219.484375 157.390625 219.460938 156.636719 219.511719 155.882812 C 219.5625 155.128906 219.6875 154.382812 219.882812 153.652344 C 220.082031 152.921875 220.347656 152.21875 220.683594 151.539062 C 221.019531 150.859375 221.417969 150.222656 221.878906 149.621094 C 222.339844 149.023438 222.855469 148.472656 223.421875 147.972656 C 223.992188 147.476562 224.605469 147.035156 225.261719 146.660156 C 225.914062 146.28125 226.601562 145.96875 227.316406 145.726562 C 228.035156 145.484375 228.765625 145.316406 229.515625 145.214844 C 230.265625 145.117188 231.015625 145.09375 231.769531 145.144531 C 232.527344 145.191406 233.269531 145.316406 234 145.511719 C 234.726562 145.707031 235.433594 145.972656 236.109375 146.308594 C 236.789062 146.644531 237.425781 147.042969 238.027344 147.503906 C 238.625 147.960938 239.171875 148.476562 239.671875 149.046875 C 240.167969 149.613281 240.605469 150.226562 240.984375 150.882812 C 241.117188 151.113281 241.273438 151.328125 241.449219 151.53125 C 241.625 151.730469 241.816406 151.914062 242.03125 152.078125 C 242.242188 152.238281 242.46875 152.378906 242.707031 152.5 C 242.945312 152.617188 243.195312 152.710938 243.453125 152.78125 C 243.710938 152.851562 243.972656 152.894531 244.242188 152.910156 C 244.507812 152.929688 244.773438 152.921875 245.039062 152.886719 C 245.304688 152.851562 245.5625 152.789062 245.816406 152.703125 C 246.066406 152.621094 246.308594 152.507812 246.542969 152.375 L 268.4375 139.761719 C 271.402344 145.5 273.6875 151.496094 275.292969 157.75 L 275.292969 157.753906 C 276.332031 161.847656 277.070312 165.996094 277.5 170.199219 C 277.933594 174.402344 278.058594 178.613281 277.875 182.832031 C 277.691406 187.050781 277.203125 191.234375 276.40625 195.382812 C 275.609375 199.53125 274.515625 203.601562 273.125 207.589844 C 266.855469 204.941406 264.226562 200.816406 259.960938 194.113281 C 258.648438 192.054688 257.160156 189.71875 255.414062 187.199219 C 255.320312 187.0625 255.21875 186.933594 255.105469 186.8125 C 251.230469 182.464844 247.015625 180.304688 242.597656 180.382812 C 237.5625 180.472656 232.71875 183.417969 227.785156 189.378906 C 227.503906 189.714844 227.285156 190.089844 227.128906 190.496094 C 226.96875 190.902344 226.878906 191.324219 226.855469 191.761719 C 226.832031 192.195312 226.878906 192.625 226.992188 193.046875 C 227.109375 193.46875 227.289062 193.863281 227.53125 194.226562 L 255.8125 236.761719 C 249.738281 243.484375 242.773438 249.101562 234.914062 253.613281 Z M 236.054688 192.34375 C 238.535156 189.839844 240.78125 188.554688 242.746094 188.515625 C 244.640625 188.480469 246.707031 189.671875 248.875 192.046875 C 250.464844 194.351562 251.804688 196.449219 253.097656 198.484375 C 258.351562 206.734375 262.5 213.25 274.433594 216.640625 C 274.917969 216.777344 275.410156 216.824219 275.910156 216.78125 C 276.410156 216.734375 276.886719 216.601562 277.339844 216.378906 C 277.789062 216.160156 278.1875 215.863281 278.53125 215.496094 C 278.871094 215.125 279.136719 214.707031 279.324219 214.242188 C 282.203125 207.027344 284.167969 199.574219 285.21875 191.882812 C 286.269531 184.1875 286.378906 176.480469 285.546875 168.757812 C 301.179688 185.726562 308.71875 202.609375 309.683594 222.277344 C 310.082031 230.664062 309.800781 239.027344 308.839844 247.371094 L 282.675781 262.449219 Z M 287.78125 286.386719 L 280.214844 273.257812 L 324.246094 247.882812 L 331.816406 261.03125 Z M 287.78125 286.386719 " fill-opacity="1" fill-rule="nonzero"/></g></svg>