<svg xmlns="http://www.w3.org/2000/svg" xmlns:xlink="http://www.w3.org/1999/xlink" width="500" zoomAndPan="magnify" viewBox="0 0 375 374.999991" height="500" preserveAspectRatio="xMidYMid meet" version="1.0"><defs><clipPath id="6fbe7528f5"><path d="M 46.359375 46.359375 L 312.609375 46.359375 L 312.609375 312.609375 L 46.359375 312.609375 Z M 46.359375 46.359375 " clip-rule="nonzero"/></clipPath></defs><path fill="#a4d4ff" d="M 162.269531 57.09375 C 148.789062 63.820312 138.796875 77.296875 131.980469 90.355469 C 129.90625 94.335938 128.042969 98.425781 126.367188 102.589844 L 125.6875 104.28125 L 123.90625 103.890625 C 112.179688 101.332031 100.53125 97.816406 89.511719 93.035156 L 86.621094 91.777344 L 88.839844 89.539062 C 108.328125 69.886719 133.59375 57.027344 160.996094 53.03125 L 174.308594 51.089844 Z M 177.90625 56.082031 L 175.488281 56.378906 C 156.636719 58.679688 143.03125 76.179688 134.855469 91.851562 C 133.050781 95.3125 131.40625 98.863281 129.90625 102.46875 L 128.878906 104.9375 L 131.507812 105.417969 C 146.066406 108.085938 160.921875 109.414062 175.71875 109.613281 L 177.90625 109.640625 Z M 183.5625 56.378906 C 202.410156 58.679688 216.015625 76.179688 224.195312 91.851562 C 226 95.3125 227.636719 98.863281 229.136719 102.46875 L 230.164062 104.933594 L 227.535156 105.417969 C 212.980469 108.085938 198.121094 109.414062 183.328125 109.613281 L 181.144531 109.640625 L 181.144531 56.082031 Z M 227.0625 90.355469 C 229.136719 94.335938 231 98.425781 232.675781 102.589844 L 233.355469 104.28125 L 235.136719 103.890625 C 246.867188 101.328125 258.511719 97.816406 269.535156 93.035156 L 272.429688 91.777344 L 270.207031 89.535156 C 250.71875 69.886719 225.449219 57.027344 198.046875 53.03125 L 184.734375 51.085938 L 196.773438 57.09375 C 210.253906 63.820312 220.25 77.296875 227.0625 90.355469 Z M 128.539062 288.230469 C 128.488281 288.25 128.4375 288.273438 128.382812 288.292969 C 127.582031 288.632812 126.730469 288.804688 125.859375 288.804688 L 91.464844 288.804688 C 87.894531 288.804688 84.996094 285.902344 84.996094 282.332031 C 84.996094 278.765625 87.894531 275.863281 91.464844 275.863281 L 124.507812 275.863281 C 124.6875 275.863281 124.875 275.835938 125.042969 275.773438 L 158.734375 263.785156 C 158.867188 263.738281 158.992188 263.671875 159.109375 263.589844 C 165.136719 259.4375 172.203125 257.25 179.523438 257.25 C 186.84375 257.25 193.914062 259.4375 199.941406 263.589844 C 200.058594 263.671875 200.183594 263.738281 200.3125 263.785156 L 234 275.773438 C 234.171875 275.835938 234.359375 275.863281 234.542969 275.863281 L 267.582031 275.863281 C 271.148438 275.863281 274.050781 278.765625 274.050781 282.332031 C 274.050781 285.902344 271.152344 288.804688 267.582031 288.804688 L 233.183594 288.804688 C 232.308594 288.804688 231.449219 288.628906 230.640625 288.285156 C 230.601562 288.269531 230.5625 288.25 230.53125 288.238281 L 216.753906 283.328125 C 216.199219 283.132812 215.578125 283.253906 215.140625 283.644531 C 214.695312 284.039062 214.507812 284.640625 214.636719 285.214844 C 215.238281 287.851562 215.539062 290.558594 215.539062 293.261719 C 215.539062 298.835938 208.601562 302.101562 204.164062 303.648438 C 196.566406 306.300781 187.535156 307.234375 179.523438 307.234375 C 171.515625 307.234375 162.480469 306.300781 154.878906 303.648438 C 150.445312 302.101562 143.503906 298.835938 143.503906 293.261719 C 143.503906 290.558594 143.808594 287.851562 144.410156 285.214844 C 144.542969 284.636719 144.347656 284.035156 143.902344 283.644531 C 143.609375 283.378906 143.226562 283.238281 142.832031 283.238281 C 142.644531 283.238281 142.464844 283.269531 142.289062 283.332031 Z M 87.765625 243.988281 C 79.0625 243.988281 71.988281 236.914062 71.988281 228.214844 C 71.988281 219.511719 79.0625 212.4375 87.765625 212.4375 C 96.464844 212.4375 103.542969 219.511719 103.542969 228.214844 C 103.542969 236.914062 96.464844 243.988281 87.765625 243.988281 Z M 255.503906 228.214844 C 255.503906 219.511719 262.585938 212.4375 271.285156 212.4375 C 279.984375 212.4375 287.0625 219.515625 287.0625 228.214844 C 287.0625 236.910156 279.984375 243.988281 271.285156 243.988281 C 262.585938 243.988281 255.503906 236.914062 255.503906 228.214844 Z M 255.503906 228.214844 " fill-opacity="1" fill-rule="evenodd"/><g clip-path="url(#6fbe7528f5)"><path fill="#f5f5f5" d="M 193.140625 228.214844 C 193.140625 235.722656 187.035156 241.832031 179.523438 241.832031 C 172.015625 241.832031 165.90625 235.722656 165.90625 228.214844 C 165.90625 220.703125 172.015625 214.59375 179.523438 214.59375 C 187.035156 214.59375 193.140625 220.703125 193.140625 228.214844 Z M 184.105469 46.371094 L 174.941406 46.371094 C 141.089844 47.507812 109.429688 61.226562 85.359375 85.296875 C 60.207031 110.449219 46.355469 143.886719 46.355469 179.460938 C 46.355469 181.542969 48.046875 183.230469 50.132812 183.230469 L 308.917969 183.230469 C 310.996094 183.230469 312.691406 181.542969 312.691406 179.460938 C 312.691406 143.890625 298.835938 110.449219 273.683594 85.296875 C 249.617188 61.226562 217.957031 47.507812 184.105469 46.371094 Z M 158.359375 228.214844 C 158.359375 239.886719 167.851562 249.382812 179.523438 249.382812 C 191.195312 249.382812 200.691406 239.886719 200.691406 228.214844 C 200.691406 216.542969 191.195312 207.046875 179.523438 207.046875 C 167.851562 207.046875 158.359375 216.542969 158.359375 228.214844 Z M 271.277344 305.078125 C 253.511719 305.078125 238.902344 300.273438 237.535156 294.195312 L 267.578125 294.195312 C 274.121094 294.195312 279.441406 288.875 279.441406 282.332031 C 279.441406 275.796875 274.121094 270.472656 267.578125 270.472656 L 246.253906 270.472656 C 252.609375 263.523438 261.699219 259.40625 271.285156 259.40625 C 289.949219 259.40625 305.140625 274.59375 305.140625 293.261719 C 305.140625 299.777344 289.949219 305.078125 271.277344 305.078125 Z M 217.480469 281.296875 L 231.265625 286.210938 C 231.339844 286.242188 231.410156 286.269531 231.484375 286.300781 C 232.023438 286.53125 232.597656 286.648438 233.183594 286.648438 L 267.578125 286.648438 C 269.960938 286.648438 271.890625 284.714844 271.890625 282.332031 C 271.890625 279.957031 269.960938 278.019531 267.578125 278.019531 L 234.542969 278.019531 C 234.109375 278.019531 233.683594 277.949219 233.277344 277.804688 L 199.589844 265.816406 C 199.285156 265.703125 198.988281 265.554688 198.71875 265.367188 C 193.054688 261.46875 186.417969 259.40625 179.523438 259.40625 C 172.628906 259.40625 165.992188 261.46875 160.332031 265.367188 C 160.0625 265.554688 159.765625 265.703125 159.457031 265.816406 L 125.765625 277.804688 C 125.363281 277.949219 124.933594 278.019531 124.503906 278.019531 L 91.464844 278.019531 C 89.085938 278.019531 87.152344 279.957031 87.152344 282.332031 C 87.152344 284.714844 89.085938 286.648438 91.464844 286.648438 L 125.859375 286.648438 C 126.453125 286.648438 127.023438 286.53125 127.558594 286.300781 C 127.632812 286.269531 127.707031 286.242188 127.777344 286.210938 L 141.5625 281.296875 C 141.980469 281.152344 142.402344 281.078125 142.832031 281.078125 C 143.742188 281.078125 144.636719 281.410156 145.335938 282.03125 C 146.367188 282.949219 146.820312 284.351562 146.511719 285.695312 C 145.949219 288.164062 145.660156 290.710938 145.660156 293.261719 C 145.660156 299.777344 160.851562 305.078125 179.523438 305.078125 C 198.195312 305.078125 213.382812 299.777344 213.382812 293.261719 C 213.382812 290.707031 213.09375 288.164062 212.535156 285.695312 C 212.226562 284.351562 212.675781 282.949219 213.707031 282.03125 C 214.738281 281.117188 216.179688 280.839844 217.480469 281.296875 Z M 87.765625 305.078125 C 69.09375 305.078125 53.90625 299.777344 53.90625 293.261719 C 53.90625 274.59375 69.09375 259.40625 87.765625 259.40625 C 97.347656 259.40625 106.4375 263.523438 112.789062 270.472656 L 91.464844 270.472656 C 84.921875 270.472656 79.601562 275.796875 79.601562 282.332031 C 79.601562 288.875 84.921875 294.195312 91.464844 294.195312 L 121.507812 294.195312 C 120.140625 300.273438 105.53125 305.078125 87.765625 305.078125 Z M 271.285156 251.859375 C 257.386719 251.859375 244.339844 258.941406 236.710938 270.472656 L 235.195312 270.472656 L 202.578125 258.867188 C 195.746094 254.28125 187.789062 251.859375 179.523438 251.859375 C 171.257812 251.859375 163.300781 254.28125 156.472656 258.867188 L 123.855469 270.472656 L 122.332031 270.472656 C 114.707031 258.941406 101.660156 251.859375 87.765625 251.859375 C 64.929688 251.859375 46.355469 270.433594 46.355469 293.261719 C 46.355469 297.820312 48.828125 304.167969 60.585938 308.496094 C 67.820312 311.15625 77.472656 312.625 87.761719 312.625 C 98.054688 312.625 107.707031 311.15625 114.941406 308.496094 C 126.3125 304.308594 128.996094 298.238281 129.164062 293.722656 C 129.582031 293.601562 130.003906 293.457031 130.414062 293.289062 L 138.203125 290.511719 C 138.144531 291.425781 138.113281 292.34375 138.113281 293.261719 C 138.113281 297.820312 140.582031 304.167969 152.34375 308.496094 C 159.574219 311.15625 169.230469 312.625 179.523438 312.625 C 189.816406 312.625 199.464844 311.15625 206.699219 308.496094 C 218.460938 304.167969 220.929688 297.820312 220.929688 293.261719 C 220.929688 292.34375 220.894531 291.425781 220.835938 290.511719 L 228.628906 293.289062 C 229.039062 293.457031 229.457031 293.601562 229.878906 293.722656 C 230.046875 298.242188 232.730469 304.308594 244.101562 308.496094 C 251.335938 311.15625 260.984375 312.625 271.277344 312.625 C 281.570312 312.625 291.226562 311.15625 298.457031 308.496094 C 310.21875 304.167969 312.691406 297.820312 312.691406 293.261719 C 312.691406 270.433594 294.109375 251.859375 271.285156 251.859375 Z M 284.90625 228.214844 C 284.90625 235.722656 278.792969 241.832031 271.285156 241.832031 C 263.773438 241.832031 257.660156 235.722656 257.660156 228.214844 C 257.660156 220.703125 263.773438 214.59375 271.285156 214.59375 C 278.789062 214.59375 284.90625 220.703125 284.90625 228.214844 Z M 250.113281 228.214844 C 250.113281 239.886719 259.613281 249.382812 271.285156 249.382812 C 282.949219 249.382812 292.453125 239.886719 292.453125 228.214844 C 292.453125 216.542969 282.949219 207.046875 271.285156 207.046875 C 259.613281 207.046875 250.113281 216.542969 250.113281 228.214844 Z M 101.386719 228.214844 C 101.386719 235.722656 95.273438 241.832031 87.765625 241.832031 C 80.253906 241.832031 74.144531 235.722656 74.144531 228.214844 C 74.144531 220.703125 80.253906 214.59375 87.765625 214.59375 C 95.273438 214.59375 101.386719 220.703125 101.386719 228.214844 Z M 66.597656 228.214844 C 66.597656 239.886719 76.09375 249.382812 87.765625 249.382812 C 99.4375 249.382812 108.933594 239.886719 108.933594 228.214844 C 108.933594 216.542969 99.4375 207.046875 87.765625 207.046875 C 76.09375 207.046875 66.597656 216.542969 66.597656 228.214844 Z M 84.933594 96.894531 C 95.929688 101.894531 108.328125 105.929688 121.679688 108.914062 C 114.796875 128.640625 110.941406 151.605469 110.582031 175.683594 L 53.960938 175.683594 C 54.855469 145.582031 66.398438 118.105469 84.933594 96.894531 Z M 248.46875 175.683594 C 248.101562 151.605469 244.25 128.640625 237.363281 108.917969 C 250.71875 105.929688 263.117188 101.898438 274.109375 96.894531 C 292.644531 118.105469 304.1875 145.582031 305.082031 175.683594 Z M 175.75 115.003906 L 175.75 175.683594 L 118.128906 175.683594 C 118.492188 152.046875 122.320312 129.582031 129.140625 110.453125 C 143.855469 113.242188 159.570312 114.796875 175.75 115.003906 Z M 136.765625 92.847656 C 147.472656 72.324219 161.199219 60.296875 175.75 58.515625 L 175.75 107.457031 C 160.53125 107.253906 145.753906 105.835938 131.894531 103.296875 C 133.40625 99.667969 135.03125 96.175781 136.765625 92.847656 Z M 124.367188 101.785156 C 112.0625 99.097656 100.605469 95.5 90.371094 91.054688 C 109.101562 72.167969 133.769531 59.183594 161.308594 55.164062 C 149.5 61.054688 138.765625 72.699219 130.070312 89.359375 C 128.015625 93.296875 126.113281 97.449219 124.367188 101.785156 Z M 228.972656 89.359375 C 220.28125 72.699219 209.542969 61.054688 197.738281 55.164062 C 225.273438 59.179688 249.945312 72.167969 268.675781 91.054688 C 258.4375 95.496094 246.980469 99.097656 234.675781 101.785156 C 232.929688 97.449219 231.027344 93.296875 228.972656 89.359375 Z M 183.300781 107.457031 L 183.300781 58.515625 C 197.851562 60.296875 211.570312 72.324219 222.285156 92.847656 C 224.019531 96.175781 225.636719 99.667969 227.148438 103.296875 C 213.296875 105.835938 198.511719 107.253906 183.300781 107.457031 Z M 183.300781 115.003906 C 199.472656 114.796875 215.195312 113.242188 229.902344 110.453125 C 236.722656 129.582031 240.550781 152.046875 240.917969 175.683594 L 183.300781 175.683594 Z M 183.300781 115.003906 " fill-opacity="1" fill-rule="evenodd"/></g></svg>