<svg xmlns="http://www.w3.org/2000/svg" xmlns:xlink="http://www.w3.org/1999/xlink" width="500" zoomAndPan="magnify" viewBox="0 0 375 374.999991" height="500" preserveAspectRatio="xMidYMid meet" version="1.0"><defs><clipPath id="b8a5059d1e"><path d="M 44.585938 48.824219 L 345.335938 48.824219 L 345.335938 326.324219 L 44.585938 326.324219 Z M 44.585938 48.824219 " clip-rule="nonzero"/></clipPath></defs><path fill="#a4d4ff" d="M 227.746094 299.972656 L 221.652344 312.160156 C 220.726562 314.015625 218.828125 315.1875 216.753906 315.1875 C 214.679688 315.1875 212.785156 314.015625 211.855469 312.160156 L 145.679688 179.804688 C 150.15625 148.292969 165.253906 149.546875 165.253906 124.90625 C 165.253906 116.839844 163.109375 109.273438 159.351562 102.746094 L 317.496094 102.746094 C 319.394531 102.746094 321.160156 103.730469 322.15625 105.34375 C 323.15625 106.960938 323.246094 108.976562 322.394531 110.671875 L 282.03125 191.402344 L 282.121094 191.402344 C 284.46875 191.402344 286.375 193.300781 286.375 195.660156 C 286.375 208.4375 301.832031 214.835938 310.863281 205.800781 C 312.523438 204.140625 315.21875 204.140625 316.878906 205.800781 L 326.050781 214.964844 C 327.710938 216.625 327.710938 219.328125 326.050781 220.988281 C 317.027344 230.015625 323.425781 245.476562 336.195312 245.476562 C 338.542969 245.476562 340.449219 247.382812 340.449219 249.734375 L 340.449219 262.691406 C 340.449219 265.042969 338.542969 266.949219 336.195312 266.949219 C 323.425781 266.949219 317.027344 282.410156 326.050781 291.4375 C 327.710938 293.097656 327.710938 295.792969 326.050781 297.453125 L 316.878906 306.621094 C 315.21875 308.285156 312.523438 308.285156 310.863281 306.621094 C 301.839844 297.597656 286.375 303.996094 286.375 316.765625 C 286.375 319.117188 284.46875 321.019531 282.121094 321.019531 L 269.160156 321.019531 C 266.8125 321.019531 264.90625 319.117188 264.90625 316.765625 C 264.90625 303.996094 249.441406 297.597656 240.417969 306.621094 C 238.757812 308.285156 236.054688 308.285156 234.394531 306.621094 Z M 245.574219 264.316406 C 249.15625 277.5625 261.292969 287.351562 275.640625 287.351562 C 292.792969 287.351562 306.78125 273.367188 306.78125 256.214844 C 306.78125 239.066406 292.792969 225.074219 275.640625 225.074219 C 271.558594 225.074219 267.65625 225.867188 264.082031 227.304688 Z M 99.132812 227.707031 C 99.132812 223.777344 102.324219 220.589844 106.253906 220.589844 C 119.144531 219.390625 129.160156 221.558594 135.265625 220.589844 C 139.195312 220.589844 142.382812 223.777344 142.382812 227.707031 L 142.382812 229.289062 C 142.382812 233.21875 139.195312 236.410156 135.265625 236.410156 L 106.253906 236.410156 C 102.324219 236.410156 99.132812 233.21875 99.132812 229.289062 Z M 90.816406 195.277344 C 90.816406 191.785156 93.652344 188.949219 97.144531 188.949219 L 144.371094 188.949219 C 147.863281 188.949219 150.699219 191.785156 150.699219 195.277344 L 150.699219 198.441406 C 150.699219 201.933594 147.863281 204.769531 144.371094 204.769531 C 126.683594 204.09375 111.296875 203.539062 97.144531 204.769531 C 93.652344 204.769531 90.816406 201.933594 90.816406 198.441406 Z M 90.816406 195.277344 " fill-opacity="1" fill-rule="evenodd"/><g clip-path="url(#b8a5059d1e)"><path fill="#ffffff" d="M 92.773438 185.796875 C 90.878906 164.867188 84.527344 157.191406 79.636719 149.375 C 75.667969 143.039062 72.523438 136.628906 72.523438 124.816406 C 72.523438 97.894531 94.359375 76.0625 121.28125 76.0625 C 148.214844 76.0625 170.039062 97.894531 170.039062 124.816406 C 170.039062 136.628906 166.890625 143.039062 162.925781 149.375 C 158.03125 157.191406 151.683594 164.867188 149.789062 185.796875 C 153.171875 187.566406 155.480469 191.109375 155.480469 195.1875 L 155.480469 198.351562 C 155.480469 200.722656 154.699219 202.914062 153.382812 204.679688 C 154.699219 206.445312 155.480469 208.636719 155.480469 211.007812 L 155.480469 214.171875 C 155.480469 219.378906 151.714844 223.710938 146.757812 224.59375 C 147.023438 225.558594 147.164062 226.570312 147.164062 227.617188 L 147.164062 229.199219 C 147.164062 235.480469 142.066406 240.578125 135.785156 240.578125 L 106.773438 240.578125 C 100.496094 240.578125 95.394531 235.480469 95.394531 229.199219 L 95.394531 227.617188 C 95.394531 226.570312 95.539062 225.558594 95.800781 224.59375 C 90.847656 223.710938 87.078125 219.378906 87.078125 214.171875 L 87.078125 211.007812 C 87.078125 208.636719 87.859375 206.445312 89.179688 204.679688 C 87.859375 202.914062 87.078125 200.722656 87.078125 198.351562 L 87.078125 195.1875 C 87.078125 191.109375 89.390625 187.566406 92.773438 185.796875 Z M 141.339844 184.597656 C 143.097656 165.695312 148.179688 156.628906 152.914062 149.199219 C 157.308594 142.308594 161.515625 137.09375 161.515625 124.816406 C 161.515625 102.601562 143.507812 84.582031 121.28125 84.582031 C 99.0625 84.582031 81.042969 102.601562 81.042969 124.816406 C 81.042969 137.09375 85.253906 142.308594 89.644531 149.199219 C 94.382812 156.628906 99.460938 165.695312 101.21875 184.597656 L 109 184.597656 C 109.523438 171.0625 110.363281 159.539062 109.554688 147.941406 C 107.886719 147.878906 106.695312 147.800781 106.308594 147.707031 C 93.261719 144.582031 90.800781 135.039062 92.019531 128.625 C 92.664062 125.222656 94.472656 122.59375 96.398438 121.332031 C 103.691406 116.542969 113.558594 121.023438 115.613281 130.269531 C 116.324219 133.484375 116.871094 136.625 117.277344 139.738281 C 119.136719 139.757812 121.09375 139.773438 122.957031 139.785156 C 123.222656 136.835938 123.570312 134.269531 124 132.207031 C 125.632812 124.386719 131.90625 121.03125 137.78125 121.007812 C 141.898438 120.992188 145.75 122.710938 147.914062 125.433594 C 152.394531 131.070312 151.652344 138.773438 146.195312 143.789062 C 143.015625 146.710938 138.101562 148.75 131.558594 148.371094 C 131.429688 148.363281 131.210938 148.355469 130.917969 148.347656 C 130.496094 158.941406 130.816406 172.320312 131.625 184.597656 Z M 144.894531 200.417969 C 146.035156 200.417969 146.960938 199.492188 146.960938 198.351562 L 146.960938 195.1875 C 146.960938 194.046875 146.035156 193.117188 144.894531 193.117188 L 97.667969 193.117188 C 96.527344 193.117188 95.601562 194.046875 95.601562 195.1875 L 95.601562 198.351562 C 95.601562 199.492188 96.527344 200.417969 97.667969 200.417969 Z M 117.527344 184.597656 L 123.085938 184.597656 C 122.300781 172.292969 122.027344 158.976562 122.4375 148.21875 C 121.023438 148.199219 119.546875 148.179688 118.082031 148.152344 C 118.792969 159.65625 118.035156 171.171875 117.527344 184.597656 Z M 97.667969 216.238281 L 144.894531 216.238281 C 146.035156 216.238281 146.960938 215.3125 146.960938 214.171875 L 146.960938 211.007812 C 146.960938 209.867188 146.035156 208.9375 144.894531 208.9375 L 97.667969 208.9375 C 96.527344 208.9375 95.601562 209.867188 95.601562 211.007812 L 95.601562 214.171875 C 95.601562 215.3125 96.527344 216.238281 97.667969 216.238281 Z M 106.773438 224.757812 C 105.195312 224.757812 103.914062 226.039062 103.914062 227.617188 L 103.914062 229.199219 C 103.914062 230.777344 105.195312 232.058594 106.773438 232.058594 L 135.785156 232.058594 C 137.363281 232.058594 138.644531 230.777344 138.644531 229.199219 L 138.644531 227.617188 C 138.644531 226.039062 137.363281 224.757812 135.785156 224.757812 Z M 108.648438 139.476562 C 108.292969 137.054688 107.847656 134.605469 107.292969 132.117188 C 106.59375 128.964844 103.558594 126.820312 101.074219 128.453125 C 100.695312 128.699219 100.589844 129.324219 100.441406 129.972656 C 100.039062 131.71875 100.300781 133.972656 101.820312 135.847656 C 103.109375 137.429688 105.214844 138.683594 108.292969 139.421875 C 108.375 139.441406 108.492188 139.457031 108.648438 139.476562 Z M 131.480469 139.84375 C 131.742188 139.851562 131.9375 139.855469 132.054688 139.863281 C 140.15625 140.335938 144.476562 134.804688 141.246094 130.734375 C 140.535156 129.839844 139.167969 129.523438 137.816406 129.527344 C 135.488281 129.539062 132.988281 130.851562 132.339844 133.949219 C 131.996094 135.601562 131.710938 137.585938 131.480469 139.84375 Z M 279.148438 188.59375 L 161.347656 188.59375 C 158.996094 188.59375 157.089844 186.683594 157.089844 184.335938 C 157.089844 181.984375 158.996094 180.074219 161.347656 180.074219 L 283.410156 180.074219 L 298.96875 148.953125 L 177.058594 148.953125 C 174.707031 148.953125 172.796875 147.042969 172.796875 144.691406 C 172.796875 142.339844 174.707031 140.433594 177.058594 140.433594 L 303.230469 140.433594 L 319.988281 106.917969 L 176.441406 106.917969 C 174.089844 106.917969 172.179688 105.007812 172.179688 102.65625 C 172.179688 100.304688 174.089844 98.398438 176.441406 98.398438 L 326.878906 98.398438 C 328.355469 98.398438 329.730469 99.160156 330.503906 100.417969 C 331.28125 101.671875 331.351562 103.242188 330.691406 104.5625 L 221.085938 323.773438 C 220.363281 325.214844 218.890625 326.125 217.277344 326.125 C 215.664062 326.125 214.1875 325.214844 213.464844 323.773438 L 160.113281 217.066406 C 159.0625 214.964844 159.917969 212.402344 162.019531 211.351562 C 164.121094 210.300781 166.683594 211.15625 167.734375 213.257812 L 170.964844 219.714844 L 263.589844 219.714844 Z M 175.222656 228.234375 L 190.785156 259.355469 L 243.769531 259.355469 L 259.328125 228.234375 Z M 195.042969 267.875 L 217.277344 312.339844 L 239.507812 267.875 Z M 269.6875 316.671875 L 282.636719 316.671875 C 282.640625 300.117188 302.6875 291.816406 314.394531 303.515625 L 323.554688 294.355469 C 311.859375 282.648438 320.15625 262.601562 336.710938 262.597656 L 336.710938 249.648438 C 320.152344 249.644531 311.855469 229.589844 323.558594 217.886719 L 314.394531 208.730469 C 306.839844 216.277344 295.828125 215.519531 288.964844 209.570312 C 288.488281 209.160156 288.03125 208.71875 287.59375 208.257812 C 285.984375 206.546875 286.070312 203.847656 287.78125 202.238281 C 289.496094 200.625 292.191406 200.710938 293.804688 202.421875 C 294.039062 202.671875 294.285156 202.910156 294.542969 203.132812 C 298.273438 206.367188 304.265625 206.804688 308.371094 202.699219 C 311.699219 199.375 317.089844 199.375 320.414062 202.699219 L 329.585938 211.863281 C 332.90625 215.183594 332.90625 220.589844 329.585938 223.910156 C 323.242188 230.257812 327.738281 241.125 336.714844 241.125 C 341.417969 241.125 345.230469 244.941406 345.230469 249.644531 L 345.230469 262.601562 C 345.230469 267.304688 341.417969 271.117188 336.714844 271.117188 C 327.738281 271.117188 323.242188 281.988281 329.585938 288.332031 C 332.910156 291.65625 332.910156 297.050781 329.585938 300.375 L 320.414062 309.546875 C 317.089844 312.871094 311.699219 312.871094 308.371094 309.546875 C 302.027344 303.199219 291.160156 307.699219 291.160156 316.675781 C 291.160156 321.378906 287.34375 325.191406 282.640625 325.191406 L 269.683594 325.191406 C 264.980469 325.191406 261.167969 321.378906 261.167969 316.675781 C 261.167969 307.699219 250.296875 303.199219 243.953125 309.546875 C 242.289062 311.207031 239.589844 311.207031 237.925781 309.546875 C 236.265625 307.882812 236.265625 305.183594 237.925781 303.519531 C 249.632812 291.816406 269.683594 300.113281 269.6875 316.671875 Z M 251.332031 281.316406 C 249.65625 279.667969 249.636719 276.96875 251.289062 275.292969 C 252.9375 273.617188 255.636719 273.597656 257.3125 275.25 C 262.171875 280.039062 268.832031 283.003906 276.164062 283.003906 C 290.96875 283.003906 303.042969 270.929688 303.042969 256.121094 C 303.042969 242.875 293.371094 231.808594 280.722656 229.632812 C 278.40625 229.230469 276.847656 227.027344 277.246094 224.710938 C 277.644531 222.394531 279.851562 220.835938 282.167969 221.234375 C 298.824219 224.101562 311.5625 238.675781 311.5625 256.121094 C 311.5625 275.625 295.664062 291.523438 276.164062 291.523438 C 266.507812 291.523438 257.730469 287.625 251.332031 281.316406 Z M 117.019531 53.066406 C 117.019531 50.714844 118.929688 48.804688 121.28125 48.804688 C 123.632812 48.804688 125.539062 50.714844 125.539062 53.066406 L 125.539062 65.261719 C 125.539062 67.613281 123.632812 69.519531 121.28125 69.519531 C 118.929688 69.519531 117.019531 67.613281 117.019531 65.261719 Z M 64.085938 78.523438 C 62.421875 76.859375 62.421875 74.160156 64.085938 72.496094 C 65.75 70.835938 68.449219 70.835938 70.109375 72.496094 L 78.734375 81.121094 C 80.394531 82.78125 80.394531 85.480469 78.734375 87.144531 C 77.070312 88.808594 74.371094 88.808594 72.707031 87.144531 Z M 48.847656 124.660156 C 46.496094 124.660156 44.585938 122.75 44.585938 120.398438 C 44.585938 118.046875 46.496094 116.140625 48.847656 116.140625 L 61.039062 116.140625 C 63.390625 116.140625 65.300781 118.046875 65.300781 120.398438 C 65.300781 122.75 63.390625 124.660156 61.039062 124.660156 Z M 193.714844 116.140625 C 196.066406 116.140625 197.976562 118.046875 197.976562 120.398438 C 197.976562 122.75 196.066406 124.660156 193.714844 124.660156 L 181.519531 124.660156 C 179.167969 124.660156 177.261719 122.75 177.261719 120.398438 C 177.261719 118.046875 179.167969 116.140625 181.519531 116.140625 Z M 172.449219 72.496094 C 174.113281 70.835938 176.8125 70.835938 178.476562 72.496094 C 180.136719 74.160156 180.136719 76.859375 178.476562 78.523438 L 169.851562 87.144531 C 168.191406 88.808594 165.492188 88.808594 163.828125 87.144531 C 162.164062 85.480469 162.164062 82.78125 163.828125 81.121094 Z M 172.449219 72.496094 " fill-opacity="1" fill-rule="evenodd"/></g></svg>