<svg xmlns="http://www.w3.org/2000/svg" xmlns:xlink="http://www.w3.org/1999/xlink" width="500" zoomAndPan="magnify" viewBox="0 0 375 374.999991" height="500" preserveAspectRatio="xMidYMid meet" version="1.0"><defs><clipPath id="77c29c3fe9"><path d="M 116 58.5 L 259 58.5 L 259 229 L 116 229 Z M 116 58.5 " clip-rule="nonzero"/></clipPath><clipPath id="8711fce5b0"><path d="M 242 144 L 314.949219 144 L 314.949219 276 L 242 276 Z M 242 144 " clip-rule="nonzero"/></clipPath><clipPath id="88f9bd6fee"><path d="M 59.949219 144 L 133 144 L 133 276 L 59.949219 276 Z M 59.949219 144 " clip-rule="nonzero"/></clipPath><clipPath id="cd0767aa29"><path d="M 84 302 L 137 302 L 137 316.5 L 84 316.5 Z M 84 302 " clip-rule="nonzero"/></clipPath><clipPath id="e5e12bcfee"><path d="M 238 302 L 291 302 L 291 316.5 L 238 316.5 Z M 238 302 " clip-rule="nonzero"/></clipPath></defs><g clip-path="url(#77c29c3fe9)"><path fill="#2a7abd" d="M 258.277344 165.636719 L 258.277344 89.988281 C 258.277344 88.679688 257.214844 87.589844 255.90625 87.5625 C 224.40625 86.835938 205.582031 72.996094 190.417969 60.082031 C 188.6875 58.609375 186.273438 58.609375 184.546875 60.082031 C 169.378906 72.996094 150.554688 86.835938 119.054688 87.5625 C 117.746094 87.59375 116.683594 88.679688 116.683594 89.988281 L 116.683594 165.632812 C 134.003906 189.25 155.433594 208.902344 184.023438 227.429688 C 186.1875 228.832031 188.777344 228.832031 190.945312 227.429688 C 219.539062 208.910156 240.960938 189.25 258.285156 165.632812 Z M 208.339844 95.894531 C 215.988281 99.648438 224.085938 102.492188 232.417969 104.359375 C 236.132812 105.191406 238.722656 108.425781 238.722656 112.230469 L 238.722656 157.917969 C 238.722656 158.671875 238.464844 159.398438 238 159.992188 C 225.488281 175.804688 210.496094 189.859375 192.164062 202.960938 C 190.738281 203.980469 189.105469 204.488281 187.476562 204.488281 C 185.84375 204.488281 184.210938 203.980469 182.785156 202.960938 C 164.449219 189.859375 149.457031 175.804688 136.953125 159.992188 C 136.484375 159.398438 136.234375 158.671875 136.234375 157.917969 L 136.234375 112.230469 C 136.234375 108.425781 138.828125 105.191406 142.539062 104.359375 C 150.871094 102.5 158.96875 99.648438 166.617188 95.894531 C 172.070312 93.214844 177.378906 90.050781 182.851562 86.214844 C 185.664062 84.242188 189.300781 84.242188 192.113281 86.214844 C 197.585938 90.050781 202.898438 93.21875 208.351562 95.894531 Z M 208.339844 95.894531 " fill-opacity="1" fill-rule="evenodd"/></g><path fill="#ffffff" d="M 182.902344 159.863281 L 210.429688 132.335938 C 211.730469 131.035156 211.730469 128.917969 210.429688 127.613281 C 209.125 126.308594 207.007812 126.308594 205.699219 127.613281 L 180.535156 152.777344 L 169.25 141.492188 C 167.949219 140.191406 165.832031 140.191406 164.523438 141.492188 C 163.21875 142.796875 163.21875 144.914062 164.523438 146.214844 L 178.167969 159.863281 C 178.820312 160.519531 179.675781 160.84375 180.53125 160.84375 C 181.382812 160.84375 182.238281 160.519531 182.890625 159.863281 Z M 182.902344 159.863281 " fill-opacity="1" fill-rule="evenodd"/><g clip-path="url(#8711fce5b0)"><path fill="#ffffff" d="M 246.953125 238.527344 C 243.863281 242.128906 242.359375 246.175781 242.359375 250.917969 L 242.359375 275.226562 L 286.042969 275.226562 L 286.042969 266.34375 C 286.042969 262.652344 287.113281 259.414062 289.3125 256.453125 L 311.335938 226.773438 C 313.847656 223.386719 315.015625 219.84375 315.015625 215.625 L 315.015625 144.167969 L 312.851562 144.167969 C 306.449219 144.167969 301.242188 149.347656 301.242188 155.71875 L 301.242188 204.558594 C 301.257812 204.683594 301.28125 204.800781 301.285156 204.921875 C 301.410156 206.609375 300.875 208.242188 299.777344 209.523438 L 265.53125 249.351562 C 264.328125 250.75 262.214844 250.910156 260.816406 249.707031 C 259.417969 248.503906 259.257812 246.394531 260.460938 244.996094 L 294.476562 205.441406 L 292.273438 203.546875 C 289.941406 201.539062 286.960938 200.566406 283.875 200.792969 C 280.789062 201.027344 277.988281 202.441406 275.984375 204.769531 Z M 246.953125 238.527344 " fill-opacity="1" fill-rule="evenodd"/></g><path fill="#ffffff" d="M 292.347656 281.917969 L 236.066406 281.917969 C 235.386719 281.917969 234.808594 282.492188 234.808594 283.175781 L 234.808594 294.960938 C 234.808594 295.640625 235.378906 296.214844 236.066406 296.214844 L 292.347656 296.214844 C 293.027344 296.214844 293.605469 295.640625 293.605469 294.960938 L 293.605469 283.175781 C 293.605469 282.492188 293.027344 281.917969 292.347656 281.917969 Z M 292.347656 281.917969 " fill-opacity="1" fill-rule="evenodd"/><path fill="#ffffff" d="M 82.609375 281.917969 L 138.890625 281.917969 C 139.585938 281.917969 140.148438 282.480469 140.148438 283.175781 L 140.148438 294.960938 C 140.148438 295.65625 139.585938 296.21875 138.890625 296.21875 L 82.609375 296.21875 C 81.917969 296.21875 81.355469 295.65625 81.355469 294.96875 L 81.355469 283.183594 C 81.355469 282.484375 81.917969 281.921875 82.613281 281.921875 Z M 82.609375 281.917969 " fill-opacity="1" fill-rule="nonzero"/><g clip-path="url(#88f9bd6fee)"><path fill="#ffffff" d="M 88.90625 275.234375 L 132.589844 275.234375 L 132.589844 250.921875 C 132.589844 246.183594 131.085938 242.128906 127.996094 238.535156 L 98.964844 204.777344 C 96.960938 202.441406 94.160156 201.035156 91.074219 200.800781 C 87.988281 200.570312 85.007812 201.546875 82.675781 203.550781 L 80.476562 205.445312 L 114.488281 245 C 115.691406 246.398438 115.53125 248.511719 114.132812 249.714844 C 112.734375 250.917969 110.625 250.753906 109.421875 249.355469 L 75.171875 209.527344 C 74.074219 208.246094 73.535156 206.613281 73.664062 204.925781 C 73.675781 204.804688 73.691406 204.6875 73.707031 204.566406 L 73.707031 155.722656 C 73.707031 149.351562 68.5 144.171875 62.09375 144.171875 L 59.933594 144.171875 L 59.933594 215.632812 C 59.933594 219.847656 61.105469 223.390625 63.617188 226.777344 L 85.636719 256.457031 C 87.839844 259.421875 88.90625 262.65625 88.90625 266.351562 Z M 88.90625 275.234375 " fill-opacity="1" fill-rule="evenodd"/></g><g clip-path="url(#cd0767aa29)"><path fill="#ffffff" d="M 84.746094 302.898438 L 136.75 302.898438 L 136.75 316.371094 L 84.746094 316.371094 Z M 84.746094 302.898438 " fill-opacity="1" fill-rule="nonzero"/></g><g clip-path="url(#e5e12bcfee)"><path fill="#ffffff" d="M 238.203125 302.898438 L 290.207031 302.898438 L 290.207031 316.371094 L 238.203125 316.371094 Z M 238.203125 302.898438 " fill-opacity="1" fill-rule="nonzero"/></g></svg>