<svg xmlns="http://www.w3.org/2000/svg" xmlns:xlink="http://www.w3.org/1999/xlink" width="500" zoomAndPan="magnify" viewBox="0 0 375 374.999991" height="500" preserveAspectRatio="xMidYMid meet" version="1.0"><defs><clipPath id="b3c262e60d"><path d="M 39 42 L 337 42 L 337 333.375 L 39 333.375 Z M 39 42 " clip-rule="nonzero"/></clipPath></defs><path fill="#bdf3ec" d="M 44.90625 187.941406 L 68.660156 250.457031 C 90.503906 280.160156 105.628906 263.425781 108.277344 300.953125 L 156.640625 300.953125 C 152.695312 272.515625 145.101562 254.664062 134.761719 244.800781 L 100.074219 218.1875 C 99.582031 217.808594 99.058594 217.476562 98.507812 217.1875 C 97.957031 216.898438 97.382812 216.660156 96.792969 216.46875 C 96.199219 216.28125 95.59375 216.140625 94.976562 216.054688 C 94.363281 215.96875 93.742188 215.933594 93.121094 215.953125 C 92.5 215.972656 91.882812 216.042969 91.273438 216.167969 C 90.664062 216.292969 90.070312 216.46875 89.488281 216.695312 C 88.910156 216.925781 88.351562 217.199219 87.820312 217.519531 C 87.289062 217.84375 86.785156 218.207031 86.316406 218.617188 L 70.910156 178.0625 C 70.582031 177.210938 70.175781 176.398438 69.691406 175.625 C 69.203125 174.855469 68.648438 174.136719 68.019531 173.472656 C 67.390625 172.8125 66.707031 172.214844 65.960938 171.6875 C 65.21875 171.15625 64.429688 170.707031 63.597656 170.332031 C 62.765625 169.960938 61.902344 169.671875 61.011719 169.464844 C 60.125 169.261719 59.222656 169.144531 58.308594 169.117188 C 57.398438 169.089844 56.492188 169.148438 55.589844 169.300781 C 54.691406 169.449219 53.8125 169.6875 52.960938 170.007812 C 52.109375 170.335938 51.296875 170.742188 50.523438 171.226562 C 49.753906 171.714844 49.035156 172.269531 48.371094 172.894531 C 47.710938 173.523438 47.113281 174.207031 46.585938 174.949219 C 46.058594 175.695312 45.605469 176.480469 45.234375 177.3125 C 44.859375 178.144531 44.570312 179.007812 44.363281 179.894531 C 44.160156 180.785156 44.042969 181.683594 44.015625 182.597656 C 43.988281 183.507812 44.046875 184.414062 44.199219 185.3125 C 44.347656 186.214844 44.582031 187.089844 44.90625 187.941406 Z M 44.90625 187.941406 " fill-opacity="1" fill-rule="evenodd"/><path fill="#42a6a3" d="M 96.898438 300.957031 L 164.972656 300.957031 L 164.972656 329.296875 L 96.898438 329.296875 Z M 96.898438 300.957031 " fill-opacity="1" fill-rule="nonzero"/><path fill="#bdf3ec" d="M 331.882812 187.941406 L 308.132812 250.457031 C 286.300781 280.160156 271.164062 263.425781 268.515625 300.953125 L 220.15625 300.953125 C 224.117188 272.515625 231.710938 254.664062 242.050781 244.800781 L 276.71875 218.191406 C 277.210938 217.8125 277.734375 217.476562 278.285156 217.191406 C 278.839844 216.902344 279.410156 216.660156 280.003906 216.472656 C 280.59375 216.28125 281.199219 216.140625 281.816406 216.054688 C 282.433594 215.96875 283.050781 215.933594 283.671875 215.953125 C 284.296875 215.972656 284.910156 216.046875 285.519531 216.171875 C 286.132812 216.296875 286.726562 216.472656 287.304688 216.699219 C 287.886719 216.925781 288.441406 217.199219 288.972656 217.523438 C 289.507812 217.84375 290.007812 218.210938 290.476562 218.617188 L 305.894531 178.0625 C 306.222656 177.210938 306.628906 176.398438 307.113281 175.625 C 307.597656 174.855469 308.152344 174.136719 308.78125 173.472656 C 309.40625 172.808594 310.09375 172.214844 310.835938 171.683594 C 311.578125 171.15625 312.367188 170.707031 313.199219 170.332031 C 314.03125 169.957031 314.890625 169.667969 315.78125 169.464844 C 316.671875 169.257812 317.570312 169.144531 318.484375 169.117188 C 319.394531 169.085938 320.300781 169.148438 321.199219 169.300781 C 322.101562 169.449219 322.976562 169.6875 323.832031 170.007812 C 324.683594 170.335938 325.496094 170.738281 326.265625 171.226562 C 327.039062 171.710938 327.757812 172.265625 328.421875 172.894531 C 329.085938 173.519531 329.679688 174.203125 330.207031 174.949219 C 330.738281 175.691406 331.1875 176.480469 331.5625 177.3125 C 331.9375 178.144531 332.226562 179.003906 332.429688 179.894531 C 332.632812 180.78125 332.75 181.683594 332.777344 182.59375 C 332.804688 183.507812 332.746094 184.414062 332.59375 185.3125 C 332.445312 186.214844 332.207031 187.089844 331.882812 187.941406 Z M 331.882812 187.941406 " fill-opacity="1" fill-rule="evenodd"/><path fill="#42a6a3" d="M 211.820312 300.957031 L 279.90625 300.957031 L 279.90625 329.296875 L 211.820312 329.296875 Z M 211.820312 300.957031 " fill-opacity="1" fill-rule="nonzero"/><path fill="#79cecb" d="M 130.53125 46.574219 L 214.726562 46.574219 L 257.203125 89.050781 L 257.203125 216.480469 C 257.203125 217.199219 257.128906 217.910156 256.988281 218.613281 C 256.847656 219.316406 256.636719 220 256.363281 220.664062 C 256.085938 221.328125 255.75 221.957031 255.351562 222.554688 C 254.949219 223.152344 254.496094 223.703125 253.988281 224.210938 C 253.480469 224.71875 252.929688 225.171875 252.332031 225.570312 C 251.734375 225.972656 251.105469 226.308594 250.441406 226.585938 C 249.777344 226.859375 249.09375 227.070312 248.390625 227.210938 C 247.6875 227.351562 246.976562 227.425781 246.257812 227.425781 L 134.164062 227.425781 C 133.207031 227.421875 132.261719 227.328125 131.324219 227.140625 C 130.386719 226.949219 129.476562 226.671875 128.59375 226.304688 C 127.707031 225.9375 126.871094 225.488281 126.074219 224.957031 C 125.277344 224.425781 124.542969 223.820312 123.867188 223.144531 C 123.191406 222.46875 122.585938 221.730469 122.054688 220.9375 C 121.523438 220.140625 121.074219 219.300781 120.707031 218.417969 C 120.339844 217.535156 120.058594 216.625 119.871094 215.6875 C 119.683594 214.75 119.585938 213.800781 119.585938 212.84375 L 119.585938 57.523438 C 119.585938 56.804688 119.660156 56.09375 119.800781 55.386719 C 119.941406 54.683594 120.148438 54 120.425781 53.335938 C 120.703125 52.675781 121.039062 52.042969 121.4375 51.445312 C 121.839844 50.851562 122.292969 50.296875 122.800781 49.789062 C 123.308594 49.28125 123.859375 48.828125 124.457031 48.429688 C 125.054688 48.027344 125.683594 47.691406 126.347656 47.414062 C 127.011719 47.140625 127.695312 46.929688 128.398438 46.789062 C 129.101562 46.648438 129.816406 46.578125 130.53125 46.574219 Z M 130.53125 46.574219 " fill-opacity="1" fill-rule="evenodd"/><path fill="#42a6a3" d="M 257.207031 89.050781 L 225.675781 89.050781 C 224.960938 89.046875 224.246094 88.976562 223.542969 88.835938 C 222.839844 88.691406 222.15625 88.484375 221.492188 88.207031 C 220.828125 87.933594 220.199219 87.59375 219.601562 87.195312 C 219.003906 86.796875 218.453125 86.339844 217.945312 85.832031 C 217.4375 85.324219 216.984375 84.773438 216.582031 84.175781 C 216.183594 83.578125 215.847656 82.949219 215.570312 82.285156 C 215.292969 81.621094 215.085938 80.9375 214.941406 80.234375 C 214.800781 79.53125 214.730469 78.820312 214.726562 78.101562 L 214.726562 46.574219 Z M 257.207031 89.050781 " fill-opacity="1" fill-rule="evenodd"/><path fill="#79cecb" d="M 119.585938 79.78125 C 106.910156 90.320312 92.347656 94.246094 76.285156 93 C 76.664062 144.910156 91.113281 165.113281 119.585938 183.425781 C 148.054688 165.109375 162.503906 144.90625 162.882812 92.996094 C 146.824219 94.246094 132.257812 90.316406 119.585938 79.78125 Z M 119.585938 79.78125 " fill-opacity="1" fill-rule="evenodd"/><path fill="#bdf3ec" d="M 142.730469 119.164062 L 126.621094 119.164062 L 126.621094 103.054688 L 112.550781 103.054688 L 112.550781 119.164062 L 96.441406 119.164062 L 96.441406 133.21875 L 112.550781 133.21875 L 112.550781 149.347656 L 126.621094 149.347656 L 126.621094 133.21875 L 142.730469 133.21875 Z M 142.730469 119.164062 " fill-opacity="1" fill-rule="evenodd"/><path fill="#bdf3ec" d="M 320.839844 48.710938 C 316.546875 46.246094 310.746094 48.21875 307.933594 53.082031 L 239.222656 172.097656 L 239.320312 189.882812 L 254.789062 181.074219 L 323.484375 62.074219 C 326.3125 57.195312 325.113281 51.179688 320.839844 48.710938 Z M 320.839844 48.710938 " fill-opacity="1" fill-rule="evenodd"/><path fill="#000000" d="M 278.691406 89.558594 C 278.417969 90.019531 278.070312 90.410156 277.644531 90.730469 C 277.21875 91.050781 276.746094 91.277344 276.230469 91.410156 C 275.714844 91.546875 275.191406 91.578125 274.664062 91.503906 C 274.136719 91.433594 273.640625 91.265625 273.179688 90.996094 C 272.71875 90.730469 272.324219 90.382812 272 89.960938 C 271.675781 89.539062 271.445312 89.070312 271.304688 88.554688 C 271.164062 88.042969 271.128906 87.519531 271.195312 86.992188 C 271.261719 86.460938 271.425781 85.964844 271.6875 85.5 L 287.683594 57.917969 C 287.816406 57.6875 287.96875 57.472656 288.144531 57.273438 C 288.316406 57.074219 288.511719 56.894531 288.722656 56.730469 C 288.933594 56.570312 289.15625 56.429688 289.394531 56.3125 C 289.632812 56.195312 289.878906 56.101562 290.136719 56.03125 C 290.394531 55.964844 290.652344 55.921875 290.917969 55.902344 C 291.183594 55.886719 291.449219 55.894531 291.710938 55.929688 C 291.972656 55.964844 292.230469 56.023438 292.484375 56.109375 C 292.734375 56.195312 292.976562 56.304688 293.203125 56.4375 L 318.371094 70.953125 C 318.824219 71.230469 319.203125 71.582031 319.515625 72.007812 C 319.828125 72.433594 320.050781 72.902344 320.179688 73.414062 C 320.308594 73.925781 320.335938 74.445312 320.265625 74.964844 C 320.191406 75.488281 320.023438 75.980469 319.757812 76.4375 C 319.492188 76.894531 319.152344 77.285156 318.734375 77.609375 C 318.320312 77.933594 317.855469 78.167969 317.347656 78.308594 C 316.839844 78.453125 316.320312 78.496094 315.796875 78.4375 C 315.273438 78.378906 314.777344 78.222656 314.3125 77.96875 L 292.664062 65.460938 Z M 278.691406 89.558594 " fill-opacity="1" fill-rule="nonzero"/><g clip-path="url(#b3c262e60d)"><path fill="#0d5f5a" d="M 164.96875 296.894531 L 160.144531 296.894531 C 156.089844 270.511719 148.6875 252.480469 137.558594 241.867188 C 137.453125 241.765625 137.34375 241.671875 137.230469 241.582031 L 102.550781 214.972656 C 101.558594 214.214844 100.492188 213.589844 99.34375 213.097656 C 98.195312 212.605469 97.003906 212.261719 95.773438 212.070312 C 94.539062 211.875 93.300781 211.835938 92.058594 211.953125 C 90.816406 212.070312 89.605469 212.339844 88.429688 212.757812 L 74.703125 176.617188 C 74.492188 176.066406 74.257812 175.53125 73.996094 175.003906 C 73.730469 174.476562 73.441406 173.964844 73.128906 173.46875 C 72.816406 172.96875 72.480469 172.488281 72.121094 172.023438 C 71.757812 171.558594 71.375 171.113281 70.972656 170.6875 C 70.570312 170.257812 70.144531 169.851562 69.699219 169.464844 C 69.257812 169.082031 68.796875 168.71875 68.316406 168.375 C 67.835938 168.035156 67.339844 167.71875 66.832031 167.429688 C 66.320312 167.136719 65.796875 166.871094 65.261719 166.628906 C 64.722656 166.386719 64.175781 166.175781 63.621094 165.988281 C 63.0625 165.800781 62.496094 165.640625 61.921875 165.507812 C 61.351562 165.375 60.773438 165.273438 60.1875 165.199219 C 59.605469 165.121094 59.019531 165.078125 58.433594 165.058594 C 57.84375 165.039062 57.257812 165.050781 56.671875 165.089844 C 56.082031 165.132812 55.5 165.199219 54.917969 165.296875 C 54.339844 165.394531 53.765625 165.519531 53.199219 165.671875 C 52.628906 165.824219 52.070312 166.003906 51.519531 166.210938 C 50.972656 166.421875 50.433594 166.660156 49.910156 166.921875 C 49.382812 167.183594 48.871094 167.472656 48.371094 167.785156 C 47.875 168.097656 47.394531 168.433594 46.929688 168.792969 C 46.464844 169.15625 46.015625 169.535156 45.589844 169.941406 C 45.164062 170.34375 44.757812 170.765625 44.371094 171.210938 C 43.984375 171.65625 43.621094 172.117188 43.28125 172.59375 C 42.9375 173.074219 42.621094 173.570312 42.332031 174.078125 C 42.039062 174.589844 41.773438 175.113281 41.53125 175.648438 C 41.289062 176.183594 41.074219 176.730469 40.886719 177.289062 C 40.699219 177.847656 40.542969 178.410156 40.410156 178.984375 C 40.277344 179.558594 40.171875 180.136719 40.097656 180.71875 C 40.023438 181.300781 39.976562 181.886719 39.957031 182.476562 C 39.941406 183.0625 39.953125 183.648438 39.992188 184.238281 C 40.03125 184.824219 40.097656 185.40625 40.195312 185.988281 C 40.292969 186.566406 40.417969 187.140625 40.570312 187.707031 C 40.722656 188.277344 40.902344 188.835938 41.109375 189.382812 L 64.863281 251.898438 C 64.996094 252.242188 65.167969 252.5625 65.386719 252.863281 C 74.886719 265.78125 83.511719 270.578125 89.808594 274.085938 C 97.542969 278.390625 102.070312 280.921875 103.832031 296.894531 L 96.898438 296.894531 C 96.632812 296.894531 96.371094 296.921875 96.109375 296.972656 C 95.847656 297.023438 95.59375 297.101562 95.347656 297.203125 C 95.101562 297.304688 94.867188 297.429688 94.644531 297.578125 C 94.421875 297.726562 94.21875 297.894531 94.03125 298.082031 C 93.839844 298.273438 93.671875 298.476562 93.523438 298.699219 C 93.378906 298.921875 93.253906 299.15625 93.148438 299.402344 C 93.046875 299.648438 92.972656 299.902344 92.917969 300.164062 C 92.867188 300.421875 92.839844 300.6875 92.839844 300.953125 L 92.839844 329.292969 C 92.839844 329.558594 92.867188 329.824219 92.917969 330.085938 C 92.972656 330.347656 93.046875 330.601562 93.148438 330.847656 C 93.253906 331.09375 93.378906 331.328125 93.523438 331.546875 C 93.671875 331.769531 93.839844 331.976562 94.03125 332.164062 C 94.21875 332.351562 94.421875 332.519531 94.644531 332.667969 C 94.867188 332.816406 95.101562 332.941406 95.347656 333.042969 C 95.59375 333.144531 95.847656 333.222656 96.109375 333.273438 C 96.371094 333.328125 96.632812 333.351562 96.898438 333.351562 L 164.96875 333.351562 C 165.238281 333.351562 165.5 333.328125 165.761719 333.273438 C 166.023438 333.222656 166.277344 333.144531 166.523438 333.042969 C 166.769531 332.941406 167.003906 332.816406 167.226562 332.667969 C 167.449219 332.519531 167.652344 332.351562 167.839844 332.164062 C 168.03125 331.976562 168.199219 331.769531 168.347656 331.546875 C 168.492188 331.328125 168.617188 331.09375 168.722656 330.847656 C 168.824219 330.601562 168.898438 330.347656 168.953125 330.085938 C 169.003906 329.824219 169.03125 329.558594 169.03125 329.292969 L 169.03125 300.957031 C 169.03125 300.691406 169.003906 300.425781 168.953125 300.164062 C 168.902344 299.90625 168.824219 299.648438 168.722656 299.402344 C 168.621094 299.15625 168.496094 298.921875 168.347656 298.703125 C 168.199219 298.480469 168.03125 298.273438 167.84375 298.085938 C 167.652344 297.898438 167.449219 297.730469 167.226562 297.582031 C 167.003906 297.433594 166.769531 297.308594 166.523438 297.203125 C 166.277344 297.101562 166.023438 297.027344 165.761719 296.972656 C 165.5 296.921875 165.238281 296.894531 164.96875 296.894531 Z M 93.757812 266.992188 C 87.570312 263.546875 80.5625 259.648438 72.253906 248.492188 L 48.699219 186.503906 C 48.472656 185.898438 48.308594 185.277344 48.203125 184.644531 C 48.097656 184.007812 48.058594 183.367188 48.078125 182.722656 C 48.097656 182.078125 48.183594 181.441406 48.328125 180.8125 C 48.476562 180.183594 48.679688 179.578125 48.945312 178.988281 C 49.210938 178.402344 49.53125 177.84375 49.90625 177.320312 C 50.28125 176.796875 50.703125 176.3125 51.175781 175.871094 C 51.644531 175.429688 52.152344 175.035156 52.699219 174.695312 C 53.246094 174.351562 53.820312 174.066406 54.421875 173.839844 C 55.027344 173.609375 55.644531 173.441406 56.28125 173.332031 C 56.917969 173.226562 57.558594 173.183594 58.203125 173.199219 C 58.847656 173.21875 59.484375 173.300781 60.113281 173.441406 C 60.742188 173.585938 61.347656 173.789062 61.9375 174.050781 C 62.527344 174.316406 63.085938 174.632812 63.609375 175.003906 C 64.136719 175.378906 64.621094 175.796875 65.066406 176.265625 C 65.511719 176.734375 65.90625 177.238281 66.25 177.785156 C 66.59375 178.332031 66.882812 178.902344 67.113281 179.503906 L 81.625 217.707031 C 80.414062 219.257812 79.550781 220.984375 79.035156 222.878906 C 78.519531 224.777344 78.390625 226.699219 78.648438 228.648438 C 78.890625 230.632812 79.507812 232.492188 80.5 234.226562 C 81.492188 235.960938 82.78125 237.4375 84.367188 238.65625 L 116.09375 262.984375 C 116.304688 263.144531 116.53125 263.285156 116.769531 263.402344 C 117.007812 263.523438 117.257812 263.613281 117.515625 263.683594 C 117.769531 263.753906 118.035156 263.796875 118.300781 263.8125 C 118.566406 263.832031 118.832031 263.820312 119.09375 263.789062 C 119.359375 263.753906 119.617188 263.691406 119.871094 263.605469 C 120.121094 263.519531 120.363281 263.410156 120.59375 263.277344 C 120.824219 263.144531 121.042969 262.988281 121.242188 262.8125 C 121.441406 262.636719 121.625 262.445312 121.785156 262.234375 C 121.949219 262.019531 122.085938 261.796875 122.207031 261.554688 C 122.324219 261.316406 122.417969 261.070312 122.484375 260.8125 C 122.554688 260.554688 122.597656 260.292969 122.613281 260.027344 C 122.632812 259.761719 122.625 259.496094 122.589844 259.230469 C 122.554688 258.964844 122.492188 258.707031 122.40625 258.457031 C 122.320312 258.203125 122.210938 257.960938 122.078125 257.730469 C 121.945312 257.5 121.792969 257.285156 121.617188 257.082031 C 121.441406 256.882812 121.246094 256.703125 121.035156 256.539062 L 89.320312 232.21875 C 88.59375 231.660156 88.003906 230.980469 87.550781 230.1875 C 87.101562 229.390625 86.820312 228.539062 86.710938 227.628906 C 86.597656 226.792969 86.644531 225.96875 86.847656 225.148438 C 87.050781 224.328125 87.398438 223.578125 87.886719 222.890625 C 88.097656 222.695312 88.480469 222.347656 88.992188 221.933594 C 89.289062 221.691406 89.542969 221.414062 89.761719 221.101562 C 90.351562 220.71875 90.984375 220.4375 91.664062 220.25 C 92.339844 220.066406 93.03125 219.984375 93.734375 220.011719 C 94.433594 220.039062 95.117188 220.175781 95.777344 220.414062 C 96.4375 220.652344 97.046875 220.984375 97.605469 221.410156 L 132.113281 247.886719 C 141.519531 256.96875 148.175781 273.441406 151.929688 296.894531 L 111.996094 296.894531 C 109.9375 277.007812 103.613281 272.472656 93.757812 266.992188 Z M 160.910156 325.234375 L 100.960938 325.234375 L 100.960938 305.019531 L 160.910156 305.019531 Z M 335.269531 175.65625 C 334.90625 174.851562 334.488281 174.074219 334.011719 173.332031 C 333.535156 172.589844 333.007812 171.882812 332.429688 171.21875 C 331.847656 170.550781 331.222656 169.933594 330.550781 169.359375 C 329.878906 168.785156 329.171875 168.265625 328.421875 167.792969 C 327.675781 167.324219 326.894531 166.914062 326.085938 166.558594 C 325.277344 166.207031 324.445312 165.914062 323.59375 165.683594 C 322.742188 165.449219 321.878906 165.28125 321 165.179688 C 320.125 165.074219 319.246094 165.035156 318.363281 165.0625 C 317.480469 165.085938 316.601562 165.175781 315.734375 165.332031 C 314.863281 165.488281 314.011719 165.703125 313.175781 165.984375 C 312.335938 166.265625 311.523438 166.605469 310.738281 167.007812 C 309.949219 167.40625 309.199219 167.863281 308.476562 168.375 C 307.757812 168.886719 307.078125 169.449219 306.441406 170.058594 C 305.804688 170.671875 305.21875 171.328125 304.675781 172.023438 C 304.136719 172.722656 303.652344 173.457031 303.21875 174.226562 C 302.785156 175 302.414062 175.796875 302.097656 176.621094 L 288.359375 212.757812 C 287.183594 212.339844 285.976562 212.070312 284.734375 211.953125 C 283.488281 211.835938 282.253906 211.875 281.019531 212.066406 C 279.785156 212.257812 278.597656 212.601562 277.449219 213.09375 C 276.304688 213.585938 275.234375 214.210938 274.242188 214.96875 L 239.574219 241.582031 C 239.460938 241.671875 239.351562 241.765625 239.246094 241.867188 C 228.121094 252.476562 220.71875 270.503906 216.648438 296.894531 L 211.816406 296.894531 C 211.550781 296.894531 211.289062 296.921875 211.027344 296.972656 C 210.765625 297.027344 210.511719 297.101562 210.265625 297.203125 C 210.019531 297.304688 209.785156 297.429688 209.5625 297.578125 C 209.339844 297.726562 209.136719 297.894531 208.949219 298.085938 C 208.757812 298.273438 208.589844 298.476562 208.441406 298.699219 C 208.296875 298.921875 208.171875 299.15625 208.066406 299.402344 C 207.964844 299.648438 207.890625 299.902344 207.835938 300.164062 C 207.785156 300.425781 207.757812 300.6875 207.757812 300.953125 L 207.757812 329.292969 C 207.757812 329.5625 207.785156 329.824219 207.835938 330.085938 C 207.890625 330.347656 207.964844 330.601562 208.066406 330.847656 C 208.167969 331.09375 208.296875 331.328125 208.441406 331.550781 C 208.589844 331.769531 208.757812 331.976562 208.949219 332.164062 C 209.136719 332.351562 209.339844 332.519531 209.5625 332.667969 C 209.785156 332.816406 210.019531 332.941406 210.265625 333.042969 C 210.511719 333.144531 210.765625 333.222656 211.027344 333.277344 C 211.289062 333.328125 211.550781 333.351562 211.816406 333.355469 L 279.90625 333.355469 C 280.175781 333.351562 280.4375 333.328125 280.699219 333.277344 C 280.960938 333.222656 281.214844 333.144531 281.460938 333.042969 C 281.707031 332.941406 281.941406 332.816406 282.164062 332.667969 C 282.382812 332.519531 282.589844 332.351562 282.777344 332.164062 C 282.964844 331.976562 283.136719 331.769531 283.28125 331.550781 C 283.429688 331.328125 283.554688 331.09375 283.65625 330.847656 C 283.761719 330.601562 283.835938 330.347656 283.890625 330.085938 C 283.941406 329.824219 283.96875 329.5625 283.96875 329.292969 L 283.96875 300.957031 C 283.96875 300.691406 283.941406 300.429688 283.890625 300.167969 C 283.835938 299.90625 283.761719 299.652344 283.65625 299.40625 C 283.554688 299.160156 283.429688 298.925781 283.28125 298.703125 C 283.136719 298.480469 282.964844 298.277344 282.777344 298.089844 C 282.589844 297.898438 282.382812 297.730469 282.164062 297.582031 C 281.941406 297.433594 281.707031 297.308594 281.460938 297.207031 C 281.214844 297.105469 280.960938 297.027344 280.699219 296.976562 C 280.4375 296.925781 280.175781 296.898438 279.90625 296.898438 L 272.957031 296.898438 C 274.71875 280.929688 279.246094 278.398438 286.984375 274.09375 C 293.28125 270.585938 301.90625 265.785156 311.402344 252.867188 C 311.621094 252.570312 311.792969 252.25 311.925781 251.90625 L 335.679688 189.390625 C 336.53125 187.167969 336.921875 184.863281 336.851562 182.480469 C 336.78125 180.101562 336.253906 177.824219 335.269531 175.65625 Z M 275.847656 325.234375 L 215.878906 325.234375 L 215.878906 305.019531 L 275.847656 305.019531 Z M 328.089844 186.5 L 304.535156 248.492188 C 296.230469 259.648438 289.226562 263.546875 283.035156 266.992188 C 273.183594 272.476562 266.851562 277.007812 264.796875 296.894531 L 224.867188 296.894531 C 228.636719 273.4375 235.296875 256.960938 244.703125 247.886719 L 279.199219 221.402344 C 279.757812 220.976562 280.363281 220.644531 281.023438 220.410156 C 281.683594 220.171875 282.363281 220.039062 283.066406 220.011719 C 283.765625 219.984375 284.457031 220.0625 285.132812 220.246094 C 285.808594 220.433594 286.441406 220.714844 287.03125 221.097656 C 287.257812 221.421875 287.523438 221.707031 287.832031 221.953125 C 288.328125 222.351562 288.699219 222.679688 288.878906 222.855469 C 289.378906 223.542969 289.734375 224.300781 289.941406 225.125 C 290.152344 225.949219 290.199219 226.785156 290.085938 227.628906 C 289.976562 228.535156 289.695312 229.386719 289.242188 230.179688 C 288.792969 230.976562 288.203125 231.652344 287.480469 232.210938 L 255.773438 256.539062 C 255.558594 256.699219 255.367188 256.882812 255.191406 257.082031 C 255.015625 257.28125 254.859375 257.496094 254.726562 257.726562 C 254.59375 257.960938 254.484375 258.199219 254.398438 258.453125 C 254.3125 258.707031 254.25 258.964844 254.214844 259.230469 C 254.179688 259.492188 254.171875 259.757812 254.191406 260.023438 C 254.207031 260.289062 254.25 260.550781 254.320312 260.808594 C 254.386719 261.066406 254.480469 261.316406 254.597656 261.554688 C 254.71875 261.792969 254.859375 262.019531 255.019531 262.230469 C 255.183594 262.445312 255.363281 262.636719 255.5625 262.8125 C 255.765625 262.988281 255.980469 263.144531 256.210938 263.277344 C 256.441406 263.410156 256.683594 263.519531 256.9375 263.605469 C 257.1875 263.691406 257.449219 263.75 257.710938 263.785156 C 257.976562 263.820312 258.242188 263.828125 258.507812 263.8125 C 258.773438 263.792969 259.035156 263.75 259.292969 263.683594 C 259.550781 263.613281 259.800781 263.519531 260.039062 263.402344 C 260.277344 263.28125 260.503906 263.144531 260.714844 262.980469 L 292.429688 238.644531 C 294.015625 237.429688 295.300781 235.953125 296.292969 234.222656 C 297.28125 232.488281 297.898438 230.628906 298.140625 228.648438 C 298.398438 226.699219 298.269531 224.773438 297.753906 222.878906 C 297.238281 220.980469 296.375 219.257812 295.167969 217.707031 L 309.695312 179.5 C 309.925781 178.902344 310.214844 178.328125 310.5625 177.785156 C 310.90625 177.242188 311.300781 176.738281 311.746094 176.273438 C 312.1875 175.808594 312.671875 175.390625 313.199219 175.019531 C 313.722656 174.648438 314.28125 174.332031 314.867188 174.074219 C 315.457031 173.8125 316.0625 173.609375 316.691406 173.46875 C 317.320312 173.324219 317.953125 173.246094 318.597656 173.226562 C 319.238281 173.210938 319.878906 173.253906 320.511719 173.363281 C 321.148438 173.46875 321.765625 173.636719 322.367188 173.867188 C 322.96875 174.09375 323.539062 174.378906 324.085938 174.722656 C 324.632812 175.0625 325.136719 175.453125 325.605469 175.894531 C 326.074219 176.332031 326.496094 176.816406 326.871094 177.339844 C 327.246094 177.863281 327.566406 178.417969 327.832031 179.003906 C 328.097656 179.589844 328.304688 180.195312 328.449219 180.820312 C 328.597656 181.445312 328.679688 182.082031 328.703125 182.722656 C 328.726562 183.367188 328.683594 184.007812 328.582031 184.640625 C 328.480469 185.277344 328.316406 185.894531 328.089844 186.496094 Z M 228.078125 167.773438 C 228.078125 168.039062 228.050781 168.304688 228 168.566406 C 227.945312 168.828125 227.871094 169.082031 227.769531 169.328125 C 227.667969 169.574219 227.539062 169.808594 227.394531 170.027344 C 227.246094 170.25 227.078125 170.457031 226.886719 170.644531 C 226.699219 170.832031 226.496094 171 226.273438 171.148438 C 226.050781 171.296875 225.816406 171.421875 225.570312 171.523438 C 225.324219 171.625 225.070312 171.703125 224.808594 171.753906 C 224.546875 171.808594 224.285156 171.832031 224.019531 171.832031 L 152.792969 171.832031 C 152.527344 171.832031 152.261719 171.808594 152 171.753906 C 151.738281 171.703125 151.484375 171.625 151.238281 171.523438 C 150.992188 171.421875 150.757812 171.296875 150.539062 171.148438 C 150.316406 171 150.109375 170.832031 149.921875 170.644531 C 149.734375 170.457031 149.566406 170.25 149.417969 170.027344 C 149.269531 169.808594 149.144531 169.574219 149.042969 169.328125 C 148.941406 169.082031 148.863281 168.828125 148.8125 168.566406 C 148.757812 168.304688 148.734375 168.039062 148.734375 167.773438 C 148.734375 167.507812 148.757812 167.242188 148.8125 166.980469 C 148.863281 166.71875 148.941406 166.464844 149.042969 166.21875 C 149.144531 165.972656 149.269531 165.738281 149.417969 165.519531 C 149.566406 165.296875 149.734375 165.089844 149.921875 164.902344 C 150.109375 164.714844 150.316406 164.546875 150.539062 164.398438 C 150.757812 164.25 150.992188 164.125 151.238281 164.023438 C 151.484375 163.921875 151.738281 163.84375 152 163.792969 C 152.261719 163.738281 152.527344 163.714844 152.792969 163.714844 L 224.015625 163.714844 C 224.285156 163.714844 224.546875 163.738281 224.808594 163.792969 C 225.070312 163.84375 225.324219 163.921875 225.570312 164.023438 C 225.816406 164.125 226.050781 164.25 226.273438 164.398438 C 226.496094 164.546875 226.699219 164.714844 226.886719 164.902344 C 227.078125 165.089844 227.246094 165.296875 227.394531 165.519531 C 227.539062 165.738281 227.664062 165.972656 227.769531 166.21875 C 227.871094 166.464844 227.945312 166.71875 228 166.980469 C 228.050781 167.242188 228.078125 167.507812 228.078125 167.773438 Z M 115.523438 185.621094 L 115.523438 212.847656 C 115.523438 213.457031 115.554688 214.066406 115.617188 214.671875 C 115.675781 215.28125 115.765625 215.882812 115.886719 216.480469 C 116.003906 217.082031 116.15625 217.671875 116.332031 218.257812 C 116.507812 218.839844 116.714844 219.414062 116.949219 219.976562 C 117.183594 220.542969 117.445312 221.09375 117.730469 221.628906 C 118.019531 222.167969 118.332031 222.691406 118.671875 223.199219 C 119.011719 223.707031 119.375 224.195312 119.761719 224.667969 C 120.148438 225.140625 120.558594 225.589844 120.992188 226.023438 C 121.421875 226.453125 121.875 226.863281 122.34375 227.25 C 122.816406 227.636719 123.308594 228 123.8125 228.339844 C 124.320312 228.679688 124.84375 228.992188 125.382812 229.28125 C 125.921875 229.570312 126.472656 229.828125 127.035156 230.0625 C 127.597656 230.296875 128.171875 230.503906 128.757812 230.679688 C 129.339844 230.859375 129.933594 231.007812 130.53125 231.125 C 131.128906 231.246094 131.730469 231.335938 132.339844 231.398438 C 132.945312 231.457031 133.554688 231.488281 134.164062 231.488281 L 246.261719 231.488281 C 247.246094 231.488281 248.222656 231.390625 249.1875 231.199219 C 250.152344 231.003906 251.09375 230.71875 252 230.339844 C 252.910156 229.964844 253.777344 229.5 254.59375 228.953125 C 255.414062 228.40625 256.171875 227.785156 256.867188 227.085938 C 257.566406 226.390625 258.1875 225.632812 258.734375 224.8125 C 259.28125 223.996094 259.746094 223.128906 260.121094 222.222656 C 260.5 221.3125 260.785156 220.371094 260.976562 219.40625 C 261.171875 218.441406 261.269531 217.464844 261.269531 216.480469 L 261.269531 177.972656 L 319.804688 76.566406 C 319.820312 76.542969 319.835938 76.523438 319.847656 76.5 C 319.859375 76.476562 319.871094 76.453125 319.882812 76.429688 L 326.996094 64.109375 C 327.996094 62.40625 328.636719 60.578125 328.914062 58.621094 C 329.195312 56.667969 329.089844 54.730469 328.601562 52.816406 C 328.195312 51.214844 327.492188 49.753906 326.5 48.429688 C 325.503906 47.109375 324.292969 46.03125 322.867188 45.195312 L 322.859375 45.191406 C 316.628906 41.609375 308.355469 44.238281 304.421875 51.054688 L 299.292969 59.933594 L 293.21875 56.421875 C 292.988281 56.289062 292.746094 56.179688 292.492188 56.09375 C 292.242188 56.007812 291.984375 55.949219 291.71875 55.914062 C 291.453125 55.878906 291.191406 55.871094 290.925781 55.886719 C 290.660156 55.902344 290.398438 55.945312 290.140625 56.015625 C 289.882812 56.085938 289.632812 56.175781 289.394531 56.292969 C 289.15625 56.414062 288.929688 56.550781 288.71875 56.714844 C 288.507812 56.875 288.3125 57.058594 288.136719 57.257812 C 287.960938 57.457031 287.808594 57.671875 287.675781 57.902344 L 271.675781 85.484375 C 271.542969 85.714844 271.433594 85.957031 271.347656 86.210938 C 271.257812 86.460938 271.199219 86.722656 271.164062 86.984375 C 271.128906 87.25 271.117188 87.515625 271.136719 87.78125 C 271.152344 88.046875 271.195312 88.308594 271.261719 88.566406 C 271.332031 88.824219 271.425781 89.074219 271.542969 89.3125 C 271.660156 89.554688 271.800781 89.777344 271.960938 89.992188 C 272.125 90.203125 272.304688 90.398438 272.503906 90.574219 C 272.703125 90.75 272.921875 90.90625 273.152344 91.039062 C 273.382812 91.171875 273.625 91.28125 273.875 91.367188 C 274.128906 91.453125 274.386719 91.515625 274.652344 91.550781 C 274.914062 91.585938 275.179688 91.59375 275.445312 91.578125 C 275.714844 91.558594 275.976562 91.515625 276.234375 91.449219 C 276.492188 91.378906 276.738281 91.285156 276.980469 91.167969 C 277.21875 91.050781 277.445312 90.910156 277.65625 90.75 C 277.867188 90.585938 278.0625 90.40625 278.238281 90.207031 C 278.414062 90.003906 278.570312 89.789062 278.703125 89.558594 L 292.664062 65.480469 L 295.234375 66.964844 L 261.269531 125.796875 L 261.269531 89.050781 C 261.269531 88.914062 261.261719 88.78125 261.25 88.644531 C 261.238281 88.542969 261.222656 88.441406 261.203125 88.339844 C 261.199219 88.3125 261.195312 88.285156 261.191406 88.25 C 261.164062 88.128906 261.132812 88.011719 261.097656 87.890625 C 261.097656 87.882812 261.09375 87.875 261.09375 87.867188 C 261.054688 87.746094 261.015625 87.628906 260.964844 87.515625 C 260.964844 87.507812 260.960938 87.5 260.960938 87.496094 C 260.914062 87.382812 260.863281 87.277344 260.804688 87.171875 C 260.800781 87.160156 260.796875 87.148438 260.789062 87.136719 C 260.734375 87.039062 260.679688 86.941406 260.613281 86.847656 C 260.601562 86.832031 260.59375 86.8125 260.582031 86.792969 C 260.523438 86.703125 260.457031 86.617188 260.390625 86.535156 C 260.375 86.515625 260.359375 86.492188 260.34375 86.472656 C 260.257812 86.367188 260.167969 86.269531 260.078125 86.175781 L 217.601562 43.703125 C 217.507812 43.609375 217.40625 43.519531 217.304688 43.4375 C 217.285156 43.417969 217.261719 43.40625 217.242188 43.390625 C 217.160156 43.324219 217.074219 43.257812 216.984375 43.199219 C 216.96875 43.1875 216.949219 43.175781 216.929688 43.164062 C 216.835938 43.105469 216.742188 43.046875 216.640625 42.992188 C 216.628906 42.984375 216.617188 42.980469 216.605469 42.976562 C 216.5 42.921875 216.394531 42.867188 216.28125 42.820312 L 216.261719 42.816406 C 216.148438 42.765625 216.03125 42.722656 215.910156 42.6875 L 215.886719 42.679688 C 215.769531 42.648438 215.648438 42.617188 215.527344 42.589844 C 215.496094 42.585938 215.46875 42.582031 215.4375 42.578125 C 215.335938 42.558594 215.234375 42.542969 215.132812 42.53125 C 215 42.519531 214.863281 42.511719 214.726562 42.511719 L 130.53125 42.511719 C 129.546875 42.511719 128.574219 42.609375 127.605469 42.804688 C 126.640625 42.996094 125.703125 43.28125 124.792969 43.660156 C 123.882812 44.035156 123.019531 44.5 122.199219 45.046875 C 121.378906 45.59375 120.621094 46.214844 119.925781 46.914062 C 119.230469 47.609375 118.605469 48.367188 118.058594 49.1875 C 117.511719 50.003906 117.050781 50.871094 116.671875 51.777344 C 116.292969 52.6875 116.007812 53.628906 115.816406 54.59375 C 115.621094 55.558594 115.527344 56.535156 115.523438 57.519531 L 115.523438 77.816406 C 104.441406 86.46875 91.691406 90.121094 76.601562 88.945312 C 76.320312 88.921875 76.042969 88.929688 75.761719 88.964844 C 75.484375 89.003906 75.210938 89.066406 74.945312 89.160156 C 74.679688 89.253906 74.429688 89.371094 74.1875 89.515625 C 73.945312 89.664062 73.722656 89.832031 73.519531 90.023438 C 73.3125 90.214844 73.128906 90.425781 72.96875 90.65625 C 72.804688 90.882812 72.667969 91.128906 72.558594 91.386719 C 72.445312 91.644531 72.363281 91.910156 72.308594 92.1875 C 72.25 92.464844 72.222656 92.742188 72.226562 93.023438 C 72.414062 118.960938 76.09375 137.917969 83.800781 152.683594 C 90.453125 165.425781 100 175.359375 115.523438 185.621094 Z M 311.449219 55.117188 C 313.121094 52.222656 316.488281 50.902344 318.808594 52.226562 C 319.832031 52.851562 320.484375 53.75 320.757812 54.917969 C 320.96875 55.789062 321.007812 56.671875 320.871094 57.558594 C 320.734375 58.445312 320.433594 59.277344 319.96875 60.046875 L 314.84375 68.921875 L 306.320312 63.996094 Z M 302.261719 71.027344 L 310.789062 75.953125 L 253.847656 174.582031 C 253.746094 174.734375 253.65625 174.890625 253.574219 175.054688 L 251.824219 178.089844 L 243.34375 182.917969 L 243.289062 173.175781 Z M 218.789062 56.375 L 247.402344 84.992188 L 225.675781 84.992188 C 225.226562 84.988281 224.777344 84.945312 224.335938 84.855469 C 223.890625 84.769531 223.460938 84.636719 223.042969 84.464844 C 222.625 84.289062 222.226562 84.078125 221.851562 83.828125 C 221.476562 83.574219 221.128906 83.289062 220.808594 82.96875 C 220.488281 82.648438 220.203125 82.300781 219.953125 81.925781 C 219.699219 81.550781 219.488281 81.152344 219.316406 80.734375 C 219.140625 80.320312 219.011719 79.886719 218.921875 79.445312 C 218.835938 79 218.789062 78.554688 218.789062 78.101562 Z M 130.53125 50.636719 L 210.667969 50.636719 L 210.667969 78.101562 C 210.667969 79.085938 210.765625 80.0625 210.957031 81.027344 C 211.152344 81.992188 211.4375 82.933594 211.8125 83.839844 C 212.191406 84.75 212.652344 85.617188 213.203125 86.433594 C 213.75 87.253906 214.371094 88.011719 215.066406 88.707031 C 215.765625 89.40625 216.523438 90.027344 217.339844 90.574219 C 218.160156 91.121094 219.023438 91.585938 219.933594 91.960938 C 220.84375 92.339844 221.78125 92.625 222.75 92.816406 C 223.714844 93.011719 224.691406 93.109375 225.675781 93.109375 L 253.144531 93.109375 L 253.144531 139.859375 L 235.703125 170.066406 C 235.335938 170.703125 235.15625 171.386719 235.160156 172.121094 L 235.257812 189.90625 C 235.257812 190.082031 235.273438 190.257812 235.296875 190.433594 C 235.320312 190.609375 235.355469 190.78125 235.402344 190.949219 C 235.449219 191.121094 235.503906 191.289062 235.574219 191.449219 C 235.640625 191.613281 235.71875 191.769531 235.808594 191.921875 C 235.894531 192.078125 235.996094 192.222656 236.101562 192.363281 C 236.210938 192.503906 236.324219 192.632812 236.449219 192.757812 C 236.574219 192.882812 236.707031 193 236.847656 193.105469 C 236.988281 193.214844 237.136719 193.3125 237.289062 193.398438 C 237.441406 193.488281 237.597656 193.566406 237.761719 193.632812 C 237.925781 193.703125 238.089844 193.757812 238.261719 193.804688 C 238.433594 193.851562 238.605469 193.886719 238.78125 193.910156 C 238.953125 193.933594 239.128906 193.945312 239.308594 193.945312 C 239.484375 193.945312 239.660156 193.933594 239.832031 193.910156 C 240.007812 193.890625 240.183594 193.855469 240.351562 193.808594 C 240.523438 193.765625 240.691406 193.710938 240.851562 193.644531 C 241.015625 193.574219 241.175781 193.5 241.328125 193.410156 L 253.144531 186.683594 L 253.144531 216.484375 C 253.144531 216.933594 253.097656 217.382812 253.007812 217.824219 C 252.921875 218.269531 252.789062 218.699219 252.617188 219.117188 C 252.441406 219.535156 252.230469 219.929688 251.980469 220.304688 C 251.726562 220.679688 251.441406 221.027344 251.125 221.347656 C 250.804688 221.667969 250.457031 221.953125 250.082031 222.203125 C 249.703125 222.457031 249.308594 222.667969 248.890625 222.839844 C 248.472656 223.015625 248.042969 223.144531 247.601562 223.234375 C 247.15625 223.320312 246.710938 223.367188 246.257812 223.367188 L 134.164062 223.367188 C 133.476562 223.367188 132.792969 223.296875 132.113281 223.164062 C 131.4375 223.027344 130.777344 222.828125 130.140625 222.5625 C 129.503906 222.296875 128.898438 221.972656 128.324219 221.589844 C 127.75 221.207031 127.21875 220.769531 126.730469 220.28125 C 126.242188 219.792969 125.804688 219.261719 125.421875 218.6875 C 125.039062 218.113281 124.714844 217.507812 124.449219 216.871094 C 124.183594 216.234375 123.984375 215.574219 123.847656 214.898438 C 123.714844 214.222656 123.644531 213.535156 123.644531 212.847656 L 123.644531 185.621094 C 139.167969 175.359375 148.71875 165.425781 155.367188 152.6875 C 155.792969 151.878906 156.199219 151.054688 156.597656 150.214844 L 224.015625 150.214844 C 224.285156 150.214844 224.546875 150.191406 224.808594 150.140625 C 225.070312 150.085938 225.324219 150.007812 225.570312 149.90625 C 225.816406 149.804688 226.050781 149.679688 226.273438 149.53125 C 226.492188 149.382812 226.699219 149.214844 226.886719 149.027344 C 227.074219 148.839844 227.246094 148.632812 227.390625 148.414062 C 227.539062 148.191406 227.664062 147.957031 227.765625 147.710938 C 227.871094 147.464844 227.945312 147.210938 228 146.949219 C 228.050781 146.6875 228.078125 146.425781 228.078125 146.15625 C 228.078125 145.890625 228.050781 145.625 228 145.367188 C 227.945312 145.105469 227.871094 144.851562 227.765625 144.605469 C 227.664062 144.359375 227.539062 144.125 227.390625 143.902344 C 227.246094 143.679688 227.074219 143.476562 226.886719 143.285156 C 226.699219 143.097656 226.492188 142.929688 226.273438 142.78125 C 226.050781 142.632812 225.816406 142.507812 225.570312 142.40625 C 225.324219 142.304688 225.070312 142.226562 224.808594 142.175781 C 224.546875 142.125 224.285156 142.097656 224.015625 142.097656 L 159.949219 142.097656 C 161.488281 137.683594 162.726562 133.183594 163.660156 128.601562 L 224.015625 128.601562 C 224.285156 128.601562 224.546875 128.578125 224.808594 128.523438 C 225.070312 128.472656 225.324219 128.394531 225.570312 128.292969 C 225.816406 128.191406 226.050781 128.066406 226.273438 127.917969 C 226.492188 127.769531 226.699219 127.601562 226.886719 127.414062 C 227.074219 127.226562 227.246094 127.019531 227.390625 126.796875 C 227.539062 126.578125 227.664062 126.34375 227.765625 126.097656 C 227.871094 125.851562 227.945312 125.597656 228 125.335938 C 228.050781 125.074219 228.078125 124.808594 228.078125 124.542969 C 228.078125 124.277344 228.050781 124.011719 228 123.75 C 227.945312 123.488281 227.871094 123.234375 227.765625 122.988281 C 227.664062 122.742188 227.539062 122.507812 227.390625 122.289062 C 227.246094 122.066406 227.074219 121.863281 226.886719 121.671875 C 226.699219 121.484375 226.492188 121.316406 226.273438 121.167969 C 226.050781 121.019531 225.816406 120.894531 225.570312 120.792969 C 225.324219 120.691406 225.070312 120.613281 224.808594 120.5625 C 224.546875 120.511719 224.285156 120.484375 224.015625 120.484375 L 165.078125 120.484375 C 165.6875 116.234375 166.148438 111.746094 166.460938 106.988281 L 224.015625 106.988281 C 224.285156 106.988281 224.546875 106.964844 224.808594 106.910156 C 225.070312 106.859375 225.324219 106.78125 225.570312 106.679688 C 225.816406 106.578125 226.050781 106.453125 226.273438 106.304688 C 226.492188 106.15625 226.699219 105.988281 226.886719 105.800781 C 227.074219 105.613281 227.246094 105.40625 227.390625 105.183594 C 227.539062 104.964844 227.664062 104.730469 227.765625 104.484375 C 227.871094 104.238281 227.945312 103.984375 228 103.722656 C 228.050781 103.460938 228.078125 103.195312 228.078125 102.929688 C 228.078125 102.664062 228.050781 102.398438 228 102.136719 C 227.945312 101.875 227.871094 101.621094 227.765625 101.375 C 227.664062 101.128906 227.539062 100.894531 227.390625 100.675781 C 227.246094 100.453125 227.074219 100.246094 226.886719 100.058594 C 226.699219 99.871094 226.492188 99.703125 226.273438 99.554688 C 226.050781 99.40625 225.816406 99.28125 225.570312 99.179688 C 225.324219 99.078125 225.070312 99 224.808594 98.949219 C 224.546875 98.894531 224.285156 98.871094 224.015625 98.871094 L 166.839844 98.871094 C 166.898438 96.960938 166.933594 95.019531 166.945312 93.03125 C 166.949219 92.75 166.921875 92.472656 166.867188 92.195312 C 166.808594 91.921875 166.726562 91.652344 166.617188 91.394531 C 166.503906 91.136719 166.367188 90.894531 166.207031 90.664062 C 166.042969 90.433594 165.859375 90.222656 165.65625 90.03125 C 165.449219 89.839844 165.226562 89.671875 164.984375 89.527344 C 164.746094 89.378906 164.492188 89.261719 164.226562 89.167969 C 163.960938 89.074219 163.6875 89.011719 163.410156 88.976562 C 163.132812 88.9375 162.851562 88.933594 162.570312 88.953125 C 147.484375 90.128906 134.734375 86.476562 123.648438 77.824219 L 123.648438 57.527344 C 123.648438 57.078125 123.691406 56.628906 123.78125 56.183594 C 123.867188 55.742188 124 55.3125 124.171875 54.894531 C 124.34375 54.476562 124.558594 54.078125 124.808594 53.703125 C 125.058594 53.324219 125.34375 52.976562 125.664062 52.65625 C 125.984375 52.335938 126.332031 52.050781 126.707031 51.800781 C 127.082031 51.546875 127.480469 51.335938 127.898438 51.164062 C 128.316406 50.988281 128.746094 50.859375 129.191406 50.769531 C 129.632812 50.679688 130.082031 50.636719 130.53125 50.636719 Z M 119.585938 84.953125 C 130.875 93.421875 144.011719 97.558594 158.757812 97.261719 C 157.648438 143.683594 144.03125 162.320312 119.585938 178.574219 C 95.140625 162.320312 81.523438 143.683594 80.414062 97.261719 C 95.160156 97.558594 108.296875 93.421875 119.585938 84.953125 Z M 108.488281 149.347656 C 108.488281 149.613281 108.515625 149.875 108.566406 150.136719 C 108.617188 150.398438 108.695312 150.652344 108.796875 150.898438 C 108.898438 151.144531 109.023438 151.378906 109.171875 151.601562 C 109.320312 151.824219 109.488281 152.027344 109.675781 152.214844 C 109.867188 152.40625 110.070312 152.574219 110.292969 152.722656 C 110.515625 152.871094 110.746094 152.996094 110.992188 153.097656 C 111.238281 153.199219 111.492188 153.277344 111.753906 153.328125 C 112.015625 153.378906 112.28125 153.40625 112.546875 153.40625 L 126.617188 153.40625 C 126.882812 153.40625 127.148438 153.378906 127.410156 153.328125 C 127.671875 153.277344 127.925781 153.199219 128.171875 153.097656 C 128.417969 152.996094 128.652344 152.871094 128.875 152.722656 C 129.09375 152.574219 129.300781 152.40625 129.488281 152.214844 C 129.675781 152.027344 129.84375 151.824219 129.992188 151.601562 C 130.140625 151.378906 130.265625 151.144531 130.367188 150.898438 C 130.46875 150.652344 130.546875 150.398438 130.597656 150.136719 C 130.652344 149.875 130.675781 149.613281 130.675781 149.347656 L 130.675781 137.28125 L 142.726562 137.28125 C 142.992188 137.28125 143.257812 137.253906 143.519531 137.203125 C 143.78125 137.152344 144.035156 137.074219 144.28125 136.972656 C 144.527344 136.871094 144.761719 136.746094 144.980469 136.597656 C 145.203125 136.449219 145.410156 136.28125 145.597656 136.09375 C 145.785156 135.902344 145.953125 135.699219 146.101562 135.476562 C 146.25 135.253906 146.375 135.019531 146.476562 134.773438 C 146.578125 134.527344 146.65625 134.273438 146.707031 134.011719 C 146.761719 133.753906 146.785156 133.488281 146.785156 133.222656 L 146.785156 119.164062 C 146.785156 118.898438 146.761719 118.636719 146.707031 118.375 C 146.65625 118.113281 146.578125 117.859375 146.476562 117.613281 C 146.375 117.367188 146.25 117.132812 146.101562 116.910156 C 145.953125 116.6875 145.785156 116.484375 145.597656 116.296875 C 145.410156 116.105469 145.203125 115.9375 144.980469 115.789062 C 144.761719 115.640625 144.527344 115.515625 144.28125 115.414062 C 144.035156 115.3125 143.78125 115.238281 143.519531 115.183594 C 143.257812 115.132812 142.992188 115.105469 142.726562 115.105469 L 130.679688 115.105469 L 130.679688 103.054688 C 130.679688 102.789062 130.65625 102.527344 130.601562 102.265625 C 130.550781 102.003906 130.472656 101.75 130.371094 101.503906 C 130.269531 101.257812 130.144531 101.023438 129.996094 100.800781 C 129.847656 100.578125 129.679688 100.375 129.492188 100.1875 C 129.304688 99.996094 129.097656 99.828125 128.875 99.679688 C 128.65625 99.53125 128.421875 99.40625 128.175781 99.304688 C 127.929688 99.203125 127.675781 99.125 127.414062 99.074219 C 127.152344 99.023438 126.886719 98.996094 126.621094 98.996094 L 112.546875 98.996094 C 112.28125 98.996094 112.015625 99.023438 111.753906 99.074219 C 111.492188 99.125 111.238281 99.203125 110.992188 99.304688 C 110.746094 99.40625 110.515625 99.53125 110.292969 99.679688 C 110.070312 99.828125 109.867188 99.996094 109.675781 100.1875 C 109.488281 100.375 109.320312 100.578125 109.171875 100.800781 C 109.023438 101.023438 108.898438 101.257812 108.796875 101.503906 C 108.695312 101.75 108.617188 102.003906 108.566406 102.265625 C 108.515625 102.527344 108.488281 102.789062 108.488281 103.054688 L 108.488281 115.105469 L 96.441406 115.105469 C 96.171875 115.105469 95.910156 115.132812 95.648438 115.183594 C 95.386719 115.234375 95.132812 115.3125 94.886719 115.414062 C 94.640625 115.515625 94.40625 115.640625 94.183594 115.789062 C 93.964844 115.9375 93.757812 116.105469 93.570312 116.292969 C 93.382812 116.484375 93.210938 116.6875 93.066406 116.910156 C 92.917969 117.132812 92.792969 117.363281 92.691406 117.609375 C 92.585938 117.859375 92.511719 118.109375 92.457031 118.371094 C 92.40625 118.632812 92.378906 118.898438 92.378906 119.164062 L 92.378906 133.21875 C 92.378906 133.484375 92.40625 133.75 92.457031 134.011719 C 92.511719 134.273438 92.585938 134.527344 92.691406 134.773438 C 92.792969 135.019531 92.917969 135.253906 93.066406 135.472656 C 93.210938 135.695312 93.382812 135.902344 93.570312 136.089844 C 93.757812 136.277344 93.964844 136.445312 94.183594 136.59375 C 94.40625 136.742188 94.640625 136.867188 94.886719 136.96875 C 95.132812 137.070312 95.386719 137.148438 95.648438 137.199219 C 95.910156 137.253906 96.171875 137.277344 96.441406 137.277344 L 108.488281 137.277344 Z M 100.5 129.160156 L 100.5 123.226562 L 112.546875 123.226562 C 112.8125 123.226562 113.078125 123.199219 113.339844 123.148438 C 113.601562 123.097656 113.855469 123.019531 114.101562 122.917969 C 114.347656 122.816406 114.582031 122.691406 114.800781 122.542969 C 115.023438 122.394531 115.230469 122.226562 115.417969 122.039062 C 115.605469 121.847656 115.773438 121.644531 115.921875 121.421875 C 116.070312 121.199219 116.195312 120.964844 116.296875 120.71875 C 116.398438 120.472656 116.476562 120.21875 116.527344 119.957031 C 116.582031 119.699219 116.605469 119.433594 116.605469 119.167969 L 116.605469 107.117188 L 122.558594 107.117188 L 122.558594 119.164062 C 122.558594 119.433594 122.582031 119.695312 122.636719 119.957031 C 122.6875 120.21875 122.765625 120.472656 122.867188 120.71875 C 122.96875 120.964844 123.09375 121.199219 123.242188 121.421875 C 123.390625 121.644531 123.558594 121.847656 123.746094 122.035156 C 123.933594 122.226562 124.140625 122.394531 124.363281 122.539062 C 124.582031 122.6875 124.816406 122.8125 125.0625 122.917969 C 125.308594 123.019531 125.5625 123.09375 125.824219 123.148438 C 126.085938 123.199219 126.351562 123.226562 126.617188 123.226562 L 138.667969 123.226562 L 138.667969 129.160156 L 126.621094 129.160156 C 126.355469 129.160156 126.089844 129.183594 125.828125 129.238281 C 125.566406 129.289062 125.3125 129.367188 125.066406 129.46875 C 124.820312 129.570312 124.585938 129.695312 124.363281 129.84375 C 124.144531 129.992188 123.9375 130.160156 123.75 130.347656 C 123.5625 130.535156 123.394531 130.742188 123.246094 130.960938 C 123.097656 131.183594 122.972656 131.417969 122.871094 131.664062 C 122.769531 131.910156 122.691406 132.164062 122.640625 132.425781 C 122.585938 132.6875 122.5625 132.953125 122.5625 133.21875 L 122.5625 145.285156 L 116.609375 145.285156 L 116.609375 133.21875 C 116.609375 132.953125 116.582031 132.691406 116.53125 132.429688 C 116.480469 132.167969 116.402344 131.914062 116.300781 131.667969 C 116.199219 131.421875 116.074219 131.1875 115.925781 130.964844 C 115.777344 130.742188 115.609375 130.539062 115.421875 130.351562 C 115.230469 130.160156 115.027344 129.992188 114.804688 129.84375 C 114.582031 129.695312 114.351562 129.570312 114.105469 129.46875 C 113.855469 129.367188 113.605469 129.289062 113.34375 129.238281 C 113.082031 129.1875 112.816406 129.160156 112.550781 129.160156 Z M 100.5 129.160156 " fill-opacity="1" fill-rule="nonzero"/></g></svg>