<svg xmlns="http://www.w3.org/2000/svg" xmlns:xlink="http://www.w3.org/1999/xlink" width="500" zoomAndPan="magnify" viewBox="0 0 375 374.999991" height="500" preserveAspectRatio="xMidYMid meet" version="1.0"><defs><clipPath id="3e6e405d3b"><path d="M 44 42.496094 L 335.414062 42.496094 L 335.414062 332.746094 L 44 332.746094 Z M 44 42.496094 " clip-rule="nonzero"/></clipPath></defs><path fill="#bdf3ec" d="M 311.703125 46.5 L 105.679688 46.5 C 105.035156 46.5 104.390625 46.535156 103.75 46.597656 C 103.109375 46.664062 102.472656 46.761719 101.839844 46.886719 C 101.207031 47.015625 100.582031 47.171875 99.964844 47.359375 C 99.347656 47.546875 98.738281 47.765625 98.144531 48.015625 C 97.546875 48.261719 96.964844 48.539062 96.398438 48.84375 C 95.828125 49.148438 95.277344 49.476562 94.738281 49.835938 C 94.203125 50.195312 93.6875 50.578125 93.1875 50.988281 C 92.6875 51.398438 92.210938 51.832031 91.753906 52.289062 C 91.296875 52.742188 90.867188 53.222656 90.457031 53.71875 C 90.046875 54.21875 89.664062 54.734375 89.304688 55.273438 C 88.945312 55.808594 88.613281 56.359375 88.308594 56.929688 C 88.003906 57.496094 87.726562 58.078125 87.480469 58.675781 C 87.230469 59.269531 87.015625 59.878906 86.824219 60.496094 C 86.636719 61.109375 86.480469 61.734375 86.351562 62.367188 C 86.226562 63 86.128906 63.636719 86.066406 64.28125 C 86 64.921875 85.96875 65.566406 85.964844 66.210938 L 85.964844 309.085938 C 85.96875 309.734375 86 310.375 86.066406 311.019531 C 86.128906 311.660156 86.226562 312.296875 86.355469 312.929688 C 86.480469 313.5625 86.640625 314.1875 86.828125 314.800781 C 87.015625 315.417969 87.234375 316.027344 87.484375 316.621094 C 87.730469 317.214844 88.007812 317.796875 88.3125 318.367188 C 88.617188 318.933594 88.949219 319.488281 89.308594 320.023438 C 89.664062 320.558594 90.050781 321.078125 90.460938 321.574219 C 90.867188 322.074219 91.300781 322.550781 91.757812 323.007812 C 92.214844 323.464844 92.691406 323.894531 93.191406 324.304688 C 93.6875 324.714844 94.207031 325.097656 94.742188 325.457031 C 95.277344 325.816406 95.832031 326.148438 96.398438 326.453125 C 96.96875 326.757812 97.550781 327.035156 98.144531 327.28125 C 98.742188 327.527344 99.347656 327.746094 99.964844 327.933594 C 100.582031 328.125 101.207031 328.28125 101.839844 328.410156 C 102.472656 328.535156 103.109375 328.632812 103.75 328.699219 C 104.394531 328.761719 105.035156 328.796875 105.679688 328.796875 L 311.703125 328.796875 C 312.351562 328.796875 312.996094 328.761719 313.636719 328.699219 C 314.277344 328.632812 314.914062 328.535156 315.546875 328.410156 C 316.179688 328.28125 316.804688 328.125 317.421875 327.9375 C 318.042969 327.75 318.648438 327.53125 319.242188 327.28125 C 319.839844 327.035156 320.421875 326.757812 320.992188 326.453125 C 321.558594 326.148438 322.113281 325.816406 322.648438 325.460938 C 323.1875 325.101562 323.703125 324.714844 324.203125 324.308594 C 324.703125 323.898438 325.179688 323.464844 325.636719 323.007812 C 326.09375 322.554688 326.527344 322.074219 326.9375 321.578125 C 327.34375 321.078125 327.730469 320.5625 328.089844 320.027344 C 328.449219 319.488281 328.78125 318.9375 329.085938 318.367188 C 329.390625 317.800781 329.667969 317.21875 329.917969 316.621094 C 330.164062 316.027344 330.382812 315.421875 330.570312 314.804688 C 330.761719 314.1875 330.917969 313.5625 331.046875 312.929688 C 331.175781 312.296875 331.273438 311.660156 331.335938 311.019531 C 331.402344 310.375 331.4375 309.734375 331.4375 309.085938 L 331.4375 66.210938 C 331.4375 65.566406 331.402344 64.921875 331.339844 64.277344 C 331.273438 63.636719 331.175781 63 331.050781 62.367188 C 330.921875 61.734375 330.761719 61.109375 330.574219 60.492188 C 330.386719 59.875 330.167969 59.269531 329.917969 58.671875 C 329.671875 58.078125 329.394531 57.496094 329.089844 56.925781 C 328.785156 56.359375 328.453125 55.804688 328.09375 55.269531 C 327.734375 54.734375 327.347656 54.214844 326.9375 53.71875 C 326.527344 53.21875 326.097656 52.742188 325.640625 52.285156 C 325.183594 51.828125 324.703125 51.394531 324.207031 50.988281 C 323.707031 50.578125 323.1875 50.195312 322.652344 49.835938 C 322.117188 49.476562 321.5625 49.144531 320.992188 48.839844 C 320.425781 48.535156 319.839844 48.257812 319.246094 48.011719 C 318.648438 47.765625 318.042969 47.546875 317.425781 47.359375 C 316.808594 47.171875 316.183594 47.011719 315.550781 46.886719 C 314.917969 46.757812 314.277344 46.664062 313.636719 46.597656 C 312.996094 46.535156 312.351562 46.5 311.703125 46.5 Z M 311.703125 46.5 " fill-opacity="1" fill-rule="evenodd"/><path fill="#42a6a3" d="M 309.464844 46.5 L 107.9375 46.5 C 95.847656 46.5 85.964844 55.363281 85.964844 66.210938 L 85.964844 78.605469 L 203.566406 78.605469 L 235.472656 100.523438 L 331.4375 100.523438 L 331.4375 66.210938 C 331.4375 55.363281 321.542969 46.5 309.464844 46.5 Z M 309.464844 46.5 " fill-opacity="1" fill-rule="evenodd"/><path fill="#79cecb" d="M 228.550781 278.320312 L 231.003906 310.746094 L 170.664062 310.746094 C 151.640625 309.714844 138.726562 285.816406 126.425781 271.003906 L 131.328125 328.800781 L 48.210938 328.800781 L 48.210938 235.691406 C 48.214844 234.8125 48.257812 233.9375 48.347656 233.0625 C 48.4375 232.1875 48.566406 231.320312 48.742188 230.460938 C 48.914062 229.597656 49.128906 228.75 49.386719 227.910156 C 49.644531 227.070312 49.941406 226.242188 50.277344 225.433594 C 50.617188 224.621094 50.992188 223.828125 51.40625 223.054688 C 51.824219 222.28125 52.273438 221.527344 52.761719 220.796875 C 53.253906 220.070312 53.777344 219.363281 54.332031 218.683594 C 54.890625 218.007812 55.480469 217.355469 56.101562 216.734375 C 56.722656 216.113281 57.375 215.527344 58.054688 214.96875 C 58.734375 214.410156 59.4375 213.886719 60.167969 213.398438 C 60.898438 212.910156 61.652344 212.460938 62.425781 212.046875 C 63.199219 211.628906 63.992188 211.253906 64.804688 210.917969 C 65.617188 210.582031 66.441406 210.285156 67.28125 210.027344 C 68.121094 209.769531 68.972656 209.554688 69.835938 209.382812 C 70.695312 209.210938 71.5625 209.078125 72.4375 208.992188 C 73.3125 208.902344 74.1875 208.859375 75.066406 208.855469 L 113.402344 208.855469 C 128.703125 207.96875 136.277344 211.160156 144.03125 219.703125 L 191.347656 269.167969 Z M 228.550781 278.320312 " fill-opacity="1" fill-rule="evenodd"/><path fill="#bdf3ec" d="M 76.679688 179.027344 L 102.828125 180.800781 L 108.777344 208.859375 L 74.792969 208.859375 Z M 76.679688 179.027344 " fill-opacity="1" fill-rule="evenodd"/><path fill="#bdf3ec" d="M 90.140625 138.296875 L 134.570312 138.296875 L 134.570312 174.046875 C 134.566406 174.773438 134.53125 175.496094 134.457031 176.21875 C 134.382812 176.941406 134.277344 177.660156 134.132812 178.375 C 133.988281 179.085938 133.8125 179.789062 133.597656 180.484375 C 133.386719 181.179688 133.140625 181.863281 132.863281 182.535156 C 132.582031 183.207031 132.269531 183.859375 131.929688 184.5 C 131.585938 185.140625 131.210938 185.765625 130.804688 186.367188 C 130.402344 186.972656 129.96875 187.554688 129.507812 188.117188 C 129.046875 188.679688 128.558594 189.214844 128.042969 189.730469 C 127.53125 190.246094 126.992188 190.730469 126.429688 191.191406 C 125.867188 191.65625 125.285156 192.085938 124.683594 192.492188 C 124.078125 192.894531 123.457031 193.269531 122.8125 193.613281 C 122.171875 193.957031 121.519531 194.265625 120.847656 194.546875 C 120.175781 194.824219 119.492188 195.070312 118.796875 195.28125 C 118.101562 195.496094 117.398438 195.671875 116.683594 195.816406 C 115.972656 195.960938 115.253906 196.066406 114.53125 196.140625 C 113.808594 196.214844 113.082031 196.25 112.355469 196.253906 C 111.628906 196.25 110.902344 196.214844 110.179688 196.140625 C 109.457031 196.066406 108.738281 195.960938 108.027344 195.816406 C 107.3125 195.671875 106.609375 195.496094 105.914062 195.28125 C 105.21875 195.070312 104.535156 194.824219 103.863281 194.546875 C 103.191406 194.265625 102.535156 193.957031 101.894531 193.613281 C 101.253906 193.269531 100.632812 192.894531 100.027344 192.492188 C 99.425781 192.085938 98.839844 191.65625 98.28125 191.195312 C 97.71875 190.730469 97.179688 190.246094 96.667969 189.730469 C 96.152344 189.21875 95.664062 188.679688 95.203125 188.117188 C 94.742188 187.554688 94.308594 186.972656 93.90625 186.371094 C 93.5 185.765625 93.125 185.144531 92.78125 184.503906 C 92.441406 183.863281 92.128906 183.207031 91.847656 182.535156 C 91.570312 181.863281 91.324219 181.179688 91.113281 180.484375 C 90.898438 179.789062 90.722656 179.085938 90.578125 178.375 C 90.433594 177.664062 90.328125 176.945312 90.253906 176.222656 C 90.179688 175.5 90.144531 174.773438 90.140625 174.046875 Z M 90.140625 138.296875 " fill-opacity="1" fill-rule="evenodd"/><path fill="#42a6a3" d="M 83.578125 114.6875 L 130.683594 114.6875 C 131.582031 114.691406 132.472656 114.78125 133.351562 114.957031 C 134.230469 115.136719 135.085938 115.398438 135.914062 115.742188 C 136.746094 116.085938 137.53125 116.507812 138.277344 117.007812 C 139.023438 117.507812 139.714844 118.074219 140.351562 118.707031 C 140.984375 119.34375 141.554688 120.035156 142.050781 120.78125 C 142.550781 121.527344 142.972656 122.3125 143.320312 123.140625 C 143.664062 123.972656 143.925781 124.824219 144.101562 125.707031 C 144.277344 126.585938 144.367188 127.472656 144.371094 128.371094 C 144.367188 129.269531 144.277344 130.160156 144.101562 131.039062 C 143.925781 131.917969 143.664062 132.773438 143.320312 133.601562 C 142.972656 134.429688 142.550781 135.21875 142.050781 135.964844 C 141.554688 136.710938 140.984375 137.402344 140.351562 138.035156 C 139.714844 138.671875 139.023438 139.238281 138.277344 139.738281 C 137.53125 140.238281 136.746094 140.660156 135.914062 141.003906 C 135.085938 141.347656 134.230469 141.609375 133.351562 141.785156 C 132.472656 141.960938 131.582031 142.050781 130.683594 142.054688 L 116.078125 142.054688 L 113.03125 149.113281 L 102.761719 149.113281 C 102.15625 149.113281 101.558594 149.171875 100.964844 149.292969 C 100.371094 149.410156 99.792969 149.585938 99.234375 149.816406 C 98.675781 150.046875 98.144531 150.332031 97.640625 150.667969 C 97.136719 151.003906 96.671875 151.386719 96.242188 151.8125 C 95.816406 152.242188 95.433594 152.707031 95.097656 153.210938 C 94.761719 153.714844 94.476562 154.246094 94.242188 154.804688 C 94.011719 155.363281 93.835938 155.941406 93.71875 156.535156 C 93.601562 157.128906 93.542969 157.726562 93.542969 158.332031 C 93.542969 158.9375 93.601562 159.539062 93.71875 160.132812 C 93.835938 160.726562 94.011719 161.300781 94.242188 161.859375 C 94.476562 162.417969 94.761719 162.949219 95.097656 163.453125 C 95.433594 163.957031 95.816406 164.421875 96.242188 164.851562 C 96.671875 165.28125 97.136719 165.660156 97.640625 165.996094 C 98.144531 166.335938 98.675781 166.617188 99.234375 166.851562 C 99.792969 167.082031 100.371094 167.257812 100.964844 167.375 C 101.558594 167.492188 102.15625 167.550781 102.761719 167.550781 L 103.585938 167.550781 L 98.234375 185.585938 L 74.792969 185.585938 C 53.09375 164.394531 39.941406 114.6875 83.578125 114.6875 Z M 83.578125 114.6875 " fill-opacity="1" fill-rule="evenodd"/><path fill="#bdf3ec" d="M 279.640625 152.851562 C 280.234375 152.851562 280.824219 152.824219 281.414062 152.765625 C 282.003906 152.710938 282.589844 152.621094 283.171875 152.507812 C 283.753906 152.390625 284.328125 152.25 284.894531 152.078125 C 285.460938 151.90625 286.019531 151.707031 286.566406 151.480469 C 287.113281 151.253906 287.648438 151 288.171875 150.722656 C 288.695312 150.441406 289.203125 150.136719 289.695312 149.808594 C 290.1875 149.480469 290.664062 149.128906 291.121094 148.75 C 291.582031 148.375 292.019531 147.980469 292.4375 147.558594 C 292.859375 147.140625 293.253906 146.703125 293.632812 146.246094 C 294.007812 145.789062 294.359375 145.3125 294.691406 144.820312 C 295.019531 144.328125 295.324219 143.820312 295.605469 143.296875 C 295.882812 142.773438 296.136719 142.238281 296.363281 141.691406 C 296.589844 141.144531 296.789062 140.589844 296.960938 140.019531 C 297.136719 139.453125 297.277344 138.878906 297.394531 138.300781 C 297.511719 137.71875 297.597656 137.132812 297.65625 136.542969 C 297.714844 135.953125 297.742188 135.363281 297.746094 134.769531 C 297.746094 134.175781 297.714844 133.585938 297.65625 132.996094 C 297.601562 132.40625 297.511719 131.820312 297.398438 131.242188 C 297.28125 130.660156 297.140625 130.085938 296.96875 129.519531 C 296.796875 128.953125 296.597656 128.394531 296.371094 127.847656 C 296.144531 127.300781 295.890625 126.765625 295.613281 126.242188 C 295.332031 125.71875 295.027344 125.210938 294.699219 124.71875 C 294.371094 124.226562 294.019531 123.75 293.640625 123.292969 C 293.265625 122.832031 292.867188 122.394531 292.449219 121.976562 C 292.03125 121.554688 291.59375 121.160156 291.132812 120.78125 C 290.675781 120.40625 290.203125 120.054688 289.707031 119.722656 C 289.214844 119.394531 288.707031 119.089844 288.1875 118.8125 C 287.664062 118.53125 287.128906 118.277344 286.582031 118.050781 C 286.035156 117.824219 285.476562 117.625 284.910156 117.453125 C 284.34375 117.28125 283.769531 117.136719 283.1875 117.019531 C 282.605469 116.90625 282.019531 116.816406 281.429688 116.757812 C 280.839844 116.699219 280.25 116.671875 279.65625 116.671875 C 279.0625 116.671875 278.472656 116.699219 277.882812 116.757812 C 277.292969 116.816406 276.707031 116.902344 276.125 117.015625 C 275.542969 117.132812 274.96875 117.277344 274.402344 117.449219 C 273.835938 117.621094 273.277344 117.820312 272.730469 118.046875 C 272.183594 118.273438 271.648438 118.523438 271.125 118.804688 C 270.601562 119.082031 270.09375 119.386719 269.601562 119.714844 C 269.109375 120.042969 268.632812 120.398438 268.175781 120.773438 C 267.714844 121.148438 267.277344 121.546875 266.859375 121.964844 C 266.441406 122.382812 266.042969 122.820312 265.664062 123.28125 C 265.289062 123.738281 264.9375 124.210938 264.605469 124.703125 C 264.277344 125.199219 263.972656 125.703125 263.695312 126.226562 C 263.414062 126.75 263.160156 127.285156 262.933594 127.832031 C 262.707031 128.378906 262.507812 128.9375 262.335938 129.503906 C 262.164062 130.070312 262.019531 130.644531 261.902344 131.226562 C 261.785156 131.804688 261.699219 132.390625 261.640625 132.980469 C 261.582031 133.570312 261.554688 134.160156 261.554688 134.753906 C 261.554688 135.347656 261.585938 135.9375 261.644531 136.527344 C 261.703125 137.113281 261.789062 137.699219 261.90625 138.28125 C 262.023438 138.859375 262.167969 139.433594 262.339844 140 C 262.511719 140.566406 262.710938 141.125 262.941406 141.671875 C 263.167969 142.21875 263.421875 142.753906 263.699219 143.273438 C 263.980469 143.796875 264.285156 144.304688 264.613281 144.796875 C 264.941406 145.289062 265.292969 145.761719 265.667969 146.21875 C 266.046875 146.679688 266.441406 147.117188 266.859375 147.535156 C 267.28125 147.953125 267.71875 148.351562 268.175781 148.726562 C 268.632812 149.105469 269.105469 149.457031 269.597656 149.785156 C 270.089844 150.113281 270.597656 150.417969 271.121094 150.699219 C 271.640625 150.980469 272.175781 151.234375 272.722656 151.460938 C 273.269531 151.6875 273.828125 151.886719 274.394531 152.0625 C 274.960938 152.234375 275.53125 152.378906 276.113281 152.496094 C 276.695312 152.613281 277.277344 152.703125 277.867188 152.761719 C 278.457031 152.820312 279.046875 152.851562 279.640625 152.851562 Z M 279.640625 152.851562 " fill-opacity="1" fill-rule="evenodd"/><path fill="#79cecb" d="M 294.921875 161.476562 C 296.183594 161.664062 297.417969 161.964844 298.628906 162.375 C 299.835938 162.785156 300.996094 163.300781 302.113281 163.914062 C 303.230469 164.53125 304.285156 165.242188 305.273438 166.046875 C 306.265625 166.851562 307.175781 167.734375 308.007812 168.699219 C 308.84375 169.664062 309.582031 170.695312 310.234375 171.792969 C 310.882812 172.890625 311.429688 174.039062 311.875 175.234375 C 312.324219 176.425781 312.660156 177.652344 312.886719 178.90625 C 313.117188 180.160156 313.234375 181.425781 313.234375 182.703125 L 313.234375 208.746094 C 290.84375 216.980469 268.453125 217.09375 246.0625 208.746094 L 246.0625 182.703125 C 246.0625 181.425781 246.179688 180.164062 246.410156 178.90625 C 246.636719 177.652344 246.972656 176.429688 247.417969 175.234375 C 247.867188 174.039062 248.414062 172.894531 249.0625 171.796875 C 249.714844 170.699219 250.453125 169.667969 251.289062 168.703125 C 252.121094 167.734375 253.03125 166.851562 254.023438 166.046875 C 255.011719 165.242188 256.066406 164.535156 257.183594 163.917969 C 258.300781 163.300781 259.460938 162.789062 260.667969 162.378906 C 261.878906 161.96875 263.113281 161.667969 264.375 161.476562 C 265.492188 162.234375 266.664062 162.910156 267.886719 163.492188 C 269.105469 164.078125 270.363281 164.570312 271.660156 164.96875 C 272.953125 165.363281 274.269531 165.664062 275.609375 165.863281 C 276.949219 166.066406 278.292969 166.167969 279.648438 166.167969 C 281 166.167969 282.347656 166.066406 283.6875 165.863281 C 285.027344 165.664062 286.34375 165.363281 287.636719 164.96875 C 288.929688 164.570312 290.1875 164.078125 291.410156 163.492188 C 292.632812 162.910156 293.800781 162.234375 294.921875 161.476562 Z M 294.921875 161.476562 " fill-opacity="1" fill-rule="evenodd"/><path fill="#bdf3ec" d="M 184.320312 151.320312 C 184.910156 151.320312 185.5 151.292969 186.089844 151.234375 C 186.679688 151.175781 187.265625 151.085938 187.84375 150.972656 C 188.425781 150.855469 189 150.710938 189.566406 150.539062 C 190.132812 150.367188 190.6875 150.167969 191.234375 149.9375 C 191.78125 149.710938 192.316406 149.457031 192.839844 149.179688 C 193.363281 148.898438 193.867188 148.59375 194.359375 148.265625 C 194.851562 147.9375 195.328125 147.585938 195.785156 147.207031 C 196.242188 146.832031 196.679688 146.433594 197.097656 146.015625 C 197.515625 145.597656 197.914062 145.160156 198.289062 144.699219 C 198.664062 144.242188 199.015625 143.765625 199.34375 143.273438 C 199.671875 142.78125 199.976562 142.273438 200.253906 141.753906 C 200.535156 141.230469 200.785156 140.695312 201.011719 140.148438 C 201.238281 139.601562 201.4375 139.042969 201.609375 138.476562 C 201.78125 137.910156 201.925781 137.339844 202.039062 136.757812 C 202.15625 136.175781 202.242188 135.589844 202.296875 135.003906 C 202.355469 134.414062 202.386719 133.824219 202.382812 133.230469 C 202.382812 132.640625 202.355469 132.046875 202.296875 131.460938 C 202.238281 130.871094 202.152344 130.285156 202.035156 129.703125 C 201.917969 129.125 201.773438 128.550781 201.601562 127.984375 C 201.429688 127.417969 201.230469 126.859375 201.003906 126.3125 C 200.777344 125.765625 200.523438 125.234375 200.246094 124.710938 C 199.964844 124.1875 199.660156 123.683594 199.332031 123.191406 C 199.003906 122.699219 198.652344 122.222656 198.273438 121.765625 C 197.898438 121.308594 197.5 120.871094 197.082031 120.453125 C 196.664062 120.035156 196.226562 119.636719 195.765625 119.261719 C 195.308594 118.886719 194.835938 118.535156 194.34375 118.207031 C 193.847656 117.875 193.34375 117.574219 192.820312 117.292969 C 192.296875 117.015625 191.761719 116.761719 191.214844 116.535156 C 190.667969 116.308594 190.113281 116.109375 189.542969 115.9375 C 188.976562 115.765625 188.40625 115.625 187.824219 115.507812 C 187.242188 115.394531 186.65625 115.304688 186.070312 115.25 C 185.480469 115.191406 184.886719 115.160156 184.296875 115.160156 C 183.703125 115.160156 183.113281 115.191406 182.523438 115.25 C 181.933594 115.308594 181.351562 115.394531 180.769531 115.507812 C 180.1875 115.625 179.613281 115.769531 179.046875 115.941406 C 178.480469 116.113281 177.925781 116.3125 177.378906 116.539062 C 176.832031 116.765625 176.296875 117.019531 175.773438 117.296875 C 175.25 117.578125 174.746094 117.878906 174.25 118.210938 C 173.757812 118.539062 173.285156 118.890625 172.828125 119.265625 C 172.367188 119.640625 171.929688 120.039062 171.511719 120.457031 C 171.09375 120.875 170.695312 121.3125 170.320312 121.769531 C 169.945312 122.230469 169.59375 122.703125 169.261719 123.195312 C 168.933594 123.6875 168.628906 124.195312 168.351562 124.71875 C 168.070312 125.238281 167.820312 125.773438 167.59375 126.320312 C 167.367188 126.867188 167.167969 127.425781 166.996094 127.992188 C 166.824219 128.558594 166.679688 129.132812 166.5625 129.710938 C 166.449219 130.292969 166.359375 130.878906 166.300781 131.464844 C 166.246094 132.054688 166.214844 132.644531 166.214844 133.238281 C 166.214844 133.832031 166.246094 134.421875 166.304688 135.011719 C 166.363281 135.597656 166.453125 136.183594 166.570312 136.765625 C 166.683594 137.347656 166.828125 137.917969 167.003906 138.484375 C 167.175781 139.050781 167.375 139.609375 167.601562 140.15625 C 167.828125 140.703125 168.082031 141.238281 168.363281 141.757812 C 168.644531 142.28125 168.949219 142.789062 169.277344 143.28125 C 169.605469 143.773438 169.960938 144.25 170.335938 144.707031 C 170.710938 145.164062 171.109375 145.601562 171.527344 146.019531 C 171.949219 146.4375 172.386719 146.835938 172.84375 147.210938 C 173.300781 147.585938 173.777344 147.9375 174.269531 148.269531 C 174.761719 148.597656 175.269531 148.902344 175.792969 149.179688 C 176.316406 149.460938 176.851562 149.710938 177.398438 149.941406 C 177.945312 150.167969 178.5 150.367188 179.066406 150.539062 C 179.636719 150.710938 180.210938 150.855469 180.789062 150.96875 C 181.371094 151.085938 181.957031 151.171875 182.546875 151.230469 C 183.136719 151.289062 183.726562 151.320312 184.320312 151.320312 Z M 184.320312 151.320312 " fill-opacity="1" fill-rule="evenodd"/><path fill="#79cecb" d="M 199.585938 159.960938 C 200.847656 160.152344 202.082031 160.449219 203.289062 160.859375 C 204.496094 161.269531 205.660156 161.785156 206.773438 162.402344 C 207.890625 163.015625 208.945312 163.726562 209.933594 164.53125 C 210.925781 165.335938 211.835938 166.21875 212.671875 167.183594 C 213.503906 168.148438 214.246094 169.183594 214.894531 170.277344 C 215.542969 171.375 216.09375 172.523438 216.539062 173.71875 C 216.984375 174.910156 217.320312 176.136719 217.550781 177.390625 C 217.777344 178.644531 217.894531 179.910156 217.898438 181.183594 L 217.898438 207.230469 C 195.503906 215.464844 173.113281 215.578125 150.722656 207.230469 L 150.722656 181.1875 C 150.726562 179.910156 150.839844 178.644531 151.070312 177.390625 C 151.296875 176.136719 151.636719 174.914062 152.082031 173.71875 C 152.527344 172.523438 153.074219 171.375 153.726562 170.28125 C 154.375 169.183594 155.117188 168.152344 155.949219 167.183594 C 156.78125 166.21875 157.695312 165.335938 158.683594 164.53125 C 159.675781 163.726562 160.726562 163.019531 161.84375 162.402344 C 162.960938 161.785156 164.125 161.273438 165.332031 160.863281 C 166.539062 160.453125 167.773438 160.152344 169.035156 159.960938 C 170.15625 160.71875 171.328125 161.386719 172.550781 161.972656 C 173.769531 162.554688 175.027344 163.042969 176.324219 163.441406 C 177.617188 163.835938 178.933594 164.132812 180.269531 164.332031 C 181.609375 164.535156 182.957031 164.632812 184.308594 164.632812 C 185.664062 164.632812 187.007812 164.535156 188.347656 164.332031 C 189.6875 164.132812 191.003906 163.835938 192.296875 163.441406 C 193.589844 163.042969 194.847656 162.554688 196.070312 161.972656 C 197.289062 161.386719 198.460938 160.71875 199.582031 159.960938 Z M 199.585938 159.960938 " fill-opacity="1" fill-rule="evenodd"/><path fill="#bdf3ec" d="M 232.117188 166.617188 C 232.710938 166.617188 233.300781 166.589844 233.890625 166.53125 C 234.480469 166.472656 235.066406 166.386719 235.648438 166.269531 C 236.230469 166.15625 236.804688 166.011719 237.371094 165.839844 C 237.9375 165.667969 238.496094 165.46875 239.042969 165.242188 C 239.589844 165.015625 240.125 164.761719 240.648438 164.484375 C 241.171875 164.203125 241.679688 163.898438 242.171875 163.570312 C 242.664062 163.242188 243.140625 162.890625 243.601562 162.515625 C 244.058594 162.136719 244.496094 161.742188 244.917969 161.320312 C 245.335938 160.902344 245.734375 160.464844 246.109375 160.007812 C 246.484375 159.546875 246.839844 159.074219 247.167969 158.582031 C 247.496094 158.089844 247.800781 157.582031 248.082031 157.058594 C 248.359375 156.535156 248.613281 156 248.839844 155.453125 C 249.066406 154.90625 249.269531 154.347656 249.441406 153.78125 C 249.613281 153.214844 249.757812 152.640625 249.871094 152.058594 C 249.988281 151.476562 250.074219 150.890625 250.132812 150.300781 C 250.191406 149.710938 250.21875 149.121094 250.21875 148.527344 C 250.21875 147.9375 250.191406 147.34375 250.132812 146.753906 C 250.074219 146.164062 249.988281 145.582031 249.875 145 C 249.757812 144.417969 249.613281 143.84375 249.441406 143.277344 C 249.269531 142.710938 249.070312 142.152344 248.84375 141.605469 C 248.617188 141.058594 248.363281 140.523438 248.085938 140 C 247.804688 139.476562 247.5 138.96875 247.171875 138.476562 C 246.84375 137.984375 246.488281 137.507812 246.113281 137.050781 C 245.738281 136.59375 245.339844 136.152344 244.921875 135.734375 C 244.5 135.316406 244.0625 134.917969 243.605469 134.542969 C 243.148438 134.164062 242.671875 133.8125 242.179688 133.484375 C 241.683594 133.15625 241.175781 132.851562 240.65625 132.570312 C 240.132812 132.292969 239.597656 132.039062 239.050781 131.8125 C 238.5 131.585938 237.945312 131.386719 237.375 131.214844 C 236.808594 131.042969 236.234375 130.898438 235.652344 130.78125 C 235.074219 130.667969 234.488281 130.578125 233.898438 130.523438 C 233.308594 130.464844 232.714844 130.433594 232.125 130.433594 C 231.53125 130.433594 230.9375 130.464844 230.347656 130.523438 C 229.757812 130.582031 229.171875 130.667969 228.59375 130.78125 C 228.011719 130.898438 227.4375 131.042969 226.871094 131.214844 C 226.300781 131.386719 225.746094 131.585938 225.195312 131.8125 C 224.648438 132.039062 224.113281 132.292969 223.589844 132.574219 C 223.070312 132.851562 222.5625 133.15625 222.070312 133.484375 C 221.574219 133.816406 221.101562 134.167969 220.640625 134.542969 C 220.183594 134.917969 219.746094 135.316406 219.328125 135.738281 C 218.90625 136.15625 218.511719 136.59375 218.132812 137.050781 C 217.757812 137.511719 217.40625 137.984375 217.078125 138.480469 C 216.746094 138.972656 216.441406 139.480469 216.164062 140.003906 C 215.882812 140.523438 215.632812 141.058594 215.40625 141.609375 C 215.179688 142.15625 214.976562 142.710938 214.804688 143.28125 C 214.632812 143.847656 214.492188 144.421875 214.375 145.003906 C 214.261719 145.582031 214.171875 146.167969 214.117188 146.757812 C 214.058594 147.347656 214.027344 147.941406 214.027344 148.53125 C 214.03125 149.125 214.058594 149.714844 214.121094 150.304688 C 214.179688 150.890625 214.265625 151.476562 214.382812 152.058594 C 214.5 152.636719 214.644531 153.210938 214.816406 153.777344 C 214.988281 154.34375 215.1875 154.898438 215.414062 155.445312 C 215.640625 155.992188 215.894531 156.527344 216.175781 157.050781 C 216.453125 157.570312 216.757812 158.078125 217.089844 158.570312 C 217.417969 159.0625 217.769531 159.535156 218.144531 159.996094 C 218.519531 160.453125 218.917969 160.890625 219.335938 161.308594 C 219.753906 161.726562 220.195312 162.125 220.652344 162.5 C 221.109375 162.875 221.582031 163.226562 222.074219 163.558594 C 222.566406 163.886719 223.074219 164.191406 223.597656 164.46875 C 224.117188 164.75 224.652344 165.003906 225.199219 165.230469 C 225.746094 165.457031 226.304688 165.65625 226.871094 165.828125 C 227.4375 166 228.011719 166.144531 228.589844 166.261719 C 229.171875 166.378906 229.753906 166.464844 230.34375 166.523438 C 230.933594 166.582031 231.523438 166.613281 232.117188 166.613281 Z M 232.117188 166.617188 " fill-opacity="1" fill-rule="evenodd"/><path fill="#79cecb" d="M 247.398438 175.253906 C 248.660156 175.445312 249.894531 175.746094 251.101562 176.152344 C 252.308594 176.5625 253.46875 177.078125 254.585938 177.691406 C 255.703125 178.308594 256.753906 179.015625 257.746094 179.820312 C 258.734375 180.621094 259.644531 181.507812 260.480469 182.472656 C 261.3125 183.4375 262.054688 184.464844 262.703125 185.5625 C 263.351562 186.660156 263.902344 187.804688 264.347656 189 C 264.792969 190.191406 265.132812 191.414062 265.359375 192.667969 C 265.589844 193.921875 265.707031 195.1875 265.710938 196.460938 L 265.710938 222.507812 C 243.320312 230.742188 220.925781 230.855469 198.535156 222.507812 L 198.535156 196.464844 C 198.539062 195.191406 198.65625 193.925781 198.882812 192.671875 C 199.113281 191.417969 199.449219 190.195312 199.894531 189 C 200.34375 187.804688 200.890625 186.660156 201.539062 185.5625 C 202.191406 184.46875 202.929688 183.4375 203.765625 182.472656 C 204.597656 181.507812 205.507812 180.621094 206.5 179.820312 C 207.488281 179.015625 208.542969 178.308594 209.660156 177.691406 C 210.777344 177.078125 211.9375 176.5625 213.144531 176.15625 C 214.351562 175.746094 215.585938 175.445312 216.847656 175.257812 C 217.96875 176.015625 219.140625 176.683594 220.363281 177.269531 C 221.582031 177.851562 222.839844 178.339844 224.136719 178.734375 C 225.429688 179.132812 226.746094 179.429688 228.085938 179.628906 C 229.421875 179.832031 230.769531 179.929688 232.121094 179.929688 C 233.476562 179.929688 234.820312 179.832031 236.160156 179.628906 C 237.5 179.429688 238.816406 179.132812 240.109375 178.734375 C 241.402344 178.339844 242.660156 177.851562 243.882812 177.269531 C 245.105469 176.683594 246.273438 176.015625 247.398438 175.257812 Z M 247.398438 175.253906 " fill-opacity="1" fill-rule="evenodd"/><path fill="#42a6a3" d="M 311.558594 233.097656 L 311.929688 241.898438 L 300.484375 246.167969 L 291.78125 249.410156 C 290.871094 252.792969 289.675781 256.078125 288.199219 259.253906 L 292.761719 267.328125 L 298.761719 277.964844 L 290.507812 286.976562 L 282.238281 295.96875 L 271.113281 290.890625 L 262.683594 287.039062 C 259.644531 288.789062 256.472656 290.261719 253.171875 291.457031 L 250.691406 300.402344 L 247.417969 312.183594 L 235.199219 312.699219 L 222.996094 313.214844 L 218.722656 301.769531 L 215.480469 293.066406 C 212.09375 292.15625 208.8125 290.964844 205.632812 289.488281 L 197.554688 294.050781 L 186.898438 300.0625 L 177.90625 291.792969 L 168.894531 283.527344 L 173.972656 272.421875 L 177.824219 263.976562 C 176.085938 260.929688 174.613281 257.761719 173.40625 254.46875 L 164.476562 251.984375 L 152.6875 248.714844 L 152.171875 236.5 L 152.027344 233.097656 L 191.007812 233.097656 C 191.003906 234.433594 191.070312 235.765625 191.199219 237.09375 C 191.332031 238.425781 191.527344 239.742188 191.785156 241.054688 C 192.046875 242.363281 192.371094 243.65625 192.757812 244.9375 C 193.144531 246.214844 193.59375 247.46875 194.105469 248.703125 C 194.613281 249.9375 195.183594 251.144531 195.8125 252.320312 C 196.445312 253.5 197.128906 254.644531 197.871094 255.753906 C 198.613281 256.867188 199.40625 257.9375 200.253906 258.96875 C 201.101562 260.003906 201.996094 260.992188 202.941406 261.9375 C 203.886719 262.878906 204.875 263.777344 205.90625 264.625 C 206.941406 265.472656 208.011719 266.265625 209.121094 267.007812 C 210.234375 267.75 211.378906 268.4375 212.554688 269.066406 C 213.734375 269.695312 214.9375 270.265625 216.171875 270.777344 C 217.40625 271.289062 218.664062 271.738281 219.941406 272.125 C 221.21875 272.515625 222.515625 272.839844 223.824219 273.097656 C 225.136719 273.359375 226.453125 273.554688 227.785156 273.6875 C 229.113281 273.816406 230.445312 273.882812 231.78125 273.882812 C 233.117188 273.882812 234.449219 273.816406 235.78125 273.6875 C 237.109375 273.554688 238.429688 273.359375 239.738281 273.097656 C 241.050781 272.839844 242.34375 272.515625 243.621094 272.125 C 244.902344 271.738281 246.15625 271.289062 247.390625 270.777344 C 248.625 270.265625 249.832031 269.695312 251.007812 269.066406 C 252.1875 268.4375 253.332031 267.75 254.441406 267.007812 C 255.554688 266.265625 256.625 265.472656 257.65625 264.625 C 258.691406 263.777344 259.679688 262.878906 260.621094 261.9375 C 261.566406 260.992188 262.460938 260.003906 263.308594 258.96875 C 264.15625 257.9375 264.953125 256.867188 265.695312 255.753906 C 266.433594 254.644531 267.121094 253.5 267.75 252.320312 C 268.378906 251.144531 268.949219 249.9375 269.460938 248.703125 C 269.972656 247.46875 270.421875 246.214844 270.808594 244.9375 C 271.195312 243.65625 271.519531 242.363281 271.777344 241.054688 C 272.039062 239.742188 272.234375 238.425781 272.363281 237.09375 C 272.496094 235.765625 272.558594 234.433594 272.558594 233.097656 Z M 311.558594 233.097656 " fill-opacity="1" fill-rule="evenodd"/><g clip-path="url(#3e6e405d3b)"><path fill="#0d5f5a" d="M 311.703125 42.519531 L 105.679688 42.519531 C 104.90625 42.519531 104.132812 42.558594 103.359375 42.636719 C 102.585938 42.710938 101.820312 42.828125 101.058594 42.976562 C 100.300781 43.128906 99.546875 43.320312 98.804688 43.542969 C 98.0625 43.769531 97.332031 44.03125 96.617188 44.328125 C 95.898438 44.625 95.199219 44.957031 94.515625 45.324219 C 93.832031 45.691406 93.167969 46.089844 92.523438 46.519531 C 91.875 46.949219 91.253906 47.414062 90.65625 47.90625 C 90.054688 48.398438 89.480469 48.917969 88.933594 49.464844 C 88.382812 50.015625 87.863281 50.589844 87.371094 51.1875 C 86.878906 51.785156 86.417969 52.410156 85.984375 53.054688 C 85.554688 53.699219 85.15625 54.363281 84.789062 55.046875 C 84.421875 55.730469 84.089844 56.429688 83.792969 57.148438 C 83.496094 57.863281 83.234375 58.59375 83.007812 59.335938 C 82.785156 60.078125 82.59375 60.828125 82.441406 61.589844 C 82.292969 62.351562 82.175781 63.117188 82.101562 63.890625 C 82.023438 64.660156 81.984375 65.433594 81.984375 66.210938 L 81.984375 110.730469 C 63.625 111.222656 56.097656 120.179688 53.019531 127.730469 C 45.667969 145.769531 56.90625 173.679688 72.011719 188.433594 C 72.039062 188.460938 72.066406 188.484375 72.101562 188.511719 L 71.039062 205.148438 C 70.121094 205.269531 69.214844 205.433594 68.3125 205.636719 C 67.410156 205.839844 66.515625 206.082031 65.636719 206.367188 C 64.753906 206.648438 63.890625 206.972656 63.039062 207.332031 C 62.1875 207.695312 61.351562 208.09375 60.539062 208.527344 C 59.722656 208.964844 58.925781 209.4375 58.152344 209.945312 C 57.382812 210.453125 56.632812 210.992188 55.90625 211.566406 C 55.183594 212.144531 54.484375 212.75 53.816406 213.386719 C 53.144531 214.023438 52.503906 214.691406 51.894531 215.386719 C 51.285156 216.082031 50.707031 216.800781 50.164062 217.546875 C 49.617188 218.296875 49.105469 219.066406 48.628906 219.859375 C 48.152344 220.652344 47.714844 221.464844 47.3125 222.296875 C 46.910156 223.128906 46.542969 223.976562 46.21875 224.84375 C 45.890625 225.707031 45.601562 226.585938 45.355469 227.476562 C 45.109375 228.367188 44.902344 229.269531 44.734375 230.175781 C 44.566406 231.085938 44.441406 232.003906 44.355469 232.921875 C 44.273438 233.84375 44.230469 234.765625 44.226562 235.691406 L 44.226562 328.796875 C 44.226562 329.058594 44.253906 329.316406 44.304688 329.574219 C 44.355469 329.832031 44.429688 330.078125 44.53125 330.320312 C 44.632812 330.5625 44.753906 330.792969 44.898438 331.007812 C 45.042969 331.226562 45.210938 331.425781 45.394531 331.613281 C 45.578125 331.796875 45.78125 331.960938 45.996094 332.105469 C 46.214844 332.253906 46.445312 332.375 46.683594 332.476562 C 46.925781 332.574219 47.175781 332.648438 47.433594 332.699219 C 47.6875 332.753906 47.949219 332.777344 48.207031 332.777344 L 311.703125 332.777344 C 312.480469 332.777344 313.253906 332.738281 314.027344 332.660156 C 314.800781 332.585938 315.566406 332.472656 316.328125 332.320312 C 317.089844 332.167969 317.839844 331.980469 318.582031 331.753906 C 319.328125 331.527344 320.054688 331.265625 320.773438 330.96875 C 321.492188 330.671875 322.191406 330.339844 322.875 329.976562 C 323.558594 329.609375 324.226562 329.210938 324.871094 328.78125 C 325.515625 328.347656 326.140625 327.886719 326.738281 327.394531 C 327.339844 326.902344 327.914062 326.382812 328.460938 325.835938 C 329.011719 325.285156 329.53125 324.710938 330.023438 324.113281 C 330.519531 323.511719 330.980469 322.890625 331.410156 322.246094 C 331.84375 321.601562 332.242188 320.9375 332.609375 320.25 C 332.976562 319.566406 333.308594 318.867188 333.605469 318.152344 C 333.902344 317.433594 334.164062 316.703125 334.390625 315.960938 C 334.617188 315.21875 334.804688 314.46875 334.957031 313.707031 C 335.109375 312.945312 335.226562 312.179688 335.300781 311.40625 C 335.378906 310.636719 335.417969 309.863281 335.421875 309.085938 L 335.421875 66.210938 C 335.417969 65.433594 335.378906 64.660156 335.300781 63.886719 C 335.226562 63.117188 335.109375 62.347656 334.957031 61.589844 C 334.804688 60.828125 334.617188 60.074219 334.390625 59.332031 C 334.164062 58.589844 333.902344 57.863281 333.605469 57.144531 C 333.308594 56.429688 332.976562 55.726562 332.609375 55.042969 C 332.242188 54.359375 331.84375 53.695312 331.410156 53.050781 C 330.980469 52.40625 330.519531 51.785156 330.023438 51.183594 C 329.53125 50.585938 329.011719 50.011719 328.460938 49.460938 C 327.914062 48.914062 327.339844 48.394531 326.738281 47.902344 C 326.140625 47.410156 325.515625 46.949219 324.871094 46.515625 C 324.226562 46.085938 323.558594 45.6875 322.875 45.320312 C 322.191406 44.957031 321.492188 44.625 320.773438 44.328125 C 320.054688 44.03125 319.328125 43.769531 318.582031 43.542969 C 317.839844 43.316406 317.089844 43.128906 316.328125 42.976562 C 315.566406 42.824219 314.800781 42.710938 314.027344 42.632812 C 313.253906 42.558594 312.480469 42.519531 311.703125 42.519531 Z M 105.679688 50.480469 L 311.703125 50.480469 C 312.738281 50.480469 313.761719 50.582031 314.773438 50.78125 C 315.789062 50.984375 316.773438 51.28125 317.726562 51.679688 C 318.679688 52.074219 319.589844 52.558594 320.449219 53.132812 C 321.308594 53.707031 322.101562 54.359375 322.832031 55.085938 C 323.566406 55.816406 324.21875 56.613281 324.792969 57.46875 C 325.367188 58.328125 325.851562 59.234375 326.25 60.1875 C 326.644531 61.144531 326.945312 62.125 327.148438 63.140625 C 327.351562 64.152344 327.453125 65.175781 327.457031 66.207031 L 327.457031 96.542969 L 236.707031 96.542969 L 205.820312 75.324219 C 205.144531 74.855469 204.390625 74.621094 203.566406 74.625 L 89.949219 74.625 L 89.949219 66.207031 C 89.949219 65.175781 90.050781 64.152344 90.253906 63.140625 C 90.457031 62.128906 90.753906 61.144531 91.152344 60.191406 C 91.546875 59.238281 92.03125 58.332031 92.605469 57.476562 C 93.179688 56.617188 93.832031 55.824219 94.5625 55.09375 C 95.292969 54.363281 96.085938 53.710938 96.945312 53.136719 C 97.804688 52.5625 98.710938 52.078125 99.664062 51.683594 C 100.617188 51.289062 101.601562 50.988281 102.613281 50.785156 C 103.625 50.582031 104.648438 50.480469 105.679688 50.480469 Z M 60.394531 130.734375 C 63.65625 122.730469 71.457031 118.667969 83.578125 118.667969 L 130.683594 118.667969 C 131.320312 118.675781 131.945312 118.742188 132.566406 118.867188 C 133.1875 118.996094 133.789062 119.183594 134.375 119.429688 C 134.960938 119.675781 135.515625 119.976562 136.039062 120.332031 C 136.566406 120.683594 137.050781 121.085938 137.5 121.539062 C 137.945312 121.988281 138.34375 122.476562 138.695312 123.003906 C 139.046875 123.53125 139.339844 124.089844 139.582031 124.675781 C 139.824219 125.261719 140.007812 125.867188 140.128906 126.488281 C 140.253906 127.109375 140.316406 127.738281 140.316406 128.371094 C 140.316406 129.003906 140.253906 129.632812 140.128906 130.253906 C 140.007812 130.878906 139.824219 131.480469 139.582031 132.066406 C 139.339844 132.652344 139.046875 133.210938 138.695312 133.738281 C 138.34375 134.265625 137.945312 134.757812 137.5 135.207031 C 137.050781 135.65625 136.566406 136.058594 136.039062 136.414062 C 135.515625 136.769531 134.960938 137.066406 134.375 137.3125 C 133.789062 137.558594 133.1875 137.746094 132.566406 137.875 C 131.945312 138.003906 131.320312 138.070312 130.683594 138.074219 L 116.0625 138.074219 C 115.671875 138.074219 115.292969 138.128906 114.917969 138.242188 C 114.546875 138.351562 114.195312 138.515625 113.871094 138.730469 C 113.546875 138.945312 113.257812 139.203125 113.007812 139.5 C 112.757812 139.796875 112.558594 140.125 112.402344 140.484375 L 110.40625 145.132812 L 102.761719 145.132812 C 101.988281 145.132812 101.21875 145.199219 100.457031 145.335938 C 99.691406 145.472656 98.949219 145.671875 98.21875 145.9375 C 97.492188 146.207031 96.792969 146.535156 96.125 146.921875 C 95.453125 147.3125 94.824219 147.757812 94.230469 148.257812 C 93.640625 148.757812 93.097656 149.308594 92.601562 149.902344 C 92.105469 150.5 91.667969 151.132812 91.285156 151.808594 C 90.902344 152.480469 90.582031 153.183594 90.320312 153.914062 C 90.0625 154.640625 89.867188 155.390625 89.738281 156.152344 C 89.613281 156.917969 89.550781 157.6875 89.558594 158.460938 C 89.566406 159.238281 89.640625 160.003906 89.785156 160.765625 C 89.929688 161.527344 90.136719 162.269531 90.410156 162.996094 C 90.683594 163.71875 91.019531 164.414062 91.414062 165.082031 C 91.8125 165.746094 92.261719 166.375 92.769531 166.960938 C 93.277344 167.546875 93.828125 168.082031 94.429688 168.574219 C 95.03125 169.0625 95.671875 169.492188 96.347656 169.871094 C 97.027344 170.246094 97.730469 170.5625 98.464844 170.8125 L 95.261719 181.605469 L 76.453125 181.605469 C 64.011719 168.644531 54.519531 145.152344 60.394531 130.734375 Z M 91.296875 189.566406 C 92.726562 191.496094 94.390625 193.199219 96.285156 194.675781 C 98.183594 196.152344 100.242188 197.351562 102.464844 198.265625 L 103.863281 204.878906 L 79.039062 204.878906 L 80.015625 189.566406 Z M 101.105469 188.34375 C 101.554688 187.878906 101.867188 187.335938 102.050781 186.71875 L 107.402344 168.683594 C 107.492188 168.386719 107.546875 168.082031 107.5625 167.773438 C 107.578125 167.464844 107.5625 167.15625 107.507812 166.851562 C 107.453125 166.546875 107.363281 166.253906 107.242188 165.96875 C 107.117188 165.683594 106.964844 165.417969 106.777344 165.167969 C 106.59375 164.921875 106.382812 164.699219 106.144531 164.5 C 105.90625 164.300781 105.648438 164.132812 105.371094 163.992188 C 105.09375 163.855469 104.804688 163.75 104.503906 163.675781 C 104.203125 163.605469 103.898438 163.570312 103.585938 163.570312 L 102.765625 163.570312 C 102.421875 163.566406 102.085938 163.53125 101.75 163.460938 C 101.417969 163.390625 101.089844 163.289062 100.777344 163.15625 C 100.460938 163.023438 100.164062 162.859375 99.878906 162.667969 C 99.597656 162.476562 99.335938 162.261719 99.09375 162.015625 C 98.855469 161.773438 98.640625 161.511719 98.453125 161.226562 C 98.261719 160.941406 98.105469 160.640625 97.972656 160.324219 C 97.84375 160.007812 97.746094 159.683594 97.679688 159.347656 C 97.613281 159.011719 97.582031 158.675781 97.582031 158.332031 C 97.582031 157.992188 97.613281 157.652344 97.679688 157.316406 C 97.746094 156.980469 97.84375 156.65625 97.972656 156.339844 C 98.105469 156.023438 98.261719 155.722656 98.453125 155.441406 C 98.640625 155.15625 98.855469 154.890625 99.09375 154.648438 C 99.335938 154.40625 99.597656 154.1875 99.878906 153.996094 C 100.164062 153.804688 100.460938 153.640625 100.777344 153.507812 C 101.089844 153.375 101.417969 153.273438 101.75 153.203125 C 102.085938 153.136719 102.421875 153.097656 102.765625 153.09375 L 113.035156 153.09375 C 113.421875 153.09375 113.804688 153.039062 114.175781 152.925781 C 114.550781 152.816406 114.898438 152.652344 115.226562 152.4375 C 115.550781 152.222656 115.835938 151.96875 116.085938 151.667969 C 116.335938 151.371094 116.539062 151.042969 116.691406 150.683594 L 118.6875 146.035156 L 130.589844 146.035156 L 130.589844 174.046875 C 130.589844 174.898438 130.535156 175.746094 130.417969 176.585938 C 130.300781 177.429688 130.125 178.261719 129.890625 179.082031 C 129.65625 179.898438 129.367188 180.695312 129.023438 181.476562 C 128.675781 182.253906 128.277344 183.003906 127.828125 183.726562 C 127.375 184.445312 126.875 185.132812 126.328125 185.785156 C 125.78125 186.4375 125.191406 187.046875 124.558594 187.617188 C 123.925781 188.183594 123.253906 188.707031 122.546875 189.183594 C 121.839844 189.65625 121.105469 190.082031 120.339844 190.453125 C 119.574219 190.824219 118.785156 191.140625 117.972656 191.398438 C 117.164062 191.660156 116.339844 191.863281 115.5 192.007812 C 114.660156 192.152344 113.816406 192.238281 112.964844 192.265625 C 112.113281 192.292969 111.265625 192.257812 110.417969 192.164062 C 109.570312 192.074219 108.734375 191.921875 107.910156 191.710938 C 107.085938 191.5 106.28125 191.234375 105.492188 190.910156 C 104.703125 190.585938 103.941406 190.210938 103.207031 189.78125 C 102.472656 189.351562 101.773438 188.871094 101.105469 188.34375 Z M 105.683594 324.816406 L 52.191406 324.816406 L 52.191406 235.691406 C 52.191406 234.945312 52.230469 234.195312 52.304688 233.453125 C 52.378906 232.707031 52.492188 231.96875 52.636719 231.234375 C 52.785156 230.5 52.96875 229.773438 53.183594 229.058594 C 53.402344 228.34375 53.65625 227.640625 53.941406 226.949219 C 54.230469 226.257812 54.550781 225.582031 54.902344 224.921875 C 55.257812 224.261719 55.640625 223.621094 56.058594 223 C 56.476562 222.375 56.921875 221.777344 57.394531 221.199219 C 57.871094 220.621094 58.375 220.066406 58.902344 219.535156 C 59.433594 219.007812 59.988281 218.503906 60.566406 218.03125 C 61.144531 217.554688 61.746094 217.109375 62.367188 216.695312 C 62.992188 216.28125 63.632812 215.894531 64.292969 215.542969 C 64.953125 215.1875 65.628906 214.871094 66.320312 214.582031 C 67.011719 214.296875 67.714844 214.042969 68.433594 213.828125 C 69.148438 213.609375 69.875 213.425781 70.609375 213.28125 C 71.34375 213.136719 72.082031 213.023438 72.828125 212.949219 C 73.570312 212.878906 74.320312 212.839844 75.066406 212.839844 L 113.402344 212.839844 C 113.480469 212.839844 113.558594 212.839844 113.632812 212.832031 C 128.714844 211.953125 134.714844 215.359375 141.082031 222.378906 C 141.105469 222.40625 141.132812 222.429688 141.15625 222.457031 L 148.9375 230.589844 C 148.304688 231.371094 148.007812 232.261719 148.050781 233.265625 L 148.710938 248.882812 C 148.730469 249.300781 148.8125 249.710938 148.957031 250.105469 C 149.105469 250.5 149.308594 250.859375 149.570312 251.191406 C 149.832031 251.519531 150.140625 251.800781 150.488281 252.03125 C 150.839844 252.265625 151.21875 252.4375 151.625 252.550781 L 170.40625 257.765625 C 171.28125 259.941406 172.269531 262.066406 173.367188 264.140625 L 165.269531 281.875 C 165.09375 282.253906 164.984375 282.65625 164.933594 283.074219 C 164.886719 283.492188 164.90625 283.90625 164.988281 284.316406 C 165.070312 284.730469 165.21875 285.117188 165.421875 285.484375 C 165.628906 285.851562 165.890625 286.175781 166.199219 286.457031 L 184.207031 302.980469 C 184.515625 303.261719 184.859375 303.492188 185.242188 303.667969 C 185.625 303.839844 186.023438 303.953125 186.441406 304 C 186.859375 304.046875 187.273438 304.03125 187.683594 303.949219 C 188.097656 303.863281 188.484375 303.71875 188.851562 303.515625 L 205.84375 293.941406 C 207.996094 294.859375 210.195312 295.660156 212.4375 296.339844 L 216.332031 306.765625 L 170.78125 306.765625 C 157.664062 305.984375 146.957031 291.582031 137.511719 278.871094 C 135.453125 276.101562 133.480469 273.449219 131.511719 270.957031 C 131.417969 270.804688 131.316406 270.660156 131.203125 270.523438 L 129.636719 268.632812 C 129.589844 268.578125 129.542969 268.519531 129.496094 268.460938 C 129.484375 268.453125 129.476562 268.445312 129.46875 268.433594 L 118.128906 254.777344 C 117.960938 254.578125 117.777344 254.394531 117.574219 254.230469 C 117.371094 254.066406 117.15625 253.921875 116.921875 253.800781 C 116.691406 253.675781 116.449219 253.578125 116.199219 253.503906 C 115.949219 253.429688 115.695312 253.382812 115.433594 253.355469 C 115.171875 253.332031 114.914062 253.335938 114.652344 253.359375 C 114.394531 253.386719 114.136719 253.441406 113.890625 253.515625 C 113.640625 253.59375 113.398438 253.695312 113.167969 253.820312 C 112.9375 253.945312 112.722656 254.089844 112.523438 254.257812 C 112.320312 254.425781 112.136719 254.609375 111.972656 254.8125 C 111.808594 255.015625 111.664062 255.230469 111.542969 255.464844 C 111.421875 255.695312 111.324219 255.933594 111.25 256.1875 C 111.175781 256.4375 111.125 256.691406 111.101562 256.953125 C 111.078125 257.210938 111.078125 257.472656 111.105469 257.734375 C 111.132812 257.992188 111.183594 258.246094 111.261719 258.496094 C 111.339844 258.746094 111.441406 258.988281 111.5625 259.214844 C 111.6875 259.445312 111.835938 259.660156 112 259.863281 L 122.566406 272.589844 L 126.996094 324.816406 Z M 284.734375 261.210938 L 293.875 277.40625 L 281.261719 291.148438 L 264.339844 283.417969 C 263.753906 283.152344 263.140625 283.035156 262.5 283.0625 C 261.859375 283.09375 261.257812 283.265625 260.703125 283.585938 C 257.855469 285.214844 254.890625 286.59375 251.804688 287.714844 C 251.203125 287.933594 250.683594 288.28125 250.246094 288.753906 C 249.808594 289.226562 249.507812 289.769531 249.335938 290.390625 L 244.355469 308.324219 L 225.710938 309.113281 L 219.195312 291.671875 C 218.96875 291.070312 218.617188 290.554688 218.140625 290.121094 C 217.667969 289.691406 217.117188 289.390625 216.5 289.222656 C 213.339844 288.371094 210.277344 287.257812 207.308594 285.878906 C 206.726562 285.609375 206.113281 285.484375 205.472656 285.511719 C 204.832031 285.535156 204.230469 285.707031 203.671875 286.023438 L 187.464844 295.160156 L 173.714844 282.546875 L 181.445312 265.632812 C 181.710938 265.050781 181.828125 264.441406 181.800781 263.800781 C 181.773438 263.164062 181.601562 262.566406 181.285156 262.011719 C 179.65625 259.15625 178.277344 256.1875 177.148438 253.105469 C 176.925781 252.5 176.582031 251.980469 176.109375 251.546875 C 175.636719 251.109375 175.09375 250.804688 174.472656 250.632812 L 156.546875 245.652344 L 156.1875 237.078125 L 187.207031 237.078125 C 187.328125 238.457031 187.515625 239.824219 187.765625 241.183594 C 188.011719 242.546875 188.324219 243.890625 188.699219 245.222656 C 189.074219 246.554688 189.507812 247.863281 190.003906 249.15625 C 190.5 250.449219 191.054688 251.710938 191.664062 252.953125 C 192.277344 254.191406 192.949219 255.402344 193.671875 256.578125 C 194.398438 257.757812 195.175781 258.898438 196.007812 260.003906 C 196.835938 261.109375 197.71875 262.175781 198.648438 263.199219 C 199.578125 264.222656 200.550781 265.199219 201.570312 266.132812 C 202.59375 267.066406 203.652344 267.953125 204.753906 268.789062 C 205.859375 269.625 206.996094 270.40625 208.171875 271.136719 C 209.347656 271.863281 210.554688 272.539062 211.789062 273.15625 C 213.027344 273.773438 214.292969 274.335938 215.582031 274.835938 C 216.871094 275.335938 218.179688 275.777344 219.507812 276.15625 C 220.839844 276.535156 222.183594 276.851562 223.542969 277.105469 C 224.902344 277.363281 226.273438 277.550781 227.648438 277.679688 C 229.027344 277.808594 230.40625 277.871094 231.789062 277.871094 C 233.171875 277.871094 234.554688 277.808594 235.929688 277.679688 C 237.308594 277.550781 238.675781 277.363281 240.035156 277.105469 C 241.394531 276.851562 242.742188 276.535156 244.070312 276.15625 C 245.402344 275.777344 246.710938 275.335938 248 274.835938 C 249.289062 274.335938 250.550781 273.773438 251.789062 273.15625 C 253.027344 272.539062 254.234375 271.863281 255.410156 271.136719 C 256.582031 270.40625 257.722656 269.625 258.824219 268.789062 C 259.925781 267.953125 260.988281 267.066406 262.007812 266.132812 C 263.027344 265.199219 264.003906 264.222656 264.933594 263.199219 C 265.863281 262.175781 266.742188 261.109375 267.574219 260.003906 C 268.40625 258.898438 269.183594 257.757812 269.90625 256.578125 C 270.632812 255.402344 271.300781 254.191406 271.914062 252.953125 C 272.527344 251.710938 273.082031 250.449219 273.578125 249.15625 C 274.074219 247.863281 274.507812 246.554688 274.882812 245.222656 C 275.253906 243.890625 275.566406 242.546875 275.816406 241.183594 C 276.066406 239.824219 276.25 238.457031 276.371094 237.078125 L 307.746094 237.078125 L 307.832031 239.179688 L 290.394531 245.675781 C 289.789062 245.902344 289.273438 246.25 288.839844 246.726562 C 288.40625 247.203125 288.105469 247.75 287.9375 248.371094 C 287.085938 251.535156 285.972656 254.605469 284.59375 257.578125 C 284.320312 258.160156 284.199219 258.769531 284.222656 259.410156 C 284.25 260.054688 284.417969 260.652344 284.734375 261.210938 Z M 311.707031 324.816406 L 134.988281 324.816406 L 131.542969 284.191406 C 141.957031 298.199219 153.785156 313.816406 170.449219 314.722656 C 170.519531 314.726562 170.59375 314.726562 170.664062 314.726562 L 219.320312 314.726562 C 219.46875 315.09375 219.667969 315.425781 219.917969 315.730469 C 220.164062 316.035156 220.453125 316.300781 220.78125 316.519531 C 221.109375 316.738281 221.460938 316.90625 221.835938 317.019531 C 222.210938 317.136719 222.597656 317.195312 222.992188 317.195312 C 223.046875 317.195312 223.105469 317.195312 223.160156 317.191406 L 247.582031 316.160156 C 248.003906 316.140625 248.410156 316.058594 248.804688 315.910156 C 249.199219 315.765625 249.5625 315.5625 249.890625 315.300781 C 250.222656 315.039062 250.503906 314.730469 250.734375 314.378906 C 250.96875 314.03125 251.140625 313.652344 251.253906 313.246094 L 256.472656 294.457031 C 258.652344 293.582031 260.777344 292.59375 262.851562 291.492188 L 280.585938 299.589844 C 280.964844 299.765625 281.367188 299.875 281.785156 299.921875 C 282.199219 299.972656 282.617188 299.953125 283.027344 299.871094 C 283.4375 299.789062 283.828125 299.640625 284.195312 299.4375 C 284.558594 299.230469 284.882812 298.972656 285.167969 298.660156 L 301.699219 280.652344 C 301.980469 280.34375 302.210938 280 302.382812 279.617188 C 302.558594 279.234375 302.667969 278.835938 302.71875 278.417969 C 302.765625 278 302.746094 277.585938 302.664062 277.175781 C 302.582031 276.765625 302.4375 276.375 302.230469 276.011719 L 292.65625 259.042969 C 293.574219 256.882812 294.375 254.679688 295.054688 252.4375 L 313.324219 245.625 C 313.71875 245.480469 314.078125 245.277344 314.40625 245.015625 C 314.738281 244.753906 315.019531 244.449219 315.25 244.097656 C 315.480469 243.746094 315.65625 243.371094 315.765625 242.964844 C 315.878906 242.5625 315.925781 242.148438 315.910156 241.730469 L 315.539062 232.929688 C 315.519531 232.417969 315.402344 231.925781 315.191406 231.457031 C 314.980469 230.992188 314.6875 230.578125 314.316406 230.222656 C 313.945312 229.867188 313.523438 229.59375 313.046875 229.402344 C 312.570312 229.210938 312.074219 229.117188 311.5625 229.117188 L 272.5625 229.117188 C 272.300781 229.117188 272.042969 229.140625 271.785156 229.191406 C 271.53125 229.242188 271.28125 229.320312 271.039062 229.417969 C 270.796875 229.519531 270.570312 229.640625 270.351562 229.789062 C 270.132812 229.933594 269.933594 230.097656 269.75 230.28125 C 269.5625 230.46875 269.398438 230.667969 269.253906 230.886719 C 269.109375 231.101562 268.984375 231.332031 268.886719 231.574219 C 268.785156 231.816406 268.710938 232.0625 268.660156 232.320312 C 268.609375 232.578125 268.582031 232.835938 268.582031 233.097656 C 268.582031 234.300781 268.523438 235.503906 268.40625 236.703125 C 268.289062 237.902344 268.109375 239.089844 267.875 240.273438 C 267.640625 241.453125 267.347656 242.621094 267 243.773438 C 266.648438 244.925781 266.242188 246.0625 265.78125 247.171875 C 265.320312 248.285156 264.804688 249.375 264.238281 250.4375 C 263.667969 251.5 263.050781 252.53125 262.382812 253.535156 C 261.710938 254.535156 260.996094 255.5 260.230469 256.433594 C 259.464844 257.363281 258.65625 258.257812 257.804688 259.109375 C 256.953125 259.960938 256.0625 260.769531 255.128906 261.53125 C 254.199219 262.296875 253.230469 263.011719 252.230469 263.683594 C 251.226562 264.351562 250.195312 264.96875 249.132812 265.539062 C 248.070312 266.105469 246.980469 266.621094 245.867188 267.082031 C 244.753906 267.542969 243.621094 267.949219 242.46875 268.296875 C 241.316406 268.648438 240.148438 268.941406 238.964844 269.175781 C 237.785156 269.410156 236.59375 269.585938 235.394531 269.703125 C 234.195312 269.824219 232.992188 269.882812 231.789062 269.882812 C 230.582031 269.882812 229.378906 269.824219 228.179688 269.703125 C 226.980469 269.585938 225.789062 269.410156 224.609375 269.175781 C 223.425781 268.941406 222.257812 268.648438 221.105469 268.296875 C 219.953125 267.949219 218.820312 267.542969 217.707031 267.082031 C 216.59375 266.621094 215.503906 266.105469 214.441406 265.539062 C 213.378906 264.96875 212.347656 264.351562 211.34375 263.683594 C 210.34375 263.011719 209.375 262.296875 208.445312 261.53125 C 207.511719 260.769531 206.621094 259.960938 205.769531 259.109375 C 204.917969 258.257812 204.109375 257.363281 203.34375 256.433594 C 202.578125 255.5 201.863281 254.535156 201.191406 253.535156 C 200.523438 252.53125 199.90625 251.5 199.335938 250.4375 C 198.769531 249.375 198.253906 248.285156 197.792969 247.171875 C 197.332031 246.0625 196.925781 244.925781 196.578125 243.773438 C 196.226562 242.621094 195.933594 241.453125 195.699219 240.273438 C 195.464844 239.089844 195.289062 237.902344 195.167969 236.703125 C 195.050781 235.503906 194.992188 234.300781 194.992188 233.097656 C 194.992188 232.835938 194.964844 232.578125 194.914062 232.320312 C 194.863281 232.0625 194.789062 231.816406 194.6875 231.574219 C 194.589844 231.332031 194.464844 231.101562 194.320312 230.886719 C 194.175781 230.667969 194.011719 230.46875 193.824219 230.28125 C 193.640625 230.097656 193.441406 229.933594 193.222656 229.789062 C 193.003906 229.640625 192.777344 229.519531 192.535156 229.417969 C 192.292969 229.320312 192.042969 229.242188 191.789062 229.191406 C 191.53125 229.140625 191.273438 229.117188 191.011719 229.117188 L 158.550781 229.117188 L 146.949219 216.992188 C 138.003906 207.152344 129.179688 203.976562 113.292969 204.878906 L 112.007812 204.878906 L 111.015625 200.191406 C 111.460938 200.214844 111.910156 200.234375 112.359375 200.234375 C 113.214844 200.234375 114.070312 200.191406 114.925781 200.105469 C 115.777344 200.023438 116.625 199.894531 117.464844 199.726562 C 118.308594 199.558594 119.136719 199.351562 119.960938 199.101562 C 120.78125 198.851562 121.585938 198.5625 122.378906 198.234375 C 123.171875 197.90625 123.945312 197.539062 124.699219 197.132812 C 125.457031 196.730469 126.191406 196.289062 126.90625 195.8125 C 127.617188 195.335938 128.304688 194.824219 128.96875 194.28125 C 129.632812 193.738281 130.265625 193.164062 130.875 192.554688 C 131.480469 191.949219 132.054688 191.316406 132.597656 190.652344 C 133.144531 189.988281 133.652344 189.300781 134.128906 188.589844 C 134.605469 187.875 135.046875 187.140625 135.453125 186.386719 C 135.855469 185.628906 136.222656 184.855469 136.550781 184.0625 C 136.882812 183.273438 137.171875 182.464844 137.421875 181.644531 C 137.667969 180.824219 137.878906 179.996094 138.046875 179.152344 C 138.214844 178.3125 138.339844 177.464844 138.425781 176.613281 C 138.511719 175.757812 138.554688 174.902344 138.554688 174.046875 L 138.554688 144.179688 C 139.441406 143.742188 140.28125 143.230469 141.082031 142.648438 C 141.882812 142.066406 142.628906 141.421875 143.320312 140.714844 C 144.011719 140.011719 144.636719 139.25 145.203125 138.4375 C 145.765625 137.625 146.257812 136.773438 146.679688 135.878906 C 147.097656 134.984375 147.441406 134.0625 147.707031 133.109375 C 147.972656 132.15625 148.15625 131.1875 148.261719 130.207031 C 148.363281 129.222656 148.382812 128.238281 148.320312 127.25 C 148.257812 126.265625 148.113281 125.289062 147.886719 124.328125 C 147.660156 123.367188 147.355469 122.429688 146.972656 121.519531 C 146.589844 120.605469 146.132812 119.734375 145.601562 118.898438 C 145.074219 118.066406 144.476562 117.28125 143.816406 116.546875 C 143.152344 115.8125 142.433594 115.136719 141.660156 114.523438 C 140.882812 113.910156 140.0625 113.367188 139.195312 112.890625 C 138.332031 112.414062 137.429688 112.011719 136.496094 111.6875 C 135.5625 111.363281 134.609375 111.121094 133.632812 110.953125 C 132.65625 110.789062 131.675781 110.707031 130.6875 110.707031 L 89.949219 110.707031 L 89.949219 82.585938 L 202.332031 82.585938 L 233.214844 103.804688 C 233.894531 104.269531 234.644531 104.503906 235.46875 104.503906 L 327.457031 104.503906 L 327.457031 309.085938 C 327.453125 310.121094 327.351562 311.144531 327.148438 312.15625 C 326.945312 313.167969 326.644531 314.152344 326.25 315.105469 C 325.851562 316.058594 325.367188 316.964844 324.792969 317.824219 C 324.21875 318.683594 323.5625 319.476562 322.832031 320.207031 C 322.101562 320.9375 321.308594 321.589844 320.449219 322.164062 C 319.589844 322.738281 318.679688 323.222656 317.726562 323.617188 C 316.773438 324.011719 315.789062 324.3125 314.773438 324.511719 C 313.761719 324.714844 312.738281 324.816406 311.703125 324.816406 Z M 279.640625 156.832031 C 280.363281 156.832031 281.085938 156.796875 281.804688 156.726562 C 282.523438 156.65625 283.238281 156.550781 283.949219 156.410156 C 284.65625 156.269531 285.359375 156.09375 286.050781 155.886719 C 286.742188 155.675781 287.421875 155.433594 288.089844 155.15625 C 288.757812 154.878906 289.410156 154.570312 290.050781 154.230469 C 290.6875 153.890625 291.308594 153.519531 291.910156 153.117188 C 292.511719 152.714844 293.089844 152.285156 293.648438 151.828125 C 294.207031 151.371094 294.742188 150.886719 295.253906 150.375 C 295.765625 149.863281 296.25 149.328125 296.710938 148.769531 C 297.167969 148.210938 297.601562 147.632812 298 147.03125 C 298.402344 146.429688 298.773438 145.808594 299.117188 145.171875 C 299.457031 144.535156 299.765625 143.882812 300.042969 143.214844 C 300.320312 142.546875 300.5625 141.867188 300.773438 141.175781 C 300.984375 140.484375 301.160156 139.785156 301.300781 139.074219 C 301.441406 138.367188 301.546875 137.652344 301.621094 136.933594 C 301.691406 136.210938 301.726562 135.492188 301.726562 134.769531 C 301.726562 134.046875 301.691406 133.324219 301.621094 132.605469 C 301.550781 131.886719 301.445312 131.171875 301.304688 130.460938 C 301.164062 129.753906 300.988281 129.054688 300.777344 128.359375 C 300.570312 127.667969 300.324219 126.988281 300.050781 126.320312 C 299.773438 125.652344 299.464844 125 299.125 124.363281 C 298.78125 123.726562 298.410156 123.105469 298.011719 122.503906 C 297.609375 121.902344 297.179688 121.324219 296.71875 120.765625 C 296.261719 120.207031 295.777344 119.671875 295.265625 119.160156 C 294.753906 118.648438 294.21875 118.164062 293.660156 117.703125 C 293.101562 117.246094 292.523438 116.816406 291.921875 116.414062 C 291.320312 116.011719 290.699219 115.640625 290.0625 115.300781 C 289.425781 114.957031 288.773438 114.648438 288.105469 114.371094 C 287.4375 114.09375 286.757812 113.851562 286.066406 113.640625 C 285.375 113.433594 284.671875 113.257812 283.964844 113.113281 C 283.253906 112.972656 282.539062 112.867188 281.820312 112.796875 C 281.101562 112.726562 280.378906 112.6875 279.65625 112.6875 C 278.933594 112.6875 278.210938 112.722656 277.492188 112.792969 C 276.773438 112.867188 276.058594 112.972656 275.347656 113.113281 C 274.640625 113.253906 273.941406 113.425781 273.246094 113.636719 C 272.554688 113.847656 271.875 114.089844 271.207031 114.367188 C 270.539062 114.644531 269.886719 114.953125 269.25 115.292969 C 268.609375 115.632812 267.992188 116.003906 267.390625 116.40625 C 266.789062 116.804688 266.207031 117.234375 265.648438 117.695312 C 265.089844 118.152344 264.554688 118.636719 264.042969 119.148438 C 263.53125 119.660156 263.046875 120.195312 262.585938 120.753906 C 262.128906 121.3125 261.699219 121.890625 261.296875 122.492188 C 260.894531 123.09375 260.523438 123.710938 260.183594 124.351562 C 259.839844 124.988281 259.53125 125.640625 259.253906 126.308594 C 258.976562 126.976562 258.734375 127.65625 258.523438 128.347656 C 258.3125 129.039062 258.136719 129.738281 257.996094 130.449219 C 257.855469 131.15625 257.75 131.871094 257.679688 132.589844 C 257.605469 133.308594 257.570312 134.03125 257.570312 134.753906 C 257.574219 135.476562 257.609375 136.195312 257.679688 136.917969 C 257.75 137.636719 257.859375 138.347656 258 139.058594 C 258.140625 139.765625 258.316406 140.464844 258.527344 141.15625 C 258.738281 141.847656 258.980469 142.527344 259.257812 143.195312 C 259.535156 143.863281 259.84375 144.515625 260.183594 145.152344 C 260.523438 145.789062 260.898438 146.410156 261.296875 147.007812 C 261.699219 147.609375 262.128906 148.191406 262.589844 148.75 C 263.046875 149.308594 263.53125 149.84375 264.042969 150.351562 C 264.554688 150.863281 265.085938 151.347656 265.644531 151.808594 C 266.203125 152.265625 266.785156 152.695312 267.386719 153.097656 C 267.984375 153.5 268.605469 153.871094 269.242188 154.214844 C 269.878906 154.554688 270.53125 154.863281 271.199219 155.140625 C 271.867188 155.417969 272.546875 155.664062 273.238281 155.871094 C 273.929688 156.082031 274.628906 156.261719 275.335938 156.402344 C 276.046875 156.542969 276.757812 156.652344 277.476562 156.722656 C 278.199219 156.796875 278.917969 156.832031 279.640625 156.832031 Z M 279.640625 120.652344 C 280.566406 120.652344 281.488281 120.742188 282.394531 120.921875 C 283.304688 121.101562 284.1875 121.367188 285.042969 121.722656 C 285.902344 122.078125 286.714844 122.511719 287.488281 123.023438 C 288.257812 123.539062 288.972656 124.125 289.625 124.777344 C 290.28125 125.433594 290.867188 126.148438 291.382812 126.917969 C 291.898438 127.6875 292.335938 128.5 292.6875 129.355469 C 293.042969 130.214844 293.3125 131.097656 293.492188 132.003906 C 293.675781 132.914062 293.765625 133.832031 293.765625 134.757812 C 293.765625 135.683594 293.675781 136.601562 293.496094 137.511719 C 293.3125 138.421875 293.046875 139.304688 292.691406 140.160156 C 292.335938 141.015625 291.902344 141.828125 291.386719 142.601562 C 290.871094 143.371094 290.289062 144.082031 289.632812 144.738281 C 288.976562 145.394531 288.261719 145.980469 287.492188 146.496094 C 286.722656 147.007812 285.90625 147.445312 285.050781 147.796875 C 284.195312 148.152344 283.3125 148.421875 282.402344 148.601562 C 281.492188 148.78125 280.574219 148.871094 279.648438 148.871094 C 278.722656 148.871094 277.804688 148.78125 276.894531 148.601562 C 275.984375 148.417969 275.101562 148.152344 274.246094 147.796875 C 273.390625 147.441406 272.574219 147.007812 271.804688 146.492188 C 271.035156 145.976562 270.320312 145.390625 269.667969 144.734375 C 269.011719 144.078125 268.425781 143.367188 267.910156 142.59375 C 267.398438 141.824219 266.960938 141.011719 266.609375 140.152344 C 266.253906 139.296875 265.988281 138.414062 265.808594 137.503906 C 265.625 136.597656 265.535156 135.679688 265.539062 134.75 C 265.539062 133.824219 265.632812 132.910156 265.8125 132.003906 C 265.996094 131.09375 266.261719 130.214844 266.617188 129.359375 C 266.972656 128.503906 267.40625 127.691406 267.921875 126.925781 C 268.4375 126.15625 269.023438 125.441406 269.675781 124.789062 C 270.332031 124.132812 271.042969 123.550781 271.8125 123.035156 C 272.582031 122.523438 273.394531 122.085938 274.25 121.730469 C 275.101562 121.378906 275.984375 121.109375 276.890625 120.925781 C 277.800781 120.746094 278.714844 120.652344 279.640625 120.652344 Z M 184.300781 155.300781 C 185.023438 155.300781 185.746094 155.265625 186.464844 155.195312 C 187.183594 155.125 187.898438 155.019531 188.609375 154.878906 C 189.316406 154.738281 190.015625 154.5625 190.707031 154.351562 C 191.398438 154.140625 192.078125 153.898438 192.746094 153.621094 C 193.414062 153.347656 194.066406 153.039062 194.707031 152.695312 C 195.34375 152.355469 195.960938 151.984375 196.5625 151.582031 C 197.164062 151.183594 197.742188 150.753906 198.300781 150.292969 C 198.859375 149.835938 199.394531 149.351562 199.90625 148.839844 C 200.417969 148.328125 200.902344 147.792969 201.363281 147.234375 C 201.820312 146.675781 202.25 146.097656 202.652344 145.496094 C 203.054688 144.894531 203.425781 144.277344 203.765625 143.640625 C 204.105469 143.003906 204.414062 142.351562 204.691406 141.683594 C 204.96875 141.015625 205.210938 140.335938 205.421875 139.644531 C 205.628906 138.953125 205.804688 138.253906 205.945312 137.542969 C 206.085938 136.835938 206.195312 136.121094 206.265625 135.402344 C 206.335938 134.683594 206.371094 133.960938 206.371094 133.238281 C 206.371094 132.515625 206.335938 131.796875 206.265625 131.078125 C 206.195312 130.355469 206.085938 129.644531 205.945312 128.933594 C 205.804688 128.226562 205.628906 127.527344 205.421875 126.835938 C 205.210938 126.144531 204.96875 125.464844 204.691406 124.796875 C 204.414062 124.128906 204.105469 123.476562 203.765625 122.839844 C 203.425781 122.203125 203.054688 121.582031 202.652344 120.980469 C 202.25 120.378906 201.820312 119.800781 201.363281 119.242188 C 200.902344 118.683594 200.417969 118.148438 199.90625 117.636719 C 199.394531 117.128906 198.859375 116.640625 198.300781 116.183594 C 197.742188 115.726562 197.164062 115.296875 196.5625 114.894531 C 195.960938 114.492188 195.34375 114.121094 194.707031 113.78125 C 194.066406 113.441406 193.414062 113.132812 192.746094 112.855469 C 192.078125 112.578125 191.398438 112.335938 190.707031 112.125 C 190.015625 111.917969 189.316406 111.742188 188.609375 111.601562 C 187.898438 111.457031 187.183594 111.351562 186.464844 111.28125 C 185.746094 111.210938 185.023438 111.175781 184.300781 111.175781 C 183.578125 111.175781 182.859375 111.210938 182.140625 111.28125 C 181.417969 111.351562 180.707031 111.457031 179.996094 111.597656 C 179.289062 111.742188 178.585938 111.914062 177.894531 112.125 C 177.203125 112.335938 176.523438 112.578125 175.855469 112.855469 C 175.1875 113.132812 174.535156 113.441406 173.898438 113.78125 C 173.261719 114.121094 172.640625 114.492188 172.042969 114.894531 C 171.441406 115.296875 170.859375 115.726562 170.300781 116.183594 C 169.742188 116.640625 169.207031 117.125 168.695312 117.636719 C 168.1875 118.148438 167.699219 118.683594 167.242188 119.242188 C 166.785156 119.800781 166.355469 120.378906 165.953125 120.980469 C 165.550781 121.582031 165.179688 122.199219 164.839844 122.835938 C 164.496094 123.476562 164.1875 124.128906 163.914062 124.792969 C 163.636719 125.460938 163.394531 126.140625 163.183594 126.832031 C 162.972656 127.523438 162.796875 128.226562 162.65625 128.933594 C 162.515625 129.640625 162.410156 130.355469 162.339844 131.074219 C 162.269531 131.792969 162.230469 132.515625 162.230469 133.238281 C 162.234375 133.960938 162.269531 134.679688 162.339844 135.398438 C 162.414062 136.117188 162.519531 136.832031 162.660156 137.539062 C 162.804688 138.25 162.980469 138.949219 163.191406 139.640625 C 163.398438 140.332031 163.644531 141.007812 163.921875 141.675781 C 164.199219 142.34375 164.507812 142.996094 164.847656 143.632812 C 165.1875 144.269531 165.558594 144.886719 165.960938 145.488281 C 166.363281 146.089844 166.792969 146.667969 167.25 147.226562 C 167.710938 147.785156 168.195312 148.320312 168.707031 148.832031 C 169.214844 149.339844 169.75 149.824219 170.308594 150.285156 C 170.867188 150.742188 171.449219 151.171875 172.046875 151.574219 C 172.648438 151.976562 173.269531 152.347656 173.90625 152.6875 C 174.542969 153.027344 175.195312 153.335938 175.863281 153.613281 C 176.527344 153.890625 177.207031 154.132812 177.898438 154.34375 C 178.589844 154.554688 179.289062 154.730469 180 154.875 C 180.707031 155.015625 181.421875 155.121094 182.140625 155.191406 C 182.859375 155.265625 183.578125 155.300781 184.300781 155.300781 Z M 184.300781 119.136719 C 185.226562 119.136719 186.144531 119.226562 187.054688 119.40625 C 187.960938 119.589844 188.84375 119.855469 189.699219 120.210938 C 190.554688 120.566406 191.367188 121 192.136719 121.511719 C 192.90625 122.027344 193.621094 122.613281 194.273438 123.265625 C 194.929688 123.921875 195.515625 124.632812 196.027344 125.402344 C 196.542969 126.171875 196.976562 126.984375 197.332031 127.839844 C 197.6875 128.695312 197.953125 129.578125 198.136719 130.488281 C 198.316406 131.394531 198.40625 132.3125 198.40625 133.238281 C 198.40625 134.164062 198.316406 135.082031 198.136719 135.988281 C 197.953125 136.894531 197.6875 137.777344 197.332031 138.632812 C 196.976562 139.488281 196.542969 140.300781 196.027344 141.070312 C 195.515625 141.839844 194.929688 142.554688 194.273438 143.207031 C 193.621094 143.863281 192.90625 144.445312 192.136719 144.960938 C 191.367188 145.476562 190.554688 145.910156 189.699219 146.265625 C 188.84375 146.617188 187.960938 146.886719 187.054688 147.066406 C 186.144531 147.246094 185.226562 147.335938 184.300781 147.335938 C 183.375 147.335938 182.457031 147.246094 181.550781 147.066406 C 180.640625 146.886719 179.761719 146.617188 178.90625 146.265625 C 178.050781 145.910156 177.238281 145.476562 176.464844 144.960938 C 175.695312 144.445312 174.984375 143.863281 174.328125 143.207031 C 173.675781 142.554688 173.089844 141.839844 172.574219 141.070312 C 172.0625 140.300781 171.625 139.488281 171.273438 138.632812 C 170.917969 137.777344 170.648438 136.894531 170.46875 135.988281 C 170.289062 135.082031 170.199219 134.164062 170.199219 133.238281 C 170.199219 132.3125 170.292969 131.394531 170.472656 130.488281 C 170.65625 129.582031 170.921875 128.699219 171.277344 127.84375 C 171.632812 126.992188 172.070312 126.179688 172.582031 125.410156 C 173.097656 124.640625 173.683594 123.929688 174.335938 123.273438 C 174.992188 122.621094 175.703125 122.035156 176.472656 121.523438 C 177.242188 121.007812 178.054688 120.574219 178.910156 120.21875 C 179.765625 119.863281 180.644531 119.59375 181.550781 119.414062 C 182.460938 119.230469 183.375 119.140625 184.300781 119.136719 Z M 295.507812 157.539062 C 294.484375 157.386719 293.546875 157.601562 292.691406 158.179688 C 291.730469 158.828125 290.730469 159.398438 289.6875 159.894531 C 288.644531 160.394531 287.574219 160.8125 286.46875 161.148438 C 285.363281 161.488281 284.238281 161.742188 283.097656 161.910156 C 281.953125 162.082031 280.804688 162.167969 279.648438 162.167969 C 278.492188 162.167969 277.34375 162.082031 276.203125 161.910156 C 275.058594 161.742188 273.933594 161.488281 272.832031 161.148438 C 271.726562 160.8125 270.652344 160.394531 269.609375 159.894531 C 268.566406 159.398438 267.566406 158.828125 266.609375 158.179688 C 265.753906 157.601562 264.8125 157.386719 263.789062 157.539062 C 261.652344 157.859375 259.589844 158.441406 257.601562 159.285156 C 255.613281 160.128906 253.761719 161.210938 252.050781 162.523438 C 250.335938 163.839844 248.816406 165.347656 247.484375 167.050781 C 246.15625 168.753906 245.058594 170.59375 244.199219 172.574219 C 243.308594 173.113281 242.390625 173.589844 241.4375 174.007812 C 240.484375 174.421875 239.507812 174.769531 238.507812 175.054688 C 237.507812 175.339844 236.492188 175.558594 235.464844 175.707031 C 234.433594 175.855469 233.402344 175.9375 232.363281 175.945312 C 231.324219 175.957031 230.285156 175.898438 229.253906 175.773438 C 228.222656 175.644531 227.207031 175.449219 226.199219 175.183594 C 225.195312 174.921875 224.210938 174.59375 223.25 174.199219 C 222.289062 173.800781 221.355469 173.34375 220.457031 172.824219 C 220.074219 171.734375 219.625 170.675781 219.097656 169.644531 C 218.574219 168.617188 217.980469 167.628906 217.320312 166.679688 C 216.664062 165.730469 215.941406 164.832031 215.160156 163.980469 C 214.378906 163.128906 213.542969 162.335938 212.652344 161.597656 C 211.761719 160.863281 210.828125 160.1875 209.84375 159.578125 C 208.863281 158.96875 207.84375 158.429688 206.789062 157.957031 C 205.734375 157.484375 204.652344 157.089844 203.542969 156.765625 C 202.433594 156.441406 201.308594 156.191406 200.167969 156.023438 C 199.144531 155.871094 198.207031 156.085938 197.351562 156.664062 C 196.394531 157.3125 195.394531 157.882812 194.351562 158.378906 C 193.308594 158.878906 192.234375 159.296875 191.128906 159.632812 C 190.023438 159.972656 188.898438 160.226562 187.757812 160.398438 C 186.613281 160.566406 185.464844 160.652344 184.308594 160.652344 C 183.15625 160.652344 182.007812 160.566406 180.863281 160.398438 C 179.71875 160.226562 178.597656 159.972656 177.492188 159.632812 C 176.386719 159.296875 175.3125 158.878906 174.269531 158.378906 C 173.226562 157.882812 172.226562 157.3125 171.269531 156.664062 C 170.414062 156.085938 169.476562 155.871094 168.453125 156.023438 C 167.707031 156.136719 166.96875 156.285156 166.234375 156.464844 C 165.503906 156.644531 164.78125 156.855469 164.066406 157.097656 C 163.351562 157.34375 162.648438 157.617188 161.960938 157.921875 C 161.269531 158.226562 160.597656 158.5625 159.9375 158.929688 C 159.277344 159.292969 158.632812 159.6875 158.007812 160.109375 C 157.382812 160.53125 156.777344 160.980469 156.195312 161.457031 C 155.609375 161.929688 155.046875 162.429688 154.503906 162.957031 C 153.964844 163.480469 153.445312 164.03125 152.953125 164.601562 C 152.460938 165.171875 151.996094 165.761719 151.554688 166.375 C 151.113281 166.988281 150.703125 167.617188 150.316406 168.265625 C 149.933594 168.914062 149.578125 169.578125 149.25 170.257812 C 148.925781 170.941406 148.628906 171.632812 148.367188 172.339844 C 148.101562 173.042969 147.867188 173.761719 147.667969 174.488281 C 147.464844 175.214844 147.296875 175.949219 147.160156 176.691406 C 147.023438 177.433594 146.921875 178.179688 146.851562 178.929688 C 146.78125 179.679688 146.742188 180.433594 146.738281 181.1875 L 146.738281 207.230469 C 146.742188 207.636719 146.800781 208.03125 146.921875 208.421875 C 147.042969 208.808594 147.21875 209.167969 147.453125 209.5 C 147.683594 209.835938 147.960938 210.125 148.28125 210.375 C 148.601562 210.621094 148.953125 210.816406 149.332031 210.960938 C 160.582031 215.21875 172.222656 217.367188 184.25 217.410156 C 187.695312 217.410156 191.132812 217.222656 194.558594 216.847656 L 194.558594 222.507812 C 194.558594 222.914062 194.617188 223.3125 194.738281 223.699219 C 194.859375 224.085938 195.039062 224.445312 195.269531 224.78125 C 195.5 225.113281 195.777344 225.402344 196.097656 225.652344 C 196.417969 225.902344 196.769531 226.097656 197.148438 226.238281 C 208.378906 230.496094 220 232.648438 232.015625 232.6875 C 244.089844 232.632812 255.78125 230.488281 267.089844 226.246094 C 267.472656 226.105469 267.824219 225.910156 268.148438 225.660156 C 268.46875 225.410156 268.746094 225.121094 268.980469 224.785156 C 269.214844 224.453125 269.390625 224.089844 269.511719 223.703125 C 269.636719 223.3125 269.695312 222.917969 269.695312 222.507812 L 269.695312 218.421875 C 272.945312 218.761719 276.199219 218.933594 279.464844 218.933594 C 291.566406 218.878906 303.28125 216.726562 314.609375 212.484375 C 314.992188 212.34375 315.347656 212.148438 315.667969 211.898438 C 315.992188 211.652344 316.269531 211.359375 316.503906 211.027344 C 316.738281 210.691406 316.914062 210.328125 317.035156 209.941406 C 317.160156 209.550781 317.21875 209.15625 317.21875 208.746094 L 317.21875 182.703125 C 317.214844 181.949219 317.179688 181.195312 317.109375 180.445312 C 317.039062 179.695312 316.9375 178.949219 316.800781 178.207031 C 316.664062 177.464844 316.496094 176.730469 316.292969 176.003906 C 316.09375 175.277344 315.859375 174.558594 315.59375 173.855469 C 315.332031 173.148438 315.035156 172.453125 314.710938 171.773438 C 314.382812 171.09375 314.027344 170.429688 313.644531 169.78125 C 313.257812 169.132812 312.847656 168.503906 312.40625 167.890625 C 311.964844 167.277344 311.5 166.6875 311.007812 166.117188 C 310.515625 165.542969 309.996094 164.996094 309.457031 164.472656 C 308.914062 163.945312 308.351562 163.445312 307.765625 162.96875 C 307.179688 162.496094 306.574219 162.046875 305.949219 161.625 C 305.324219 161.203125 304.683594 160.808594 304.023438 160.441406 C 303.363281 160.078125 302.6875 159.742188 302 159.4375 C 301.308594 159.132812 300.609375 158.855469 299.894531 158.613281 C 299.179688 158.371094 298.457031 158.15625 297.722656 157.976562 C 296.992188 157.796875 296.253906 157.652344 295.507812 157.539062 Z M 194.554688 196.464844 L 194.554688 208.832031 C 187.832031 209.609375 181.105469 209.628906 174.378906 208.886719 C 167.652344 208.140625 161.09375 206.65625 154.703125 204.425781 L 154.703125 181.1875 C 154.710938 180.207031 154.796875 179.238281 154.964844 178.273438 C 155.128906 177.308594 155.375 176.367188 155.703125 175.441406 C 156.027344 174.519531 156.425781 173.628906 156.898438 172.773438 C 157.371094 171.917969 157.914062 171.105469 158.519531 170.339844 C 159.128906 169.574219 159.796875 168.863281 160.523438 168.210938 C 161.25 167.554688 162.027344 166.964844 162.855469 166.4375 C 163.679688 165.914062 164.542969 165.460938 165.445312 165.078125 C 166.34375 164.699219 167.273438 164.394531 168.222656 164.167969 C 169.433594 164.890625 170.6875 165.53125 171.980469 166.085938 C 173.277344 166.644531 174.605469 167.109375 175.964844 167.484375 C 177.324219 167.859375 178.703125 168.144531 180.101562 168.332031 C 181.496094 168.523438 182.902344 168.617188 184.3125 168.617188 C 185.722656 168.617188 187.125 168.523438 188.523438 168.332031 C 189.921875 168.144531 191.296875 167.859375 192.65625 167.484375 C 194.015625 167.109375 195.34375 166.644531 196.640625 166.085938 C 197.9375 165.53125 199.191406 164.890625 200.398438 164.167969 C 201.566406 164.441406 202.691406 164.832031 203.777344 165.335938 C 204.867188 165.839844 205.890625 166.453125 206.851562 167.167969 C 207.8125 167.882812 208.691406 168.6875 209.484375 169.585938 C 210.28125 170.480469 210.976562 171.449219 211.574219 172.488281 C 210.339844 172.925781 209.148438 173.457031 208 174.078125 C 206.847656 174.699219 205.753906 175.402344 204.710938 176.191406 C 203.667969 176.980469 202.691406 177.84375 201.78125 178.785156 C 200.871094 179.722656 200.035156 180.726562 199.28125 181.792969 C 198.523438 182.855469 197.851562 183.976562 197.265625 185.144531 C 196.679688 186.3125 196.1875 187.519531 195.785156 188.765625 C 195.386719 190.007812 195.082031 191.277344 194.875 192.566406 C 194.667969 193.859375 194.5625 195.15625 194.554688 196.464844 Z M 261.730469 219.691406 C 241.941406 226.378906 222.050781 226.382812 202.519531 219.703125 L 202.519531 196.464844 C 202.523438 195.488281 202.609375 194.515625 202.777344 193.554688 C 202.945312 192.589844 203.191406 191.648438 203.515625 190.726562 C 203.839844 189.804688 204.238281 188.914062 204.710938 188.058594 C 205.183594 187.203125 205.722656 186.394531 206.332031 185.628906 C 206.941406 184.863281 207.605469 184.152344 208.332031 183.496094 C 209.058594 182.84375 209.835938 182.253906 210.660156 181.730469 C 211.484375 181.203125 212.347656 180.75 213.246094 180.371094 C 214.148438 179.988281 215.074219 179.683594 216.023438 179.457031 C 217.234375 180.183594 218.488281 180.824219 219.785156 181.378906 C 221.082031 181.933594 222.410156 182.398438 223.769531 182.777344 C 225.128906 183.152344 226.507812 183.433594 227.90625 183.625 C 229.304688 183.8125 230.707031 183.910156 232.117188 183.910156 C 233.527344 183.910156 234.933594 183.8125 236.332031 183.625 C 237.730469 183.433594 239.105469 183.152344 240.46875 182.777344 C 241.828125 182.398438 243.15625 181.933594 244.449219 181.378906 C 245.746094 180.824219 247 180.183594 248.210938 179.457031 C 249.164062 179.683594 250.089844 179.988281 250.988281 180.367188 C 251.890625 180.75 252.753906 181.203125 253.578125 181.726562 C 254.40625 182.25 255.179688 182.839844 255.90625 183.496094 C 256.636719 184.148438 257.300781 184.859375 257.910156 185.625 C 258.519531 186.390625 259.0625 187.199219 259.535156 188.054688 C 260.007812 188.910156 260.40625 189.800781 260.730469 190.722656 C 261.054688 191.644531 261.300781 192.589844 261.46875 193.550781 C 261.636719 194.515625 261.722656 195.484375 261.730469 196.464844 Z M 309.253906 205.929688 C 296.023438 210.394531 282.742188 211.890625 269.691406 210.410156 L 269.691406 196.464844 C 269.683594 195.179688 269.582031 193.90625 269.382812 192.636719 C 269.183594 191.371094 268.890625 190.125 268.503906 188.902344 C 268.117188 187.675781 267.640625 186.488281 267.074219 185.335938 C 266.511719 184.183594 265.863281 183.082031 265.132812 182.027344 C 264.402344 180.972656 263.59375 179.976562 262.714844 179.042969 C 261.832031 178.109375 260.886719 177.25 259.878906 176.457031 C 258.867188 175.664062 257.804688 174.953125 256.6875 174.320312 C 255.570312 173.691406 254.410156 173.144531 253.210938 172.6875 C 254.445312 170.921875 255.953125 169.4375 257.738281 168.230469 C 259.523438 167.019531 261.460938 166.171875 263.558594 165.679688 C 264.769531 166.402344 266.023438 167.042969 267.316406 167.597656 C 268.613281 168.15625 269.941406 168.621094 271.300781 168.996094 C 272.660156 169.371094 274.039062 169.65625 275.433594 169.84375 C 276.832031 170.035156 278.234375 170.128906 279.644531 170.128906 C 281.054688 170.128906 282.460938 170.035156 283.855469 169.84375 C 285.253906 169.65625 286.632812 169.371094 287.992188 168.996094 C 289.351562 168.621094 290.679688 168.15625 291.972656 167.597656 C 293.269531 167.042969 294.523438 166.402344 295.734375 165.679688 C 296.683594 165.90625 297.613281 166.210938 298.511719 166.589844 C 299.414062 166.972656 300.277344 167.425781 301.105469 167.953125 C 301.929688 168.476562 302.707031 169.066406 303.433594 169.722656 C 304.160156 170.375 304.828125 171.085938 305.4375 171.855469 C 306.046875 172.621094 306.585938 173.429688 307.058594 174.289062 C 307.53125 175.144531 307.929688 176.035156 308.257812 176.957031 C 308.582031 177.878906 308.828125 178.824219 308.992188 179.789062 C 309.160156 180.753906 309.246094 181.722656 309.253906 182.703125 Z M 232.117188 170.597656 C 232.839844 170.597656 233.5625 170.5625 234.28125 170.492188 C 235 170.421875 235.714844 170.316406 236.425781 170.175781 C 237.132812 170.035156 237.835938 169.859375 238.527344 169.648438 C 239.21875 169.4375 239.898438 169.195312 240.566406 168.917969 C 241.234375 168.644531 241.886719 168.335938 242.527344 167.996094 C 243.164062 167.652344 243.785156 167.28125 244.386719 166.882812 C 244.988281 166.480469 245.566406 166.050781 246.125 165.589844 C 246.683594 165.132812 247.222656 164.648438 247.730469 164.136719 C 248.242188 163.625 248.730469 163.089844 249.1875 162.53125 C 249.648438 161.972656 250.078125 161.394531 250.480469 160.792969 C 250.882812 160.191406 251.253906 159.570312 251.59375 158.933594 C 251.933594 158.296875 252.242188 157.644531 252.519531 156.976562 C 252.796875 156.308594 253.042969 155.628906 253.25 154.9375 C 253.460938 154.246094 253.636719 153.542969 253.777344 152.835938 C 253.917969 152.125 254.023438 151.410156 254.097656 150.691406 C 254.167969 149.972656 254.203125 149.25 254.203125 148.527344 C 254.203125 147.804688 254.167969 147.085938 254.097656 146.363281 C 254.027344 145.644531 253.921875 144.929688 253.78125 144.222656 C 253.636719 143.511719 253.464844 142.8125 253.253906 142.121094 C 253.042969 141.429688 252.800781 140.75 252.523438 140.082031 C 252.246094 139.414062 251.9375 138.761719 251.597656 138.121094 C 251.257812 137.484375 250.886719 136.863281 250.484375 136.265625 C 250.082031 135.664062 249.652344 135.082031 249.191406 134.523438 C 248.734375 133.964844 248.25 133.429688 247.738281 132.917969 C 247.226562 132.40625 246.691406 131.921875 246.132812 131.464844 C 245.574219 131.003906 244.992188 130.574219 244.390625 130.171875 C 243.789062 129.773438 243.171875 129.398438 242.53125 129.058594 C 241.894531 128.71875 241.242188 128.410156 240.574219 128.132812 C 239.90625 127.855469 239.226562 127.613281 238.535156 127.402344 C 237.839844 127.195312 237.140625 127.019531 236.429688 126.878906 C 235.722656 126.734375 235.007812 126.628906 234.289062 126.558594 C 233.566406 126.488281 232.847656 126.453125 232.125 126.453125 C 231.398438 126.453125 230.679688 126.488281 229.960938 126.558594 C 229.238281 126.628906 228.523438 126.738281 227.816406 126.878906 C 227.105469 127.019531 226.40625 127.195312 225.714844 127.40625 C 225.023438 127.613281 224.339844 127.859375 223.671875 128.132812 C 223.003906 128.410156 222.351562 128.71875 221.714844 129.0625 C 221.078125 129.402344 220.457031 129.773438 219.855469 130.175781 C 219.253906 130.578125 218.675781 131.007812 218.117188 131.464844 C 217.558594 131.925781 217.023438 132.410156 216.511719 132.921875 C 216 133.433594 215.515625 133.96875 215.054688 134.527344 C 214.597656 135.085938 214.167969 135.664062 213.765625 136.265625 C 213.363281 136.867188 212.992188 137.488281 212.652344 138.125 C 212.3125 138.761719 212.003906 139.414062 211.726562 140.082031 C 211.449219 140.75 211.207031 141.433594 210.996094 142.125 C 210.785156 142.816406 210.613281 143.515625 210.46875 144.226562 C 210.328125 144.933594 210.222656 145.648438 210.152344 146.367188 C 210.082031 147.085938 210.046875 147.808594 210.046875 148.53125 C 210.046875 149.253906 210.085938 149.976562 210.15625 150.695312 C 210.226562 151.414062 210.332031 152.125 210.476562 152.835938 C 210.617188 153.542969 210.792969 154.242188 211.003906 154.933594 C 211.214844 155.625 211.457031 156.304688 211.734375 156.972656 C 212.011719 157.640625 212.320312 158.292969 212.660156 158.929688 C 213 159.566406 213.371094 160.183594 213.773438 160.785156 C 214.175781 161.386719 214.605469 161.964844 215.0625 162.523438 C 215.523438 163.082031 216.007812 163.617188 216.519531 164.128906 C 217.027344 164.636719 217.5625 165.121094 218.121094 165.582031 C 218.679688 166.039062 219.261719 166.46875 219.859375 166.871094 C 220.460938 167.273438 221.082031 167.644531 221.71875 167.984375 C 222.355469 168.324219 223.007812 168.632812 223.675781 168.910156 C 224.34375 169.1875 225.023438 169.429688 225.710938 169.640625 C 226.402344 169.851562 227.105469 170.027344 227.8125 170.167969 C 228.519531 170.3125 229.234375 170.417969 229.953125 170.488281 C 230.671875 170.558594 231.394531 170.597656 232.117188 170.597656 Z M 232.117188 134.414062 C 233.042969 134.414062 233.960938 134.503906 234.871094 134.683594 C 235.78125 134.863281 236.664062 135.132812 237.519531 135.484375 C 238.375 135.839844 239.1875 136.273438 239.960938 136.789062 C 240.730469 137.300781 241.445312 137.886719 242.101562 138.542969 C 242.757812 139.195312 243.339844 139.910156 243.855469 140.679688 C 244.371094 141.449219 244.808594 142.261719 245.164062 143.117188 C 245.519531 143.972656 245.785156 144.855469 245.96875 145.761719 C 246.148438 146.671875 246.242188 147.589844 246.242188 148.515625 C 246.242188 149.441406 246.152344 150.359375 245.972656 151.269531 C 245.792969 152.179688 245.523438 153.0625 245.171875 153.917969 C 244.816406 154.773438 244.382812 155.585938 243.867188 156.359375 C 243.351562 157.128906 242.769531 157.839844 242.113281 158.496094 C 241.457031 159.152344 240.746094 159.738281 239.976562 160.253906 C 239.207031 160.769531 238.390625 161.203125 237.535156 161.558594 C 236.679688 161.914062 235.796875 162.183594 234.890625 162.363281 C 233.980469 162.542969 233.0625 162.636719 232.136719 162.636719 C 231.207031 162.636719 230.289062 162.546875 229.382812 162.367188 C 228.472656 162.1875 227.589844 161.917969 226.734375 161.566406 C 225.878906 161.210938 225.0625 160.777344 224.292969 160.261719 C 223.523438 159.75 222.808594 159.164062 222.152344 158.507812 C 221.496094 157.855469 220.910156 157.140625 220.394531 156.371094 C 219.878906 155.601562 219.445312 154.789062 219.089844 153.933594 C 218.734375 153.078125 218.46875 152.195312 218.285156 151.285156 C 218.105469 150.378906 218.011719 149.460938 218.011719 148.535156 C 218.011719 147.609375 218.105469 146.691406 218.285156 145.78125 C 218.464844 144.875 218.734375 143.992188 219.089844 143.136719 C 219.441406 142.28125 219.878906 141.46875 220.390625 140.699219 C 220.90625 139.925781 221.492188 139.214844 222.144531 138.558594 C 222.800781 137.902344 223.511719 137.320312 224.28125 136.804688 C 225.050781 136.289062 225.863281 135.851562 226.71875 135.496094 C 227.574219 135.140625 228.457031 134.875 229.363281 134.691406 C 230.273438 134.507812 231.191406 134.417969 232.117188 134.414062 Z M 232.117188 134.414062 " fill-opacity="1" fill-rule="nonzero"/></g></svg>