<svg xmlns="http://www.w3.org/2000/svg" xmlns:xlink="http://www.w3.org/1999/xlink" width="500" zoomAndPan="magnify" viewBox="0 0 375 374.999991" height="500" preserveAspectRatio="xMidYMid meet" version="1.0"><defs><g/><clipPath id="fdbe0cbeb3"><rect x="0" width="341" y="0" height="220"/></clipPath></defs><g transform="matrix(1, 0, 0, 1, 13, 77)"><g clip-path="url(#fdbe0cbeb3)"><g fill="#043d77" fill-opacity="1"><g transform="translate(1.057881, 172.182534)"><g><path d="M 50.625 6.09375 C 44.539062 6.09375 38.375 5.289062 32.125 3.6875 C 25.875 2.082031 19.972656 -0.101562 14.421875 -2.875 C 8.867188 -5.65625 4.0625 -8.863281 0 -12.5 L 25.15625 -39.890625 C 27.925781 -36.796875 31.742188 -34.019531 36.609375 -31.5625 C 41.472656 -29.101562 46.359375 -27.875 51.265625 -27.875 C 53.617188 -27.875 55.753906 -28.300781 57.671875 -29.15625 C 59.597656 -30.007812 60.5625 -31.453125 60.5625 -33.484375 C 60.5625 -35.941406 59.039062 -37.863281 56 -39.25 C 52.957031 -40.644531 49.457031 -41.984375 45.5 -43.265625 L 43.09375 -44.0625 C 36.15625 -46.40625 29.988281 -49.070312 24.59375 -52.0625 C 19.195312 -55.0625 14.945312 -58.910156 11.84375 -63.609375 C 8.75 -68.304688 7.203125 -74.34375 7.203125 -81.71875 C 7.203125 -89.1875 8.722656 -95.5625 11.765625 -100.84375 C 14.816406 -106.132812 18.851562 -110.4375 23.875 -113.75 C 28.894531 -117.0625 34.394531 -119.492188 40.375 -121.046875 C 46.351562 -122.597656 52.226562 -123.375 58 -123.375 C 66.4375 -123.375 74.820312 -121.847656 83.15625 -118.796875 C 91.488281 -115.753906 98.910156 -111.242188 105.421875 -105.265625 L 79.78125 -79.140625 C 77.007812 -82.566406 73.617188 -85.1875 69.609375 -87 C 65.609375 -88.8125 61.738281 -89.71875 58 -89.71875 C 55.4375 -89.71875 53.21875 -89.289062 51.34375 -88.4375 C 49.476562 -87.582031 48.546875 -86.25 48.546875 -84.4375 C 48.546875 -82.40625 49.585938 -80.828125 51.671875 -79.703125 C 53.753906 -78.585938 57.304688 -77.28125 62.328125 -75.78125 L 64.5625 -75.140625 C 71.507812 -73.222656 77.8125 -70.765625 83.46875 -67.765625 C 89.132812 -64.773438 93.648438 -60.820312 97.015625 -55.90625 C 100.378906 -51 102.0625 -44.644531 102.0625 -36.84375 C 102.0625 -29.6875 100.617188 -23.4375 97.734375 -18.09375 C 94.847656 -12.757812 90.921875 -8.300781 85.953125 -4.71875 C 80.984375 -1.144531 75.457031 1.546875 69.375 3.359375 C 63.289062 5.179688 57.039062 6.09375 50.625 6.09375 Z M 50.625 6.09375 "/></g></g></g><g fill="#043d77" fill-opacity="1"><g transform="translate(96.22527, 172.182534)"><g><path d="M 45.5 -120 L 89.234375 -120 L 136.984375 2.5625 L 92.28125 2.5625 L 85.875 -15.375 L 46.9375 -15.375 L 40.859375 2.5625 L -2.71875 2.5625 Z M 66.8125 -77.0625 L 56.71875 -46.9375 L 76.578125 -46.9375 Z M 66.8125 -77.0625 "/></g></g></g><g fill="#043d77" fill-opacity="1"><g transform="translate(216.065693, 172.182534)"><g><path d="M 66.484375 -40.859375 L 66.484375 -73.21875 L 122.734375 -73.21875 L 122.734375 -6.25 C 118.878906 -4.007812 114.304688 -2.003906 109.015625 -0.234375 C 103.734375 1.523438 98.078125 2.9375 92.046875 4 C 86.015625 5.070312 79.898438 5.609375 73.703125 5.609375 C 64.085938 5.609375 55.140625 4.113281 46.859375 1.125 C 38.585938 -1.863281 31.40625 -6.160156 25.3125 -11.765625 C 19.226562 -17.378906 14.472656 -24.140625 11.046875 -32.046875 C 7.628906 -39.953125 5.921875 -48.816406 5.921875 -58.640625 C 5.921875 -68.460938 7.628906 -77.351562 11.046875 -85.3125 C 14.472656 -93.269531 19.226562 -100.078125 25.3125 -105.734375 C 31.40625 -111.398438 38.457031 -115.753906 46.46875 -118.796875 C 54.476562 -121.847656 63.078125 -123.375 72.265625 -123.375 C 81.765625 -123.375 90.867188 -121.796875 99.578125 -118.640625 C 108.285156 -115.492188 115.304688 -111.25 120.640625 -105.90625 L 96.609375 -77.0625 C 94.046875 -80.164062 91.03125 -82.570312 87.5625 -84.28125 C 84.09375 -85.988281 79.847656 -86.84375 74.828125 -86.84375 C 70.335938 -86.84375 66.0625 -85.664062 62 -83.3125 C 57.945312 -80.957031 54.664062 -77.671875 52.15625 -73.453125 C 49.644531 -69.234375 48.390625 -64.296875 48.390625 -58.640625 C 48.390625 -50.097656 50.628906 -43.15625 55.109375 -37.8125 C 59.597656 -32.46875 66.703125 -29.796875 76.421875 -29.796875 C 78.234375 -29.796875 80.046875 -29.957031 81.859375 -30.28125 C 83.679688 -30.601562 85.128906 -31.03125 86.203125 -31.5625 L 86.203125 -40.859375 Z M 66.484375 -40.859375 "/></g></g></g></g></g><g fill="#1c4061" fill-opacity="1"><g transform="translate(23.646051, 307.703651)"><g><path d="M 11.6875 -2.59375 L 12.515625 -2.765625 L 13.234375 -2.953125 L 13.28125 -3.359375 L 12.4375 -3.515625 L 11.59375 -3.40625 L 10.6875 -3.4375 L 9.921875 -3.875 L 9.515625 -5.046875 L 9.5625 -11.15625 L 9.484375 -11.953125 L 9.484375 -12.6875 L 9.5625 -13.796875 L 9.5625 -19.203125 L 9.484375 -19.953125 L 9.515625 -21.640625 L 9.484375 -22.28125 L 9.5625 -23.125 L 9.84375 -23.921875 L 10.640625 -24.3125 L 11.4375 -24.40625 L 12.15625 -24.3125 L 12.953125 -24.59375 L 12.875 -25.078125 L 12.203125 -25.203125 L 10.640625 -25.203125 L 9.765625 -25.359375 L 6.765625 -25.28125 L 5.203125 -25.046875 L 5.125 -24.59375 L 5.921875 -24.359375 L 7.484375 -24.359375 L 8.28125 -23.875 L 8.59375 -23.15625 L 8.71875 -22.234375 L 8.640625 -21.484375 L 8.640625 -19.15625 L 8.5625 -18.3125 L 8.6875 -17.59375 L 8.59375 -13.5625 L 8.71875 -12.28125 L 8.5625 -8.765625 L 8.6875 -7.15625 L 8.5625 -5.515625 L 8.6875 -4.6875 L 8.28125 -3.921875 L 7.359375 -3.5625 L 4.796875 -3.359375 L 4.71875 -2.953125 L 5.515625 -2.640625 L 6.3125 -2.71875 Z M 11.6875 -2.59375 "/></g></g></g><g fill="#1c4061" fill-opacity="1"><g transform="translate(49.604145, 307.703651)"><g><path d="M 6.359375 -2.84375 L 6.796875 -2.875 L 7.046875 -3.6875 L 7.125 -6.125 L 7 -6.953125 L 7.125 -15.15625 L 7.046875 -15.921875 L 7.125 -16.6875 L 7.078125 -19.921875 L 7.28125 -20.4375 L 7.84375 -20.203125 L 8.765625 -19.515625 L 10.765625 -17.5625 L 11.3125 -16.875 L 13.125 -15.3125 L 16.515625 -11.796875 L 17.125 -11.3125 L 17.6875 -10.640625 L 20 -8.5625 L 21.125 -7.359375 L 21.71875 -6.875 L 22.953125 -5.765625 L 23.71875 -5.84375 L 23.84375 -6.640625 L 23.796875 -7.4375 L 23.875 -8.203125 L 23.84375 -10.6875 L 23.875 -11.484375 L 23.796875 -16.28125 L 23.921875 -16.953125 L 23.796875 -18.5625 L 23.921875 -19.4375 L 23.796875 -21.078125 L 23.875 -21.796875 L 23.796875 -23.484375 L 23.875 -24.28125 L 23.6875 -25.125 L 23.203125 -25.046875 L 22.953125 -24.234375 L 22.921875 -14.515625 L 23.046875 -13.6875 L 22.921875 -7.953125 L 22.640625 -7.5625 L 22.078125 -7.765625 L 21 -8.84375 L 20.3125 -9.234375 L 19.84375 -9.921875 L 18.59375 -10.921875 L 14 -15.4375 L 12.953125 -16.640625 L 11.71875 -17.84375 L 11.203125 -18.234375 L 9.484375 -19.953125 L 8.84375 -20.515625 L 7.765625 -21.71875 L 7.046875 -22.28125 L 6.359375 -22.125 L 6.203125 -21.359375 L 6.125 -18.84375 L 6.203125 -18.203125 L 6.125 -16.4375 L 6.234375 -15.59375 L 6.125 -7.640625 L 6.203125 -6.921875 L 6.15625 -6.125 L 6.203125 -5.234375 L 6.15625 -4.515625 L 6.203125 -3.6875 Z M 6.359375 -2.84375 "/></g></g></g><g fill="#1c4061" fill-opacity="1"><g transform="translate(87.561048, 307.703651)"><g><path d="M 11.6875 -2.59375 L 12.515625 -2.765625 L 13.234375 -2.953125 L 13.28125 -3.359375 L 12.4375 -3.515625 L 11.59375 -3.40625 L 10.6875 -3.4375 L 9.921875 -3.875 L 9.515625 -5.046875 L 9.5625 -11.15625 L 9.484375 -11.953125 L 9.484375 -12.6875 L 9.5625 -13.796875 L 9.5625 -19.203125 L 9.484375 -19.953125 L 9.515625 -21.640625 L 9.484375 -22.28125 L 9.5625 -23.125 L 9.84375 -23.921875 L 10.640625 -24.3125 L 11.4375 -24.40625 L 12.15625 -24.3125 L 12.953125 -24.59375 L 12.875 -25.078125 L 12.203125 -25.203125 L 10.640625 -25.203125 L 9.765625 -25.359375 L 6.765625 -25.28125 L 5.203125 -25.046875 L 5.125 -24.59375 L 5.921875 -24.359375 L 7.484375 -24.359375 L 8.28125 -23.875 L 8.59375 -23.15625 L 8.71875 -22.234375 L 8.640625 -21.484375 L 8.640625 -19.15625 L 8.5625 -18.3125 L 8.6875 -17.59375 L 8.59375 -13.5625 L 8.71875 -12.28125 L 8.5625 -8.765625 L 8.6875 -7.15625 L 8.5625 -5.515625 L 8.6875 -4.6875 L 8.28125 -3.921875 L 7.359375 -3.5625 L 4.796875 -3.359375 L 4.71875 -2.953125 L 5.515625 -2.640625 L 6.3125 -2.71875 Z M 11.6875 -2.59375 "/></g></g></g><g fill="#1c4061" fill-opacity="1"><g transform="translate(113.519141, 307.703651)"><g><path d="M 11.4375 -2.71875 L 11.640625 -3.6875 L 11.59375 -8.484375 L 11.6875 -9.234375 L 11.5625 -10.046875 L 11.59375 -13.359375 L 11.6875 -14.15625 L 11.640625 -19.078125 L 11.5625 -19.765625 L 11.640625 -22.28125 L 11.515625 -23.15625 L 11.953125 -23.875 L 13.3125 -24.28125 L 14.15625 -24.359375 L 15.359375 -24.359375 L 16.125 -24.234375 L 17.078125 -24.359375 L 17.84375 -24.234375 L 18.6875 -24.515625 L 18.640625 -25 L 17.15625 -25.3125 L 16.3125 -25.203125 L 15.5625 -25.15625 L 12.6875 -25.28125 L 10.71875 -25.125 L 4.4375 -25.15625 L 3.640625 -25.046875 L 3.6875 -24.5625 L 4.4375 -24.28125 L 6.125 -24.3125 L 6.953125 -24.203125 L 8.59375 -24.4375 L 9.4375 -24.359375 L 10.28125 -23.921875 L 10.71875 -23 L 10.765625 -22.203125 L 10.6875 -21.484375 L 10.71875 -20.59375 L 10.6875 -19.796875 L 10.765625 -19 L 10.765625 -3.71875 L 10.921875 -2.796875 Z M 11.4375 -2.71875 "/></g></g></g><g fill="#1c4061" fill-opacity="1"><g transform="translate(143.676828, 307.703651)"><g><path d="M 11.6875 -2.59375 L 12.515625 -2.765625 L 13.234375 -2.953125 L 13.28125 -3.359375 L 12.4375 -3.515625 L 11.59375 -3.40625 L 10.6875 -3.4375 L 9.921875 -3.875 L 9.515625 -5.046875 L 9.5625 -11.15625 L 9.484375 -11.953125 L 9.484375 -12.6875 L 9.5625 -13.796875 L 9.5625 -19.203125 L 9.484375 -19.953125 L 9.515625 -21.640625 L 9.484375 -22.28125 L 9.5625 -23.125 L 9.84375 -23.921875 L 10.640625 -24.3125 L 11.4375 -24.40625 L 12.15625 -24.3125 L 12.953125 -24.59375 L 12.875 -25.078125 L 12.203125 -25.203125 L 10.640625 -25.203125 L 9.765625 -25.359375 L 6.765625 -25.28125 L 5.203125 -25.046875 L 5.125 -24.59375 L 5.921875 -24.359375 L 7.484375 -24.359375 L 8.28125 -23.875 L 8.59375 -23.15625 L 8.71875 -22.234375 L 8.640625 -21.484375 L 8.640625 -19.15625 L 8.5625 -18.3125 L 8.6875 -17.59375 L 8.59375 -13.5625 L 8.71875 -12.28125 L 8.5625 -8.765625 L 8.6875 -7.15625 L 8.5625 -5.515625 L 8.6875 -4.6875 L 8.28125 -3.921875 L 7.359375 -3.5625 L 4.796875 -3.359375 L 4.71875 -2.953125 L 5.515625 -2.640625 L 6.3125 -2.71875 Z M 11.6875 -2.59375 "/></g></g></g><g fill="#1c4061" fill-opacity="1"><g transform="translate(169.634921, 307.703651)"><g><path d="M 5 -2.71875 L 6.484375 -5.484375 L 7.15625 -6.15625 L 8.15625 -6.4375 L 9.6875 -6.359375 L 10.40625 -6.484375 L 11.234375 -6.515625 L 15.71875 -6.3125 L 20.125 -6.5625 L 20.921875 -6.4375 L 21.796875 -6.046875 L 22.515625 -5.40625 L 23.4375 -3.515625 L 24 -2.84375 L 24.484375 -2.796875 L 24.3125 -3.5625 L 23.40625 -5.84375 L 22.640625 -7.15625 L 18.921875 -15.3125 L 18.515625 -16.484375 L 15.203125 -23.4375 L 14.71875 -24.234375 L 14.15625 -24.234375 L 13.71875 -23.4375 L 13.078125 -21.921875 L 12.6875 -21.28125 L 12.40625 -20.359375 L 11.6875 -19.046875 L 11.40625 -18.234375 L 10.3125 -16 L 10.046875 -15.203125 L 9.28125 -13.84375 L 9 -13.125 L 8.59375 -12.40625 L 8.359375 -11.5625 L 7.953125 -10.953125 L 7.59375 -10.28125 L 6 -6.4375 L 5.640625 -5.84375 L 4.59375 -3.515625 L 4.484375 -2.875 Z M 10.84375 -7.234375 L 9.28125 -7.359375 L 8.484375 -7.3125 L 7.875 -7.6875 L 7.71875 -8.359375 L 10.875 -15.234375 L 11.234375 -15.796875 L 13.921875 -21.71875 L 14.484375 -22.125 L 15.046875 -21.796875 L 15.28125 -21.078125 L 21.125 -8.40625 L 21.078125 -7.59375 L 20.484375 -7.234375 Z M 10.84375 -7.234375 "/></g></g></g><g fill="#1c4061" fill-opacity="1"><g transform="translate(204.232079, 307.703651)"><g><path d="M 11.4375 -2.71875 L 11.640625 -3.6875 L 11.59375 -8.484375 L 11.6875 -9.234375 L 11.5625 -10.046875 L 11.59375 -13.359375 L 11.6875 -14.15625 L 11.640625 -19.078125 L 11.5625 -19.765625 L 11.640625 -22.28125 L 11.515625 -23.15625 L 11.953125 -23.875 L 13.3125 -24.28125 L 14.15625 -24.359375 L 15.359375 -24.359375 L 16.125 -24.234375 L 17.078125 -24.359375 L 17.84375 -24.234375 L 18.6875 -24.515625 L 18.640625 -25 L 17.15625 -25.3125 L 16.3125 -25.203125 L 15.5625 -25.15625 L 12.6875 -25.28125 L 10.71875 -25.125 L 4.4375 -25.15625 L 3.640625 -25.046875 L 3.6875 -24.5625 L 4.4375 -24.28125 L 6.125 -24.3125 L 6.953125 -24.203125 L 8.59375 -24.4375 L 9.4375 -24.359375 L 10.28125 -23.921875 L 10.71875 -23 L 10.765625 -22.203125 L 10.6875 -21.484375 L 10.71875 -20.59375 L 10.6875 -19.796875 L 10.765625 -19 L 10.765625 -3.71875 L 10.921875 -2.796875 Z M 11.4375 -2.71875 "/></g></g></g><g fill="#1c4061" fill-opacity="1"><g transform="translate(234.389766, 307.703651)"><g><path d="M 11.6875 -2.59375 L 12.515625 -2.765625 L 13.234375 -2.953125 L 13.28125 -3.359375 L 12.4375 -3.515625 L 11.59375 -3.40625 L 10.6875 -3.4375 L 9.921875 -3.875 L 9.515625 -5.046875 L 9.5625 -11.15625 L 9.484375 -11.953125 L 9.484375 -12.6875 L 9.5625 -13.796875 L 9.5625 -19.203125 L 9.484375 -19.953125 L 9.515625 -21.640625 L 9.484375 -22.28125 L 9.5625 -23.125 L 9.84375 -23.921875 L 10.640625 -24.3125 L 11.4375 -24.40625 L 12.15625 -24.3125 L 12.953125 -24.59375 L 12.875 -25.078125 L 12.203125 -25.203125 L 10.640625 -25.203125 L 9.765625 -25.359375 L 6.765625 -25.28125 L 5.203125 -25.046875 L 5.125 -24.59375 L 5.921875 -24.359375 L 7.484375 -24.359375 L 8.28125 -23.875 L 8.59375 -23.15625 L 8.71875 -22.234375 L 8.640625 -21.484375 L 8.640625 -19.15625 L 8.5625 -18.3125 L 8.6875 -17.59375 L 8.59375 -13.5625 L 8.71875 -12.28125 L 8.5625 -8.765625 L 8.6875 -7.15625 L 8.5625 -5.515625 L 8.6875 -4.6875 L 8.28125 -3.921875 L 7.359375 -3.5625 L 4.796875 -3.359375 L 4.71875 -2.953125 L 5.515625 -2.640625 L 6.3125 -2.71875 Z M 11.6875 -2.59375 "/></g></g></g><g fill="#1c4061" fill-opacity="1"><g transform="translate(260.347848, 307.703651)"><g><path d="M 13.765625 -4.234375 L 14.28125 -5.046875 L 14.59375 -5.796875 L 14.84375 -6.59375 L 15.5625 -8.046875 L 16.125 -9.515625 L 17.203125 -11.6875 L 17.4375 -12.5625 L 17.796875 -13.125 L 18.484375 -14.6875 L 18.71875 -15.515625 L 19.125 -16.15625 L 22.5625 -24.4375 L 22.640625 -25.125 L 22.125 -25.234375 L 21.5625 -24.359375 L 17.3125 -14.15625 L 16.921875 -13.484375 L 15.15625 -9.125 L 14.796875 -8.4375 L 13.921875 -6.3125 L 13.4375 -5.875 L 12.953125 -6.203125 L 10.125 -12.84375 L 9.921875 -13.515625 L 8.875 -15.71875 L 8.640625 -16.515625 L 8.3125 -17.203125 L 7.921875 -17.953125 L 5.5625 -23.765625 L 5.15625 -24.484375 L 4.640625 -25.125 L 4.234375 -25.078125 L 4.28125 -24.3125 L 11.875 -6.5625 L 12.28125 -5.84375 L 12.59375 -5 L 13.125 -4.28125 Z M 13.765625 -4.234375 "/></g></g></g><g fill="#1c4061" fill-opacity="1"><g transform="translate(295.105086, 307.703651)"><g><path d="M 15.078125 -2.640625 L 17.203125 -2.640625 L 18 -2.953125 L 18 -3.4375 L 16.40625 -3.59375 L 15.484375 -3.5625 L 14.640625 -3.640625 L 13.796875 -3.515625 L 12.15625 -3.59375 L 11.40625 -3.515625 L 9.796875 -3.640625 L 8.59375 -3.515625 L 7.40625 -4.046875 L 6.953125 -5.203125 L 7.046875 -10.875 L 6.953125 -12.125 L 7.046875 -12.921875 L 7.4375 -13.59375 L 8.15625 -14 L 9.71875 -14.046875 L 10.4375 -13.953125 L 12.921875 -13.921875 L 13.640625 -14.046875 L 15.5625 -13.921875 L 16.796875 -14.15625 L 16.84375 -14.640625 L 16.078125 -14.921875 L 15.125 -14.84375 L 14.359375 -14.84375 L 13.59375 -15 L 12.875 -14.953125 L 12 -15.046875 L 10.921875 -14.875 L 8.953125 -15 L 8.125 -14.921875 L 7.3125 -15.359375 L 7.046875 -16.15625 L 6.921875 -16.921875 L 7 -17.640625 L 7 -23.234375 L 7.3125 -23.953125 L 8.515625 -24.3125 L 11.3125 -24.3125 L 12.078125 -24.4375 L 16.875 -24.4375 L 17.71875 -24.515625 L 17.640625 -25.046875 L 16.40625 -25.234375 L 12.84375 -25.15625 L 11.234375 -25.3125 L 10.4375 -25.234375 L 9.6875 -25.3125 L 8.84375 -25.234375 L 7.28125 -25.28125 L 6.484375 -24.84375 L 6.078125 -24.046875 L 6.125 -4.359375 L 6.484375 -3.234375 L 7.28125 -2.71875 L 9.765625 -2.765625 L 10.5625 -2.6875 L 11.4375 -2.6875 L 12.15625 -2.796875 Z M 15.078125 -2.640625 "/></g></g></g><g fill="#1c4061" fill-opacity="1"><g transform="translate(325.822698, 307.703651)"><g><path d="M 13.953125 -2.359375 L 14.796875 -2.4375 L 17.15625 -3.203125 L 17.875 -3.484375 L 19.203125 -4.4375 L 19.71875 -5 L 20.234375 -5.796875 L 20.84375 -7.234375 L 20.796875 -9.765625 L 20.234375 -11.234375 L 19.765625 -11.765625 L 18.59375 -12.84375 L 17.875 -13.28125 L 15.4375 -13.875 L 11.359375 -14.359375 L 10.640625 -14.5625 L 9.765625 -14.71875 L 8.3125 -15.234375 L 7.484375 -15.59375 L 6.875 -16.078125 L 6 -17.359375 L 5.796875 -18.078125 L 5.765625 -20.640625 L 6.078125 -21.4375 L 6.484375 -22.125 L 7.59375 -23.234375 L 9.6875 -24.359375 L 10.515625 -24.59375 L 13.765625 -24.796875 L 15.953125 -24.125 L 16.796875 -23.71875 L 17.4375 -23.28125 L 18.71875 -22 L 19.3125 -22.078125 L 19.15625 -22.765625 L 18.6875 -23.4375 L 18.078125 -23.84375 L 17.4375 -24.40625 L 15.921875 -25 L 15.234375 -25.359375 L 13.640625 -25.6875 L 11.28125 -25.59375 L 9.71875 -25.359375 L 7.234375 -24.046875 L 5.84375 -22.796875 L 4.875 -20.484375 L 4.875 -19.4375 L 5.078125 -17.4375 L 5.40625 -16.59375 L 5.71875 -16 L 6.234375 -15.484375 L 6.875 -14.921875 L 8.953125 -13.875 L 10.875 -13.484375 L 13.6875 -13.203125 L 14.40625 -13.203125 L 16.796875 -12.765625 L 17.4375 -12.4375 L 18.84375 -11.515625 L 19.6875 -10.40625 L 19.953125 -9.640625 L 20 -8.484375 L 19.875 -7.203125 L 19.59375 -6.4375 L 19.15625 -5.875 L 18.6875 -5.078125 L 17.28125 -4.234375 L 16.4375 -3.84375 L 14.125 -3.234375 L 12.796875 -3.203125 L 10.078125 -3.4375 L 9.3125 -3.796875 L 8.59375 -4 L 7.3125 -4.875 L 6.71875 -5.40625 L 6.125 -6.046875 L 5.59375 -6.046875 L 5.765625 -5.4375 L 6.203125 -4.71875 L 7.203125 -3.84375 L 7.84375 -3.4375 L 9.40625 -2.765625 L 10.84375 -2.40625 Z M 13.953125 -2.359375 "/></g></g></g></svg>