<svg xmlns="http://www.w3.org/2000/svg" xmlns:xlink="http://www.w3.org/1999/xlink" width="500" zoomAndPan="magnify" viewBox="0 0 375 374.999991" height="500" preserveAspectRatio="xMidYMid meet" version="1.0"><defs><clipPath id="6933d22ca4"><path d="M 90.457031 178 L 185 178 L 185 273 L 90.457031 273 Z M 90.457031 178 " clip-rule="nonzero"/></clipPath><clipPath id="f746f9307b"><path d="M 190 178 L 284.707031 178 L 284.707031 273 L 190 273 Z M 190 178 " clip-rule="nonzero"/></clipPath><clipPath id="8d08f7328c"><path d="M 90.457031 278 L 185 278 L 185 373 L 90.457031 373 Z M 90.457031 278 " clip-rule="nonzero"/></clipPath><clipPath id="3199a5de18"><path d="M 190 277 L 284.707031 277 L 284.707031 372 L 190 372 Z M 190 277 " clip-rule="nonzero"/></clipPath><clipPath id="f71b71dd76"><path d="M 90.457031 0 L 284.707031 0 L 284.707031 173 L 90.457031 173 Z M 90.457031 0 " clip-rule="nonzero"/></clipPath></defs><g clip-path="url(#6933d22ca4)"><path fill="#043d77" d="M 90.558594 178.167969 L 90.558594 272.21875 L 184.597656 272.21875 L 184.597656 178.167969 Z M 160.714844 230.285156 C 160.714844 249.597656 150.492188 257.402344 136.960938 257.402344 C 124.085938 257.402344 114.40625 250.144531 114.40625 230.566406 L 114.40625 193.53125 L 122.621094 193.53125 L 122.621094 230.796875 C 122.621094 244.78125 128.847656 250.746094 137.242188 250.746094 C 146.457031 250.746094 152.511719 244.609375 152.511719 230.796875 L 152.511719 193.53125 L 160.714844 193.53125 Z M 160.714844 230.285156 " fill-opacity="1" fill-rule="nonzero"/></g><g clip-path="url(#f746f9307b)"><path fill="#043d77" d="M 190.4375 178.167969 L 190.4375 272.21875 L 284.476562 272.21875 L 284.476562 178.167969 Z M 261.046875 256.5625 L 252.84375 256.5625 L 232.917969 224.683594 C 228.585938 217.957031 224.691406 210.957031 221.261719 203.730469 L 220.976562 203.824219 C 221.453125 211.777344 221.542969 219.273438 221.542969 229.726562 L 221.542969 256.5625 L 213.910156 256.5625 L 213.910156 193.757812 L 222.851562 193.757812 L 242.882812 225.570312 C 247.078125 232.117188 250.8125 238.953125 254.0625 246.019531 L 254.34375 245.929688 C 253.605469 237.53125 253.425781 229.910156 253.425781 220.195312 L 253.425781 193.835938 L 261.046875 193.835938 Z M 261.046875 256.5625 " fill-opacity="1" fill-rule="nonzero"/></g><g clip-path="url(#8d08f7328c)"><path fill="#043d77" d="M 90.457031 278.035156 L 90.457031 372.074219 L 184.507812 372.074219 L 184.507812 278.035156 Z M 156.5 347.625 C 150.523438 353.496094 140.835938 356.632812 128.644531 356.632812 C 123.710938 356.710938 118.777344 356.46875 113.875 355.90625 L 113.875 294.132812 C 119.609375 293.273438 125.398438 292.835938 131.199219 292.828125 C 142.84375 292.828125 151.140625 295.441406 156.625 300.5625 C 162.308594 305.699219 165.566406 313.0625 165.566406 323.210938 C 165.566406 333.351562 162.261719 341.851562 156.5 347.625 Z M 156.5 347.625 " fill-opacity="1" fill-rule="nonzero"/></g><path fill="#043d77" d="M 130.222656 350.132812 C 127.484375 350.226562 124.746094 350.097656 122.03125 349.75 L 122.03125 300.097656 C 125.160156 299.5 128.34375 299.222656 131.527344 299.269531 C 148.660156 299.269531 157.058594 308.496094 156.957031 323.480469 C 156.957031 340.441406 147.535156 350.222656 130.222656 350.132812 Z M 130.222656 350.132812 " fill-opacity="1" fill-rule="nonzero"/><path fill="#043d77" d="M 130.222656 350.132812 C 127.484375 350.226562 124.746094 350.097656 122.03125 349.75 L 122.03125 300.097656 C 125.160156 299.5 128.34375 299.222656 131.527344 299.269531 C 148.660156 299.269531 157.058594 308.496094 156.957031 323.480469 C 156.957031 340.441406 147.535156 350.222656 130.222656 350.132812 Z M 130.222656 350.132812 " fill-opacity="1" fill-rule="nonzero"/><g clip-path="url(#3199a5de18)"><path fill="#043d77" d="M 190.4375 277.933594 L 190.4375 371.984375 L 284.476562 371.984375 L 284.476562 277.933594 Z M 253.9375 324.730469 C 249.664062 329.273438 242.699219 331.546875 234.746094 331.546875 C 232.554688 331.617188 230.363281 331.429688 228.214844 330.992188 L 228.214844 356.144531 L 220.113281 356.144531 L 220.113281 294.226562 C 225.253906 293.304688 230.46875 292.867188 235.691406 292.917969 C 243.710938 292.917969 249.574219 294.792969 253.300781 298.15625 C 255.132812 299.804688 256.582031 301.832031 257.546875 304.097656 C 258.515625 306.363281 258.972656 308.816406 258.890625 311.28125 C 258.890625 316.9375 257.207031 321.414062 253.9375 324.730469 Z M 253.9375 324.730469 " fill-opacity="1" fill-rule="nonzero"/></g><path fill="#043d77" d="M 234.953125 325.433594 C 232.695312 325.488281 230.441406 325.269531 228.238281 324.789062 L 228.238281 300.382812 C 230.757812 299.925781 233.320312 299.707031 235.882812 299.734375 C 244.835938 299.734375 250.652344 303.722656 250.652344 312.128906 C 250.652344 320.539062 244.824219 325.433594 234.953125 325.433594 Z M 234.953125 325.433594 " fill-opacity="1" fill-rule="nonzero"/><g clip-path="url(#f71b71dd76)"><path fill="#043d77" d="M 90.558594 -21.789062 L 90.558594 172.226562 L 284.53125 172.226562 L 284.53125 -21.789062 Z M 256.957031 79.222656 C 254.242188 83.074219 250.960938 86.664062 248.449219 90.585938 C 248.730469 87.484375 249.097656 83.65625 247.867188 80.710938 C 245.578125 74.339844 244.054688 67.71875 243.324219 60.988281 L 243.324219 58.332031 C 244.902344 65.429688 251.890625 70.328125 251.4375 78.292969 C 251.445312 80.074219 251.179688 81.847656 250.652344 83.550781 L 250.765625 83.6875 L 251.085938 83.324219 C 252.117188 79.429688 252.628906 75.304688 254.242188 71.65625 C 256.515625 66.417969 259.378906 61.125 258.21875 54.785156 C 261.808594 62.285156 260.765625 72.246094 256.957031 79.222656 Z M 252.652344 38.980469 C 254.957031 42.339844 256.375 46.226562 256.769531 50.277344 C 257.167969 54.332031 256.53125 58.417969 254.925781 62.160156 C 253.679688 65.230469 252.804688 68.445312 252.324219 71.726562 C 252.085938 71.15625 252.039062 70.382812 251.835938 69.738281 C 250.015625 62.785156 243.425781 57.820312 240.710938 51.253906 C 239.828125 49.09375 239.160156 46.851562 238.722656 44.558594 C 241.621094 49.910156 248.753906 52.671875 250.699219 58.570312 C 251.492188 60.070312 251.449219 61.976562 251.925781 63.535156 C 251.976562 63.535156 252.027344 63.519531 252.070312 63.484375 C 252.109375 63.453125 252.136719 63.402344 252.140625 63.351562 C 251.378906 57.226562 251.460938 51.027344 252.378906 44.921875 C 252.324219 41.664062 252.015625 38.515625 250.210938 36.003906 C 251.34375 36.675781 251.867188 37.96875 252.652344 38.980469 Z M 249.4375 37.789062 C 250.640625 43.21875 248.890625 48.515625 249.992188 54 C 247.039062 48.183594 240.757812 45.445312 236.449219 40.789062 C 234.125 38.039062 232.660156 34.671875 232.234375 31.097656 C 234.710938 37.074219 241.382812 38.390625 245.210938 43.402344 C 246.496094 44.539062 246.914062 46.171875 247.742188 47.492188 L 247.867188 47.355469 C 245.664062 42.652344 244.925781 37.355469 243.414062 32.347656 C 242.582031 30.046875 241.058594 28.0625 239.050781 26.667969 C 244.027344 27.734375 248.378906 32.984375 249.4375 37.789062 Z M 235.984375 25.292969 C 239.792969 28.699219 241.496094 33.074219 242.609375 37.628906 L 243.222656 39.074219 C 237.660156 35.035156 232.90625 29.988281 229.214844 24.1875 L 224.917969 19.839844 C 228.703125 21.472656 232.757812 22.429688 235.984375 25.324219 Z M 164.078125 21.109375 C 171.40625 17.523438 179.441406 15.617188 187.597656 15.53125 C 197.351562 15.589844 206.890625 18.390625 215.128906 23.613281 C 223.367188 28.839844 229.96875 36.273438 234.179688 45.070312 C 239.734375 56.363281 240.945312 69.300781 237.585938 81.425781 C 234.042969 95.253906 222.40625 109.238281 208.867188 114.933594 C 193.617188 122.40625 171.941406 120.535156 158.351562 110.785156 C 139.460938 97.84375 131.722656 75.566406 137.4375 53.5 C 140.914062 40.402344 151.332031 27.1875 164.078125 21.109375 Z M 149.128906 20.597656 C 145.332031 23.929688 142.71875 28.199219 139.878906 32.085938 C 137.347656 35.210938 134.121094 37.277344 131.246094 39.957031 C 132.800781 36.753906 132.859375 32.925781 135.050781 29.984375 C 138.175781 24.53125 143.96875 22.609375 149.128906 20.597656 Z M 128.359375 32.199219 C 130.070312 29.980469 132.46875 28.382812 135.175781 27.65625 C 130.074219 31.164062 130.394531 37.472656 128.769531 42.71875 C 128.246094 44.664062 127.347656 46.445312 126.90625 48.402344 L 127.042969 48.503906 C 127.988281 46.160156 129.421875 44.046875 131.246094 42.300781 C 134.890625 38.890625 140.332031 36.847656 142.0625 31.882812 C 141.980469 38.789062 136.210938 44.207031 130.699219 48.09375 C 128.382812 49.976562 126.453125 52.292969 125.019531 54.910156 C 124.894531 53.183594 125.292969 51.421875 125.167969 49.558594 C 124.542969 43.550781 124.085938 36.675781 128.359375 32.199219 Z M 117.996094 52.808594 C 117.839844 46.707031 120.359375 41.71875 123.941406 37.175781 C 124.042969 37.175781 124.121094 37.015625 124.246094 37.039062 C 120.316406 42.96875 123.566406 50.535156 123.40625 57.332031 L 122.882812 64.285156 C 122.949219 64.285156 122.949219 64.542969 123.144531 64.453125 C 123.332031 63.664062 123.476562 62.863281 123.574219 62.054688 C 124.542969 56.445312 129.359375 52.46875 133.632812 48.648438 C 134.539062 47.710938 135.273438 46.621094 135.800781 45.421875 C 135.410156 48.253906 134.613281 51.015625 133.425781 53.617188 C 130.109375 60.011719 123.984375 65.316406 122.871094 72.703125 C 122.335938 65.691406 117.496094 60.328125 117.996094 52.808594 Z M 115.007812 61.488281 C 115.34375 59.542969 115.882812 57.636719 116.621094 55.808594 C 115.042969 63.875 120.464844 69.679688 122.246094 76.691406 C 122.996094 79.292969 123.191406 82.109375 124.246094 84.574219 C 124.347656 84.574219 124.429688 84.574219 124.496094 84.4375 C 121.835938 77.054688 125.679688 70.15625 129.519531 64.328125 C 130.398438 62.714844 131.050781 60.988281 131.449219 59.195312 C 131.859375 62.601562 131.019531 66.429688 130.519531 69.917969 C 129.597656 74.359375 128.246094 78.574219 126.984375 82.894531 C 126.320312 85.699219 126.261719 88.617188 126.8125 91.449219 L 126.429688 91.140625 C 123.597656 85.949219 118.019531 81.882812 116.382812 76.203125 C 114.769531 71.476562 114.300781 66.433594 115.007812 61.488281 Z M 114.75 77.257812 C 115.375 85.824219 124.574219 90.347656 128.847656 97.425781 C 129.761719 98.960938 130.84375 100.390625 132.074219 101.683594 C 131.859375 100.777344 131.019531 100.003906 130.710938 99.070312 C 129.222656 95.925781 128.660156 92.425781 129.085938 88.972656 C 129.496094 84.597656 131.359375 80.542969 130.644531 75.941406 C 134.378906 84.03125 133.246094 94.117188 135.335938 102.878906 C 135.878906 104.785156 136.992188 106.492188 137.722656 108.332031 C 130.019531 103.082031 119.542969 98.105469 116.132812 88.472656 C 114.601562 85.164062 114.441406 81.0625 114.75 77.257812 Z M 119.359375 96.902344 C 123.644531 106.59375 134.390625 107.421875 141.582031 113.339844 C 142.84375 114.5 144.261719 115.46875 145.796875 116.214844 L 145.867188 116.136719 C 144.054688 114.65625 142.460938 112.921875 141.140625 110.988281 C 136.925781 105.128906 138.402344 96.902344 135.242188 90.539062 C 138.144531 93.824219 140.570312 97.492188 142.457031 101.445312 C 145.050781 107.808594 146.027344 114.988281 152.003906 119.804688 C 145.527344 117.683594 137.972656 118.285156 132.265625 114.296875 C 126.085938 110.523438 120.519531 104.035156 119.359375 96.902344 Z M 130.394531 115.078125 C 137.265625 122.917969 148.570312 120.304688 157.660156 122.339844 C 158.910156 122.707031 160.210938 122.875 161.511719 122.839844 C 160.375 122.136719 158.898438 122.214844 157.707031 121.589844 C 150.523438 119.054688 149.46875 111.285156 145.558594 106.035156 C 150.546875 109.34375 154.730469 113.820312 159.339844 118.136719 C 162.648438 121.023438 166.625 122.363281 170.804688 123.226562 C 169.804688 123.589844 168.53125 123.476562 167.398438 123.769531 C 159.886719 125.632812 151.492188 128.65625 143.539062 125.929688 C 137.925781 124.105469 133.222656 120.203125 130.394531 115.023438 Z M 223.816406 133.328125 C 216.058594 136.222656 207.96875 133.203125 201.914062 128.601562 C 199.527344 127.042969 197.253906 124.769531 194.105469 124.953125 C 193.023438 124.894531 191.933594 125 190.878906 125.257812 C 196.933594 128.101562 202.464844 131.941406 207.242188 136.621094 C 206.324219 137.59375 205.332031 138.492188 204.277344 139.3125 C 199.46875 134.121094 194.050781 129.089844 188.140625 126.203125 C 186.960938 126.476562 185.832031 126.953125 184.8125 127.613281 C 179.707031 130.742188 175.207031 134.765625 171.519531 139.484375 L 168.417969 136.929688 C 173.160156 132.078125 178.726562 128.109375 184.859375 125.214844 C 178.972656 123.363281 175.121094 128.292969 170.644531 130.804688 C 165.441406 134.429688 157.933594 136.132812 151.617188 133.632812 C 148.074219 132.410156 144.933594 130.246094 142.527344 127.371094 C 147.503906 130.78125 154.886719 131.15625 160.511719 128.941406 C 168.089844 125.644531 175.941406 121.488281 185.0625 123.476562 C 186.496094 123.476562 187.890625 124.929688 189.234375 123.714844 C 196.082031 122.085938 203.292969 122.996094 209.523438 126.269531 L 215.546875 128.667969 C 221.136719 130.734375 228.375 130.179688 233.15625 126.746094 C 230.707031 129.746094 227.472656 132.003906 223.816406 133.269531 Z M 232.132812 125.375 C 223.417969 128.65625 214.660156 124.636719 206.308594 123.28125 L 204.707031 123.078125 C 208.695312 122.179688 212.570312 120.988281 215.75 118.113281 C 220.417969 113.570312 224.589844 109.023438 229.78125 105.445312 C 225.929688 110.386719 225.53125 117.410156 219.171875 120.589844 C 217.578125 121.625 215.601562 121.804688 213.96875 122.589844 C 216.296875 122.589844 218.410156 121.804688 220.714844 121.578125 C 229.246094 120.25 239.007812 121.578125 244.984375 114.339844 C 242.757812 119.226562 237.210938 123.476562 232.132812 125.257812 Z M 236.960938 116.511719 C 232.53125 117.703125 227.769531 118.089844 223.441406 119.554688 C 230.757812 113.273438 230.351562 103.558594 235.234375 96.164062 C 236.671875 93.984375 238.226562 91.886719 239.894531 89.878906 C 236.929688 95.855469 238.210938 103.582031 234.792969 109.375 C 233.390625 111.757812 231.613281 113.898438 229.519531 115.703125 C 230.203125 115.703125 230.804688 115.089844 231.382812 114.695312 C 236.949219 109.171875 244.1875 107.617188 250.1875 103.117188 C 252.65625 101.261719 254.609375 98.8125 255.867188 95.992188 C 254.707031 105.046875 245.585938 113.648438 237.019531 116.398438 Z M 247.960938 100.867188 C 244.550781 103.140625 241.03125 105.207031 237.734375 107.761719 L 237.734375 107.46875 C 242.8125 99.039062 240.324219 87.472656 243.414062 78.222656 L 244.550781 75.132812 C 243.902344 80.882812 246.402344 85.777344 246.246094 91.5625 C 246.054688 94.917969 244.957031 98.160156 243.074219 100.945312 L 243.382812 100.945312 C 245.871094 97.699219 247.8125 94.230469 250.710938 91.117188 C 255.195312 86.777344 259.796875 82.335938 260.378906 76.347656 C 261.933594 86.257812 256.332031 95.0625 247.960938 100.753906 Z M 247.960938 100.867188 " fill-opacity="1" fill-rule="nonzero"/></g><path fill="#043d77" d="M 186.097656 60.921875 C 185.707031 61.445312 185.214844 61.890625 184.652344 62.222656 C 184.089844 62.558594 183.464844 62.773438 182.816406 62.863281 C 182.484375 63.273438 182.566406 64.179688 181.757812 64.101562 C 181.507812 64.667969 180.621094 65.011719 180.960938 65.839844 C 180.714844 66.816406 180.566406 67.8125 180.519531 68.816406 C 178.984375 69.757812 179.382812 67.542969 178.667969 67.078125 L 178.394531 67.511719 C 178.101562 67.589844 177.882812 67.40625 177.667969 67.203125 C 177.542969 67.128906 177.402344 67.089844 177.257812 67.089844 C 177.113281 67.089844 176.972656 67.128906 176.851562 67.203125 C 176.507812 67.769531 175.996094 68.238281 176.121094 69.011719 C 175.976562 69.476562 175.191406 69.316406 175.292969 69.804688 C 176.171875 69.769531 177.046875 69.648438 177.90625 69.453125 C 178.507812 69.601562 179.042969 69.167969 179.589844 69.144531 C 179.78125 69.25 180.042969 69.453125 179.953125 69.757812 L 180.214844 69.757812 C 180.410156 69.628906 180.558594 69.4375 180.632812 69.210938 C 180.707031 68.988281 180.703125 68.742188 180.621094 68.519531 C 180.621094 67.976562 181.28125 67.976562 181.632812 67.816406 C 181.960938 67.976562 181.757812 68.304688 181.816406 68.578125 C 182.949219 69.011719 181.53125 69.863281 181.371094 70.476562 C 181.210938 71.089844 181.371094 72.089844 180.394531 71.929688 C 180.304688 71.902344 180.226562 71.84375 180.179688 71.757812 C 180.132812 71.675781 180.121094 71.578125 180.144531 71.488281 L 180.007812 71.488281 C 180.011719 71.722656 180.082031 71.953125 180.203125 72.152344 C 180.328125 72.351562 180.503906 72.515625 180.710938 72.621094 C 181.417969 72.03125 181.449219 71.019531 182.496094 70.894531 C 183.03125 70.328125 182.257812 69.453125 183.066406 68.988281 C 184.40625 68.988281 185.835938 68.386719 186.90625 69.464844 C 186.824219 69.941406 186.65625 70.15625 187.042969 70.53125 C 186.847656 71.167969 186.53125 71.757812 186.109375 72.269531 C 186.171875 72.441406 186.179688 72.628906 186.128906 72.800781 C 186.082031 72.976562 185.976562 73.132812 185.835938 73.246094 C 185.484375 74.828125 183.679688 74.078125 182.621094 74.621094 C 184.257812 75.828125 186.28125 76.378906 188.300781 76.167969 C 189.4375 76.167969 188.925781 74.746094 189.4375 74.132812 C 189.789062 72.328125 191.460938 73.566406 192.472656 73.066406 C 192.902344 72.324219 193.195312 71.511719 193.335938 70.667969 C 193.027344 70.464844 192.796875 70.164062 192.671875 69.816406 C 192.546875 69.46875 192.535156 69.089844 192.640625 68.738281 C 192.210938 68.136719 192.257812 67.042969 191.289062 66.941406 C 191.238281 66.839844 191.222656 66.726562 191.242188 66.617188 C 191.261719 66.503906 191.320312 66.402344 191.402344 66.328125 C 191.402344 65.761719 191.9375 65.566406 192.097656 65.191406 C 191.507812 64.804688 191.664062 63.953125 191.710938 63.453125 C 190.699219 63.75 190.574219 62.421875 189.847656 62.136719 C 189.664062 61.546875 189.019531 61.441406 188.507812 61.339844 C 187.269531 61.933594 187.0625 60.410156 186.132812 60.046875 C 186.03125 59.761719 185.8125 59.351562 186.132812 59.125 C 186.449219 58.898438 187.269531 59.125 187.757812 59.035156 L 187.3125 58.808594 C 186.90625 58.339844 186.007812 58.625 185.460938 58.808594 C 185.996094 59.339844 185.78125 60.273438 186.097656 60.921875 Z M 186.097656 60.921875 " fill-opacity="1" fill-rule="nonzero"/><path fill="#043d77" d="M 188.710938 36.3125 C 189.703125 36.164062 190.710938 36.199219 191.6875 36.414062 C 196.714844 37.082031 201.492188 39.003906 205.582031 42.003906 C 205.03125 41.507812 204.632812 40.859375 204.445312 40.140625 C 204.480469 40.09375 204.53125 40.058594 204.585938 40.042969 C 204.640625 40.023438 204.699219 40.023438 204.753906 40.039062 C 204.753906 39.230469 203.957031 38.824219 203.832031 38.097656 C 203.890625 38.003906 203.980469 37.929688 204.082031 37.890625 C 204.183594 37.847656 204.296875 37.84375 204.402344 37.867188 C 205.246094 38.675781 206.003906 39.566406 206.671875 40.527344 C 207.242188 40.300781 207.707031 40.664062 208.128906 40.957031 C 208.867188 41.402344 208.410156 42.367188 208.980469 42.878906 C 209.082031 44.402344 210.933594 45.265625 210.84375 46.785156 C 210.84375 47.140625 211.296875 46.867188 211.457031 47.046875 L 213.003906 48.945312 C 212.949219 49.03125 212.914062 49.128906 212.898438 49.230469 C 212.882812 49.332031 212.890625 49.433594 212.914062 49.53125 C 212.941406 49.628906 212.984375 49.722656 213.046875 49.804688 C 213.109375 49.882812 213.1875 49.953125 213.273438 50.003906 C 213.96875 50.332031 214.410156 49.445312 215.046875 49.570312 C 216.046875 50.140625 214.886719 50.808594 214.988281 51.433594 C 215.375 51.433594 215.875 51.128906 216.183594 51.511719 C 216.308594 52.082031 215.71875 52.445312 215.480469 52.808594 C 215.480469 53.375 215.945312 53.25 216.363281 53.375 C 216.472656 53.386719 216.578125 53.417969 216.667969 53.472656 C 216.761719 53.527344 216.84375 53.601562 216.902344 53.691406 C 216.960938 53.78125 217 53.882812 217.015625 53.988281 C 217.03125 54.097656 217.023438 54.207031 216.988281 54.308594 C 218.273438 55.648438 216.601562 57.101562 217.21875 58.523438 C 217.355469 58.964844 217.363281 59.4375 217.242188 59.882812 C 217.121094 60.332031 216.878906 60.734375 216.535156 61.046875 C 216.535156 62.183594 215.523438 62.886719 215.125 63.839844 L 213.808594 64.101562 C 213.105469 64.792969 214.410156 65.660156 213.695312 66.089844 L 216.601562 66.148438 L 216.285156 65.839844 C 216.070312 65.238281 215.992188 64.59375 216.058594 63.957031 C 216.128906 63.320312 216.335938 62.703125 216.671875 62.160156 C 216.945312 61.132812 217.410156 60.167969 218.046875 59.320312 C 218.226562 59.320312 218.558594 58.933594 218.714844 59.320312 C 218.8125 60.230469 218.660156 61.15625 218.273438 61.988281 C 219.113281 63.125 219 64.726562 219.070312 66.191406 C 221.636719 66.03125 224.148438 65.988281 226.65625 66.023438 L 226.429688 65.523438 C 226.140625 60.886719 224.984375 56.347656 223.023438 52.136719 C 222.488281 52.136719 222.089844 52.605469 221.476562 52.445312 C 221.375 52.40625 221.289062 52.335938 221.234375 52.242188 C 221.175781 52.148438 221.148438 52.042969 221.160156 51.933594 C 220.277344 50.828125 219.332031 49.773438 218.332031 48.773438 C 216.988281 48.898438 216.398438 47.378906 215.21875 47.21875 C 214.160156 46.785156 214.886719 45.070312 213.355469 45.546875 C 212.960938 45.417969 212.605469 45.1875 212.320312 44.886719 C 212.039062 44.582031 211.835938 44.210938 211.730469 43.808594 C 211.796875 43.125 211.703125 42.433594 211.445312 41.796875 C 211.191406 41.15625 210.785156 40.589844 210.265625 40.140625 C 209.320312 39.800781 208.945312 41.039062 207.992188 40.832031 C 207.480469 40.574219 207.707031 39.902344 207.546875 39.46875 C 207.390625 39.039062 206.933594 38.800781 207.015625 38.277344 C 208.230469 36.675781 205.539062 36.710938 206.128906 35.128906 C 205.96875 33.996094 204.808594 33.539062 204.21875 32.640625 C 200.265625 30.804688 196.046875 29.59375 191.722656 29.050781 C 190.585938 28.894531 189.574219 29.132812 188.621094 28.621094 L 188.871094 29.097656 C 188.78125 31.507812 188.949219 34.0625 188.710938 36.3125 Z M 188.710938 36.3125 " fill-opacity="1" fill-rule="nonzero"/><path fill="#043d77" d="M 185.222656 99.332031 C 179.15625 98.988281 173.339844 96.804688 168.542969 93.074219 C 168.703125 93.6875 169.519531 94.097656 169.292969 94.855469 C 168.851562 95.574219 167.953125 95.585938 167.238281 95.574219 C 165.75 95.324219 164.671875 96.449219 163.285156 96.59375 C 162.011719 96.980469 161.570312 95.460938 160.410156 95.574219 C 167.589844 101.832031 175.804688 105.796875 185.40625 106.285156 L 186.132812 106.773438 L 185.8125 105.898438 L 185.8125 99.082031 Z M 185.222656 99.332031 " fill-opacity="1" fill-rule="nonzero"/><path fill="#043d77" d="M 148.890625 69.507812 L 149.445312 74.257812 C 149.675781 76.097656 150.480469 77.859375 150.425781 79.667969 C 150.707031 79.28125 150.539062 78.53125 151.230469 78.429688 C 150.945312 77.859375 151.777344 77.359375 151.308594 76.871094 C 151.355469 75.589844 151.882812 74.371094 152.789062 73.464844 C 154.105469 73.464844 154.195312 71.667969 155.523438 71.601562 C 156.195312 71.601562 156.605469 72.476562 156.898438 72.734375 C 156.566406 72.179688 156.34375 71.558594 156.25 70.917969 C 156.15625 70.273438 156.191406 69.617188 156.355469 68.988281 L 155.785156 69.25 C 153.382812 69.34375 150.972656 69.292969 148.574219 69.101562 Z M 148.890625 69.507812 " fill-opacity="1" fill-rule="nonzero"/><path fill="#043d77" d="M 158.976562 40.832031 L 158.976562 41.324219 L 156.183594 44.878906 C 151.640625 51.148438 149.433594 58.421875 148.789062 66.328125 L 155.875 66.191406 L 156.546875 66.453125 C 156.261719 66.273438 156.332031 65.964844 156.238281 65.703125 C 156.65625 58.472656 159.566406 51.609375 164.476562 46.285156 C 162.507812 44.613281 160.667969 42.789062 158.976562 40.832031 Z M 158.976562 40.832031 " fill-opacity="1" fill-rule="nonzero"/><path fill="#043d77" d="M 198.210938 85.8125 C 199.140625 86.300781 200.265625 86.335938 201.253906 86.746094 C 202.128906 86.972656 202.730469 88.0625 203.820312 87.722656 C 204.765625 87.210938 206.308594 88.039062 206.933594 87.050781 C 206.832031 86.097656 207.664062 85.394531 208.070312 84.574219 L 208.367188 84.496094 C 208.890625 85.039062 208.867188 85.847656 209.09375 86.4375 C 209.820312 85.664062 210.390625 84.800781 211.035156 84.007812 C 212.792969 81.621094 214.074219 78.921875 214.808594 76.054688 C 214.117188 76.082031 213.433594 76.203125 212.773438 76.40625 C 212.023438 76.40625 211.117188 76.804688 210.503906 76.28125 C 210.273438 76.089844 210.105469 76.394531 210.152344 76.597656 C 209.878906 76.984375 209.617188 77.472656 209.015625 77.292969 C 208.414062 77.109375 208.546875 76.597656 208.390625 76.234375 C 208.394531 76.507812 208.351562 76.777344 208.265625 77.03125 C 207.8125 77.558594 207.429688 78.144531 207.128906 78.769531 C 206.582031 79.359375 205.695312 79.15625 205.128906 79.644531 C 205.027344 80.882812 203.652344 80.621094 202.855469 81.019531 C 202.855469 81.167969 202.980469 81.199219 203.0625 81.324219 C 203.253906 81.40625 203.46875 81.425781 203.671875 81.378906 C 203.875 81.332031 204.058594 81.222656 204.195312 81.0625 C 205.332031 81.359375 205.050781 79.929688 205.683594 79.519531 C 206.21875 79.4375 206.742188 78.972656 207.300781 79.335938 C 207.828125 80.097656 208.054688 81.03125 207.921875 81.949219 C 207.300781 82.5625 207.617188 83.574219 207.171875 84.300781 C 207.277344 85.152344 206.230469 85.539062 206.367188 86.394531 C 206.175781 86.5625 205.949219 86.691406 205.703125 86.765625 C 205.460938 86.84375 205.203125 86.867188 204.945312 86.835938 C 202.871094 86.050781 200.695312 85.554688 198.480469 85.359375 C 198.394531 85.394531 198.316406 85.457031 198.269531 85.539062 C 198.21875 85.621094 198.199219 85.71875 198.210938 85.8125 Z M 198.210938 85.8125 " fill-opacity="1" fill-rule="nonzero"/><path fill="#043d77" d="M 160.410156 73.089844 C 160.476562 72.621094 159.785156 72.496094 159.863281 72.03125 C 160.351562 71.078125 159.863281 69.53125 161.160156 69.113281 C 160.753906 69.257812 160.320312 69.3125 159.890625 69.273438 C 159.460938 69.234375 159.042969 69.101562 158.671875 68.882812 L 159.058594 69.507812 C 159.058594 71.214844 159.785156 72.839844 159.421875 74.578125 C 159.761719 74.078125 159.761719 73.40625 160.410156 73.089844 Z M 160.410156 73.089844 " fill-opacity="1" fill-rule="nonzero"/><path fill="#043d77" d="M 198.140625 76.335938 C 198.136719 76.78125 198.285156 77.214844 198.5625 77.566406 C 199.558594 77.417969 199.140625 78.816406 200.058594 78.699219 C 200.582031 78.542969 200.058594 78.097656 200.230469 77.769531 C 200.09375 76.984375 199.332031 76.90625 198.8125 76.441406 C 198.753906 76.292969 198.8125 76.15625 198.9375 76.03125 C 198.5625 75.816406 198.390625 76.054688 198.140625 76.335938 Z M 198.140625 76.335938 " fill-opacity="1" fill-rule="nonzero"/><path fill="#043d77" d="M 209.046875 100.082031 L 209.410156 99.59375 C 211.03125 98.4375 212.550781 97.148438 213.957031 95.742188 L 214.148438 95.742188 C 213.832031 95.640625 213.433594 95.949219 213.082031 95.742188 C 212.34375 95.402344 212.230469 94.753906 212.230469 94.003906 L 209.046875 90.722656 L 208.878906 90.234375 C 208.609375 90.796875 208.222656 91.300781 207.742188 91.699219 C 207.742188 92.117188 207.617188 92.742188 208.117188 93.015625 C 209.136719 93.359375 210.480469 94.039062 210.71875 95.289062 C 210.296875 96.425781 208.128906 97.457031 209.46875 98.695312 C 209.921875 99.332031 208.878906 99.5625 209.046875 100.082031 Z M 209.046875 100.082031 " fill-opacity="1" fill-rule="nonzero"/><path fill="#043d77" d="M 172.761719 73.464844 C 172.511719 73.328125 172.476562 73.359375 172.269531 73.589844 C 172.144531 73.628906 172.011719 73.628906 171.886719 73.589844 C 171.886719 72.121094 170.238281 72.996094 169.613281 72.226562 C 170.339844 73.566406 170.75 75.089844 171.464844 76.429688 C 171.941406 77.566406 172.964844 78.554688 173.441406 79.722656 C 174.097656 78.789062 174.84375 77.921875 175.667969 77.132812 C 175.695312 76.957031 175.6875 76.777344 175.644531 76.601562 C 175.601562 76.429688 175.523438 76.265625 175.417969 76.121094 C 175.191406 75.578125 175.417969 74.804688 174.988281 74.339844 C 174.328125 74.578125 175.226562 75.246094 174.988281 75.644531 C 174.925781 75.675781 174.859375 75.695312 174.792969 75.695312 C 174.722656 75.695312 174.65625 75.675781 174.597656 75.644531 C 174.535156 75.609375 174.484375 75.5625 174.449219 75.507812 C 174.410156 75.449219 174.390625 75.382812 174.382812 75.316406 C 174.09375 75.25 173.824219 75.113281 173.601562 74.914062 C 173.382812 74.714844 173.21875 74.460938 173.125 74.179688 C 173.507812 73.851562 172.894531 73.714844 172.761719 73.464844 Z M 172.761719 73.464844 " fill-opacity="1" fill-rule="nonzero"/><path fill="#043d77" d="M 216.976562 38.980469 C 217.535156 39.105469 217.691406 39.753906 218.113281 40.117188 C 219.988281 41.117188 220.476562 43.140625 222.136719 44.277344 C 223.066406 46.230469 225.214844 47.683594 225.292969 49.957031 C 227.675781 54.988281 229.007812 60.449219 229.214844 66.011719 L 229.019531 66.316406 C 229.242188 66.308594 229.453125 66.222656 229.621094 66.078125 L 237.085938 65.953125 C 236.597656 65.226562 236.792969 64.167969 236.667969 63.296875 C 235.679688 51.785156 230.769531 41.9375 223.03125 33.253906 C 221.4375 35.207031 219.71875 37.054688 217.886719 38.789062 Z M 216.976562 38.980469 " fill-opacity="1" fill-rule="nonzero"/><path fill="#043d77" d="M 190.574219 58.125 C 191.164062 58.464844 191.496094 57.851562 192.007812 57.714844 C 192.6875 57.894531 193.292969 58.292969 193.722656 58.851562 C 194.1875 59.058594 194.628906 58.785156 195.039062 58.625 C 195.335938 56.476562 198.015625 56.796875 198.8125 54.773438 L 198.324219 54.96875 C 198.117188 54.671875 197.605469 54.796875 197.628906 54.34375 C 198.0625 53.828125 198.589844 53.40625 199.1875 53.09375 C 196.921875 51.578125 194.433594 50.425781 191.8125 49.683594 C 190.769531 49.535156 189.730469 49.328125 188.710938 49.058594 C 189.199219 50.535156 188.710938 52.695312 189.074219 54.410156 L 190.925781 55.023438 C 191.484375 54.125 192.664062 53.886719 193.199219 53.09375 C 193.539062 52.808594 193.925781 53.09375 194.1875 53.398438 C 194.234375 54.132812 194.117188 54.863281 193.847656 55.546875 C 193.152344 56.945312 191.496094 57.113281 190.574219 58.125 Z M 190.574219 58.125 " fill-opacity="1" fill-rule="nonzero"/><path fill="#043d77" d="M 218.113281 75.496094 C 217.140625 79.011719 215.605469 82.34375 213.570312 85.371094 C 212.71875 86.507812 211.878906 87.960938 210.785156 88.527344 L 213.160156 90.597656 C 213.285156 90.472656 213.160156 90.253906 213.25 90.085938 C 213.34375 89.914062 213.398438 89.402344 213.785156 89.460938 C 214.921875 89.460938 214.921875 90.597656 215.59375 91.265625 C 215.457031 92.253906 216.320312 93.027344 216.023438 93.9375 C 222.324219 87.230469 226.011719 78.488281 226.40625 69.292969 L 226.75 68.882812 C 224.476562 69.113281 221.976562 68.953125 219.578125 68.988281 L 219 68.804688 C 219.019531 70.363281 218.902344 71.925781 218.648438 73.464844 L 219.488281 74.382812 C 219.59375 74.566406 219.628906 74.773438 219.601562 74.980469 C 219.570312 75.1875 219.46875 75.375 219.320312 75.519531 C 219.144531 75.652344 218.929688 75.71875 218.710938 75.714844 C 218.496094 75.710938 218.285156 75.636719 218.113281 75.496094 Z M 218.113281 75.496094 " fill-opacity="1" fill-rule="nonzero"/><path fill="#043d77" d="M 211.671875 68.636719 L 212.46875 69.417969 C 213.261719 69.976562 212.730469 71.125 213.605469 71.601562 C 214.480469 72.078125 214.96875 73.28125 215.421875 74.15625 C 215.53125 73.917969 215.605469 73.664062 215.648438 73.40625 C 216 71.988281 215.945312 70.386719 216.386719 68.988281 C 214.808594 69.214844 213.199219 69.09375 211.671875 68.636719 Z M 211.671875 68.636719 " fill-opacity="1" fill-rule="nonzero"/><path fill="#043d77" d="M 196.960938 40.699219 C 194.246094 39.84375 191.457031 39.253906 188.632812 38.9375 L 188.894531 39.503906 L 188.894531 46.503906 L 189.574219 46.378906 C 193.785156 46.835938 197.78125 48.460938 201.117188 51.070312 L 201.300781 51.617188 C 202.4375 49.992188 204.21875 48.59375 205.582031 47.070312 L 206.878906 46.308594 L 206.253906 46.058594 C 203.503906 43.726562 200.355469 41.910156 196.960938 40.699219 Z M 196.960938 40.699219 " fill-opacity="1" fill-rule="nonzero"/><path fill="#043d77" d="M 211.886719 52.625 C 210.902344 51.003906 209.761719 49.484375 208.480469 48.082031 L 208.355469 48.402344 C 205.96875 50.867188 203.355469 53.433594 201.09375 55.96875 C 201.242188 56.285156 201.484375 56.546875 201.789062 56.71875 C 201.890625 56.09375 202.230469 55.582031 202.289062 54.910156 C 202.890625 54.058594 203.832031 54.59375 204.628906 54.773438 C 205.867188 54.488281 207.039062 55.058594 208.296875 55.035156 C 209.242188 55.5 209.320312 56.695312 210.160156 57.160156 C 210.398438 57.488281 210.21875 57.875 209.902344 58.136719 C 210.160156 60.078125 211.035156 57.625 212.082031 58.136719 C 212.492188 58.296875 213.003906 58.238281 213.308594 58.683594 C 213.46875 59.488281 214.445312 59.339844 214.445312 60.101562 C 214.367188 60.488281 213.957031 60.589844 213.683594 60.808594 C 213.933594 61.578125 212.898438 62.066406 213.25 62.898438 C 214.75 63.179688 214.808594 61.441406 215.523438 60.625 C 215.238281 59.261719 214.75 57.949219 214.082031 56.726562 C 213.242188 56.546875 212.71875 55.59375 211.808594 55.355469 C 210.195312 54.636719 212.105469 53.605469 211.886719 52.625 Z M 211.886719 52.625 " fill-opacity="1" fill-rule="nonzero"/><path fill="#043d77" d="M 195.230469 81.597656 C 195.84375 80.960938 197.152344 80.984375 197.207031 80.0625 C 196.300781 79.917969 195.84375 80.417969 195.230469 80.90625 C 195.140625 81.097656 194.867188 81.460938 195.230469 81.597656 Z M 195.230469 81.597656 " fill-opacity="1" fill-rule="nonzero"/><path fill="#043d77" d="M 185.894531 109.386719 L 186.15625 109 L 185.359375 109.207031 C 175.480469 108.742188 166.109375 104.707031 158.988281 97.84375 L 158.910156 98.152344 L 153.59375 103.503906 C 161.292969 110.441406 170.882812 114.933594 181.144531 116.410156 C 182.867188 116.507812 184.582031 116.714844 186.28125 117.023438 L 185.894531 116.410156 Z M 185.894531 109.386719 " fill-opacity="1" fill-rule="nonzero"/><path fill="#043d77" d="M 190.496094 86.4375 C 191.175781 86.5625 190.699219 87.289062 191.1875 87.574219 C 192.242188 87.234375 193.0625 88.472656 193.902344 87.699219 C 193.902344 86.484375 195.230469 86.5625 195.96875 86.277344 C 197.105469 85.574219 198.457031 84.652344 198.332031 83.097656 L 198.140625 82.871094 C 197.332031 82.871094 196.925781 83.484375 196.34375 84.007812 C 195.765625 84.53125 195.210938 83.234375 194.652344 83.519531 C 194.652344 83.644531 194.8125 83.699219 194.914062 83.757812 C 195.003906 83.863281 195.050781 83.996094 195.050781 84.132812 C 195.050781 84.269531 195.003906 84.402344 194.914062 84.507812 C 194.039062 85.300781 193.628906 84.109375 192.789062 84.1875 L 192.789062 84.507812 C 192.789062 84.6875 192.789062 84.960938 192.492188 84.859375 C 191.960938 84.007812 190.902344 84.324219 190.378906 83.574219 C 190.0625 83.394531 189.746094 83.574219 189.515625 83.835938 C 189.324219 84.222656 188.507812 83.835938 188.710938 84.460938 C 188.0625 84.6875 187.996094 85.371094 187.574219 85.800781 C 186.769531 85.652344 186.4375 86.5625 185.65625 86.550781 C 185.734375 86.699219 185.65625 86.960938 185.882812 86.984375 C 186.355469 87.183594 186.875 87.246094 187.382812 87.164062 C 188.164062 85.871094 189.402344 86.902344 190.496094 86.4375 Z M 190.496094 86.4375 " fill-opacity="1" fill-rule="nonzero"/><path fill="#043d77" d="M 157.308594 95.96875 C 156.410156 95.238281 155.601562 94.402344 154.898438 93.480469 C 154.445312 93.363281 154.019531 93.15625 153.648438 92.871094 C 153.273438 92.585938 152.960938 92.230469 152.730469 91.824219 C 152.46875 91.527344 152.730469 91.015625 152.421875 90.8125 L 152.105469 91.199219 C 151.195312 91.628906 150.878906 90.699219 150.253906 90.324219 C 149.445312 89.878906 149.84375 88.359375 148.742188 88.628906 C 148.34375 88.628906 148.207031 88.140625 147.945312 87.890625 C 146.945312 87.984375 146.683594 86.882812 146.140625 86.335938 C 146.039062 86.574219 146.140625 86.882812 145.832031 87.027344 C 144.800781 87.265625 144.433594 86.007812 143.730469 85.472656 C 143.550781 85.550781 143.425781 85.777344 143.164062 85.722656 C 142.847656 85.449219 142.589844 85.113281 142.410156 84.738281 C 142.226562 84.363281 142.117188 83.957031 142.09375 83.539062 C 141.242188 82.574219 141.640625 81.0625 141.789062 79.894531 C 141.949219 79.585938 142.402344 79.417969 142.3125 79.019531 C 142.550781 78.472656 143.117188 78.429688 143.664062 78.40625 C 143.875 78.519531 144.050781 78.6875 144.175781 78.894531 C 144.515625 78.679688 145.308594 78.894531 144.980469 78.167969 C 145.476562 77.8125 146.054688 77.597656 146.664062 77.542969 C 146.984375 78.113281 147.367188 78.652344 147.796875 79.144531 L 147.445312 78.585938 C 146.777344 76.011719 146.359375 73.378906 146.195312 70.726562 C 146.195312 70.566406 145.867188 70.488281 146.058594 70.339844 L 146.058594 70.417969 C 146.046875 69.933594 146.074219 69.445312 146.140625 68.964844 L 145.445312 69.226562 L 138.253906 69.226562 C 138.625 77.179688 140.789062 84.945312 144.582031 91.949219 C 146.421875 95.355469 149.128906 98.425781 151.398438 101.605469 L 156.546875 96.277344 Z M 157.308594 95.96875 " fill-opacity="1" fill-rule="nonzero"/><path fill="#043d77" d="M 180.769531 89.664062 C 181.308594 89.097656 181.972656 88.671875 182.710938 88.414062 C 180.4375 88.878906 178.394531 87.277344 176.429688 86.3125 C 175.292969 85.496094 173.871094 84.8125 173.203125 83.574219 C 171.65625 85.492188 169.933594 87.253906 168.054688 88.847656 C 168.851562 88.847656 169.292969 89.777344 169.976562 90.175781 C 173.847656 93.402344 178.679688 94.960938 183.167969 96.074219 L 181.9375 95.492188 C 181.007812 94.4375 179.667969 93.222656 179.667969 91.722656 C 180.5625 91.390625 180.460938 90.367188 180.769531 89.664062 Z M 180.769531 89.664062 " fill-opacity="1" fill-rule="nonzero"/><path fill="#043d77" d="M 188.835938 106.59375 C 190.746094 105.945312 192.972656 106.046875 195.039062 105.707031 C 194.601562 105.609375 194.203125 105.375 193.902344 105.035156 C 192.6875 104.957031 192.121094 103.695312 191.734375 102.765625 C 191.550781 102.082031 192.027344 101.503906 192.3125 100.914062 C 191.789062 99.84375 190.1875 100.617188 189.257812 100.242188 C 188.996094 100.027344 188.8125 99.71875 188.460938 99.664062 L 188.835938 100.242188 C 188.964844 102.355469 188.964844 104.476562 188.835938 106.59375 Z M 188.835938 106.59375 " fill-opacity="1" fill-rule="nonzero"/><path fill="#043d77" d="M 216.191406 97.300781 C 215.453125 98.707031 213.921875 99.570312 212.648438 100.707031 C 210.96875 102.390625 208.230469 102.742188 207.367188 105.183594 C 206.46875 106.003906 206.160156 107.296875 204.898438 107.761719 C 204.421875 109 203.105469 108.898438 202.355469 109.820312 C 200.183594 111.761719 198.789062 108.59375 196.824219 108.207031 L 192.867188 108.898438 C 191.492188 108.898438 190.128906 109.386719 188.835938 108.898438 C 189.027344 111.605469 189.027344 114.320312 188.835938 117.023438 L 189.324219 116.703125 C 201.425781 116.214844 212.945312 111.375 221.761719 103.070312 L 216.320312 97.878906 Z M 216.191406 97.300781 " fill-opacity="1" fill-rule="nonzero"/><path fill="#043d77" d="M 229.339844 68.988281 L 228.90625 68.667969 L 229.15625 69.375 C 228.789062 77.675781 225.929688 85.675781 220.953125 92.335938 C 220.097656 93.574219 219.078125 94.695312 217.921875 95.664062 C 219.988281 97.402344 221.914062 99.300781 223.679688 101.34375 L 223.886719 100.957031 C 231.765625 92.277344 236.332031 81.097656 236.78125 69.382812 L 237.097656 68.769531 L 236.710938 68.953125 Z M 229.339844 68.988281 " fill-opacity="1" fill-rule="nonzero"/><path fill="#043d77" d="M 146.265625 66.410156 L 146.128906 65.398438 C 146.558594 57.425781 149.25 49.742188 153.886719 43.242188 C 155.023438 41.925781 155.898438 40.277344 157.351562 39.289062 C 155.671875 37.710938 153.945312 35.878906 152.148438 34.140625 L 151.96875 33.4375 C 144.699219 41.230469 140.054688 51.101562 138.6875 61.671875 C 138.402344 63.226562 138.59375 64.828125 138.289062 66.410156 C 140.941406 66.191406 143.609375 66.191406 146.265625 66.410156 Z M 146.265625 66.410156 " fill-opacity="1" fill-rule="nonzero"/><path fill="#043d77" d="M 166.375 48.277344 C 162.832031 52.351562 160.433594 57.296875 159.421875 62.601562 C 159.136719 63.839844 159.296875 65.285156 158.796875 66.453125 C 159.847656 66.136719 160.960938 66.089844 162.035156 66.316406 C 161.457031 66.011719 161.933594 65.261719 161.59375 64.851562 C 161.511719 64.214844 161.410156 63.410156 162.035156 62.988281 C 161.96875 61.933594 163.089844 61.386719 163.171875 60.433594 C 163.457031 59.296875 164.695312 60.070312 165.285156 59.5 C 165.671875 59.296875 165.285156 58.933594 165.285156 58.648438 C 165.796875 57.945312 166.601562 57.976562 167.214844 57.59375 C 167.644531 56.863281 168.242188 56.242188 168.953125 55.785156 C 170.5 55.785156 170.535156 53.660156 172 53.605469 C 170.011719 51.949219 168.132812 50.171875 166.375 48.277344 Z M 166.375 48.277344 " fill-opacity="1" fill-rule="nonzero"/><path fill="#043d77" d="M 175.417969 81.519531 C 178.09375 83.753906 181.316406 85.238281 184.757812 85.8125 C 184.925781 85.121094 184.65625 84.246094 185.019531 83.644531 C 185.382812 83.042969 185.960938 83.097656 186.484375 83.199219 C 186.558594 83.1875 186.628906 83.160156 186.6875 83.113281 C 186.746094 83.070312 186.792969 83.011719 186.824219 82.945312 C 186.855469 82.875 186.867188 82.800781 186.863281 82.726562 C 186.855469 82.652344 186.832031 82.582031 186.789062 82.519531 C 186.050781 82.382812 186.382812 81.550781 186.121094 81.085938 C 186.121094 80.824219 186.585938 80.882812 186.484375 80.542969 C 185.960938 80.121094 186.734375 79.667969 186.300781 79.222656 C 186.425781 79.144531 186.527344 78.984375 186.652344 78.894531 C 185.085938 79.554688 183.425781 78.597656 182.042969 77.984375 C 181.359375 77.585938 180.382812 77.210938 180.234375 76.371094 C 179.074219 78.191406 176.960938 79.835938 175.417969 81.519531 Z M 175.417969 81.519531 " fill-opacity="1" fill-rule="nonzero"/><path fill="#043d77" d="M 163.089844 69.101562 L 162.886719 70.476562 C 162.582031 71.28125 161.570312 70.679688 161.101562 71.226562 C 160.636719 71.769531 161.101562 72.28125 161.410156 72.691406 C 160.695312 74.351562 163.046875 74.871094 163.011719 76.359375 C 163.738281 77.304688 162.910156 78.632812 163.957031 79.472656 C 164.183594 81.15625 163.714844 83.425781 165.195312 84.746094 L 165.445312 86.359375 C 165.738281 87.496094 164.113281 87.175781 164.308594 88.164062 C 164.625 88.015625 164.695312 88.425781 164.714844 88.527344 C 166.769531 86.105469 168.984375 83.828125 171.351562 81.710938 L 170.375 80.722656 C 168.5 78.042969 167.152344 75.03125 166.398438 71.851562 L 165.648438 71.476562 C 165.488281 72.226562 165.367188 72.984375 165.285156 73.746094 L 165.023438 74.054688 C 164.488281 74.054688 164.148438 73.589844 163.683594 73.304688 C 163.570312 73.019531 163.285156 72.554688 163.683594 72.328125 C 163.902344 72.3125 164.125 72.371094 164.308594 72.496094 C 164.535156 72.226562 164.433594 71.816406 164.570312 71.453125 C 164.636719 70.828125 164.089844 70.316406 164.476562 69.714844 C 164.964844 69.714844 165.328125 70.257812 165.535156 70.589844 C 166.035156 70.75 166.421875 70.339844 166.828125 70.15625 C 166.828125 69.714844 167.441406 69.125 166.828125 68.863281 C 167.097656 67.863281 167.097656 66.816406 166.828125 65.816406 C 166.558594 64.964844 165.601562 65.113281 164.898438 65.191406 C 162.808594 65.863281 165.238281 67.464844 164.726562 68.726562 C 164.410156 69.507812 163.636719 68.804688 163.089844 69.101562 Z M 163.089844 69.101562 " fill-opacity="1" fill-rule="nonzero"/><path fill="#043d77" d="M 177.722656 74.214844 C 177.53125 74.867188 177.164062 75.457031 176.65625 75.917969 L 176.804688 75.917969 C 177.417969 75.472656 177.871094 74.679688 178.65625 74.632812 Z M 177.722656 74.214844 " fill-opacity="1" fill-rule="nonzero"/><path fill="#043d77" d="M 185.894531 49.34375 C 181.714844 49.707031 177.804688 51.546875 174.859375 54.535156 L 175.417969 54.535156 C 176.054688 55.160156 177.054688 55.023438 177.519531 55.863281 C 177.757812 56.320312 177.078125 56.273438 177.109375 56.660156 C 177.246094 56.761719 177.417969 56.785156 177.519531 56.96875 C 178.007812 57.136719 177.90625 56.683594 178.097656 56.476562 C 178.734375 55.84375 178.847656 57.101562 179.460938 57.101562 C 179.5625 57.023438 179.675781 56.964844 179.800781 56.929688 C 179.921875 56.894531 180.054688 56.882812 180.179688 56.898438 C 180.308594 56.914062 180.429688 56.957031 180.542969 57.019531 C 180.652344 57.085938 180.75 57.171875 180.824219 57.273438 C 181.246094 56.910156 182.132812 57.273438 182.257812 56.582031 C 183.0625 55.726562 182.621094 54.410156 183.800781 53.867188 C 184.222656 54.105469 183.800781 54.488281 183.9375 54.851562 C 184.734375 55.183594 185.644531 54.171875 186.277344 54.988281 C 185.828125 53.144531 185.699219 51.234375 185.894531 49.34375 Z M 185.894531 49.34375 " fill-opacity="1" fill-rule="nonzero"/><path fill="#043d77" d="M 159.296875 37.34375 L 159.421875 36.980469 C 166.628906 30.230469 176.027344 26.308594 185.894531 25.925781 L 185.667969 25.3125 L 185.574219 19.097656 L 185.792969 18.382812 C 175.730469 18.792969 166.027344 22.210938 157.933594 28.199219 C 156.355469 29.335938 154.957031 30.9375 153.390625 31.882812 L 153.617188 31.882812 C 155.675781 33.523438 157.574219 35.355469 159.296875 37.34375 Z M 159.296875 37.34375 " fill-opacity="1" fill-rule="nonzero"/><path fill="#043d77" d="M 185.78125 28.871094 C 178.558594 29.242188 171.574219 31.574219 165.578125 35.617188 C 163.964844 36.753906 162.5 38.175781 160.839844 39.164062 C 162.761719 40.367188 164.339844 42.390625 166.066406 43.992188 L 166.25 44.480469 C 170.570312 40.445312 175.949219 37.71875 181.757812 36.628906 C 183.113281 36.3125 184.507812 36.203125 185.894531 36.3125 C 185.679688 33.835938 185.640625 31.351562 185.78125 28.871094 Z M 185.78125 28.871094 " fill-opacity="1" fill-rule="nonzero"/><path fill="#043d77" d="M 185.484375 39.105469 C 179.109375 39.640625 173.070312 42.1875 168.238281 46.378906 C 170.203125 47.742188 171.953125 49.933594 173.746094 51.511719 C 173.886719 51.332031 174.015625 51.140625 174.132812 50.945312 C 176.484375 49.105469 179.160156 47.722656 182.019531 46.867188 C 183.304688 46.742188 184.574219 46.128906 185.917969 46.421875 C 185.644531 43.890625 185.644531 41.332031 185.917969 38.800781 Z M 185.484375 39.105469 " fill-opacity="1" fill-rule="nonzero"/><path fill="#043d77" d="M 167.53125 91.753906 L 167.429688 91.574219 L 167.53125 91.890625 Z M 167.53125 91.753906 " fill-opacity="1" fill-rule="nonzero"/><path fill="#043d77" d="M 193.664062 18.679688 C 191.976562 18.578125 190.292969 18.375 188.632812 18.066406 C 188.890625 20.429688 188.917969 22.816406 188.710938 25.1875 C 188.71875 24.96875 188.804688 24.753906 188.949219 24.585938 C 189.3125 24.371094 189.609375 24.6875 189.757812 24.9375 C 189.902344 25.1875 189.949219 25.925781 189.644531 26.074219 C 189.949219 26.074219 190.109375 25.894531 190.382812 25.894531 C 196.125 26.3125 201.703125 28.007812 206.707031 30.859375 L 206.707031 30.734375 C 207.707031 30.234375 208.980469 29.597656 210.035156 30.472656 C 211.273438 30.007812 211.511719 31.527344 212.511719 31.710938 C 213.195312 32.0625 213.792969 32.554688 214.265625 33.15625 C 214.742188 33.757812 215.078125 34.453125 215.261719 35.199219 C 215.476562 35.664062 216.21875 35.992188 216.320312 36.492188 C 217.148438 34.734375 218.796875 33.484375 220.226562 31.949219 L 221.101562 31.585938 C 213.582031 24.445312 203.960938 19.921875 193.664062 18.679688 Z M 198.640625 23.960938 C 198.214844 24.414062 197.667969 24.738281 197.0625 24.894531 C 196.460938 25.046875 195.824219 25.027344 195.234375 24.835938 C 193.527344 25.175781 191.140625 26.15625 189.777344 24.40625 C 189.710938 24.269531 189.5625 24.085938 189.710938 23.960938 C 189.9375 23.554688 190.527344 23.699219 190.847656 23.824219 L 194.574219 22.234375 C 196.0625 22.359375 197.71875 22.542969 198.605469 23.78125 Z M 213.261719 31.140625 C 211.867188 31.507812 211.742188 29.9375 210.660156 29.539062 C 210.507812 29.324219 210.441406 29.054688 210.480469 28.789062 C 210.96875 28.199219 211.433594 29.1875 211.96875 28.664062 C 212.21875 28.714844 212.457031 28.824219 212.652344 28.988281 C 212.851562 29.148438 213.007812 29.359375 213.105469 29.597656 C 213 30.175781 213.683594 30.675781 213.261719 31.140625 Z M 213.261719 31.140625 " fill-opacity="1" fill-rule="nonzero"/></svg>