<svg xmlns="http://www.w3.org/2000/svg" xmlns:xlink="http://www.w3.org/1999/xlink" width="500" zoomAndPan="magnify" viewBox="0 0 375 374.999991" height="500" preserveAspectRatio="xMidYMid meet" version="1.0"><defs><clipPath id="ec9244be5d"><path d="M 354 165 L 372.574219 165 L 372.574219 184 L 354 184 Z M 354 165 " clip-rule="nonzero"/></clipPath><clipPath id="a2b8dd008f"><path d="M 361 197 L 372.574219 197 L 372.574219 209 L 361 209 Z M 361 197 " clip-rule="nonzero"/></clipPath><clipPath id="452b32da40"><path d="M 2.074219 202 L 104 202 L 104 229.300781 L 2.074219 229.300781 Z M 2.074219 202 " clip-rule="nonzero"/></clipPath><clipPath id="316fbb84a7"><path d="M 24 158.050781 L 81 158.050781 L 81 209 L 24 209 Z M 24 158.050781 " clip-rule="nonzero"/></clipPath></defs><path fill="#005172" d="M 141.644531 165.03125 L 135.070312 183.109375 L 132.484375 183.109375 L 127.785156 170.339844 C 126.273438 174.644531 124.527344 178.972656 123.109375 183.164062 L 120.523438 183.164062 L 113.964844 165.03125 L 117.472656 165.03125 L 121.824219 176.953125 L 126.195312 165.03125 L 129.417969 165.03125 L 133.769531 176.953125 L 138.136719 165.03125 Z M 141.644531 165.03125 " fill-opacity="1" fill-rule="nonzero"/><path fill="#005172" d="M 193.804688 169.992188 L 190.488281 169.992188 L 190.488281 168.570312 C 190.488281 168.441406 190.425781 168.382812 190.296875 168.394531 L 179.257812 168.394531 C 179.140625 168.394531 179.082031 168.453125 179.082031 168.570312 L 179.082031 179.683594 C 179.082031 179.800781 179.140625 179.859375 179.257812 179.859375 L 190.296875 179.859375 C 190.425781 179.871094 190.488281 179.816406 190.488281 179.683594 L 190.488281 176.261719 L 186.40625 176.261719 L 186.40625 172.953125 L 193.804688 172.953125 L 193.804688 179.683594 C 193.800781 180.148438 193.710938 180.59375 193.53125 181.023438 C 193.351562 181.449219 193.097656 181.828125 192.769531 182.152344 C 192.441406 182.480469 192.0625 182.730469 191.632812 182.90625 C 191.207031 183.082031 190.761719 183.167969 190.296875 183.164062 L 179.257812 183.164062 C 178.796875 183.164062 178.351562 183.078125 177.929688 182.902344 C 177.503906 182.722656 177.128906 182.472656 176.800781 182.144531 C 176.476562 181.820312 176.226562 181.445312 176.050781 181.015625 C 175.875 180.589844 175.785156 180.148438 175.785156 179.683594 L 175.785156 168.570312 C 175.777344 168.101562 175.859375 167.652344 176.035156 167.21875 C 176.207031 166.785156 176.457031 166.402344 176.78125 166.070312 C 177.109375 165.738281 177.484375 165.480469 177.914062 165.300781 C 178.34375 165.121094 178.789062 165.03125 179.257812 165.03125 L 190.296875 165.03125 C 190.761719 165.027344 191.207031 165.113281 191.632812 165.289062 C 192.0625 165.464844 192.441406 165.714844 192.769531 166.042969 C 193.097656 166.367188 193.351562 166.746094 193.53125 167.171875 C 193.710938 167.601562 193.800781 168.046875 193.804688 168.511719 Z M 193.804688 169.992188 " fill-opacity="1" fill-rule="nonzero"/><path fill="#005172" d="M 220.949219 168.394531 L 207.703125 168.394531 L 207.703125 172.472656 L 218.457031 172.472656 L 218.457031 175.78125 L 207.78125 175.78125 L 207.78125 179.859375 L 221.023438 179.859375 L 221.023438 183.164062 L 204.445312 183.164062 L 204.445312 165.03125 L 221.023438 165.03125 Z M 220.949219 168.394531 " fill-opacity="1" fill-rule="nonzero"/><path fill="#005172" d="M 245.621094 165.03125 L 248.953125 165.03125 L 248.953125 183.109375 L 245.292969 183.109375 L 234.175781 169.859375 L 234.175781 183.109375 L 230.917969 183.109375 L 230.917969 165.03125 L 234.519531 165.03125 L 245.621094 178.300781 Z M 245.621094 165.03125 " fill-opacity="1" fill-rule="nonzero"/><path fill="#005172" d="M 258.710938 165.03125 L 262.007812 165.03125 L 262.007812 183.109375 L 258.710938 183.109375 Z M 258.710938 165.03125 " fill-opacity="1" fill-rule="nonzero"/><path fill="#005172" d="M 286.871094 165.03125 L 290.1875 165.03125 L 290.1875 183.109375 L 286.582031 183.109375 L 275.464844 169.859375 L 275.464844 183.109375 L 272.128906 183.109375 L 272.128906 165.03125 L 275.734375 165.03125 L 286.832031 178.300781 Z M 286.871094 165.03125 " fill-opacity="1" fill-rule="nonzero"/><path fill="#005172" d="M 318.136719 169.992188 L 314.800781 169.992188 L 314.800781 168.570312 C 314.800781 168.453125 314.742188 168.394531 314.628906 168.394531 L 303.585938 168.394531 C 303.472656 168.394531 303.414062 168.453125 303.414062 168.570312 L 303.414062 179.683594 C 303.414062 179.800781 303.472656 179.859375 303.585938 179.859375 L 314.628906 179.859375 C 314.742188 179.859375 314.800781 179.800781 314.800781 179.683594 L 314.800781 176.261719 L 310.71875 176.261719 L 310.71875 172.953125 L 318.136719 172.953125 L 318.136719 179.683594 C 318.132812 180.148438 318.042969 180.59375 317.863281 181.023438 C 317.683594 181.449219 317.429688 181.828125 317.101562 182.152344 C 316.773438 182.480469 316.394531 182.730469 315.964844 182.90625 C 315.535156 183.082031 315.089844 183.167969 314.628906 183.164062 L 303.585938 183.164062 C 303.125 183.167969 302.679688 183.082031 302.253906 182.90625 C 301.824219 182.730469 301.449219 182.480469 301.121094 182.152344 C 300.792969 181.828125 300.539062 181.449219 300.363281 181.019531 C 300.1875 180.59375 300.097656 180.148438 300.097656 179.683594 L 300.097656 168.570312 C 300.089844 168.109375 300.171875 167.664062 300.339844 167.234375 C 300.507812 166.804688 300.753906 166.421875 301.074219 166.089844 C 301.394531 165.757812 301.765625 165.5 302.1875 165.316406 C 302.609375 165.132812 303.050781 165.039062 303.511719 165.03125 L 314.550781 165.03125 C 315.027344 165.019531 315.484375 165.097656 315.925781 165.273438 C 316.367188 165.445312 316.757812 165.699219 317.09375 166.035156 C 317.433594 166.367188 317.691406 166.753906 317.871094 167.195312 C 318.054688 167.636719 318.140625 168.09375 318.136719 168.570312 Z M 318.136719 169.992188 " fill-opacity="1" fill-rule="nonzero"/><path fill="#005172" d="M 344.972656 168.394531 L 331.554688 168.394531 L 331.554688 172.472656 L 342.210938 172.472656 L 342.210938 175.78125 L 331.554688 175.78125 L 331.554688 179.859375 L 344.972656 179.859375 L 344.972656 183.164062 L 328.296875 183.164062 L 328.296875 165.03125 L 344.972656 165.03125 Z M 344.972656 168.394531 " fill-opacity="1" fill-rule="nonzero"/><g clip-path="url(#ec9244be5d)"><path fill="#005172" d="M 369.222656 165.03125 L 372.558594 165.03125 L 372.558594 183.109375 L 368.953125 183.109375 L 357.835938 169.859375 L 357.835938 183.109375 L 354.558594 183.109375 L 354.558594 165.03125 L 358.160156 165.03125 L 369.261719 178.300781 Z M 369.222656 165.03125 " fill-opacity="1" fill-rule="nonzero"/></g><path fill="#005172" d="M 163.480469 168.570312 C 162.867188 166.433594 161.925781 165.03125 160.011719 165.03125 L 154.566406 165.03125 C 152.648438 165.03125 151.804688 166.378906 151.097656 168.511719 L 145.863281 183.109375 L 149.277344 183.109375 L 151.480469 177.03125 L 163.152344 177.03125 L 165.359375 183.109375 L 168.714844 183.109375 Z M 152.589844 173.78125 L 154.394531 168.570312 C 154.394531 168.453125 154.394531 168.394531 154.566406 168.394531 L 160.046875 168.394531 C 160.046875 168.394531 160.164062 168.394531 160.222656 168.570312 L 162.023438 173.78125 Z M 152.589844 173.78125 " fill-opacity="1" fill-rule="nonzero"/><path fill="#008a00" d="M 124.296875 197.433594 L 125.890625 197.433594 L 125.890625 206.203125 C 125.890625 206.460938 125.839844 206.703125 125.742188 206.941406 C 125.644531 207.175781 125.507812 207.382812 125.328125 207.5625 C 125.148438 207.746094 124.941406 207.882812 124.707031 207.980469 C 124.472656 208.078125 124.226562 208.128906 123.972656 208.128906 L 117.148438 208.128906 C 116.894531 208.128906 116.648438 208.078125 116.414062 207.980469 C 116.179688 207.882812 115.972656 207.746094 115.792969 207.5625 C 115.613281 207.382812 115.472656 207.175781 115.378906 206.941406 C 115.28125 206.703125 115.230469 206.460938 115.230469 206.203125 L 115.230469 197.433594 L 116.859375 197.433594 L 116.859375 206.203125 C 116.867188 206.292969 116.898438 206.367188 116.960938 206.429688 C 117.023438 206.492188 117.097656 206.527344 117.1875 206.53125 L 124.011719 206.53125 C 124.097656 206.527344 124.171875 206.492188 124.234375 206.429688 C 124.296875 206.367188 124.332031 206.292969 124.335938 206.203125 Z M 124.296875 197.433594 " fill-opacity="1" fill-rule="nonzero"/><path fill="#008a00" d="M 138.90625 197.433594 L 140.515625 197.433594 L 140.515625 208.128906 L 138.597656 208.128906 L 131.449219 199.648438 L 131.449219 208.203125 L 129.839844 208.203125 L 129.839844 197.433594 L 131.753906 197.433594 L 138.90625 205.992188 Z M 138.90625 197.433594 " fill-opacity="1" fill-rule="nonzero"/><path fill="#008a00" d="M 144.503906 197.433594 L 146.113281 197.433594 L 146.113281 208.128906 L 144.503906 208.128906 Z M 144.503906 197.433594 " fill-opacity="1" fill-rule="nonzero"/><path fill="#008a00" d="M 159.972656 197.433594 L 161.890625 197.433594 L 155.753906 208.128906 L 154.144531 208.128906 L 147.914062 197.433594 L 149.832031 197.433594 L 154.949219 206.320312 Z M 159.972656 197.433594 " fill-opacity="1" fill-rule="nonzero"/><path fill="#008a00" d="M 173.0625 199.03125 L 164.878906 199.03125 L 164.878906 201.972656 L 171.472656 201.972656 L 171.472656 203.589844 L 164.878906 203.589844 L 164.878906 206.53125 L 173.0625 206.53125 L 173.0625 208.128906 L 163.289062 208.128906 L 163.289062 197.433594 L 173.0625 197.433594 Z M 173.0625 199.03125 " fill-opacity="1" fill-rule="nonzero"/><path fill="#008a00" d="M 187.574219 202.378906 C 187.574219 202.632812 187.527344 202.878906 187.429688 203.113281 C 187.332031 203.347656 187.195312 203.558594 187.015625 203.738281 C 186.835938 203.917969 186.625 204.054688 186.390625 204.152344 C 186.15625 204.25 185.914062 204.300781 185.660156 204.300781 L 184.566406 204.300781 L 187.574219 207.898438 L 187.574219 208.109375 L 185.660156 208.109375 L 182.457031 204.261719 L 178.488281 204.261719 L 178.488281 208.109375 L 176.898438 208.109375 L 176.898438 197.433594 L 185.640625 197.433594 C 185.894531 197.433594 186.136719 197.484375 186.371094 197.582031 C 186.609375 197.679688 186.816406 197.816406 186.996094 198 C 187.175781 198.179688 187.3125 198.386719 187.410156 198.621094 C 187.507812 198.859375 187.554688 199.101562 187.554688 199.359375 Z M 178.507812 199.050781 L 178.507812 202.703125 L 185.660156 202.703125 C 185.75 202.703125 185.824219 202.671875 185.890625 202.609375 C 185.953125 202.542969 185.984375 202.46875 185.984375 202.378906 L 185.984375 199.378906 C 185.980469 199.289062 185.945312 199.214844 185.882812 199.152344 C 185.820312 199.089844 185.746094 199.054688 185.660156 199.050781 Z M 178.507812 199.050781 " fill-opacity="1" fill-rule="nonzero"/><path fill="#008a00" d="M 274.507812 202.378906 C 274.507812 202.632812 274.457031 202.878906 274.359375 203.113281 C 274.265625 203.347656 274.125 203.558594 273.945312 203.738281 C 273.765625 203.917969 273.558594 204.054688 273.324219 204.152344 C 273.089844 204.25 272.84375 204.300781 272.589844 204.300781 L 271.515625 204.300781 L 274.507812 207.898438 L 274.507812 208.109375 L 272.589844 208.109375 L 269.40625 204.261719 L 265.421875 204.261719 L 265.421875 208.109375 L 263.828125 208.109375 L 263.828125 197.433594 L 272.570312 197.433594 C 272.824219 197.433594 273.070312 197.484375 273.304688 197.582031 C 273.539062 197.679688 273.746094 197.816406 273.925781 198 C 274.105469 198.179688 274.246094 198.386719 274.34375 198.621094 C 274.4375 198.859375 274.488281 199.101562 274.488281 199.359375 Z M 265.441406 199.050781 L 265.441406 202.703125 L 272.589844 202.703125 C 272.679688 202.703125 272.757812 202.671875 272.820312 202.609375 C 272.882812 202.542969 272.917969 202.46875 272.917969 202.378906 L 272.917969 199.378906 C 272.910156 199.289062 272.878906 199.214844 272.816406 199.152344 C 272.753906 199.089844 272.679688 199.054688 272.589844 199.050781 Z M 265.441406 199.050781 " fill-opacity="1" fill-rule="nonzero"/><path fill="#008a00" d="M 344.261719 202.378906 C 344.261719 202.632812 344.214844 202.878906 344.117188 203.113281 C 344.019531 203.347656 343.882812 203.558594 343.703125 203.738281 C 343.523438 203.917969 343.316406 204.054688 343.078125 204.152344 C 342.84375 204.25 342.601562 204.300781 342.347656 204.300781 L 341.273438 204.300781 L 344.28125 207.898438 L 344.28125 208.109375 L 342.367188 208.109375 L 339.164062 204.261719 L 335.195312 204.261719 L 335.195312 208.109375 L 333.585938 208.109375 L 333.585938 197.433594 L 342.328125 197.433594 C 342.582031 197.433594 342.824219 197.484375 343.0625 197.582031 C 343.296875 197.679688 343.503906 197.816406 343.683594 198 C 343.863281 198.179688 344 198.386719 344.097656 198.621094 C 344.195312 198.859375 344.246094 199.101562 344.246094 199.359375 Z M 335.195312 199.050781 L 335.195312 202.703125 L 342.328125 202.703125 C 342.417969 202.703125 342.492188 202.671875 342.558594 202.609375 C 342.621094 202.542969 342.652344 202.46875 342.652344 202.378906 L 342.652344 199.378906 C 342.648438 199.289062 342.613281 199.214844 342.550781 199.152344 C 342.492188 199.089844 342.414062 199.054688 342.328125 199.050781 Z M 335.195312 199.050781 " fill-opacity="1" fill-rule="nonzero"/><path fill="#008a00" d="M 202.066406 199.992188 L 200.457031 199.992188 L 200.457031 199.359375 C 200.457031 199.269531 200.425781 199.191406 200.363281 199.128906 C 200.296875 199.0625 200.222656 199.03125 200.132812 199.03125 L 193.324219 199.03125 C 193.238281 199.035156 193.164062 199.070312 193.101562 199.132812 C 193.039062 199.195312 193.003906 199.269531 193 199.359375 L 193 201.570312 C 193 201.660156 193.03125 201.738281 193.09375 201.800781 C 193.160156 201.863281 193.234375 201.898438 193.324219 201.898438 L 200.132812 201.898438 C 200.386719 201.898438 200.628906 201.945312 200.863281 202.042969 C 201.097656 202.140625 201.308594 202.28125 201.488281 202.460938 C 201.667969 202.640625 201.804688 202.847656 201.902344 203.082031 C 202 203.320312 202.046875 203.566406 202.046875 203.820312 L 202.046875 206.109375 C 202.046875 206.363281 202 206.609375 201.902344 206.84375 C 201.804688 207.078125 201.667969 207.289062 201.488281 207.46875 C 201.308594 207.648438 201.097656 207.789062 200.863281 207.886719 C 200.628906 207.984375 200.386719 208.03125 200.132812 208.03125 L 193.324219 208.03125 C 193.070312 208.03125 192.828125 207.984375 192.59375 207.886719 C 192.359375 207.789062 192.148438 207.648438 191.96875 207.46875 C 191.789062 207.289062 191.652344 207.078125 191.554688 206.84375 C 191.457031 206.609375 191.410156 206.363281 191.410156 206.109375 L 191.410156 205.472656 L 193.019531 205.472656 L 193.019531 206.109375 C 193.023438 206.195312 193.058594 206.273438 193.121094 206.335938 C 193.183594 206.398438 193.257812 206.429688 193.34375 206.433594 L 200.148438 206.433594 C 200.238281 206.433594 200.316406 206.402344 200.378906 206.339844 C 200.445312 206.277344 200.476562 206.199219 200.476562 206.109375 L 200.476562 203.914062 C 200.476562 203.824219 200.445312 203.75 200.378906 203.683594 C 200.316406 203.621094 200.238281 203.589844 200.148438 203.589844 L 193.34375 203.589844 C 193.089844 203.589844 192.847656 203.539062 192.613281 203.441406 C 192.375 203.34375 192.167969 203.207031 191.988281 203.027344 C 191.808594 202.84375 191.671875 202.636719 191.574219 202.402344 C 191.476562 202.167969 191.429688 201.921875 191.429688 201.664062 L 191.429688 199.359375 C 191.429688 199.101562 191.476562 198.859375 191.574219 198.621094 C 191.671875 198.386719 191.808594 198.179688 191.988281 198 C 192.167969 197.816406 192.375 197.679688 192.613281 197.582031 C 192.847656 197.484375 193.089844 197.433594 193.34375 197.433594 L 200.148438 197.433594 C 200.40625 197.433594 200.648438 197.484375 200.882812 197.582031 C 201.117188 197.679688 201.324219 197.816406 201.503906 198 C 201.683594 198.179688 201.824219 198.386719 201.921875 198.621094 C 202.019531 198.859375 202.066406 199.101562 202.066406 199.359375 Z M 202.066406 199.992188 " fill-opacity="1" fill-rule="nonzero"/><path fill="#008a00" d="M 205.976562 197.433594 L 207.585938 197.433594 L 207.585938 208.128906 L 205.976562 208.128906 Z M 205.976562 197.433594 " fill-opacity="1" fill-rule="nonzero"/><path fill="#008a00" d="M 220.871094 197.433594 L 220.871094 199.03125 L 216.347656 199.03125 L 216.347656 208.128906 L 214.757812 208.128906 L 214.757812 199.03125 L 210.214844 199.03125 L 210.214844 197.433594 Z M 220.871094 197.433594 " fill-opacity="1" fill-rule="nonzero"/><path fill="#008a00" d="M 233.429688 197.433594 L 228.519531 204.128906 L 228.519531 208.128906 L 226.910156 208.128906 L 226.910156 204.128906 L 222.003906 197.433594 L 223.917969 197.433594 L 227.753906 202.300781 L 231.585938 197.433594 Z M 233.429688 197.433594 " fill-opacity="1" fill-rule="nonzero"/><path fill="#008a00" d="M 288.214844 199.03125 L 280.027344 199.03125 L 280.027344 201.972656 L 286.621094 201.972656 L 286.621094 203.589844 L 280.027344 203.589844 L 280.027344 206.53125 L 288.214844 206.53125 L 288.214844 208.128906 L 278.4375 208.128906 L 278.4375 197.433594 L 288.214844 197.433594 Z M 288.214844 199.03125 " fill-opacity="1" fill-rule="nonzero"/><path fill="#008a00" d="M 302.128906 199.992188 L 300.539062 199.992188 L 300.539062 199.359375 C 300.535156 199.269531 300.5 199.195312 300.4375 199.132812 C 300.375 199.070312 300.300781 199.035156 300.210938 199.03125 L 293.386719 199.03125 C 293.300781 199.035156 293.226562 199.070312 293.164062 199.132812 C 293.101562 199.195312 293.066406 199.269531 293.0625 199.359375 L 293.0625 201.570312 C 293.0625 201.660156 293.09375 201.738281 293.15625 201.800781 C 293.222656 201.863281 293.296875 201.898438 293.386719 201.898438 L 300.210938 201.898438 C 300.46875 201.898438 300.710938 201.945312 300.945312 202.042969 C 301.179688 202.140625 301.386719 202.28125 301.566406 202.460938 C 301.746094 202.640625 301.886719 202.847656 301.984375 203.082031 C 302.082031 203.320312 302.128906 203.566406 302.128906 203.820312 L 302.128906 206.109375 C 302.128906 206.363281 302.082031 206.609375 301.984375 206.84375 C 301.886719 207.078125 301.746094 207.289062 301.566406 207.46875 C 301.386719 207.648438 301.179688 207.789062 300.945312 207.886719 C 300.710938 207.984375 300.46875 208.03125 300.210938 208.03125 L 293.386719 208.03125 C 293.132812 208.03125 292.890625 207.984375 292.65625 207.886719 C 292.421875 207.789062 292.214844 207.648438 292.03125 207.46875 C 291.851562 207.289062 291.714844 207.078125 291.617188 206.84375 C 291.519531 206.609375 291.472656 206.363281 291.472656 206.109375 L 291.472656 205.472656 L 293.0625 205.472656 L 293.0625 206.109375 C 293.066406 206.195312 293.101562 206.273438 293.164062 206.335938 C 293.226562 206.398438 293.300781 206.429688 293.386719 206.433594 L 300.210938 206.433594 C 300.300781 206.429688 300.375 206.398438 300.4375 206.335938 C 300.5 206.273438 300.535156 206.195312 300.539062 206.109375 L 300.539062 203.914062 C 300.535156 203.828125 300.5 203.753906 300.4375 203.691406 C 300.375 203.628906 300.300781 203.59375 300.210938 203.589844 L 293.386719 203.589844 C 293.132812 203.589844 292.890625 203.539062 292.65625 203.441406 C 292.421875 203.34375 292.214844 203.207031 292.03125 203.027344 C 291.851562 202.84375 291.714844 202.636719 291.617188 202.402344 C 291.519531 202.167969 291.472656 201.921875 291.472656 201.664062 L 291.472656 199.359375 C 291.472656 199.101562 291.519531 198.859375 291.617188 198.621094 C 291.714844 198.386719 291.851562 198.179688 292.03125 198 C 292.210938 197.816406 292.421875 197.679688 292.65625 197.582031 C 292.890625 197.484375 293.132812 197.433594 293.386719 197.433594 L 300.210938 197.433594 C 300.46875 197.433594 300.710938 197.484375 300.945312 197.582031 C 301.179688 197.679688 301.386719 197.816406 301.566406 198 C 301.746094 198.179688 301.886719 198.386719 301.984375 198.621094 C 302.082031 198.859375 302.128906 199.101562 302.128906 199.359375 Z M 302.128906 199.992188 " fill-opacity="1" fill-rule="nonzero"/><path fill="#008a00" d="M 315.855469 199.03125 L 307.667969 199.03125 L 307.667969 201.972656 L 314.300781 201.972656 L 314.300781 203.589844 L 307.726562 203.589844 L 307.726562 206.53125 L 315.914062 206.53125 L 315.914062 208.128906 L 306.136719 208.128906 L 306.136719 197.433594 L 315.914062 197.433594 Z M 315.855469 199.03125 " fill-opacity="1" fill-rule="nonzero"/><path fill="#008a00" d="M 326.089844 197.433594 C 327.164062 197.433594 327.777344 198.242188 328.179688 199.359375 L 331.285156 208.128906 L 329.636719 208.128906 L 328.238281 204.378906 L 320.839844 204.378906 L 319.476562 208.128906 L 317.867188 208.128906 L 321.089844 199.359375 C 321.507812 198.164062 321.949219 197.433594 323.003906 197.433594 Z M 327.738281 202.78125 L 326.417969 199.359375 C 326.417969 199.164062 326.261719 199.03125 326.089844 199.03125 L 322.984375 199.03125 C 322.792969 199.03125 322.753906 199.03125 322.660156 199.359375 L 321.375 202.78125 Z M 327.738281 202.78125 " fill-opacity="1" fill-rule="nonzero"/><path fill="#008a00" d="M 349.804688 199.03125 C 349.71875 199.035156 349.644531 199.070312 349.585938 199.132812 C 349.527344 199.195312 349.496094 199.273438 349.496094 199.359375 L 349.496094 206.203125 C 349.496094 206.292969 349.527344 206.367188 349.585938 206.429688 C 349.644531 206.492188 349.71875 206.527344 349.804688 206.53125 L 358.523438 206.53125 L 358.523438 208.128906 L 349.804688 208.128906 C 349.550781 208.128906 349.304688 208.078125 349.070312 207.980469 C 348.835938 207.882812 348.628906 207.746094 348.449219 207.5625 C 348.269531 207.382812 348.128906 207.175781 348.03125 206.941406 C 347.933594 206.703125 347.886719 206.460938 347.886719 206.203125 L 347.886719 199.359375 C 347.886719 199.101562 347.933594 198.859375 348.03125 198.621094 C 348.128906 198.386719 348.269531 198.179688 348.449219 198 C 348.628906 197.816406 348.835938 197.679688 349.070312 197.582031 C 349.304688 197.484375 349.550781 197.433594 349.804688 197.433594 L 358.523438 197.433594 L 358.523438 199.03125 Z M 349.804688 199.03125 " fill-opacity="1" fill-rule="nonzero"/><g clip-path="url(#a2b8dd008f)"><path fill="#008a00" d="M 372.574219 197.433594 L 372.574219 208.128906 L 370.984375 208.128906 L 370.984375 203.589844 L 363.316406 203.589844 L 363.316406 208.128906 L 361.707031 208.128906 L 361.707031 197.433594 L 363.316406 197.433594 L 363.316406 201.972656 L 370.984375 201.972656 L 370.984375 197.433594 Z M 372.574219 197.433594 " fill-opacity="1" fill-rule="nonzero"/></g><path fill="#008a00" d="M 254.109375 206.550781 L 252.195312 205.378906 L 252.195312 202.300781 L 250.585938 202.300781 L 250.585938 204.359375 L 244.71875 200.664062 C 244.601562 200.605469 244.546875 200.507812 244.546875 200.378906 L 244.546875 199.398438 C 244.550781 199.308594 244.585938 199.234375 244.644531 199.171875 C 244.707031 199.109375 244.785156 199.074219 244.871094 199.070312 L 248.820312 199.070312 C 248.910156 199.074219 248.984375 199.109375 249.046875 199.171875 C 249.109375 199.234375 249.140625 199.308594 249.144531 199.398438 L 249.144531 200.109375 L 250.738281 200.109375 L 250.738281 199.070312 C 250.699219 198.84375 250.625 198.628906 250.511719 198.429688 C 250.398438 198.226562 250.253906 198.054688 250.078125 197.90625 C 249.902344 197.757812 249.707031 197.644531 249.488281 197.566406 C 249.273438 197.488281 249.050781 197.453125 248.820312 197.453125 L 244.871094 197.453125 C 244.617188 197.453125 244.371094 197.503906 244.136719 197.601562 C 243.902344 197.699219 243.695312 197.835938 243.515625 198.019531 C 243.335938 198.199219 243.199219 198.40625 243.101562 198.640625 C 243.003906 198.878906 242.953125 199.121094 242.953125 199.378906 L 242.953125 200.570312 C 242.953125 201.128906 243.261719 201.320312 243.777344 201.628906 L 243.492188 201.628906 C 242.417969 201.628906 241.574219 201.933594 241.574219 203.011719 L 241.574219 206.203125 C 241.574219 206.460938 241.625 206.703125 241.71875 206.941406 C 241.816406 207.175781 241.957031 207.382812 242.136719 207.5625 C 242.316406 207.746094 242.523438 207.882812 242.757812 207.980469 C 242.992188 208.078125 243.238281 208.128906 243.492188 208.128906 L 250.296875 208.128906 C 250.703125 208.132812 251.074219 208.015625 251.410156 207.785156 C 251.742188 207.550781 251.980469 207.242188 252.117188 206.859375 L 254.035156 208.128906 Z M 250.621094 206.203125 C 250.628906 206.296875 250.597656 206.375 250.53125 206.441406 C 250.46875 206.507812 250.390625 206.539062 250.296875 206.53125 L 243.492188 206.53125 C 243.402344 206.53125 243.324219 206.5 243.261719 206.4375 C 243.199219 206.371094 243.164062 206.292969 243.164062 206.203125 L 243.164062 203.011719 C 243.15625 202.96875 243.15625 202.921875 243.164062 202.878906 C 243.253906 202.734375 243.382812 202.667969 243.550781 202.683594 L 245.464844 202.683594 L 250.585938 205.933594 Z M 250.621094 206.203125 " fill-opacity="1" fill-rule="nonzero"/><g clip-path="url(#452b32da40)"><path fill="#005172" d="M 103.632812 208.28125 C 104.667969 207.320312 101.332031 206.183594 101.332031 206.183594 C 101.332031 206.183594 97.769531 204.550781 83.582031 203.378906 L 83.582031 208.28125 L 61.652344 208.28125 L 61.652344 202.664062 C 57.28125 202.550781 48.636719 202.664062 42.617188 202.664062 L 42.617188 208.28125 L 20.765625 208.28125 L 20.765625 203.378906 C 15.46875 203.707031 10.210938 204.351562 4.988281 205.300781 L 3.820312 206.261719 C 2.632812 207.050781 3.820312 207.359375 4.644531 207.742188 C 4.953125 207.898438 4.96875 207.992188 4.855469 208.320312 C 4.742188 208.648438 4.050781 208.722656 4.183594 209.164062 C 4.472656 210.089844 5.8125 209.164062 5.71875 210.414062 C 5.621094 211.664062 2.441406 211.03125 2.113281 212.339844 C 1.867188 213.378906 3.285156 212.339844 3.265625 214.433594 C 3.246094 216.53125 4.722656 218.472656 8.84375 219.492188 C 9.820312 219.742188 14.421875 219.667969 12.0625 221.03125 C 11.550781 221.148438 11.035156 221.203125 10.511719 221.203125 C 10.050781 221.203125 9.015625 221.203125 8.726562 221.609375 C 8.441406 222.011719 9.226562 222.242188 9.09375 222.839844 C 8.554688 222.839844 7.40625 222.839844 7.902344 223.800781 C 8.316406 224.300781 8.847656 224.53125 9.496094 224.492188 C 10.511719 224.34375 11.515625 224.410156 12.503906 224.683594 C 11.066406 224.953125 9.78125 226.453125 15.167969 226.300781 C 15.285156 227.128906 16.742188 227.050781 17.238281 226.933594 C 50.824219 219.472656 65.351562 222.648438 65.449219 220.589844 C 64.96875 219.570312 60.234375 219.667969 59.449219 219.628906 C 56.382812 219.492188 49.863281 219.820312 50.230469 219.03125 C 50.402344 217.109375 84.445312 217.628906 80.457031 218.78125 C 80.265625 218.78125 77.890625 219.242188 77.582031 219.398438 C 75.667969 220.378906 82.796875 220.589844 83.542969 220.648438 C 84.292969 220.703125 86.496094 220.648438 86.113281 221.570312 C 86 221.859375 83.46875 221.570312 83.582031 221.953125 C 83.699219 222.339844 85.097656 222.109375 85.230469 222.339844 C 86.265625 223.953125 72.714844 223.167969 65.71875 223.300781 C 63.667969 223.300781 59.640625 223.589844 57.550781 223.859375 C 54.003906 224.339844 57.035156 225.167969 62.535156 225.683594 C 65.488281 225.953125 80.667969 227.183594 93.550781 228.878906 C 97.386719 229.589844 98.574219 227.667969 97.710938 227.148438 C 97.210938 226.859375 99.339844 225.78125 96.964844 224.761719 C 95.46875 224.128906 96.695312 223.859375 96.789062 223.898438 C 96.886719 223.933594 100.085938 224.683594 98.9375 223.667969 C 98.210938 222.992188 99.4375 223.378906 99.664062 223.359375 C 102.523438 223.148438 101.851562 222.070312 102.042969 222.242188 C 101.179688 221.398438 103.480469 220.800781 102.964844 218.933594 C 102.789062 218.378906 99.511719 218.492188 101.679688 218.050781 C 101.910156 218.050781 104.917969 218.050781 102.140625 216.433594 C 101.441406 216.113281 100.714844 215.910156 99.953125 215.820312 C 97.902344 215.359375 99.4375 214.320312 100.472656 214.492188 C 101.507812 214.667969 102.980469 213.859375 102.769531 212.570312 C 102.503906 210.972656 101.945312 208.609375 103.632812 208.28125 Z M 103.632812 208.28125 " fill-opacity="1" fill-rule="nonzero"/></g><g clip-path="url(#316fbb84a7)"><path fill="#008a00" d="M 24.003906 158.320312 L 24.003906 208.28125 L 42.617188 208.28125 L 42.617188 177.144531 L 61.632812 177.144531 L 61.632812 208.28125 L 80.246094 208.28125 L 80.246094 158.320312 Z M 24.003906 158.320312 " fill-opacity="1" fill-rule="nonzero"/></g></svg>